<svg width="38" height="39" viewBox="0 0 38 39" fill="none" xmlns="http://www.w3.org/2000/svg">
<path fill-rule="evenodd" clip-rule="evenodd" d="M25.1734 34.0421C19.0022 29.5371 3.87035 10.3629 7.16262 5.85297L9.83203 2.19629L15.7589 6.52292C20.8914 10.2697 28.608 23.5636 33.5062 28.9144L30.8368 32.5711C29.4131 34.5213 27.2509 35.5587 25.1734 34.0421Z" fill="url(#paint0_linear_1_12458)"/>
<path fill-rule="evenodd" clip-rule="evenodd" d="M31.742 11.105C28.1532 17.8505 11.3073 35.5377 6.37777 32.915L2.38086 30.7886L5.82745 24.3103C8.81213 18.7002 20.8835 9.18414 25.4892 3.5796L29.4861 5.70606C31.6178 6.84016 32.9501 8.83431 31.742 11.105Z" fill="url(#paint1_linear_1_12458)"/>
<defs>
<linearGradient id="paint0_linear_1_12458" x1="40.8311" y1="29.7939" x2="-4.0623" y2="8.23181" gradientUnits="userSpaceOnUse">
<stop stop-color="#A49C4C"/>
<stop offset="0.38056" stop-color="#CAA962"/>
<stop offset="0.803179" stop-color="#BF953F"/>
<stop offset="1" stop-color="#988001"/>
</linearGradient>
<linearGradient id="paint1_linear_1_12458" x1="25.3259" y1="-3.7961" x2="10.3174" y2="43.6917" gradientUnits="userSpaceOnUse">
<stop stop-color="#A49C4C"/>
<stop offset="0.38056" stop-color="#CAA962"/>
<stop offset="0.803179" stop-color="#BF953F"/>
<stop offset="1" stop-color="#988001"/>
</linearGradient>
</defs>
</svg>
