<svg xmlns="http://www.w3.org/2000/svg" width="34" height="33" viewBox="0 0 34 33" fill="none">
  <path fill-rule="evenodd" clip-rule="evenodd" d="M0.883316 18.7681C0.236295 17.0193 0.450732 15.3133 2.25715 14.6449C8.04831 12.5023 31.569 10.6081 32.9022 14.2117L33.2944 15.2716C35.902 22.3197 2.51067 23.1666 0.883316 18.7681ZM31.5908 30.4216C26.6498 32.2497 3.39161 33.384 2.27403 30.3634C1.21526 27.5017 2.95717 26.4957 4.58397 24.6889C10.0374 23.7557 31.1356 21.1913 32.6257 25.2189L33.0178 26.2787C33.6452 27.9745 33.3973 29.7532 31.5908 30.4216ZM29.2547 8.27121C23.8886 10.2566 5.65938 11.7595 4.20849 7.83793L3.03209 4.6583L8.18569 2.75156C12.6486 1.10037 24.1385 1.78965 29.5053 0.948763L30.6817 4.12839C31.3091 5.82419 31.0611 7.60287 29.2547 8.27121Z" fill="url(#paint0_linear_1_12139)"/>
  <defs>
    <linearGradient id="paint0_linear_1_12139" x1="36.5556" y1="0.996999" x2="-10.0597" y2="23.3338" gradientUnits="userSpaceOnUse">
      <stop stop-color="#A49C4C"/>
      <stop offset="0.38056" stop-color="#CAA962"/>
      <stop offset="0.803179" stop-color="#BF953F"/>
      <stop offset="1" stop-color="#988001"/>
    </linearGradient>
  </defs>
</svg>