<svg width="35" height="34" viewBox="0 0 35 34" fill="none" xmlns="http://www.w3.org/2000/svg">
<mask id="mask0_1_11105" style="mask-type:alpha" maskUnits="userSpaceOnUse" x="0" y="0" width="35" height="34">
<rect x="0.5" width="34" height="34" fill="#D9D9D9"/>
</mask>
<g mask="url(#mask0_1_11105)">
<path d="M28.2667 29.75L19.3417 20.825C18.6333 21.3917 17.8187 21.8403 16.8979 22.1708C15.9771 22.5014 14.9972 22.6667 13.9583 22.6667C11.3847 22.6667 9.2066 21.7753 7.42396 19.9927C5.64132 18.2101 4.75 16.0319 4.75 13.4583C4.75 10.8847 5.64132 8.7066 7.42396 6.92396C9.2066 5.14132 11.3847 4.25 13.9583 4.25C16.5319 4.25 18.7101 5.14132 20.4927 6.92396C22.2753 8.7066 23.1667 10.8847 23.1667 13.4583C23.1667 14.4972 23.0014 15.4771 22.6708 16.3979C22.3403 17.3187 21.8917 18.1333 21.325 18.8417L30.25 27.7667L28.2667 29.75ZM13.9583 19.8333C15.7292 19.8333 17.2344 19.2135 18.474 17.974C19.7135 16.7344 20.3333 15.2292 20.3333 13.4583C20.3333 11.6875 19.7135 10.1823 18.474 8.94271C17.2344 7.70312 15.7292 7.08333 13.9583 7.08333C12.1875 7.08333 10.6823 7.70312 9.44271 8.94271C8.20312 10.1823 7.58333 11.6875 7.58333 13.4583C7.58333 15.2292 8.20312 16.7344 9.44271 17.974C10.6823 19.2135 12.1875 19.8333 13.9583 19.8333Z" fill="white"/>
</g>
</svg>
