<svg width="360" height="708" viewBox="0 0 360 708" fill="none" xmlns="http://www.w3.org/2000/svg">
<g filter="url(#filter0_f_0_1)">
<path d="M-50.845 575.136C-40.7043 549.162 43.9535 514.143 26.2935 557.167C8.63351 600.192 36.8854 555.801 82.4519 596.616C128.018 637.43 51.699 668.759 4.81614 650.454C-42.0667 632.15 -60.9858 601.109 -50.845 575.136Z" fill="#2A2600"/>
</g>
<g filter="url(#filter1_f_0_1)">
<path d="M381 99.5569C381 145.672 331.637 250.545 332.237 173.638C332.836 96.7318 325.242 182.114 282.474 146.643C239.706 111.171 284.273 17 321.845 17C359.416 17 381 53.4419 381 99.5569Z" fill="#2A2600"/>
</g>
<path d="M0 708H-0.5V708.5H0L0 708ZM360 708V708.5H360.5V708L360 708ZM0 247.901L0 247.401H-0.5L-0.5 247.901H0ZM360 247.901H360.5V247.401H360V247.901ZM0 460.099H-0.5L-0.5 460.599H0L0 460.099ZM360 460.099V460.599H360.5V460.099H360ZM0 0L0 -0.5H-0.5V0H0ZM360 0H360.5V-0.5H360V0ZM0 673.108H27.6923V672.108H0L0 673.108ZM27.6923 673.108L55.3846 673.108V672.108L27.6923 672.108V673.108ZM55.3846 673.108H83.0769V672.108H55.3846V673.108ZM83.0769 673.108L110.769 673.108V672.108L83.0769 672.108V673.108ZM110.769 673.108H138.462V672.108H110.769V673.108ZM138.462 673.108H166.154V672.108H138.462V673.108ZM166.154 673.108L193.846 673.108V672.108L166.154 672.108V673.108ZM193.846 673.108H221.538V672.108H193.846V673.108ZM221.538 673.108H249.231V672.108H221.538V673.108ZM249.231 673.108L276.923 673.108V672.108L249.231 672.108V673.108ZM276.923 673.108H304.615V672.108H276.923V673.108ZM304.615 673.108L332.308 673.108V672.108L304.615 672.108V673.108ZM332.308 673.108H360V672.108H332.308V673.108ZM0 708.5H27.6923V707.5H0L0 708.5ZM27.6923 708.5H55.3846V707.5H27.6923V708.5ZM55.3846 708.5H83.0769V707.5H55.3846V708.5ZM83.0769 708.5H110.769V707.5H83.0769V708.5ZM110.769 708.5H138.462V707.5H110.769V708.5ZM138.462 708.5H166.154V707.5H138.462V708.5ZM166.154 708.5H193.846V707.5H166.154V708.5ZM193.846 708.5H221.538V707.5H193.846V708.5ZM221.538 708.5H249.231V707.5H221.538V708.5ZM249.231 708.5H276.923V707.5H249.231V708.5ZM276.923 708.5H304.615V707.5H276.923V708.5ZM304.615 708.5H332.308V707.5H304.615V708.5ZM332.308 708.5H360V707.5H332.308V708.5ZM0 637.715H27.6923V636.715H0L0 637.715ZM27.6923 637.715H55.3846V636.715H27.6923V637.715ZM55.3846 637.715L83.0769 637.715V636.715L55.3846 636.715V637.715ZM83.0769 637.715H110.769V636.715H83.0769V637.715ZM110.769 637.715H138.462V636.715H110.769V637.715ZM138.462 637.715H166.154V636.715H138.462V637.715ZM166.154 637.715L193.846 637.715V636.715L166.154 636.715V637.715ZM193.846 637.715H221.538V636.715H193.846V637.715ZM221.538 637.715H249.231V636.715H221.538V637.715ZM249.231 637.715H276.923V636.715H249.231V637.715ZM276.923 637.715L304.615 637.715V636.715L276.923 636.715V637.715ZM304.615 637.715H332.308V636.715H304.615V637.715ZM332.308 637.715H360V636.715H332.308V637.715ZM0 602.323H27.6923V601.323H0L0 602.323ZM27.6923 602.323H55.3846V601.323H27.6923V602.323ZM55.3846 602.323L83.0769 602.323V601.323L55.3846 601.323V602.323ZM83.0769 602.323H110.769V601.323H83.0769V602.323ZM110.769 602.323H138.462V601.323H110.769V602.323ZM138.462 602.323H166.154V601.323H138.462V602.323ZM166.154 602.323L193.846 602.323V601.323L166.154 601.323V602.323ZM193.846 602.323H221.538V601.323H193.846V602.323ZM221.538 602.323H249.231V601.323H221.538V602.323ZM249.231 602.323H276.923V601.323H249.231V602.323ZM276.923 602.323L304.615 602.323V601.323L276.923 601.323V602.323ZM304.615 602.323H332.308V601.323H304.615V602.323ZM332.308 602.323H360V601.323H332.308V602.323ZM0 566.931H27.6923V565.931H0L0 566.931ZM27.6923 566.931H55.3846V565.931H27.6923V566.931ZM55.3846 566.931H83.0769V565.931H55.3846V566.931ZM83.0769 566.931H110.769V565.931H83.0769V566.931ZM110.769 566.931H138.462V565.931H110.769V566.931ZM138.462 566.931H166.154V565.931H138.462V566.931ZM166.154 566.931L193.846 566.931V565.931L166.154 565.931V566.931ZM193.846 566.931H221.538V565.931H193.846V566.931ZM221.538 566.931H249.231V565.931H221.538V566.931ZM249.231 566.931H276.923V565.931H249.231V566.931ZM276.923 566.931H304.615V565.931H276.923V566.931ZM304.615 566.931H332.308V565.931H304.615V566.931ZM332.308 566.931H360V565.931H332.308V566.931ZM0 460.754H27.6923V459.754H0L0 460.754ZM27.6923 460.754H55.3846V459.754H27.6923V460.754ZM55.3846 460.754H83.0769V459.754H55.3846V460.754ZM83.0769 460.754H110.769V459.754H83.0769V460.754ZM110.769 460.754H138.462V459.754H110.769V460.754ZM138.462 460.754H166.154V459.754H138.462V460.754ZM166.154 460.754L193.846 460.754V459.754L166.154 459.754V460.754ZM193.846 460.754H221.538V459.754H193.846V460.754ZM221.538 460.754H249.231V459.754H221.538V460.754ZM249.231 460.754H276.923V459.754H249.231V460.754ZM276.923 460.754H304.615V459.754H276.923V460.754ZM304.615 460.754H332.308V459.754H304.615V460.754ZM332.308 460.754H360V459.754H332.308V460.754ZM0 354.577H27.6923V353.577H0L0 354.577ZM27.6923 354.577H55.3846V353.577H27.6923V354.577ZM55.3846 354.577H83.0769V353.577H55.3846V354.577ZM83.0769 354.577H110.769V353.577H83.0769V354.577ZM110.769 354.577H138.462V353.577H110.769V354.577ZM138.462 354.577H166.154V353.577H138.462V354.577ZM166.154 354.577L193.846 354.578V353.578L166.154 353.577V354.577ZM193.846 354.578H221.538V353.578H193.846V354.578ZM221.538 354.578H249.231V353.578H221.538V354.578ZM249.231 354.578H276.923V353.578H249.231V354.578ZM276.923 354.578H304.615V353.578H276.923V354.578ZM304.615 354.578H332.308V353.578H304.615V354.578ZM332.308 354.578H360V353.578H332.308V354.578ZM0 531.539H27.6923V530.539H0L0 531.539ZM27.6923 531.539H55.3846V530.539H27.6923V531.539ZM55.3846 531.539H83.0769V530.539H55.3846V531.539ZM83.0769 531.539H110.769V530.539H83.0769V531.539ZM110.769 531.539H138.462V530.539H110.769V531.539ZM138.462 531.539H166.154V530.539H138.462V531.539ZM166.154 531.539L193.846 531.539V530.539L166.154 530.539V531.539ZM193.846 531.539H221.538V530.539H193.846V531.539ZM221.538 531.539H249.231V530.539H221.538V531.539ZM249.231 531.539H276.923V530.539H249.231V531.539ZM276.923 531.539H304.615V530.539H276.923V531.539ZM304.615 531.539H332.308V530.539H304.615V531.539ZM332.308 531.539H360V530.539H332.308V531.539ZM0 425.362H27.6923V424.362H0L0 425.362ZM27.6923 425.362H55.3846V424.362H27.6923V425.362ZM55.3846 425.362H83.0769V424.362H55.3846V425.362ZM83.0769 425.362H110.769V424.362H83.0769V425.362ZM110.769 425.362H138.462V424.362H110.769V425.362ZM138.462 425.362H166.154V424.362H138.462V425.362ZM166.154 425.362L193.846 425.362V424.362L166.154 424.362V425.362ZM193.846 425.362H221.538V424.362H193.846V425.362ZM221.538 425.362H249.231V424.362H221.538V425.362ZM249.231 425.362H276.923V424.362H249.231V425.362ZM276.923 425.362H304.615V424.362H276.923V425.362ZM304.615 425.362H332.308V424.362H304.615V425.362ZM332.308 425.362H360V424.362H332.308V425.362ZM0 319.185H27.6923V318.185H0L0 319.185ZM27.6923 319.185H55.3846V318.185H27.6923V319.185ZM55.3846 319.185H83.0769V318.185H55.3846V319.185ZM83.0769 319.185H110.769V318.185H83.0769V319.185ZM110.769 319.185H138.462V318.185H110.769V319.185ZM138.462 319.185H166.154V318.185H138.462V319.185ZM166.154 319.185H193.846V318.185H166.154V319.185ZM193.846 319.185H221.538V318.185H193.846V319.185ZM221.538 319.185H249.231V318.185H221.538V319.185ZM249.231 319.185H276.923V318.185H249.231V319.185ZM276.923 319.185H304.615V318.185H276.923V319.185ZM304.615 319.185H332.308V318.185H304.615V319.185ZM332.308 319.185H360V318.185H332.308V319.185ZM0 496.146H27.6923V495.146H0L0 496.146ZM27.6923 496.146H55.3846V495.146H27.6923V496.146ZM55.3846 496.146H83.0769V495.146H55.3846V496.146ZM83.0769 496.146L110.769 496.147V495.147L83.0769 495.146V496.146ZM110.769 496.147H138.462V495.147H110.769V496.147ZM138.462 496.147H166.154V495.147H138.462V496.147ZM166.154 496.147H193.846V495.147H166.154V496.147ZM193.846 496.147H221.538V495.147H193.846V496.147ZM221.538 496.147H249.231V495.147H221.538V496.147ZM249.231 496.147L276.923 496.147V495.147L249.231 495.147V496.147ZM276.923 496.147H304.615V495.147H276.923V496.147ZM304.615 496.147H332.308V495.147H304.615V496.147ZM332.308 496.147H360V495.147H332.308V496.147ZM0 389.97H27.6923V388.97H0L0 389.97ZM27.6923 389.97H55.3846V388.97H27.6923V389.97ZM55.3846 389.97H83.0769V388.97H55.3846V389.97ZM83.0769 389.97H110.769V388.97H83.0769V389.97ZM110.769 389.97H138.462V388.97H110.769V389.97ZM138.462 389.97H166.154V388.97H138.462V389.97ZM166.154 389.97H193.846V388.97H166.154V389.97ZM193.846 389.97H221.538V388.97H193.846V389.97ZM221.538 389.97H249.231V388.97H221.538V389.97ZM249.231 389.97H276.923V388.97H249.231V389.97ZM276.923 389.97H304.615V388.97H276.923V389.97ZM304.615 389.97H332.308V388.97H304.615V389.97ZM332.308 389.97H360V388.97H332.308V389.97ZM0 283.793H27.6923V282.793H0L0 283.793ZM27.6923 283.793H55.3846V282.793H27.6923V283.793ZM55.3846 283.793H83.0769V282.793H55.3846V283.793ZM83.0769 283.793H110.769V282.793H83.0769V283.793ZM110.769 283.793H138.462V282.793H110.769V283.793ZM138.462 283.793H166.154V282.793H138.462V283.793ZM166.154 283.793H193.846V282.793H166.154V283.793ZM193.846 283.793H221.538V282.793H193.846V283.793ZM221.538 283.793H249.231V282.793H221.538V283.793ZM249.231 283.793H276.923V282.793H249.231V283.793ZM276.923 283.793H304.615V282.793H276.923V283.793ZM304.615 283.793H332.308V282.793H304.615V283.793ZM332.308 283.793H360V282.793H332.308V283.793ZM0 248.401H360V247.401H0L0 248.401ZM332.808 708V672.608H331.808V708H332.808ZM332.808 672.608V637.215H331.808V672.608H332.808ZM332.808 637.215V601.823H331.808V637.215H332.808ZM332.808 601.823V566.431H331.808V601.823H332.808ZM332.808 566.431V531.039H331.808V566.431H332.808ZM332.808 531.039V495.647H331.808V531.039H332.808ZM332.808 495.647L332.808 460.254H331.808L331.808 495.647H332.808ZM332.808 460.254V424.862H331.808V460.254H332.808ZM332.808 424.862V389.47H331.808V424.862H332.808ZM332.808 389.47V354.078H331.808V389.47H332.808ZM332.808 354.078V318.685H331.808V354.078H332.808ZM332.808 318.685V283.293H331.808V318.685H332.808ZM332.808 283.293L332.808 247.901H331.808L331.808 283.293H332.808ZM360.5 708L360.5 672.608H359.5L359.5 708L360.5 708ZM360.5 672.608V637.215H359.5V672.608H360.5ZM360.5 637.215V601.823H359.5V637.215H360.5ZM360.5 601.823V566.431H359.5V601.823H360.5ZM360.5 566.431V531.039H359.5V566.431H360.5ZM360.5 531.039V495.647H359.5V531.039H360.5ZM360.5 495.647V460.254H359.5V495.647H360.5ZM360.5 460.254V424.862H359.5V460.254H360.5ZM360.5 424.862V389.47H359.5V424.862H360.5ZM360.5 389.47V354.078H359.5V389.47H360.5ZM360.5 354.078V318.685H359.5V354.078H360.5ZM360.5 318.685V283.293H359.5V318.685H360.5ZM360.5 283.293L360.5 247.901H359.5L359.5 283.293H360.5ZM305.115 708V672.608H304.115V708H305.115ZM305.115 672.608V637.215H304.115V672.608H305.115ZM305.115 637.215V601.823H304.115V637.215H305.115ZM305.115 601.823V566.431H304.115V601.823H305.115ZM305.115 566.431V531.039H304.115V566.431H305.115ZM305.115 531.039V495.647H304.115V531.039H305.115ZM305.115 495.647L305.115 460.254H304.115L304.115 495.647H305.115ZM305.115 460.254V424.862H304.115V460.254H305.115ZM305.115 424.862V389.47H304.115V424.862H305.115ZM305.115 389.47V354.078H304.115V389.47H305.115ZM305.115 354.078V318.685H304.115V354.078H305.115ZM305.115 318.685V283.293H304.115V318.685H305.115ZM305.115 283.293L305.115 247.901H304.115L304.115 283.293H305.115ZM277.423 708V672.608H276.423V708H277.423ZM277.423 672.608V637.215H276.423V672.608H277.423ZM277.423 637.215V601.823H276.423V637.215H277.423ZM277.423 601.823V566.431H276.423V601.823H277.423ZM277.423 566.431V531.039H276.423V566.431H277.423ZM277.423 531.039V495.647H276.423V531.039H277.423ZM277.423 495.647L277.423 460.254H276.423L276.423 495.647H277.423ZM277.423 460.254V424.862H276.423V460.254H277.423ZM277.423 424.862V389.47H276.423V424.862H277.423ZM277.423 389.47V354.078H276.423V389.47H277.423ZM277.423 354.078V318.685H276.423V354.078H277.423ZM277.423 318.685V283.293H276.423V318.685H277.423ZM277.423 283.293L277.423 247.901H276.423L276.423 283.293H277.423ZM249.731 708V672.608H248.731V708H249.731ZM249.731 672.608V637.215H248.731V672.608H249.731ZM249.731 637.215V601.823H248.731V637.215H249.731ZM249.731 601.823V566.431H248.731V601.823H249.731ZM249.731 566.431V531.039H248.731V566.431H249.731ZM249.731 531.039V495.647H248.731V531.039H249.731ZM249.731 495.647L249.731 460.254H248.731L248.731 495.647H249.731ZM249.731 460.254V424.862H248.731V460.254H249.731ZM249.731 424.862V389.47H248.731V424.862H249.731ZM249.731 389.47V354.078H248.731V389.47H249.731ZM249.731 354.078V318.685H248.731V354.078H249.731ZM249.731 318.685V283.293H248.731V318.685H249.731ZM249.731 283.293V247.901H248.731V283.293H249.731ZM166.654 708V672.608H165.654V708H166.654ZM166.654 672.608V637.215H165.654V672.608H166.654ZM166.654 637.215V601.823H165.654V637.215H166.654ZM166.654 601.823V566.431H165.654V601.823H166.654ZM166.654 566.431V531.039H165.654V566.431H166.654ZM166.654 531.039V495.647H165.654V531.039H166.654ZM166.654 495.647L166.654 460.254H165.654L165.654 495.647H166.654ZM166.654 460.254V424.862H165.654V460.254H166.654ZM166.654 424.862V389.47H165.654V424.862H166.654ZM166.654 389.47V354.077H165.654V389.47H166.654ZM166.654 354.077V318.685H165.654V354.077H166.654ZM166.654 318.685V283.293H165.654V318.685H166.654ZM166.654 283.293V247.901H165.654V283.293H166.654ZM83.5769 708V672.608H82.5769V708H83.5769ZM83.5769 672.608V637.215H82.5769V672.608H83.5769ZM83.5769 637.215L83.5769 601.823H82.5769L82.5769 637.215H83.5769ZM83.5769 601.823L83.5769 566.431H82.5769L82.5769 601.823H83.5769ZM83.5769 566.431V531.039H82.5769V566.431H83.5769ZM83.5769 531.039V495.646H82.5769V531.039H83.5769ZM83.5769 495.646L83.5769 460.254H82.5769L82.5769 495.646H83.5769ZM83.5769 460.254V424.862H82.5769V460.254H83.5769ZM83.5769 424.862V389.47H82.5769V424.862H83.5769ZM83.5769 389.47L83.5769 354.077H82.5769L82.5769 389.47H83.5769ZM83.5769 354.077L83.5769 318.685H82.5769L82.5769 354.077H83.5769ZM83.5769 318.685V283.293H82.5769V318.685H83.5769ZM83.5769 283.293V247.901H82.5769V283.293H83.5769ZM222.038 708V672.608H221.038V708H222.038ZM222.038 672.608V637.215H221.038V672.608H222.038ZM222.038 637.215V601.823H221.038V637.215H222.038ZM222.038 601.823V566.431H221.038V601.823H222.038ZM222.038 566.431V531.039H221.038V566.431H222.038ZM222.038 531.039V495.647H221.038V531.039H222.038ZM222.038 495.647L222.038 460.254H221.038L221.038 495.647H222.038ZM222.038 460.254V424.862H221.038V460.254H222.038ZM222.038 424.862V389.47H221.038V424.862H222.038ZM222.038 389.47V354.078H221.038V389.47H222.038ZM222.038 354.078V318.685H221.038V354.078H222.038ZM222.038 318.685V283.293H221.038V318.685H222.038ZM222.038 283.293V247.901H221.038V283.293H222.038ZM138.962 708V672.608H137.962V708H138.962ZM138.962 672.608V637.215H137.962V672.608H138.962ZM138.962 637.215V601.823H137.962V637.215H138.962ZM138.962 601.823L138.962 566.431H137.962L137.962 601.823H138.962ZM138.962 566.431V531.039H137.962V566.431H138.962ZM138.962 531.039V495.647H137.962V531.039H138.962ZM138.962 495.647L138.962 460.254H137.962L137.962 495.647H138.962ZM138.962 460.254V424.862H137.962V460.254H138.962ZM138.962 424.862V389.47H137.962V424.862H138.962ZM138.962 389.47L138.962 354.077H137.962L137.962 389.47H138.962ZM138.962 354.077V318.685H137.962V354.077H138.962ZM138.962 318.685V283.293H137.962V318.685H138.962ZM138.962 283.293V247.901H137.962V283.293H138.962ZM55.8846 708V672.608H54.8846V708H55.8846ZM55.8846 672.608L55.8846 637.215H54.8846L54.8846 672.608H55.8846ZM55.8846 637.215V601.823H54.8846V637.215H55.8846ZM55.8846 601.823V566.431H54.8846V601.823H55.8846ZM55.8846 566.431L55.8846 531.039H54.8846L54.8846 566.431H55.8846ZM55.8846 531.039V495.646H54.8846V531.039H55.8846ZM55.8846 495.646V460.254H54.8846V495.646H55.8846ZM55.8846 460.254L55.8846 424.862H54.8846L54.8846 460.254H55.8846ZM55.8846 424.862L55.8846 389.47H54.8846L54.8846 424.862H55.8846ZM55.8846 389.47V354.077H54.8846V389.47H55.8846ZM55.8846 354.077L55.8846 318.685H54.8846L54.8846 354.077H55.8846ZM55.8846 318.685L55.8846 283.293H54.8846L54.8846 318.685H55.8846ZM55.8846 283.293V247.901H54.8846V283.293H55.8846ZM194.346 708V672.608H193.346V708H194.346ZM194.346 672.608V637.215H193.346V672.608H194.346ZM194.346 637.215V601.823H193.346V637.215H194.346ZM194.346 601.823V566.431H193.346V601.823H194.346ZM194.346 566.431V531.039H193.346V566.431H194.346ZM194.346 531.039V495.647H193.346V531.039H194.346ZM194.346 495.647L194.346 460.254H193.346L193.346 495.647H194.346ZM194.346 460.254V424.862H193.346V460.254H194.346ZM194.346 424.862V389.47H193.346V424.862H194.346ZM194.346 389.47V354.078H193.346V389.47H194.346ZM194.346 354.078V318.685H193.346V354.078H194.346ZM194.346 318.685V283.293H193.346V318.685H194.346ZM194.346 283.293V247.901H193.346V283.293H194.346ZM111.269 708V672.608H110.269V708H111.269ZM111.269 672.608V637.215H110.269V672.608H111.269ZM111.269 637.215V601.823H110.269V637.215H111.269ZM111.269 601.823L111.269 566.431H110.269L110.269 601.823H111.269ZM111.269 566.431V531.039H110.269V566.431H111.269ZM111.269 531.039V495.647H110.269V531.039H111.269ZM111.269 495.647V460.254H110.269V495.647H111.269ZM111.269 460.254V424.862H110.269V460.254H111.269ZM111.269 424.862V389.47H110.269V424.862H111.269ZM111.269 389.47L111.269 354.077H110.269L110.269 389.47H111.269ZM111.269 354.077V318.685H110.269V354.077H111.269ZM111.269 318.685V283.293H110.269V318.685H111.269ZM111.269 283.293V247.901H110.269V283.293H111.269ZM28.1923 708L28.1923 672.608H27.1923L27.1923 708H28.1923ZM28.1923 672.608L28.1923 637.215H27.1923L27.1923 672.608H28.1923ZM28.1923 637.215L28.1923 601.823H27.1923L27.1923 637.215H28.1923ZM28.1923 601.823L28.1923 566.431H27.1923L27.1923 601.823H28.1923ZM28.1923 566.431V531.039H27.1923V566.431H28.1923ZM28.1923 531.039L28.1923 495.646H27.1923L27.1923 531.039H28.1923ZM28.1923 495.646V460.254H27.1923V495.646H28.1923ZM28.1923 460.254L28.1923 424.862H27.1923L27.1923 460.254H28.1923ZM28.1923 424.862L28.1923 389.47H27.1923L27.1923 424.862H28.1923ZM28.1923 389.47L28.1923 354.077H27.1923L27.1923 389.47H28.1923ZM28.1923 354.077L28.1923 318.685H27.1923L27.1923 354.077H28.1923ZM28.1923 318.685L28.1923 283.293H27.1923L27.1923 318.685H28.1923ZM28.1923 283.293V247.901H27.1923V283.293H28.1923ZM0.5 708L0.5 672.608H-0.5L-0.5 708H0.5ZM0.5 672.608L0.5 637.215H-0.5L-0.5 672.608H0.5ZM0.5 637.215L0.5 601.823H-0.5L-0.5 637.215H0.5ZM0.5 601.823L0.5 566.431H-0.5L-0.5 601.823H0.5ZM0.5 566.431L0.5 531.039H-0.5L-0.5 566.431H0.5ZM0.5 531.039L0.5 495.646H-0.5L-0.5 531.039H0.5ZM0.5 495.646L0.5 460.254H-0.5L-0.5 495.646H0.5ZM0.5 460.254L0.5 424.862H-0.5L-0.5 460.254H0.5ZM0.5 424.862L0.5 389.47H-0.5L-0.5 424.862H0.5ZM0.5 389.47L0.5 354.077H-0.5L-0.5 389.47H0.5ZM0.5 354.077L0.5 318.685H-0.5L-0.5 354.077H0.5ZM0.5 318.685L0.5 283.293H-0.5L-0.5 318.685H0.5ZM0.5 283.293L0.5 247.901H-0.5L-0.5 283.293H0.5ZM0 425.207H27.6923V424.207H0L0 425.207ZM27.6923 425.207H55.3846V424.207H27.6923V425.207ZM55.3846 425.207H83.0769V424.207H55.3846V425.207ZM83.0769 425.207H110.769V424.207H83.0769V425.207ZM110.769 425.207H138.462V424.207H110.769V425.207ZM138.462 425.207H166.154V424.207H138.462V425.207ZM166.154 425.207H193.846V424.207H166.154V425.207ZM193.846 425.207H221.538V424.207H193.846V425.207ZM221.538 425.207H249.231V424.207H221.538V425.207ZM249.231 425.207H276.923V424.207H249.231V425.207ZM276.923 425.207H304.615V424.207H276.923V425.207ZM304.615 425.207L332.308 425.207V424.207L304.615 424.207V425.207ZM332.308 425.207H360V424.207H332.308V425.207ZM0 460.599H27.6923V459.599H0L0 460.599ZM27.6923 460.599H55.3846V459.599H27.6923V460.599ZM55.3846 460.599H83.0769V459.599H55.3846V460.599ZM83.0769 460.599H110.769V459.599H83.0769V460.599ZM110.769 460.599H138.462V459.599H110.769V460.599ZM138.462 460.599H166.154V459.599H138.462V460.599ZM166.154 460.599H193.846V459.599H166.154V460.599ZM193.846 460.599H221.538V459.599H193.846V460.599ZM221.538 460.599H249.231V459.599H221.538V460.599ZM249.231 460.599H276.923V459.599H249.231V460.599ZM276.923 460.599H304.615V459.599H276.923V460.599ZM304.615 460.599H332.308V459.599H304.615V460.599ZM332.308 460.599H360V459.599H332.308V460.599ZM0 389.815H27.6923V388.815H0L0 389.815ZM27.6923 389.815H55.3846V388.815H27.6923V389.815ZM55.3846 389.815H83.0769V388.815H55.3846V389.815ZM83.0769 389.815H110.769V388.815H83.0769V389.815ZM110.769 389.815H138.462V388.815H110.769V389.815ZM138.462 389.815H166.154V388.815H138.462V389.815ZM166.154 389.815H193.846V388.815H166.154V389.815ZM193.846 389.815H221.538V388.815H193.846V389.815ZM221.538 389.815H249.231V388.815H221.538V389.815ZM249.231 389.815H276.923V388.815H249.231V389.815ZM276.923 389.815H304.615V388.815H276.923V389.815ZM304.615 389.815H332.308V388.815H304.615V389.815ZM332.308 389.815H360V388.815H332.308V389.815ZM0 354.422H27.6923V353.422H0L0 354.422ZM27.6923 354.422H55.3846V353.422H27.6923V354.422ZM55.3846 354.422L83.0769 354.423V353.423L55.3846 353.422V354.422ZM83.0769 354.423H110.769V353.423H83.0769V354.423ZM110.769 354.423H138.462V353.423H110.769V354.423ZM138.462 354.423H166.154V353.423H138.462V354.423ZM166.154 354.423H193.846V353.423H166.154V354.423ZM193.846 354.423H221.538V353.423H193.846V354.423ZM221.538 354.423H249.231V353.423H221.538V354.423ZM249.231 354.423H276.923V353.423H249.231V354.423ZM276.923 354.423H304.615V353.423H276.923V354.423ZM304.615 354.423H332.308V353.423H304.615V354.423ZM332.308 354.423H360V353.423H332.308V354.423ZM0 319.03H27.6923V318.03H0L0 319.03ZM27.6923 319.03H55.3846V318.03H27.6923V319.03ZM55.3846 319.03H83.0769V318.03H55.3846V319.03ZM83.0769 319.03H110.769V318.03H83.0769V319.03ZM110.769 319.03H138.462V318.03H110.769V319.03ZM138.462 319.03H166.154V318.03H138.462V319.03ZM166.154 319.03L193.846 319.03V318.03L166.154 318.03V319.03ZM193.846 319.03H221.538V318.03H193.846V319.03ZM221.538 319.03H249.231V318.03H221.538V319.03ZM249.231 319.03H276.923V318.03H249.231V319.03ZM276.923 319.03H304.615V318.03H276.923V319.03ZM304.615 319.03H332.308V318.03H304.615V319.03ZM332.308 319.03H360V318.03H332.308V319.03ZM0 212.854H27.6923V211.854H0L0 212.854ZM27.6923 212.854H55.3846V211.854H27.6923V212.854ZM55.3846 212.854H83.0769V211.854H55.3846V212.854ZM83.0769 212.854H110.769V211.854H83.0769V212.854ZM110.769 212.854H138.462V211.854H110.769V212.854ZM138.462 212.854H166.154V211.854H138.462V212.854ZM166.154 212.854H193.846V211.854H166.154V212.854ZM193.846 212.854H221.538V211.854H193.846V212.854ZM221.538 212.854H249.231V211.854H221.538V212.854ZM249.231 212.854H276.923V211.854H249.231V212.854ZM276.923 212.854H304.615V211.854H276.923V212.854ZM304.615 212.854H332.308V211.854H304.615V212.854ZM332.308 212.854H360V211.854H332.308V212.854ZM0 106.677H27.6923V105.677H0L0 106.677ZM27.6923 106.677H55.3846V105.677H27.6923V106.677ZM55.3846 106.677H83.0769V105.677H55.3846V106.677ZM83.0769 106.677H110.769V105.677H83.0769V106.677ZM110.769 106.677H138.462V105.677H110.769V106.677ZM138.462 106.677H166.154V105.677H138.462V106.677ZM166.154 106.677L193.846 106.677V105.677L166.154 105.677V106.677ZM193.846 106.677H221.538V105.677H193.846V106.677ZM221.538 106.677H249.231V105.677H221.538V106.677ZM249.231 106.677H276.923V105.677H249.231V106.677ZM276.923 106.677H304.615V105.677H276.923V106.677ZM304.615 106.677H332.308V105.677H304.615V106.677ZM332.308 106.677H360V105.677H332.308V106.677ZM0 283.638H27.6923V282.638H0L0 283.638ZM27.6923 283.638H55.3846V282.638H27.6923V283.638ZM55.3846 283.638H83.0769V282.638H55.3846V283.638ZM83.0769 283.638H110.769V282.638H83.0769V283.638ZM110.769 283.638H138.462V282.638H110.769V283.638ZM138.462 283.638H166.154V282.638H138.462V283.638ZM166.154 283.638H193.846V282.638H166.154V283.638ZM193.846 283.638H221.538V282.638H193.846V283.638ZM221.538 283.638H249.231V282.638H221.538V283.638ZM249.231 283.638H276.923V282.638H249.231V283.638ZM276.923 283.638H304.615V282.638H276.923V283.638ZM304.615 283.638H332.308V282.638H304.615V283.638ZM332.308 283.638H360V282.638H332.308V283.638ZM0 177.461H27.6923V176.461H0L0 177.461ZM27.6923 177.461H55.3846V176.461H27.6923V177.461ZM55.3846 177.461H83.0769V176.461H55.3846V177.461ZM83.0769 177.461H110.769V176.461H83.0769V177.461ZM110.769 177.461H138.462V176.461H110.769V177.461ZM138.462 177.461H166.154V176.461H138.462V177.461ZM166.154 177.461H193.846V176.461H166.154V177.461ZM193.846 177.461H221.538V176.461H193.846V177.461ZM221.538 177.461H249.231V176.461H221.538V177.461ZM249.231 177.461H276.923V176.461H249.231V177.461ZM276.923 177.461H304.615V176.461H276.923V177.461ZM304.615 177.461H332.308V176.461H304.615V177.461ZM332.308 177.461H360V176.461H332.308V177.461ZM0 71.2844H27.6923V70.2844H0L0 71.2844ZM27.6923 71.2844H55.3846V70.2844H27.6923V71.2844ZM55.3846 71.2844H83.0769V70.2844H55.3846V71.2844ZM83.0769 71.2844H110.769V70.2844H83.0769V71.2844ZM110.769 71.2844H138.462V70.2844H110.769V71.2844ZM138.462 71.2844H166.154V70.2844H138.462V71.2844ZM166.154 71.2844H193.846V70.2844H166.154V71.2844ZM193.846 71.2844H221.538V70.2844H193.846V71.2844ZM221.538 71.2844H249.231V70.2844H221.538V71.2844ZM249.231 71.2844H276.923V70.2844H249.231V71.2844ZM276.923 71.2844H304.615V70.2844H276.923V71.2844ZM304.615 71.2844H332.308V70.2844H304.615V71.2844ZM332.308 71.2844H360V70.2844H332.308V71.2844ZM0 248.246H27.6923V247.246H0L0 248.246ZM27.6923 248.246H55.3846V247.246H27.6923V248.246ZM55.3846 248.246H83.0769V247.246H55.3846V248.246ZM83.0769 248.246H110.769V247.246H83.0769V248.246ZM110.769 248.246H138.462V247.246H110.769V248.246ZM138.462 248.246H166.154V247.246H138.462V248.246ZM166.154 248.246H193.846V247.246H166.154V248.246ZM193.846 248.246H221.538V247.246H193.846V248.246ZM221.538 248.246H249.231V247.246H221.538V248.246ZM249.231 248.246L276.923 248.246V247.246L249.231 247.246V248.246ZM276.923 248.246H304.615V247.246H276.923V248.246ZM304.615 248.246H332.308V247.246H304.615V248.246ZM332.308 248.246H360V247.246H332.308V248.246ZM0 142.069H27.6923V141.069H0L0 142.069ZM27.6923 142.069H55.3846V141.069H27.6923V142.069ZM55.3846 142.069H83.0769V141.069H55.3846V142.069ZM83.0769 142.069H110.769V141.069H83.0769V142.069ZM110.769 142.069H138.462V141.069H110.769V142.069ZM138.462 142.069H166.154V141.069H138.462V142.069ZM166.154 142.069H193.846V141.069H166.154V142.069ZM193.846 142.069H221.538V141.069H193.846V142.069ZM221.538 142.069H249.231V141.069H221.538V142.069ZM249.231 142.069H276.923V141.069H249.231V142.069ZM276.923 142.069H304.615V141.069H276.923V142.069ZM304.615 142.069H332.308V141.069H304.615V142.069ZM332.308 142.069H360V141.069H332.308V142.069ZM0 35.8922H27.6923V34.8922H0L0 35.8922ZM27.6923 35.8922H55.3846V34.8922H27.6923V35.8922ZM55.3846 35.8922H83.0769V34.8922H55.3846V35.8922ZM83.0769 35.8922H110.769V34.8922H83.0769V35.8922ZM110.769 35.8922H138.462V34.8922H110.769V35.8922ZM138.462 35.8922H166.154V34.8922H138.462V35.8922ZM166.154 35.8922H193.846V34.8922H166.154V35.8922ZM193.846 35.8922H221.538V34.8922H193.846V35.8922ZM221.538 35.8922H249.231V34.8922H221.538V35.8922ZM249.231 35.8922H276.923V34.8922H249.231V35.8922ZM276.923 35.8922H304.615V34.8922H276.923V35.8922ZM304.615 35.8922H332.308V34.8922H304.615V35.8922ZM332.308 35.8922H360V34.8922H332.308V35.8922ZM0 0.5H360V-0.5H0L0 0.5ZM332.808 460.099V424.707H331.808V460.099H332.808ZM332.808 424.707V389.315H331.808V424.707H332.808ZM332.808 389.315V353.923H331.808V389.315H332.808ZM332.808 353.923V318.53H331.808V353.923H332.808ZM332.808 318.53V283.138H331.808V318.53H332.808ZM332.808 283.138L332.808 247.746H331.808L331.808 283.138H332.808ZM332.808 247.746L332.808 212.354H331.808L331.808 247.746H332.808ZM332.808 212.354V176.961H331.808V212.354H332.808ZM332.808 176.961V141.569H331.808V176.961H332.808ZM332.808 141.569V106.177H331.808V141.569H332.808ZM332.808 106.177V70.7844H331.808V106.177H332.808ZM332.808 70.7844V35.3922H331.808V70.7844H332.808ZM332.808 35.3922V0.000488281H331.808V35.3922H332.808ZM360.5 460.099L360.5 424.707H359.5L359.5 460.099H360.5ZM360.5 424.707V389.315H359.5V424.707H360.5ZM360.5 389.315V353.923H359.5V389.315H360.5ZM360.5 353.923V318.53H359.5V353.923H360.5ZM360.5 318.53V283.138H359.5V318.53H360.5ZM360.5 283.138L360.5 247.746H359.5L359.5 283.138H360.5ZM360.5 247.746V212.354H359.5V247.746H360.5ZM360.5 212.354V176.961H359.5V212.354H360.5ZM360.5 176.961V141.569H359.5V176.961H360.5ZM360.5 141.569V106.177H359.5V141.569H360.5ZM360.5 106.177V70.7844H359.5V106.177H360.5ZM360.5 70.7844V35.3922H359.5V70.7844H360.5ZM360.5 35.3922V0H359.5V35.3922H360.5ZM305.115 460.099V424.707H304.115V460.099H305.115ZM305.115 424.707V389.315H304.115V424.707H305.115ZM305.115 389.315V353.923H304.115V389.315H305.115ZM305.115 353.923V318.53H304.115V353.923H305.115ZM305.115 318.53V283.138H304.115V318.53H305.115ZM305.115 283.138L305.115 247.746H304.115L304.115 283.138H305.115ZM305.115 247.746L305.115 212.354H304.115L304.115 247.746H305.115ZM305.115 212.354V176.961H304.115V212.354H305.115ZM305.115 176.961V141.569H304.115V176.961H305.115ZM305.115 141.569V106.177H304.115V141.569H305.115ZM305.115 106.177V70.7844H304.115V106.177H305.115ZM305.115 70.7844V35.3922H304.115V70.7844H305.115ZM305.115 35.3922V0.000488281H304.115V35.3922H305.115ZM277.423 460.099V424.707H276.423V460.099H277.423ZM277.423 424.707V389.315H276.423V424.707H277.423ZM277.423 389.315V353.923H276.423V389.315H277.423ZM277.423 353.923V318.53H276.423V353.923H277.423ZM277.423 318.53V283.138H276.423V318.53H277.423ZM277.423 283.138L277.423 247.746H276.423L276.423 283.138H277.423ZM277.423 247.746L277.423 212.354H276.423L276.423 247.746H277.423ZM277.423 212.354V176.961H276.423V212.354H277.423ZM277.423 176.961V141.569H276.423V176.961H277.423ZM277.423 141.569V106.177H276.423V141.569H277.423ZM277.423 106.177V70.7844H276.423V106.177H277.423ZM277.423 70.7844V35.3922H276.423V70.7844H277.423ZM277.423 35.3922V0.000488281H276.423V35.3922H277.423ZM249.731 460.099V424.707H248.731V460.099H249.731ZM249.731 424.707V389.315H248.731V424.707H249.731ZM249.731 389.315V353.923H248.731V389.315H249.731ZM249.731 353.923V318.53H248.731V353.923H249.731ZM249.731 318.53V283.138H248.731V318.53H249.731ZM249.731 283.138V247.746H248.731V283.138H249.731ZM249.731 247.746V212.354H248.731V247.746H249.731ZM249.731 212.354V176.961H248.731V212.354H249.731ZM249.731 176.961V141.569H248.731V176.961H249.731ZM249.731 141.569V106.177H248.731V141.569H249.731ZM249.731 106.177V70.7844H248.731V106.177H249.731ZM249.731 70.7844L249.731 35.3922H248.731L248.731 70.7844H249.731ZM249.731 35.3922V0.000488281H248.731V35.3922H249.731ZM166.654 460.099V424.707H165.654V460.099H166.654ZM166.654 424.707V389.315H165.654V424.707H166.654ZM166.654 389.315V353.923H165.654V389.315H166.654ZM166.654 353.923V318.53H165.654V353.923H166.654ZM166.654 318.53V283.138H165.654V318.53H166.654ZM166.654 283.138V247.746H165.654V283.138H166.654ZM166.654 247.746L166.654 212.354H165.654L165.654 247.746H166.654ZM166.654 212.354V176.961H165.654V212.354H166.654ZM166.654 176.961V141.569H165.654V176.961H166.654ZM166.654 141.569V106.177H165.654V141.569H166.654ZM166.654 106.177V70.7844H165.654V106.177H166.654ZM166.654 70.7844L166.654 35.3922H165.654L165.654 70.7844H166.654ZM166.654 35.3922V0.000488281H165.654V35.3922H166.654ZM83.5769 460.099V424.707H82.5769V460.099H83.5769ZM83.5769 424.707V389.315H82.5769V424.707H83.5769ZM83.5769 389.315L83.5769 353.923H82.5769L82.5769 389.315H83.5769ZM83.5769 353.923V318.53H82.5769V353.923H83.5769ZM83.5769 318.53V283.138H82.5769V318.53H83.5769ZM83.5769 283.138V247.746H82.5769V283.138H83.5769ZM83.5769 247.746L83.5769 212.354H82.5769L82.5769 247.746H83.5769ZM83.5769 212.354V176.961H82.5769V212.354H83.5769ZM83.5769 176.961L83.5769 141.569H82.5769L82.5769 176.961H83.5769ZM83.5769 141.569V106.177H82.5769V141.569H83.5769ZM83.5769 106.177L83.5769 70.7844H82.5769L82.5769 106.177H83.5769ZM83.5769 70.7844V35.3922H82.5769V70.7844H83.5769ZM83.5769 35.3922V0.000488281H82.5769V35.3922H83.5769ZM222.038 460.099V424.707H221.038V460.099H222.038ZM222.038 424.707V389.315H221.038V424.707H222.038ZM222.038 389.315V353.923H221.038V389.315H222.038ZM222.038 353.923V318.53H221.038V353.923H222.038ZM222.038 318.53V283.138H221.038V318.53H222.038ZM222.038 283.138V247.746H221.038V283.138H222.038ZM222.038 247.746L222.038 212.354H221.038L221.038 247.746H222.038ZM222.038 212.354V176.961H221.038V212.354H222.038ZM222.038 176.961V141.569H221.038V176.961H222.038ZM222.038 141.569V106.177H221.038V141.569H222.038ZM222.038 106.177V70.7844H221.038V106.177H222.038ZM222.038 70.7844L222.038 35.3922H221.038L221.038 70.7844H222.038ZM222.038 35.3922V0.000488281H221.038V35.3922H222.038ZM138.962 460.099V424.707H137.962V460.099H138.962ZM138.962 424.707V389.315H137.962V424.707H138.962ZM138.962 389.315V353.923H137.962V389.315H138.962ZM138.962 353.923L138.962 318.53H137.962L137.962 353.923H138.962ZM138.962 318.53V283.138H137.962V318.53H138.962ZM138.962 283.138V247.746H137.962V283.138H138.962ZM138.962 247.746V212.354H137.962V247.746H138.962ZM138.962 212.354V176.961H137.962V212.354H138.962ZM138.962 176.961V141.569H137.962V176.961H138.962ZM138.962 141.569L138.962 106.177H137.962L137.962 141.569H138.962ZM138.962 106.177V70.7844H137.962V106.177H138.962ZM138.962 70.7844L138.962 35.3922H137.962L137.962 70.7844H138.962ZM138.962 35.3922V0.000488281H137.962V35.3922H138.962ZM55.8846 460.099L55.8846 424.707H54.8846L54.8846 460.099H55.8846ZM55.8846 424.707L55.8846 389.315H54.8846L54.8846 424.707H55.8846ZM55.8846 389.315V353.922H54.8846V389.315H55.8846ZM55.8846 353.922L55.8846 318.53H54.8846L54.8846 353.922H55.8846ZM55.8846 318.53L55.8846 283.138H54.8846L54.8846 318.53H55.8846ZM55.8846 283.138V247.746H54.8846V283.138H55.8846ZM55.8846 247.746V212.354H54.8846V247.746H55.8846ZM55.8846 212.354L55.8846 176.961H54.8846L54.8846 212.354H55.8846ZM55.8846 176.961L55.8846 141.569H54.8846L54.8846 176.961H55.8846ZM55.8846 141.569V106.177H54.8846V141.569H55.8846ZM55.8846 106.177L55.8846 70.7844H54.8846L54.8846 106.177H55.8846ZM55.8846 70.7844L55.8846 35.3922H54.8846L54.8846 70.7844H55.8846ZM55.8846 35.3922V0.000488281H54.8846V35.3922H55.8846ZM194.346 460.099V424.707H193.346V460.099H194.346ZM194.346 424.707V389.315H193.346V424.707H194.346ZM194.346 389.315V353.923H193.346V389.315H194.346ZM194.346 353.923V318.53H193.346V353.923H194.346ZM194.346 318.53V283.138H193.346V318.53H194.346ZM194.346 283.138V247.746H193.346V283.138H194.346ZM194.346 247.746L194.346 212.354H193.346L193.346 247.746H194.346ZM194.346 212.354V176.961H193.346V212.354H194.346ZM194.346 176.961V141.569H193.346V176.961H194.346ZM194.346 141.569V106.177H193.346V141.569H194.346ZM194.346 106.177V70.7844H193.346V106.177H194.346ZM194.346 70.7844L194.346 35.3922H193.346L193.346 70.7844H194.346ZM194.346 35.3922V0.000488281H193.346V35.3922H194.346ZM111.269 460.099V424.707H110.269V460.099H111.269ZM111.269 424.707V389.315H110.269V424.707H111.269ZM111.269 389.315L111.269 353.923H110.269L110.269 389.315H111.269ZM111.269 353.923L111.269 318.53H110.269L110.269 353.923H111.269ZM111.269 318.53V283.138H110.269V318.53H111.269ZM111.269 283.138V247.746H110.269V283.138H111.269ZM111.269 247.746V212.354H110.269V247.746H111.269ZM111.269 212.354V176.961H110.269V212.354H111.269ZM111.269 176.961L111.269 141.569H110.269L110.269 176.961H111.269ZM111.269 141.569L111.269 106.177H110.269L110.269 141.569H111.269ZM111.269 106.177V70.7844H110.269V106.177H111.269ZM111.269 70.7844V35.3922H110.269V70.7844H111.269ZM111.269 35.3922V0.000488281H110.269V35.3922H111.269ZM28.1923 460.099L28.1923 424.707H27.1923L27.1923 460.099H28.1923ZM28.1923 424.707L28.1923 389.315H27.1923L27.1923 424.707H28.1923ZM28.1923 389.315V353.922H27.1923V389.315H28.1923ZM28.1923 353.922L28.1923 318.53H27.1923L27.1923 353.922H28.1923ZM28.1923 318.53L28.1923 283.138H27.1923L27.1923 318.53H28.1923ZM28.1923 283.138L28.1923 247.746H27.1923L27.1923 283.138H28.1923ZM28.1923 247.746L28.1923 212.354H27.1923L27.1923 247.746H28.1923ZM28.1923 212.354L28.1923 176.961H27.1923L27.1923 212.354H28.1923ZM28.1923 176.961V141.569H27.1923V176.961H28.1923ZM28.1923 141.569L28.1923 106.177H27.1923L27.1923 141.569H28.1923ZM28.1923 106.177L28.1923 70.7844H27.1923L27.1923 106.177H28.1923ZM28.1923 70.7844L28.1923 35.3922H27.1923L27.1923 70.7844H28.1923ZM28.1923 35.3922L28.1923 0.000488281H27.1923L27.1923 35.3922H28.1923ZM0.5 460.099L0.5 424.707H-0.5L-0.5 460.099H0.5ZM0.5 424.707L0.5 389.315H-0.5L-0.5 424.707H0.5ZM0.5 389.315L0.5 353.922H-0.5L-0.5 389.315H0.5ZM0.5 353.922L0.5 318.53H-0.5L-0.5 353.922H0.5ZM0.5 318.53L0.5 283.138H-0.5L-0.5 318.53H0.5ZM0.5 283.138L0.5 247.746H-0.5L-0.5 283.138H0.5ZM0.5 247.746L0.5 212.354H-0.5L-0.5 247.746H0.5ZM0.5 212.354L0.5 176.961H-0.5L-0.5 212.354H0.5ZM0.5 176.961L0.5 141.569H-0.5L-0.5 176.961H0.5ZM0.5 141.569L0.5 106.177H-0.5L-0.5 141.569H0.5ZM0.5 106.177L0.5 70.7844H-0.5L-0.5 106.177H0.5ZM0.5 70.7844L0.5 35.3922H-0.5L-0.5 70.7844H0.5ZM0.5 35.3922L0.5 0H-0.5L-0.5 35.3922H0.5Z" fill="url(#paint0_linear_0_1)" fill-opacity="0.6"/>
<defs>
<filter id="filter0_f_0_1" x="-203.505" y="386.925" width="449.949" height="418.877" filterUnits="userSpaceOnUse" color-interpolation-filters="sRGB">
<feFlood flood-opacity="0" result="BackgroundImageFix"/>
<feBlend mode="normal" in="SourceGraphic" in2="BackgroundImageFix" result="shape"/>
<feGaussianBlur stdDeviation="75" result="effect1_foregroundBlur_0_1"/>
</filter>
<filter id="filter1_f_0_1" x="115" y="-133" width="416" height="484" filterUnits="userSpaceOnUse" color-interpolation-filters="sRGB">
<feFlood flood-opacity="0" result="BackgroundImageFix"/>
<feBlend mode="normal" in="SourceGraphic" in2="BackgroundImageFix" result="shape"/>
<feGaussianBlur stdDeviation="75" result="effect1_foregroundBlur_0_1"/>
</filter>
<linearGradient id="paint0_linear_0_1" x1="0" y1="708" x2="480.69" y2="112.823" gradientUnits="userSpaceOnUse">
<stop stop-color="white" stop-opacity="0.1"/>
<stop offset="1" stop-color="white" stop-opacity="0"/>
</linearGradient>
</defs>
</svg>
