<svg width="360" height="939" viewBox="0 0 360 939" fill="none" xmlns="http://www.w3.org/2000/svg">
<g filter="url(#filter0_f_1_17318)">
<path d="M161.524 786.479C251.75 786.479 456.936 851.383 306.467 850.595C155.997 849.806 323.049 859.792 253.649 916.024C184.248 972.257 0 913.659 0 864.259C0 814.858 71.2994 786.479 161.524 786.479Z" fill="#2A2600"/>
</g>
<path d="M-80 1020H-80.5V1020.5H-80V1020ZM440 1020V1020.5H440.5V1020L440 1020ZM-80 357.145V356.645H-80.5V357.145H-80ZM440 357.145H440.5V356.645H440V357.145ZM-80 662.855H-80.5V663.355H-80V662.855ZM440 662.855V663.355H440.5V662.855H440ZM-80 0V-0.5H-80.5V0H-80ZM440 0H440.5V-0.5H440V0ZM-80 969.511H-40V968.511H-80V969.511ZM-40 969.511L-7.62939e-06 969.511V968.511L-40 968.511V969.511ZM-7.62939e-06 969.511H40V968.511H-7.62939e-06V969.511ZM40 969.511L80 969.511V968.511L40 968.511V969.511ZM80 969.511H120V968.511H80V969.511ZM120 969.511H160V968.511H120V969.511ZM160 969.511L200 969.511V968.511L160 968.511V969.511ZM200 969.511H240V968.511H200V969.511ZM240 969.511H280V968.511H240V969.511ZM280 969.511L320 969.511V968.511L280 968.511V969.511ZM320 969.511H360V968.511H320V969.511ZM360 969.511L400 969.511V968.511L360 968.511V969.511ZM400 969.511H440V968.511H400V969.511ZM-80 1020.5H-40V1019.5H-80V1020.5ZM-40 1020.5H-7.62939e-06V1019.5H-40V1020.5ZM-7.62939e-06 1020.5H40V1019.5H-7.62939e-06V1020.5ZM40 1020.5H80V1019.5H40V1020.5ZM80 1020.5H120V1019.5H80V1020.5ZM120 1020.5H160V1019.5H120V1020.5ZM160 1020.5H200V1019.5H160V1020.5ZM200 1020.5H240V1019.5H200V1020.5ZM240 1020.5H280V1019.5H240V1020.5ZM280 1020.5H320V1019.5H280V1020.5ZM320 1020.5H360V1019.5H320V1020.5ZM360 1020.5H400V1019.5H360V1020.5ZM400 1020.5H440V1019.5H400V1020.5ZM-80 918.522H-40V917.522H-80V918.522ZM-40 918.522H-7.62939e-06V917.522H-40V918.522ZM-7.62939e-06 918.522L40 918.522V917.522L-7.62939e-06 917.522V918.522ZM40 918.522H80V917.522H40V918.522ZM80 918.522H120V917.522H80V918.522ZM120 918.522H160V917.522H120V918.522ZM160 918.522L200 918.522V917.522L160 917.522V918.522ZM200 918.522H240V917.522H200V918.522ZM240 918.522H280V917.522H240V918.522ZM280 918.522H320V917.522H280V918.522ZM320 918.522L360 918.522V917.522L320 917.522V918.522ZM360 918.522H400V917.522H360V918.522ZM400 918.522H440V917.522H400V918.522ZM-80 867.533H-40V866.533H-80V867.533ZM-40 867.533H-7.62939e-06V866.533H-40V867.533ZM-7.62939e-06 867.533H40V866.533H-7.62939e-06V867.533ZM40 867.533H80V866.533H40V867.533ZM80 867.533H120V866.533H80V867.533ZM120 867.533H160V866.533H120V867.533ZM160 867.533L200 867.533V866.533L160 866.533V867.533ZM200 867.533H240V866.533H200V867.533ZM240 867.533H280V866.533H240V867.533ZM280 867.533H320V866.533H280V867.533ZM320 867.533L360 867.533V866.533L320 866.533V867.533ZM360 867.533H400V866.533H360V867.533ZM400 867.533H440V866.533H400V867.533ZM-80 816.545H-40V815.545H-80V816.545ZM-40 816.545H-7.62939e-06V815.545H-40V816.545ZM-7.62939e-06 816.545H40V815.545H-7.62939e-06V816.545ZM40 816.545H80V815.545H40V816.545ZM80 816.545H120V815.545H80V816.545ZM120 816.545H160V815.545H120V816.545ZM160 816.545L200 816.545V815.545L160 815.545V816.545ZM200 816.545H240V815.545H200V816.545ZM240 816.545H280V815.545H240V816.545ZM280 816.545H320V815.545H280V816.545ZM320 816.545H360V815.545H320V816.545ZM360 816.545H400V815.545H360V816.545ZM400 816.545H440V815.545H400V816.545ZM-80 663.578H-40V662.578H-80V663.578ZM-40 663.578H7.62939e-06V662.578H-40V663.578ZM7.62939e-06 663.578H40V662.578H7.62939e-06V663.578ZM40 663.578H80V662.578H40V663.578ZM80 663.578H120V662.578H80V663.578ZM120 663.578H160V662.578H120V663.578ZM160 663.578L200 663.578V662.578L160 662.578V663.578ZM200 663.578H240V662.578H200V663.578ZM240 663.578H280V662.578H240V663.578ZM280 663.578H320V662.578H280V663.578ZM320 663.578H360V662.578H320V663.578ZM360 663.578H400V662.578H360V663.578ZM400 663.578H440V662.578H400V663.578ZM-80 510.612H-40V509.612H-80V510.612ZM-40 510.612H1.52588e-05V509.612H-40V510.612ZM1.52588e-05 510.612H40V509.612H1.52588e-05V510.612ZM40 510.612H80V509.612H40V510.612ZM80 510.612H120V509.612H80V510.612ZM120 510.612H160V509.612H120V510.612ZM160 510.612L200 510.612V509.612L160 509.612V510.612ZM200 510.612H240V509.612H200V510.612ZM240 510.612H280V509.612H240V510.612ZM280 510.612H320V509.612H280V510.612ZM320 510.612H360V509.612H320V510.612ZM360 510.612L400 510.612V509.612L360 509.612V510.612ZM400 510.612H440V509.612H400V510.612ZM-80 765.556H-40V764.556H-80V765.556ZM-40 765.556H7.62939e-06V764.556H-40V765.556ZM7.62939e-06 765.556H40V764.556H7.62939e-06V765.556ZM40 765.556H80V764.556H40V765.556ZM80 765.556H120V764.556H80V765.556ZM120 765.556H160V764.556H120V765.556ZM160 765.556L200 765.556V764.556L160 764.556V765.556ZM200 765.556H240V764.556H200V765.556ZM240 765.556H280V764.556H240V765.556ZM280 765.556H320V764.556H280V765.556ZM320 765.556H360V764.556H320V765.556ZM360 765.556H400V764.556H360V765.556ZM400 765.556H440V764.556H400V765.556ZM-80 612.589H-40V611.589H-80V612.589ZM-40 612.589H7.62939e-06V611.589H-40V612.589ZM7.62939e-06 612.589H40V611.589H7.62939e-06V612.589ZM40 612.589H80V611.589H40V612.589ZM80 612.589H120V611.589H80V612.589ZM120 612.589H160V611.589H120V612.589ZM160 612.589L200 612.589V611.589L160 611.589V612.589ZM200 612.589H240V611.589H200V612.589ZM240 612.589H280V611.589H240V612.589ZM280 612.589H320V611.589H280V612.589ZM320 612.589H360V611.589H320V612.589ZM360 612.589H400V611.589H360V612.589ZM400 612.589H440V611.589H400V612.589ZM-80 459.623H-40V458.623H-80V459.623ZM-40 459.623H1.52588e-05V458.623H-40V459.623ZM1.52588e-05 459.623H40V458.623H1.52588e-05V459.623ZM40 459.623H80V458.623H40V459.623ZM80 459.623H120V458.623H80V459.623ZM120 459.623H160V458.623H120V459.623ZM160 459.623H200V458.623H160V459.623ZM200 459.623H240V458.623H200V459.623ZM240 459.623H280V458.623H240V459.623ZM280 459.623H320V458.623H280V459.623ZM320 459.623H360V458.623H320V459.623ZM360 459.623H400V458.623H360V459.623ZM400 459.623H440V458.623H400V459.623ZM-80 714.567H-40V713.567H-80V714.567ZM-40 714.567H7.62939e-06V713.567H-40V714.567ZM7.62939e-06 714.567H40V713.567H7.62939e-06V714.567ZM40 714.567L80 714.567V713.567L40 713.567V714.567ZM80 714.567H120V713.567H80V714.567ZM120 714.567H160V713.567H120V714.567ZM160 714.567H200V713.567H160V714.567ZM200 714.567H240V713.567H200V714.567ZM240 714.567H280V713.567H240V714.567ZM280 714.567H320V713.567H280V714.567ZM320 714.567H360V713.567H320V714.567ZM360 714.567H400V713.567H360V714.567ZM400 714.567H440V713.567H400V714.567ZM-80 561.6H-40V560.6H-80V561.6ZM-40 561.6H1.52588e-05V560.6H-40V561.6ZM1.52588e-05 561.6H40V560.6H1.52588e-05V561.6ZM40 561.6H80V560.6H40V561.6ZM80 561.6H120V560.6H80V561.6ZM120 561.6H160V560.6H120V561.6ZM160 561.6H200V560.6H160V561.6ZM200 561.6H240V560.6H200V561.6ZM240 561.6H280V560.6H240V561.6ZM280 561.6H320V560.6H280V561.6ZM320 561.6H360V560.6H320V561.6ZM360 561.6H400V560.6H360V561.6ZM400 561.6H440V560.6H400V561.6ZM-80 408.634H-40V407.634H-80V408.634ZM-40 408.634H2.28882e-05V407.634H-40V408.634ZM2.28882e-05 408.634H40V407.634H2.28882e-05V408.634ZM40 408.634H80V407.634H40V408.634ZM80 408.634H120V407.634H80V408.634ZM120 408.634H160V407.634H120V408.634ZM160 408.634H200V407.634H160V408.634ZM200 408.634H240V407.634H200V408.634ZM240 408.634H280V407.634H240V408.634ZM280 408.634H320V407.634H280V408.634ZM320 408.634H360V407.634H320V408.634ZM360 408.634H400V407.634H360V408.634ZM400 408.634H440V407.634H400V408.634ZM-80 357.645H440V356.645H-80V357.645ZM400.5 1020V969.011H399.5V1020H400.5ZM400.5 969.011V918.022H399.5V969.011H400.5ZM400.5 918.022V867.033H399.5V918.022H400.5ZM400.5 867.033V816.045H399.5V867.033H400.5ZM400.5 816.045V765.056H399.5V816.045H400.5ZM400.5 765.056V714.067H399.5V765.056H400.5ZM400.5 714.067L400.5 663.078H399.5L399.5 714.067H400.5ZM400.5 663.078V612.089H399.5V663.078H400.5ZM400.5 612.089L400.5 561.1H399.5L399.5 612.089H400.5ZM400.5 561.1V510.112H399.5V561.1H400.5ZM400.5 510.112V459.123H399.5V510.112H400.5ZM400.5 459.123V408.134H399.5V459.123H400.5ZM400.5 408.134V357.146H399.5V408.134H400.5ZM440.5 1020L440.5 969.011L439.5 969.011L439.5 1020L440.5 1020ZM440.5 969.011V918.022H439.5V969.011H440.5ZM440.5 918.022V867.033H439.5V918.022H440.5ZM440.5 867.033V816.045H439.5V867.033H440.5ZM440.5 816.045V765.056H439.5V816.045H440.5ZM440.5 765.056V714.067H439.5V765.056H440.5ZM440.5 714.067V663.078H439.5V714.067H440.5ZM440.5 663.078V612.089H439.5V663.078H440.5ZM440.5 612.089V561.1H439.5V612.089H440.5ZM440.5 561.1V510.112H439.5V561.1H440.5ZM440.5 510.112V459.123H439.5V510.112H440.5ZM440.5 459.123V408.134H439.5V459.123H440.5ZM440.5 408.134V357.145H439.5V408.134H440.5ZM360.5 1020V969.011H359.5V1020H360.5ZM360.5 969.011V918.022H359.5V969.011H360.5ZM360.5 918.022V867.033H359.5V918.022H360.5ZM360.5 867.033V816.045H359.5V867.033H360.5ZM360.5 816.045V765.056H359.5V816.045H360.5ZM360.5 765.056V714.067H359.5V765.056H360.5ZM360.5 714.067L360.5 663.078H359.5L359.5 714.067H360.5ZM360.5 663.078V612.089H359.5V663.078H360.5ZM360.5 612.089L360.5 561.1H359.5L359.5 612.089H360.5ZM360.5 561.1V510.112H359.5V561.1H360.5ZM360.5 510.112V459.123H359.5V510.112H360.5ZM360.5 459.123V408.134H359.5V459.123H360.5ZM360.5 408.134V357.146H359.5V408.134H360.5ZM320.5 1020V969.011H319.5V1020H320.5ZM320.5 969.011V918.022H319.5V969.011H320.5ZM320.5 918.022V867.033H319.5V918.022H320.5ZM320.5 867.033V816.045H319.5V867.033H320.5ZM320.5 816.045V765.056H319.5V816.045H320.5ZM320.5 765.056V714.067H319.5V765.056H320.5ZM320.5 714.067L320.5 663.078H319.5L319.5 714.067H320.5ZM320.5 663.078V612.089H319.5V663.078H320.5ZM320.5 612.089L320.5 561.1H319.5L319.5 612.089H320.5ZM320.5 561.1V510.112H319.5V561.1H320.5ZM320.5 510.112V459.123H319.5V510.112H320.5ZM320.5 459.123V408.134H319.5V459.123H320.5ZM320.5 408.134V357.146H319.5V408.134H320.5ZM280.5 1020V969.011H279.5V1020H280.5ZM280.5 969.011V918.022H279.5V969.011H280.5ZM280.5 918.022V867.033H279.5V918.022H280.5ZM280.5 867.033V816.045H279.5V867.033H280.5ZM280.5 816.045V765.056H279.5V816.045H280.5ZM280.5 765.056V714.067H279.5V765.056H280.5ZM280.5 714.067V663.078H279.5V714.067H280.5ZM280.5 663.078V612.089H279.5V663.078H280.5ZM280.5 612.089L280.5 561.1H279.5L279.5 612.089H280.5ZM280.5 561.1V510.112H279.5V561.1H280.5ZM280.5 510.112V459.123H279.5V510.112H280.5ZM280.5 459.123V408.134H279.5V459.123H280.5ZM280.5 408.134V357.146H279.5V408.134H280.5ZM160.5 1020V969.011H159.5V1020H160.5ZM160.5 969.011V918.022H159.5V969.011H160.5ZM160.5 918.022V867.033H159.5V918.022H160.5ZM160.5 867.033V816.045H159.5V867.033H160.5ZM160.5 816.045L160.5 765.056H159.5L159.5 816.045H160.5ZM160.5 765.056V714.067H159.5V765.056H160.5ZM160.5 714.067L160.5 663.078H159.5L159.5 714.067H160.5ZM160.5 663.078V612.089H159.5V663.078H160.5ZM160.5 612.089V561.1H159.5V612.089H160.5ZM160.5 561.1V510.112H159.5V561.1H160.5ZM160.5 510.112V459.123H159.5V510.112H160.5ZM160.5 459.123V408.134H159.5V459.123H160.5ZM160.5 408.134V357.146H159.5V408.134H160.5ZM40.5 1020V969.011H39.5V1020H40.5ZM40.5 969.011V918.022H39.5V969.011H40.5ZM40.5 918.022L40.5 867.033H39.5L39.5 918.022H40.5ZM40.5 867.033V816.045H39.5V867.033H40.5ZM40.5 816.045V765.056H39.5V816.045H40.5ZM40.5 765.056V714.067H39.5V765.056H40.5ZM40.5 714.067L40.5 663.078H39.5L39.5 714.067H40.5ZM40.5 663.078V612.089H39.5V663.078H40.5ZM40.5 612.089V561.1H39.5V612.089H40.5ZM40.5 561.1V510.112H39.5V561.1H40.5ZM40.5 510.112L40.5 459.123H39.5L39.5 510.112H40.5ZM40.5 459.123V408.134H39.5V459.123H40.5ZM40.5 408.134V357.146H39.5V408.134H40.5ZM240.5 1020V969.011H239.5V1020H240.5ZM240.5 969.011V918.022H239.5V969.011H240.5ZM240.5 918.022V867.033H239.5V918.022H240.5ZM240.5 867.033V816.045H239.5V867.033H240.5ZM240.5 816.045V765.056H239.5V816.045H240.5ZM240.5 765.056V714.067H239.5V765.056H240.5ZM240.5 714.067V663.078H239.5V714.067H240.5ZM240.5 663.078V612.089H239.5V663.078H240.5ZM240.5 612.089L240.5 561.1H239.5L239.5 612.089H240.5ZM240.5 561.1V510.112H239.5V561.1H240.5ZM240.5 510.112V459.123H239.5V510.112H240.5ZM240.5 459.123V408.134H239.5V459.123H240.5ZM240.5 408.134V357.146H239.5V408.134H240.5ZM120.5 1020V969.011H119.5V1020H120.5ZM120.5 969.011V918.022H119.5V969.011H120.5ZM120.5 918.022V867.033H119.5V918.022H120.5ZM120.5 867.033L120.5 816.045H119.5L119.5 867.033H120.5ZM120.5 816.045L120.5 765.056H119.5L119.5 816.045H120.5ZM120.5 765.056V714.067H119.5V765.056H120.5ZM120.5 714.067V663.078H119.5V714.067H120.5ZM120.5 663.078V612.089H119.5V663.078H120.5ZM120.5 612.089V561.1H119.5V612.089H120.5ZM120.5 561.1L120.5 510.112H119.5L119.5 561.1H120.5ZM120.5 510.112V459.123H119.5V510.112H120.5ZM120.5 459.123V408.134H119.5V459.123H120.5ZM120.5 408.134V357.146H119.5V408.134H120.5ZM0.499992 1020V969.011H-0.500008V1020H0.499992ZM0.499992 969.011V918.022H-0.500008V969.011H0.499992ZM0.499992 918.022L0.499992 867.033H-0.500008L-0.500008 918.022H0.499992ZM0.499992 867.033V816.045H-0.500008V867.033H0.499992ZM0.499992 816.045L0.500008 765.056H-0.499992L-0.500008 816.045H0.499992ZM0.500008 765.056V714.067H-0.499992V765.056H0.500008ZM0.500008 714.067L0.500008 663.078H-0.499992L-0.499992 714.067H0.500008ZM0.500008 663.078V612.089H-0.499992V663.078H0.500008ZM0.500008 612.089L0.500015 561.1H-0.499985L-0.499992 612.089H0.500008ZM0.500015 561.1V510.112H-0.499985V561.1H0.500015ZM0.500015 510.112L0.500015 459.123H-0.499985L-0.499985 510.112H0.500015ZM0.500015 459.123L0.500023 408.134H-0.499977L-0.499985 459.123H0.500015ZM0.500023 408.134V357.146H-0.499977V408.134H0.500023ZM200.5 1020V969.011H199.5V1020H200.5ZM200.5 969.011V918.022H199.5V969.011H200.5ZM200.5 918.022V867.033H199.5V918.022H200.5ZM200.5 867.033V816.045H199.5V867.033H200.5ZM200.5 816.045V765.056H199.5V816.045H200.5ZM200.5 765.056V714.067H199.5V765.056H200.5ZM200.5 714.067V663.078H199.5V714.067H200.5ZM200.5 663.078V612.089H199.5V663.078H200.5ZM200.5 612.089L200.5 561.1H199.5L199.5 612.089H200.5ZM200.5 561.1V510.112H199.5V561.1H200.5ZM200.5 510.112V459.123H199.5V510.112H200.5ZM200.5 459.123V408.134H199.5V459.123H200.5ZM200.5 408.134V357.146H199.5V408.134H200.5ZM80.5 1020V969.011H79.5V1020H80.5ZM80.5 969.011V918.022H79.5V969.011H80.5ZM80.5 918.022V867.033H79.5V918.022H80.5ZM80.5 867.033V816.045H79.5V867.033H80.5ZM80.5 816.045L80.5 765.056H79.5L79.5 816.045H80.5ZM80.5 765.056V714.067H79.5V765.056H80.5ZM80.5 714.067V663.078H79.5V714.067H80.5ZM80.5 663.078V612.089H79.5V663.078H80.5ZM80.5 612.089V561.1H79.5V612.089H80.5ZM80.5 561.1L80.5 510.112H79.5L79.5 561.1H80.5ZM80.5 510.112V459.123H79.5V510.112H80.5ZM80.5 459.123V408.134H79.5V459.123H80.5ZM80.5 408.134V357.146H79.5V408.134H80.5ZM-39.5 1020V969.011H-40.5V1020H-39.5ZM-39.5 969.011L-39.5 918.022H-40.5L-40.5 969.011H-39.5ZM-39.5 918.022V867.033H-40.5V918.022H-39.5ZM-39.5 867.033L-39.5 816.045H-40.5L-40.5 867.033H-39.5ZM-39.5 816.045V765.056H-40.5V816.045H-39.5ZM-39.5 765.056L-39.5 714.067H-40.5L-40.5 765.056H-39.5ZM-39.5 714.067V663.078H-40.5V714.067H-39.5ZM-39.5 663.078L-39.5 612.089H-40.5L-40.5 663.078H-39.5ZM-39.5 612.089V561.1H-40.5V612.089H-39.5ZM-39.5 561.1L-39.5 510.112H-40.5L-40.5 561.1H-39.5ZM-39.5 510.112V459.123H-40.5V510.112H-39.5ZM-39.5 459.123L-39.5 408.134H-40.5L-40.5 459.123H-39.5ZM-39.5 408.134V357.146H-40.5V408.134H-39.5ZM-79.5 1020V969.011H-80.5V1020H-79.5ZM-79.5 969.011V918.022H-80.5V969.011H-79.5ZM-79.5 918.022L-79.5 867.033H-80.5L-80.5 918.022H-79.5ZM-79.5 867.033V816.045H-80.5V867.033H-79.5ZM-79.5 816.045V765.056H-80.5V816.045H-79.5ZM-79.5 765.056V714.067H-80.5V765.056H-79.5ZM-79.5 714.067L-79.5 663.078H-80.5L-80.5 714.067H-79.5ZM-79.5 663.078V612.089H-80.5V663.078H-79.5ZM-79.5 612.089V561.1H-80.5V612.089H-79.5ZM-79.5 561.1V510.112H-80.5V561.1H-79.5ZM-79.5 510.112L-79.5 459.123H-80.5L-80.5 510.112H-79.5ZM-79.5 459.123V408.134H-80.5V459.123H-79.5ZM-79.5 408.134V357.145H-80.5V408.134H-79.5ZM-80 612.366H-40V611.366H-80V612.366ZM-40 612.366H-7.62939e-06V611.366H-40V612.366ZM-7.62939e-06 612.366H40V611.366H-7.62939e-06V612.366ZM40 612.366H80V611.366H40V612.366ZM80 612.366H120V611.366H80V612.366ZM120 612.366H160V611.366H120V612.366ZM160 612.366H200V611.366H160V612.366ZM200 612.366H240V611.366H200V612.366ZM240 612.366H280V611.366H240V612.366ZM280 612.366H320V611.366H280V612.366ZM320 612.366H360V611.366H320V612.366ZM360 612.366L400 612.366V611.366L360 611.366V612.366ZM400 612.366H440V611.366H400V612.366ZM-80 663.355H-40V662.355H-80V663.355ZM-40 663.355H-7.62939e-06V662.355H-40V663.355ZM-7.62939e-06 663.355H40V662.355H-7.62939e-06V663.355ZM40 663.355H80V662.355H40V663.355ZM80 663.355H120V662.355H80V663.355ZM120 663.355H160V662.355H120V663.355ZM160 663.355H200V662.355H160V663.355ZM200 663.355H240V662.355H200V663.355ZM240 663.355H280V662.355H240V663.355ZM280 663.355H320V662.355H280V663.355ZM320 663.355H360V662.355H320V663.355ZM360 663.355H400V662.355H360V663.355ZM400 663.355H440V662.355H400V663.355ZM-80 561.377H-40V560.377H-80V561.377ZM-40 561.377H-7.62939e-06V560.377H-40V561.377ZM-7.62939e-06 561.377H40V560.377H-7.62939e-06V561.377ZM40 561.377H80V560.377H40V561.377ZM80 561.377H120V560.377H80V561.377ZM120 561.377H160V560.377H120V561.377ZM160 561.377H200V560.377H160V561.377ZM200 561.377H240V560.377H200V561.377ZM240 561.377H280V560.377H240V561.377ZM280 561.377H320V560.377H280V561.377ZM320 561.377H360V560.377H320V561.377ZM360 561.377H400V560.377H360V561.377ZM400 561.377H440V560.377H400V561.377ZM-80 510.388H-40V509.388H-80V510.388ZM-40 510.388H-7.62939e-06V509.388H-40V510.388ZM-7.62939e-06 510.388L40 510.388V509.388L-7.62939e-06 509.388V510.388ZM40 510.388H80V509.388H40V510.388ZM80 510.388H120V509.388H80V510.388ZM120 510.388H160V509.388H120V510.388ZM160 510.388H200V509.388H160V510.388ZM200 510.388H240V509.388H200V510.388ZM240 510.388H280V509.388H240V510.388ZM280 510.388H320V509.388H280V510.388ZM320 510.388H360V509.388H320V510.388ZM360 510.388L400 510.388V509.388L360 509.388V510.388ZM400 510.388H440V509.388H400V510.388ZM-80 459.399H-40V458.399H-80V459.399ZM-40 459.399H-7.62939e-06V458.399H-40V459.399ZM-7.62939e-06 459.399H40V458.399H-7.62939e-06V459.399ZM40 459.399H80V458.399H40V459.399ZM80 459.399H120V458.399H80V459.399ZM120 459.399H160V458.399H120V459.399ZM160 459.399L200 459.4V458.4L160 458.399V459.399ZM200 459.4H240V458.4H200V459.4ZM240 459.4H280V458.4H240V459.4ZM280 459.4H320V458.4H280V459.4ZM320 459.4H360V458.4H320V459.4ZM360 459.4H400V458.4H360V459.4ZM400 459.4H440V458.4H400V459.4ZM-80 306.433H-40V305.433H-80V306.433ZM-40 306.433H7.62939e-06V305.433H-40V306.433ZM7.62939e-06 306.433H40V305.433H7.62939e-06V306.433ZM40 306.433H80V305.433H40V306.433ZM80 306.433H120V305.433H80V306.433ZM120 306.433H160V305.433H120V306.433ZM160 306.433H200V305.433H160V306.433ZM200 306.433H240V305.433H200V306.433ZM240 306.433H280V305.433H240V306.433ZM280 306.433H320V305.433H280V306.433ZM320 306.433H360V305.433H320V306.433ZM360 306.433H400V305.433H360V306.433ZM400 306.433H440V305.433H400V306.433ZM-80 153.466H-40V152.466H-80V153.466ZM-40 153.466H1.52588e-05V152.466H-40V153.466ZM1.52588e-05 153.466H40V152.466H1.52588e-05V153.466ZM40 153.466H80V152.466H40V153.466ZM80 153.466H120V152.466H80V153.466ZM120 153.466H160V152.466H120V153.466ZM160 153.466L200 153.467V152.467L160 152.466V153.466ZM200 153.467H240V152.467H200V153.467ZM240 153.467H280V152.467H240V153.467ZM280 153.467H320V152.467H280V153.467ZM320 153.467H360V152.467H320V153.467ZM360 153.467H400V152.467H360V153.467ZM400 153.467H440V152.467H400V153.467ZM-80 408.411H-40V407.411H-80V408.411ZM-40 408.411H7.62939e-06V407.411H-40V408.411ZM7.62939e-06 408.411H40V407.411H7.62939e-06V408.411ZM40 408.411H80V407.411H40V408.411ZM80 408.411H120V407.411H80V408.411ZM120 408.411H160V407.411H120V408.411ZM160 408.411H200V407.411H160V408.411ZM200 408.411H240V407.411H200V408.411ZM240 408.411H280V407.411H240V408.411ZM280 408.411H320V407.411H280V408.411ZM320 408.411H360V407.411H320V408.411ZM360 408.411H400V407.411H360V408.411ZM400 408.411H440V407.411H400V408.411ZM-80 255.444H-40V254.444H-80V255.444ZM-40 255.444H7.62939e-06V254.444H-40V255.444ZM7.62939e-06 255.444H40V254.444H7.62939e-06V255.444ZM40 255.444H80V254.444H40V255.444ZM80 255.444H120V254.444H80V255.444ZM120 255.444H160V254.444H120V255.444ZM160 255.444H200V254.444H160V255.444ZM200 255.444H240V254.444H200V255.444ZM240 255.444H280V254.444H240V255.444ZM280 255.444H320V254.444H280V255.444ZM320 255.444H360V254.444H320V255.444ZM360 255.444H400V254.444H360V255.444ZM400 255.444H440V254.444H400V255.444ZM-80 102.478H-40V101.478H-80V102.478ZM-40 102.478H1.52588e-05V101.478H-40V102.478ZM1.52588e-05 102.478H40V101.478H1.52588e-05V102.478ZM40 102.478H80V101.478H40V102.478ZM80 102.478H120V101.478H80V102.478ZM120 102.478H160V101.478H120V102.478ZM160 102.478H200V101.478H160V102.478ZM200 102.478H240V101.478H200V102.478ZM240 102.478H280V101.478H240V102.478ZM280 102.478H320V101.478H280V102.478ZM320 102.478H360V101.478H320V102.478ZM360 102.478H400V101.478H360V102.478ZM400 102.478H440V101.478H400V102.478ZM-80 357.422H-40V356.422H-80V357.422ZM-40 357.422H7.62939e-06V356.422H-40V357.422ZM7.62939e-06 357.422H40V356.422H7.62939e-06V357.422ZM40 357.422H80V356.422H40V357.422ZM80 357.422H120V356.422H80V357.422ZM120 357.422H160V356.422H120V357.422ZM160 357.422H200V356.422H160V357.422ZM200 357.422H240V356.422H200V357.422ZM240 357.422H280V356.422H240V357.422ZM280 357.422L320 357.422V356.422L280 356.422V357.422ZM320 357.422H360V356.422H320V357.422ZM360 357.422H400V356.422H360V357.422ZM400 357.422H440V356.422H400V357.422ZM-80 204.455H-40V203.455H-80V204.455ZM-40 204.455H1.52588e-05V203.455H-40V204.455ZM1.52588e-05 204.455H40V203.455H1.52588e-05V204.455ZM40 204.455H80V203.455H40V204.455ZM80 204.455H120V203.455H80V204.455ZM120 204.455H160V203.455H120V204.455ZM160 204.455H200V203.455H160V204.455ZM200 204.455H240V203.455H200V204.455ZM240 204.455H280V203.455H240V204.455ZM280 204.455H320V203.455H280V204.455ZM320 204.455H360V203.455H320V204.455ZM360 204.455H400V203.455H360V204.455ZM400 204.455H440V203.455H400V204.455ZM-80 51.4888H-40V50.4888H-80V51.4888ZM-40 51.4888H2.28882e-05V50.4888H-40V51.4888ZM2.28882e-05 51.4888H40V50.4888H2.28882e-05V51.4888ZM40 51.4888H80V50.4888H40V51.4888ZM80 51.4888H120V50.4888H80V51.4888ZM120 51.4888H160V50.4888H120V51.4888ZM160 51.4888H200V50.4888H160V51.4888ZM200 51.4888H240V50.4888H200V51.4888ZM240 51.4888H280V50.4888H240V51.4888ZM280 51.4888H320V50.4888H280V51.4888ZM320 51.4888H360V50.4888H320V51.4888ZM360 51.4888H400V50.4888H360V51.4888ZM400 51.4888H440V50.4888H400V51.4888ZM-80 0.5H440V-0.5H-80V0.5ZM400.5 662.855V611.866H399.5V662.855H400.5ZM400.5 611.866L400.5 560.877H399.5L399.5 611.866H400.5ZM400.5 560.877V509.888H399.5V560.877H400.5ZM400.5 509.888V458.9H399.5V509.888H400.5ZM400.5 458.9V407.911H399.5V458.9H400.5ZM400.5 407.911V356.922H399.5V407.911H400.5ZM400.5 356.922L400.5 305.933H399.5L399.5 356.922H400.5ZM400.5 305.933V254.944H399.5V305.933H400.5ZM400.5 254.944V203.955H399.5V254.944H400.5ZM400.5 203.955V152.967H399.5V203.955H400.5ZM400.5 152.967V101.978H399.5V152.967H400.5ZM400.5 101.978V50.9888H399.5V101.978H400.5ZM400.5 50.9888V0.000671387H399.5V50.9888H400.5ZM440.5 662.855L440.5 611.866H439.5L439.5 662.855H440.5ZM440.5 611.866V560.877H439.5V611.866H440.5ZM440.5 560.877V509.888H439.5V560.877H440.5ZM440.5 509.888V458.9H439.5V509.888H440.5ZM440.5 458.9V407.911H439.5V458.9H440.5ZM440.5 407.911V356.922H439.5V407.911H440.5ZM440.5 356.922V305.933H439.5V356.922H440.5ZM440.5 305.933V254.944H439.5V305.933H440.5ZM440.5 254.944V203.955H439.5V254.944H440.5ZM440.5 203.955V152.967H439.5V203.955H440.5ZM440.5 152.967L440.5 101.978H439.5L439.5 152.967H440.5ZM440.5 101.978V50.9888H439.5V101.978H440.5ZM440.5 50.9888V0H439.5V50.9888H440.5ZM360.5 662.855V611.866H359.5V662.855H360.5ZM360.5 611.866L360.5 560.877H359.5L359.5 611.866H360.5ZM360.5 560.877V509.888H359.5V560.877H360.5ZM360.5 509.888V458.9H359.5V509.888H360.5ZM360.5 458.9V407.911H359.5V458.9H360.5ZM360.5 407.911V356.922H359.5V407.911H360.5ZM360.5 356.922L360.5 305.933H359.5L359.5 356.922H360.5ZM360.5 305.933V254.944H359.5V305.933H360.5ZM360.5 254.944V203.955H359.5V254.944H360.5ZM360.5 203.955V152.967H359.5V203.955H360.5ZM360.5 152.967V101.978H359.5V152.967H360.5ZM360.5 101.978V50.9888H359.5V101.978H360.5ZM360.5 50.9888V0.000671387H359.5V50.9888H360.5ZM320.5 662.855V611.866H319.5V662.855H320.5ZM320.5 611.866L320.5 560.877H319.5L319.5 611.866H320.5ZM320.5 560.877V509.888H319.5V560.877H320.5ZM320.5 509.888V458.9H319.5V509.888H320.5ZM320.5 458.9V407.911H319.5V458.9H320.5ZM320.5 407.911V356.922H319.5V407.911H320.5ZM320.5 356.922L320.5 305.933H319.5L319.5 356.922H320.5ZM320.5 305.933V254.944H319.5V305.933H320.5ZM320.5 254.944V203.955H319.5V254.944H320.5ZM320.5 203.955V152.967H319.5V203.955H320.5ZM320.5 152.967V101.978H319.5V152.967H320.5ZM320.5 101.978V50.9888H319.5V101.978H320.5ZM320.5 50.9888V0.000671387H319.5V50.9888H320.5ZM280.5 662.855V611.866H279.5V662.855H280.5ZM280.5 611.866L280.5 560.877H279.5L279.5 611.866H280.5ZM280.5 560.877V509.888H279.5V560.877H280.5ZM280.5 509.888V458.9H279.5V509.888H280.5ZM280.5 458.9V407.911H279.5V458.9H280.5ZM280.5 407.911V356.922H279.5V407.911H280.5ZM280.5 356.922V305.933H279.5V356.922H280.5ZM280.5 305.933V254.944H279.5V305.933H280.5ZM280.5 254.944V203.955H279.5V254.944H280.5ZM280.5 203.955V152.967H279.5V203.955H280.5ZM280.5 152.967V101.978H279.5V152.967H280.5ZM280.5 101.978V50.9888H279.5V101.978H280.5ZM280.5 50.9888V0.000671387H279.5V50.9888H280.5ZM160.5 662.855V611.866H159.5V662.855H160.5ZM160.5 611.866V560.877H159.5V611.866H160.5ZM160.5 560.877V509.888H159.5V560.877H160.5ZM160.5 509.888V458.899H159.5V509.888H160.5ZM160.5 458.899V407.911H159.5V458.899H160.5ZM160.5 407.911V356.922H159.5V407.911H160.5ZM160.5 356.922L160.5 305.933H159.5L159.5 356.922H160.5ZM160.5 305.933V254.944H159.5V305.933H160.5ZM160.5 254.944V203.955H159.5V254.944H160.5ZM160.5 203.955V152.966H159.5V203.955H160.5ZM160.5 152.966V101.978H159.5V152.966H160.5ZM160.5 101.978V50.9888H159.5V101.978H160.5ZM160.5 50.9888V0.000671387H159.5V50.9888H160.5ZM40.5 662.855V611.866H39.5V662.855H40.5ZM40.5 611.866V560.877H39.5V611.866H40.5ZM40.5 560.877L40.5 509.888H39.5L39.5 560.877H40.5ZM40.5 509.888L40.5 458.899H39.5L39.5 509.888H40.5ZM40.5 458.899V407.911H39.5V458.899H40.5ZM40.5 407.911V356.922H39.5V407.911H40.5ZM40.5 356.922L40.5 305.933H39.5L39.5 356.922H40.5ZM40.5 305.933V254.944H39.5V305.933H40.5ZM40.5 254.944L40.5 203.955H39.5L39.5 254.944H40.5ZM40.5 203.955V152.966H39.5V203.955H40.5ZM40.5 152.966L40.5 101.978H39.5L39.5 152.966H40.5ZM40.5 101.978V50.9888H39.5V101.978H40.5ZM40.5 50.9888L40.5 0.000671387H39.5L39.5 50.9888H40.5ZM240.5 662.855V611.866H239.5V662.855H240.5ZM240.5 611.866L240.5 560.877H239.5L239.5 611.866H240.5ZM240.5 560.877V509.888H239.5V560.877H240.5ZM240.5 509.888V458.9H239.5V509.888H240.5ZM240.5 458.9V407.911H239.5V458.9H240.5ZM240.5 407.911V356.922H239.5V407.911H240.5ZM240.5 356.922V305.933H239.5V356.922H240.5ZM240.5 305.933V254.944H239.5V305.933H240.5ZM240.5 254.944V203.955H239.5V254.944H240.5ZM240.5 203.955V152.967H239.5V203.955H240.5ZM240.5 152.967V101.978H239.5V152.967H240.5ZM240.5 101.978V50.9888H239.5V101.978H240.5ZM240.5 50.9888V0.000671387H239.5V50.9888H240.5ZM120.5 662.855V611.866H119.5V662.855H120.5ZM120.5 611.866V560.877H119.5V611.866H120.5ZM120.5 560.877V509.888H119.5V560.877H120.5ZM120.5 509.888L120.5 458.899H119.5L119.5 509.888H120.5ZM120.5 458.899V407.911H119.5V458.899H120.5ZM120.5 407.911V356.922H119.5V407.911H120.5ZM120.5 356.922L120.5 305.933H119.5L119.5 356.922H120.5ZM120.5 305.933V254.944H119.5V305.933H120.5ZM120.5 254.944V203.955H119.5V254.944H120.5ZM120.5 203.955L120.5 152.966H119.5L119.5 203.955H120.5ZM120.5 152.966V101.978H119.5V152.966H120.5ZM120.5 101.978V50.9888H119.5V101.978H120.5ZM120.5 50.9888V0.000671387H119.5V50.9888H120.5ZM0.499992 662.855V611.866H-0.500008V662.855H0.499992ZM0.499992 611.866V560.877H-0.500008V611.866H0.499992ZM0.499992 560.877V509.888H-0.500008V560.877H0.499992ZM0.499992 509.888L0.499992 458.899H-0.500008L-0.500008 509.888H0.499992ZM0.499992 458.899L0.500008 407.911H-0.499992L-0.500008 458.899H0.499992ZM0.500008 407.911V356.922H-0.499992V407.911H0.500008ZM0.500008 356.922V305.933H-0.499992V356.922H0.500008ZM0.500008 305.933V254.944H-0.499992V305.933H0.500008ZM0.500008 254.944L0.500015 203.955H-0.499985L-0.499992 254.944H0.500008ZM0.500015 203.955V152.966H-0.499985V203.955H0.500015ZM0.500015 152.966V101.978H-0.499985V152.966H0.500015ZM0.500015 101.978L0.500023 50.9888H-0.499977L-0.499985 101.978H0.500015ZM0.500023 50.9888L0.500023 0.000671387H-0.499977L-0.499977 50.9888H0.500023ZM200.5 662.855V611.866H199.5V662.855H200.5ZM200.5 611.866L200.5 560.877H199.5L199.5 611.866H200.5ZM200.5 560.877V509.888H199.5V560.877H200.5ZM200.5 509.888V458.9H199.5V509.888H200.5ZM200.5 458.9V407.911H199.5V458.9H200.5ZM200.5 407.911V356.922H199.5V407.911H200.5ZM200.5 356.922V305.933H199.5V356.922H200.5ZM200.5 305.933V254.944H199.5V305.933H200.5ZM200.5 254.944V203.955H199.5V254.944H200.5ZM200.5 203.955V152.967H199.5V203.955H200.5ZM200.5 152.967V101.978H199.5V152.967H200.5ZM200.5 101.978V50.9888H199.5V101.978H200.5ZM200.5 50.9888V0.000671387H199.5V50.9888H200.5ZM80.5 662.855V611.866H79.5V662.855H80.5ZM80.5 611.866V560.877H79.5V611.866H80.5ZM80.5 560.877V509.888H79.5V560.877H80.5ZM80.5 509.888V458.899H79.5V509.888H80.5ZM80.5 458.899V407.911H79.5V458.899H80.5ZM80.5 407.911V356.922H79.5V407.911H80.5ZM80.5 356.922L80.5 305.933H79.5L79.5 356.922H80.5ZM80.5 305.933V254.944H79.5V305.933H80.5ZM80.5 254.944V203.955H79.5V254.944H80.5ZM80.5 203.955L80.5 152.966H79.5L79.5 203.955H80.5ZM80.5 152.966V101.978H79.5V152.966H80.5ZM80.5 101.978V50.9888H79.5V101.978H80.5ZM80.5 50.9888V0.000671387H79.5V50.9888H80.5ZM-39.5 662.855L-39.5 611.866H-40.5L-40.5 662.855H-39.5ZM-39.5 611.866V560.877H-40.5V611.866H-39.5ZM-39.5 560.877L-39.5 509.888H-40.5L-40.5 560.877H-39.5ZM-39.5 509.888L-39.5 458.899H-40.5L-40.5 509.888H-39.5ZM-39.5 458.899L-39.5 407.911H-40.5L-40.5 458.899H-39.5ZM-39.5 407.911L-39.5 356.922H-40.5L-40.5 407.911H-39.5ZM-39.5 356.922V305.933H-40.5V356.922H-39.5ZM-39.5 305.933L-39.5 254.944H-40.5L-40.5 305.933H-39.5ZM-39.5 254.944V203.955H-40.5V254.944H-39.5ZM-39.5 203.955L-39.5 152.966H-40.5L-40.5 203.955H-39.5ZM-39.5 152.966V101.978H-40.5V152.966H-39.5ZM-39.5 101.978L-39.5 50.9888H-40.5L-40.5 101.978H-39.5ZM-39.5 50.9888V0.000671387H-40.5V50.9888H-39.5ZM-79.5 662.855V611.866H-80.5V662.855H-79.5ZM-79.5 611.866V560.877H-80.5V611.866H-79.5ZM-79.5 560.877V509.888H-80.5V560.877H-79.5ZM-79.5 509.888L-79.5 458.899H-80.5L-80.5 509.888H-79.5ZM-79.5 458.899V407.911H-80.5V458.899H-79.5ZM-79.5 407.911V356.922H-80.5V407.911H-79.5ZM-79.5 356.922V305.933H-80.5V356.922H-79.5ZM-79.5 305.933V254.944H-80.5V305.933H-79.5ZM-79.5 254.944L-79.5 203.955H-80.5L-80.5 254.944H-79.5ZM-79.5 203.955V152.966H-80.5V203.955H-79.5ZM-79.5 152.966V101.978H-80.5V152.966H-79.5ZM-79.5 101.978V50.9888H-80.5V101.978H-79.5ZM-79.5 50.9888L-79.5 0H-80.5L-80.5 50.9888H-79.5Z" fill="url(#paint0_linear_1_17318)" fill-opacity="0.6"/>
<defs>
<filter id="filter0_f_1_17318" x="-150" y="636.479" width="660" height="452.521" filterUnits="userSpaceOnUse" color-interpolation-filters="sRGB">
<feFlood flood-opacity="0" result="BackgroundImageFix"/>
<feBlend mode="normal" in="SourceGraphic" in2="BackgroundImageFix" result="shape"/>
<feGaussianBlur stdDeviation="75" result="effect1_foregroundBlur_1_17318"/>
</filter>
<linearGradient id="paint0_linear_1_17318" x1="-80" y1="1020" x2="612.136" y2="160.775" gradientUnits="userSpaceOnUse">
<stop stop-color="white" stop-opacity="0.1"/>
<stop offset="1" stop-color="white" stop-opacity="0"/>
</linearGradient>
</defs>
</svg>
