<svg width="1885" height="997" viewBox="0 0 1885 997" fill="none" xmlns="http://www.w3.org/2000/svg">
<path d="M1 54V53.5H0.5V54H1ZM1 996H0.5V996.5H1L1 996ZM1201.94 54H1202.44V53.5H1201.94V54ZM1201.94 996V996.5H1202.44V996H1201.94ZM648.063 54V53.5H647.563V54H648.063ZM648.063 996H647.563V996.5H648.063V996ZM1849 54H1849.5V53.5H1849V54ZM1849 996V996.5H1849.5V996H1849ZM92.8798 54V126.462H93.8798V54H92.8798ZM92.8798 126.462L92.8798 198.923H93.8798L93.8798 126.462H92.8798ZM92.8798 198.923V271.385H93.8798V198.923H92.8798ZM92.8798 271.385L92.8798 343.846H93.8798L93.8798 271.385H92.8798ZM92.8798 343.846V416.308H93.8798V343.846H92.8798ZM92.8798 416.308V488.769H93.8798V416.308H92.8798ZM92.8798 488.769L92.8798 561.231H93.8798L93.8798 488.769H92.8798ZM92.8798 561.231V633.692H93.8798V561.231H92.8798ZM92.8798 633.692V706.154H93.8798V633.692H92.8798ZM92.8798 706.154L92.8798 778.615H93.8798L93.8798 706.154H92.8798ZM92.8798 778.615V851.077H93.8798V778.615H92.8798ZM92.8798 851.077L92.8798 923.538H93.8798L93.8798 851.077H92.8798ZM92.8798 923.538V996H93.8798V923.538H92.8798ZM0.5 54V126.462H1.5V54H0.5ZM0.5 126.462V198.923H1.5V126.462H0.5ZM0.5 198.923V271.385H1.5V198.923H0.5ZM0.5 271.385V343.846H1.5V271.385H0.5ZM0.5 343.846V416.308H1.5V343.846H0.5ZM0.5 416.308V488.769H1.5V416.308H0.5ZM0.5 488.769V561.231H1.5V488.769H0.5ZM0.5 561.231V633.692H1.5V561.231H0.5ZM0.5 633.692V706.154H1.5V633.692H0.5ZM0.5 706.154V778.615H1.5V706.154H0.5ZM0.5 778.615V851.077H1.5V778.615H0.5ZM0.5 851.077V923.538H1.5V851.077H0.5ZM0.5 923.538V996H1.5V923.538H0.5ZM185.26 54V126.462H186.26V54H185.26ZM185.26 126.462V198.923H186.26V126.462H185.26ZM185.26 198.923L185.26 271.385H186.26L186.26 198.923H185.26ZM185.26 271.385V343.846H186.26V271.385H185.26ZM185.26 343.846V416.308H186.26V343.846H185.26ZM185.26 416.308V488.769H186.26V416.308H185.26ZM185.26 488.769L185.26 561.231H186.26L186.26 488.769H185.26ZM185.26 561.231V633.692H186.26V561.231H185.26ZM185.26 633.692V706.154H186.26V633.692H185.26ZM185.26 706.154V778.615H186.26V706.154H185.26ZM185.26 778.615L185.26 851.077H186.26L186.26 778.615H185.26ZM185.26 851.077V923.538H186.26V851.077H185.26ZM185.26 923.538V996H186.26V923.538H185.26ZM277.639 54V126.462H278.639V54H277.639ZM277.639 126.462V198.923H278.639V126.462H277.639ZM277.639 198.923L277.639 271.385H278.639L278.639 198.923H277.639ZM277.639 271.385V343.846H278.639V271.385H277.639ZM277.639 343.846V416.308H278.639V343.846H277.639ZM277.639 416.308V488.769H278.639V416.308H277.639ZM277.639 488.769V561.231H278.639V488.769H277.639ZM277.639 561.231V633.692H278.639V561.231H277.639ZM277.639 633.692V706.154H278.639V633.692H277.639ZM277.639 706.154V778.615H278.639V706.154H277.639ZM277.639 778.615L277.639 851.077H278.639L278.639 778.615H277.639ZM277.639 851.077V923.538H278.639V851.077H277.639ZM277.639 923.538V996H278.639V923.538H277.639ZM370.019 54V126.462H371.019V54H370.019ZM370.019 126.462V198.923H371.019V126.462H370.019ZM370.019 198.923V271.385H371.019V198.923H370.019ZM370.019 271.385V343.846H371.019V271.385H370.019ZM370.019 343.846V416.308H371.019V343.846H370.019ZM370.019 416.308V488.769H371.019V416.308H370.019ZM370.019 488.769L370.019 561.231H371.019L371.019 488.769H370.019ZM370.019 561.231V633.692H371.019V561.231H370.019ZM370.019 633.692V706.154H371.019V633.692H370.019ZM370.019 706.154V778.615H371.019V706.154H370.019ZM370.019 778.615V851.077H371.019V778.615H370.019ZM370.019 851.077V923.538H371.019V851.077H370.019ZM370.019 923.538V996H371.019V923.538H370.019ZM647.158 54V126.462H648.158V54H647.158ZM647.158 126.462V198.923H648.158V126.462H647.158ZM647.158 198.923V271.385H648.158V198.923H647.158ZM647.158 271.385V343.846H648.158V271.385H647.158ZM647.158 343.846V416.308H648.158V343.846H647.158ZM647.158 416.308V488.769H648.158V416.308H647.158ZM647.158 488.769L647.158 561.231H648.158L648.158 488.769H647.158ZM647.158 561.231V633.692H648.158V561.231H647.158ZM647.158 633.692V706.154H648.158V633.692H647.158ZM647.158 706.154V778.615H648.158V706.154H647.158ZM647.158 778.615V851.077H648.158V778.615H647.158ZM647.158 851.077V923.538H648.158V851.077H647.158ZM647.158 923.538V996H648.158V923.538H647.158ZM924.298 54V126.462H925.298V54H924.298ZM924.298 126.462V198.923H925.298V126.462H924.298ZM924.298 198.923V271.385H925.298V198.923H924.298ZM924.298 271.385V343.846H925.298V271.385H924.298ZM924.298 343.846V416.308H925.298V343.846H924.298ZM924.298 416.308V488.769H925.298V416.308H924.298ZM924.298 488.769L924.298 561.231H925.298L925.298 488.769H924.298ZM924.298 561.231V633.692H925.298V561.231H924.298ZM924.298 633.692V706.154H925.298V633.692H924.298ZM924.298 706.154V778.615H925.298V706.154H924.298ZM924.298 778.615V851.077H925.298V778.615H924.298ZM924.298 851.077V923.538H925.298V851.077H924.298ZM924.298 923.538V996H925.298V923.538H924.298ZM462.399 54V126.462H463.399V54H462.399ZM462.399 126.462V198.923H463.399V126.462H462.399ZM462.399 198.923V271.385H463.399V198.923H462.399ZM462.399 271.385V343.846H463.399V271.385H462.399ZM462.399 343.846V416.308H463.399V343.846H462.399ZM462.399 416.308V488.769H463.399V416.308H462.399ZM462.399 488.769L462.399 561.231H463.399L463.399 488.769H462.399ZM462.399 561.231V633.692H463.399V561.231H462.399ZM462.399 633.692V706.154H463.399V633.692H462.399ZM462.399 706.154V778.615H463.399V706.154H462.399ZM462.399 778.615V851.077H463.399V778.615H462.399ZM462.399 851.077V923.538H463.399V851.077H462.399ZM462.399 923.538V996H463.399V923.538H462.399ZM739.538 54V126.462H740.538V54H739.538ZM739.538 126.462V198.923H740.538V126.462H739.538ZM739.538 198.923V271.385H740.538V198.923H739.538ZM739.538 271.385V343.846H740.538V271.385H739.538ZM739.538 343.846V416.308H740.538V343.846H739.538ZM739.538 416.308V488.769H740.538V416.308H739.538ZM739.538 488.769L739.538 561.231H740.538L740.538 488.769H739.538ZM739.538 561.231V633.692H740.538V561.231H739.538ZM739.538 633.692V706.154H740.538V633.692H739.538ZM739.538 706.154V778.615H740.538V706.154H739.538ZM739.538 778.615V851.077H740.538V778.615H739.538ZM739.538 851.077V923.538H740.538V851.077H739.538ZM739.538 923.538V996H740.538V923.538H739.538ZM1016.68 54V126.462H1017.68V54H1016.68ZM1016.68 126.462V198.923H1017.68V126.462H1016.68ZM1016.68 198.923V271.385H1017.68V198.923H1016.68ZM1016.68 271.385V343.846H1017.68V271.385H1016.68ZM1016.68 343.846V416.308H1017.68V343.846H1016.68ZM1016.68 416.308V488.769H1017.68V416.308H1016.68ZM1016.68 488.769V561.231H1017.68V488.769H1016.68ZM1016.68 561.231V633.692H1017.68V561.231H1016.68ZM1016.68 633.692V706.154H1017.68V633.692H1016.68ZM1016.68 706.154V778.615H1017.68V706.154H1016.68ZM1016.68 778.615V851.077H1017.68V778.615H1016.68ZM1016.68 851.077V923.538H1017.68V851.077H1016.68ZM1016.68 923.538V996H1017.68V923.538H1016.68ZM554.779 54V126.462H555.779V54H554.779ZM554.779 126.462V198.923H555.779V126.462H554.779ZM554.779 198.923V271.385H555.779V198.923H554.779ZM554.779 271.385L554.779 343.846H555.779L555.779 271.385H554.779ZM554.779 343.846V416.308H555.779V343.846H554.779ZM554.779 416.308V488.769H555.779V416.308H554.779ZM554.779 488.769V561.231H555.779V488.769H554.779ZM554.779 561.231V633.692H555.779V561.231H554.779ZM554.779 633.692V706.154H555.779V633.692H554.779ZM554.779 706.154V778.615H555.779V706.154H554.779ZM554.779 778.615V851.077H555.779V778.615H554.779ZM554.779 851.077V923.538H555.779V851.077H554.779ZM554.779 923.538V996H555.779V923.538H554.779ZM831.918 54V126.462H832.918V54H831.918ZM831.918 126.462V198.923H832.918V126.462H831.918ZM831.918 198.923V271.385H832.918V198.923H831.918ZM831.918 271.385V343.846H832.918V271.385H831.918ZM831.918 343.846V416.308H832.918V343.846H831.918ZM831.918 416.308V488.769H832.918V416.308H831.918ZM831.918 488.769V561.231H832.918V488.769H831.918ZM831.918 561.231V633.692H832.918V561.231H831.918ZM831.918 633.692V706.154H832.918V633.692H831.918ZM831.918 706.154V778.615H832.918V706.154H831.918ZM831.918 778.615V851.077H832.918V778.615H831.918ZM831.918 851.077V923.538H832.918V851.077H831.918ZM831.918 923.538V996H832.918V923.538H831.918ZM1109.06 54V126.462H1110.06V54H1109.06ZM1109.06 126.462V198.923H1110.06V126.462H1109.06ZM1109.06 198.923V271.385H1110.06V198.923H1109.06ZM1109.06 271.385V343.846H1110.06V271.385H1109.06ZM1109.06 343.846V416.308H1110.06V343.846H1109.06ZM1109.06 416.308V488.769H1110.06V416.308H1109.06ZM1109.06 488.769V561.231H1110.06V488.769H1109.06ZM1109.06 561.231V633.692H1110.06V561.231H1109.06ZM1109.06 633.692V706.154H1110.06V633.692H1109.06ZM1109.06 706.154V778.615H1110.06V706.154H1109.06ZM1109.06 778.615V851.077H1110.06V778.615H1109.06ZM1109.06 851.077V923.538H1110.06V851.077H1109.06ZM1109.06 923.538V996H1110.06V923.538H1109.06ZM1201.44 54V996H1202.44V54H1201.44ZM1 924.038H93.3798V923.038H1V924.038ZM93.3798 924.038H185.76V923.038H93.3798V924.038ZM185.76 924.038H278.139V923.038H185.76V924.038ZM278.139 924.038H370.519V923.038H278.139V924.038ZM370.519 924.038H462.899V923.038H370.519V924.038ZM462.899 924.038H555.279V923.038H462.899V924.038ZM555.279 924.038L647.658 924.038V923.038L555.279 923.038V924.038ZM647.658 924.038H740.038V923.038H647.658V924.038ZM740.038 924.038H832.418V923.038H740.038V924.038ZM832.418 924.038H924.798V923.038H832.418V924.038ZM924.798 924.038H1017.18V923.038H924.798V924.038ZM1017.18 924.038H1109.56V923.038H1017.18V924.038ZM1109.56 924.038H1201.94V923.038H1109.56V924.038ZM1 996.5L93.3798 996.5V995.5L1 995.5L1 996.5ZM93.3798 996.5H185.76V995.5H93.3798V996.5ZM185.76 996.5H278.139V995.5H185.76V996.5ZM278.139 996.5H370.519V995.5H278.139V996.5ZM370.519 996.5H462.899V995.5H370.519V996.5ZM462.899 996.5H555.279V995.5H462.899V996.5ZM555.279 996.5H647.658V995.5H555.279V996.5ZM647.658 996.5H740.038V995.5H647.658V996.5ZM740.038 996.5H832.418V995.5H740.038V996.5ZM832.418 996.5H924.798V995.5H832.418V996.5ZM924.798 996.5H1017.18V995.5H924.798V996.5ZM1017.18 996.5H1109.56V995.5H1017.18V996.5ZM1109.56 996.5H1201.94V995.5H1109.56V996.5ZM1 851.577H93.3798V850.577H1V851.577ZM93.3798 851.577H185.76V850.577H93.3798V851.577ZM185.76 851.577H278.139V850.577H185.76V851.577ZM278.139 851.577H370.519V850.577H278.139V851.577ZM370.519 851.577H462.899V850.577H370.519V851.577ZM462.899 851.577H555.279V850.577H462.899V851.577ZM555.279 851.577L647.658 851.577V850.577L555.279 850.577V851.577ZM647.658 851.577H740.038V850.577H647.658V851.577ZM740.038 851.577H832.418V850.577H740.038V851.577ZM832.418 851.577H924.798V850.577H832.418V851.577ZM924.798 851.577H1017.18V850.577H924.798V851.577ZM1017.18 851.577H1109.56V850.577H1017.18V851.577ZM1109.56 851.577H1201.94V850.577H1109.56V851.577ZM1 779.115H93.3798V778.115H1V779.115ZM93.3798 779.115H185.76V778.115H93.3798V779.115ZM185.76 779.115H278.139V778.115H185.76V779.115ZM278.139 779.115H370.519V778.115H278.139V779.115ZM370.519 779.115H462.899V778.115H370.519V779.115ZM462.899 779.115H555.279V778.115H462.899V779.115ZM555.279 779.115L647.658 779.115V778.115L555.279 778.115V779.115ZM647.658 779.115H740.038V778.115H647.658V779.115ZM740.038 779.115H832.418V778.115H740.038V779.115ZM832.418 779.115H924.798V778.115H832.418V779.115ZM924.798 779.115H1017.18V778.115H924.798V779.115ZM1017.18 779.115H1109.56V778.115H1017.18V779.115ZM1109.56 779.115H1201.94V778.115H1109.56V779.115ZM1 706.654H93.3798V705.654H1V706.654ZM93.3798 706.654H185.76V705.654H93.3798V706.654ZM185.76 706.654H278.139V705.654H185.76V706.654ZM278.139 706.654H370.519V705.654H278.139V706.654ZM370.519 706.654H462.899V705.654H370.519V706.654ZM462.899 706.654H555.279V705.654H462.899V706.654ZM555.279 706.654H647.658V705.654H555.279V706.654ZM647.658 706.654H740.038V705.654H647.658V706.654ZM740.038 706.654H832.418V705.654H740.038V706.654ZM832.418 706.654H924.798V705.654H832.418V706.654ZM924.798 706.654H1017.18V705.654H924.798V706.654ZM1017.18 706.654H1109.56V705.654H1017.18V706.654ZM1109.56 706.654H1201.94V705.654H1109.56V706.654ZM1 489.269H93.3798V488.269H1V489.269ZM93.3798 489.269H185.76V488.269H93.3798V489.269ZM185.76 489.269H278.139V488.269H185.76V489.269ZM278.139 489.269H370.519V488.269H278.139V489.269ZM370.519 489.269H462.899V488.269H370.519V489.269ZM462.899 489.269H555.279V488.269H462.899V489.269ZM555.279 489.269L647.658 489.269V488.269L555.279 488.269V489.269ZM647.658 489.269H740.038V488.269H647.658V489.269ZM740.038 489.269H832.418V488.269H740.038V489.269ZM832.418 489.269H924.798V488.269H832.418V489.269ZM924.798 489.269H1017.18V488.269H924.798V489.269ZM1017.18 489.269H1109.56V488.269H1017.18V489.269ZM1109.56 489.269H1201.94V488.269H1109.56V489.269ZM1 271.885H93.3798V270.885H1V271.885ZM93.3798 271.885H185.76V270.885H93.3798V271.885ZM185.76 271.885L278.139 271.885V270.885L185.76 270.885V271.885ZM278.139 271.885H370.519V270.885H278.139V271.885ZM370.519 271.885H462.899V270.885H370.519V271.885ZM462.899 271.885H555.279V270.885H462.899V271.885ZM555.279 271.885L647.658 271.885V270.885L555.279 270.885V271.885ZM647.658 271.885H740.038V270.885H647.658V271.885ZM740.038 271.885H832.418V270.885H740.038V271.885ZM832.418 271.885H924.798V270.885H832.418V271.885ZM924.798 271.885L1017.18 271.885V270.885L924.798 270.885V271.885ZM1017.18 271.885H1109.56V270.885H1017.18V271.885ZM1109.56 271.885H1201.94V270.885H1109.56V271.885ZM1 634.192H93.3798V633.192H1V634.192ZM93.3798 634.192H185.76V633.192H93.3798V634.192ZM185.76 634.192H278.139V633.192H185.76V634.192ZM278.139 634.192H370.519V633.192H278.139V634.192ZM370.519 634.192H462.899V633.192H370.519V634.192ZM462.899 634.192H555.279V633.192H462.899V634.192ZM555.279 634.192L647.658 634.192V633.192L555.279 633.192V634.192ZM647.658 634.192H740.038V633.192H647.658V634.192ZM740.038 634.192H832.418V633.192H740.038V634.192ZM832.418 634.192H924.798V633.192H832.418V634.192ZM924.798 634.192H1017.18V633.192H924.798V634.192ZM1017.18 634.192H1109.56V633.192H1017.18V634.192ZM1109.56 634.192H1201.94V633.192H1109.56V634.192ZM1 416.808H93.3798V415.808H1V416.808ZM93.3798 416.808H185.76V415.808H93.3798V416.808ZM185.76 416.808H278.139V415.808H185.76V416.808ZM278.139 416.808L370.519 416.808V415.808L278.139 415.808V416.808ZM370.519 416.808H462.899V415.808H370.519V416.808ZM462.899 416.808H555.279V415.808H462.899V416.808ZM555.279 416.808H647.658V415.808H555.279V416.808ZM647.658 416.808H740.038V415.808H647.658V416.808ZM740.038 416.808H832.418V415.808H740.038V416.808ZM832.418 416.808L924.798 416.808V415.808L832.418 415.808V416.808ZM924.798 416.808H1017.18V415.808H924.798V416.808ZM1017.18 416.808H1109.56V415.808H1017.18V416.808ZM1109.56 416.808H1201.94V415.808H1109.56V416.808ZM1 199.423H93.3798V198.423H1V199.423ZM93.3798 199.423L185.76 199.423V198.423L93.3798 198.423V199.423ZM185.76 199.423H278.139V198.423H185.76V199.423ZM278.139 199.423H370.519V198.423H278.139V199.423ZM370.519 199.423L462.899 199.423V198.423L370.519 198.423V199.423ZM462.899 199.423H555.279V198.423H462.899V199.423ZM555.279 199.423H647.658V198.423H555.279V199.423ZM647.658 199.423H740.038V198.423H647.658V199.423ZM740.038 199.423L832.418 199.423V198.423L740.038 198.423V199.423ZM832.418 199.423H924.798V198.423H832.418V199.423ZM924.798 199.423H1017.18V198.423H924.798V199.423ZM1017.18 199.423L1109.56 199.423V198.423L1017.18 198.423V199.423ZM1109.56 199.423H1201.94V198.423H1109.56V199.423ZM1 561.731H93.3798V560.731H1V561.731ZM93.3798 561.731H185.76V560.731H93.3798V561.731ZM185.76 561.731H278.139V560.731H185.76V561.731ZM278.139 561.731H370.519V560.731H278.139V561.731ZM370.519 561.731H462.899V560.731H370.519V561.731ZM462.899 561.731H555.279V560.731H462.899V561.731ZM555.279 561.731L647.658 561.731V560.731L555.279 560.731V561.731ZM647.658 561.731H740.038V560.731H647.658V561.731ZM740.038 561.731H832.418V560.731H740.038V561.731ZM832.418 561.731H924.798V560.731H832.418V561.731ZM924.798 561.731H1017.18V560.731H924.798V561.731ZM1017.18 561.731H1109.56V560.731H1017.18V561.731ZM1109.56 561.731H1201.94V560.731H1109.56V561.731ZM1 344.346H93.3798V343.346H1V344.346ZM93.3798 344.346H185.76V343.346H93.3798V344.346ZM185.76 344.346H278.139V343.346H185.76V344.346ZM278.139 344.346L370.519 344.346V343.346L278.139 343.346V344.346ZM370.519 344.346H462.899V343.346H370.519V344.346ZM462.899 344.346H555.279V343.346H462.899V344.346ZM555.279 344.346H647.658V343.346H555.279V344.346ZM647.658 344.346H740.038V343.346H647.658V344.346ZM740.038 344.346H832.418V343.346H740.038V344.346ZM832.418 344.346L924.798 344.346V343.346L832.418 343.346V344.346ZM924.798 344.346H1017.18V343.346H924.798V344.346ZM1017.18 344.346H1109.56V343.346H1017.18V344.346ZM1109.56 344.346H1201.94V343.346H1109.56V344.346ZM1 126.962H93.3798V125.962H1V126.962ZM93.3798 126.962L185.76 126.962V125.962L93.3798 125.962V126.962ZM185.76 126.962H278.139V125.962H185.76V126.962ZM278.139 126.962L370.519 126.962V125.962L278.139 125.962V126.962ZM370.519 126.962H462.899V125.962H370.519V126.962ZM462.899 126.962L555.279 126.962V125.962L462.899 125.962V126.962ZM555.279 126.962H647.658V125.962H555.279V126.962ZM647.658 126.962L740.038 126.962V125.962L647.658 125.962V126.962ZM740.038 126.962H832.418V125.962H740.038V126.962ZM832.418 126.962L924.798 126.962V125.962L832.418 125.962V126.962ZM924.798 126.962H1017.18V125.962H924.798V126.962ZM1017.18 126.962L1109.56 126.962V125.962L1017.18 125.962V126.962ZM1109.56 126.962H1201.94V125.962H1109.56V126.962ZM1 54.5H93.3798V53.5H1V54.5ZM93.3798 54.5H185.76V53.5H93.3798V54.5ZM185.76 54.5H278.139V53.5H185.76V54.5ZM278.139 54.5H370.519V53.5H278.139V54.5ZM370.519 54.5H462.899V53.5H370.519V54.5ZM462.899 54.5H555.279V53.5H462.899V54.5ZM555.279 54.5H647.658V53.5H555.279V54.5ZM647.658 54.5H740.038V53.5H647.658V54.5ZM740.038 54.5H832.418V53.5H740.038V54.5ZM832.418 54.5H924.798V53.5H832.418V54.5ZM924.798 54.5H1017.18V53.5H924.798V54.5ZM1017.18 54.5H1109.56V53.5H1017.18V54.5ZM1109.56 54.5H1201.94V53.5H1109.56V54.5ZM739.943 54V126.462H740.943V54H739.943ZM739.943 126.462V198.923H740.943V126.462H739.943ZM739.943 198.923V271.385H740.943V198.923H739.943ZM739.943 271.385V343.846H740.943V271.385H739.943ZM739.943 343.846V416.308H740.943V343.846H739.943ZM739.943 416.308V488.769H740.943V416.308H739.943ZM739.943 488.769V561.231H740.943V488.769H739.943ZM739.943 561.231V633.692H740.943V561.231H739.943ZM739.943 633.692V706.154H740.943V633.692H739.943ZM739.943 706.154V778.615H740.943V706.154H739.943ZM739.943 778.615V851.077H740.943V778.615H739.943ZM739.943 851.077L739.943 923.538H740.943L740.943 851.077H739.943ZM739.943 923.538V996H740.943V923.538H739.943ZM647.563 54V126.462H648.563V54H647.563ZM647.563 126.462V198.923H648.563V126.462H647.563ZM647.563 198.923V271.385H648.563V198.923H647.563ZM647.563 271.385V343.846H648.563V271.385H647.563ZM647.563 343.846V416.308H648.563V343.846H647.563ZM647.563 416.308V488.769H648.563V416.308H647.563ZM647.563 488.769V561.231H648.563V488.769H647.563ZM647.563 561.231V633.692H648.563V561.231H647.563ZM647.563 633.692V706.154H648.563V633.692H647.563ZM647.563 706.154V778.615H648.563V706.154H647.563ZM647.563 778.615V851.077H648.563V778.615H647.563ZM647.563 851.077V923.538H648.563V851.077H647.563ZM647.563 923.538V996H648.563V923.538H647.563ZM832.322 54V126.462H833.322V54H832.322ZM832.322 126.462V198.923H833.322V126.462H832.322ZM832.322 198.923V271.385H833.322V198.923H832.322ZM832.322 271.385V343.846H833.322V271.385H832.322ZM832.322 343.846V416.308H833.322V343.846H832.322ZM832.322 416.308V488.769H833.322V416.308H832.322ZM832.322 488.769V561.231H833.322V488.769H832.322ZM832.322 561.231V633.692H833.322V561.231H832.322ZM832.322 633.692V706.154H833.322V633.692H832.322ZM832.322 706.154V778.615H833.322V706.154H832.322ZM832.322 778.615V851.077H833.322V778.615H832.322ZM832.322 851.077V923.538H833.322V851.077H832.322ZM832.322 923.538V996H833.322V923.538H832.322ZM924.702 54V126.462H925.702V54H924.702ZM924.702 126.462V198.923H925.702V126.462H924.702ZM924.702 198.923L924.702 271.385H925.702L925.702 198.923H924.702ZM924.702 271.385V343.846H925.702V271.385H924.702ZM924.702 343.846V416.308H925.702V343.846H924.702ZM924.702 416.308V488.769H925.702V416.308H924.702ZM924.702 488.769V561.231H925.702V488.769H924.702ZM924.702 561.231V633.692H925.702V561.231H924.702ZM924.702 633.692V706.154H925.702V633.692H924.702ZM924.702 706.154V778.615H925.702V706.154H924.702ZM924.702 778.615V851.077H925.702V778.615H924.702ZM924.702 851.077V923.538H925.702V851.077H924.702ZM924.702 923.538V996H925.702V923.538H924.702ZM1017.08 54V126.462H1018.08V54H1017.08ZM1017.08 126.462V198.923H1018.08V126.462H1017.08ZM1017.08 198.923V271.385H1018.08V198.923H1017.08ZM1017.08 271.385V343.846H1018.08V271.385H1017.08ZM1017.08 343.846V416.308H1018.08V343.846H1017.08ZM1017.08 416.308V488.769H1018.08V416.308H1017.08ZM1017.08 488.769L1017.08 561.231H1018.08L1018.08 488.769H1017.08ZM1017.08 561.231V633.692H1018.08V561.231H1017.08ZM1017.08 633.692V706.154H1018.08V633.692H1017.08ZM1017.08 706.154V778.615H1018.08V706.154H1017.08ZM1017.08 778.615V851.077H1018.08V778.615H1017.08ZM1017.08 851.077V923.538H1018.08V851.077H1017.08ZM1017.08 923.538V996H1018.08V923.538H1017.08ZM1294.22 54V126.462H1295.22V54H1294.22ZM1294.22 126.462V198.923H1295.22V126.462H1294.22ZM1294.22 198.923V271.385H1295.22V198.923H1294.22ZM1294.22 271.385V343.846H1295.22V271.385H1294.22ZM1294.22 343.846V416.308H1295.22V343.846H1294.22ZM1294.22 416.308V488.769H1295.22V416.308H1294.22ZM1294.22 488.769V561.231H1295.22V488.769H1294.22ZM1294.22 561.231V633.692H1295.22V561.231H1294.22ZM1294.22 633.692V706.154H1295.22V633.692H1294.22ZM1294.22 706.154V778.615H1295.22V706.154H1294.22ZM1294.22 778.615V851.077H1295.22V778.615H1294.22ZM1294.22 851.077V923.538H1295.22V851.077H1294.22ZM1294.22 923.538V996H1295.22V923.538H1294.22ZM1571.36 54V126.462H1572.36V54H1571.36ZM1571.36 126.462V198.923H1572.36V126.462H1571.36ZM1571.36 198.923V271.385H1572.36V198.923H1571.36ZM1571.36 271.385V343.846H1572.36V271.385H1571.36ZM1571.36 343.846V416.308H1572.36V343.846H1571.36ZM1571.36 416.308V488.769H1572.36V416.308H1571.36ZM1571.36 488.769L1571.36 561.231H1572.36L1572.36 488.769H1571.36ZM1571.36 561.231V633.692H1572.36V561.231H1571.36ZM1571.36 633.692V706.154H1572.36V633.692H1571.36ZM1571.36 706.154V778.615H1572.36V706.154H1571.36ZM1571.36 778.615V851.077H1572.36V778.615H1571.36ZM1571.36 851.077V923.538H1572.36V851.077H1571.36ZM1571.36 923.538V996H1572.36V923.538H1571.36ZM1109.46 54V126.462H1110.46V54H1109.46ZM1109.46 126.462V198.923H1110.46V126.462H1109.46ZM1109.46 198.923V271.385H1110.46V198.923H1109.46ZM1109.46 271.385V343.846H1110.46V271.385H1109.46ZM1109.46 343.846V416.308H1110.46V343.846H1109.46ZM1109.46 416.308V488.769H1110.46V416.308H1109.46ZM1109.46 488.769V561.231H1110.46V488.769H1109.46ZM1109.46 561.231V633.692H1110.46V561.231H1109.46ZM1109.46 633.692V706.154H1110.46V633.692H1109.46ZM1109.46 706.154V778.615H1110.46V706.154H1109.46ZM1109.46 778.615V851.077H1110.46V778.615H1109.46ZM1109.46 851.077V923.538H1110.46V851.077H1109.46ZM1109.46 923.538V996H1110.46V923.538H1109.46ZM1386.6 54V126.462H1387.6V54H1386.6ZM1386.6 126.462V198.923H1387.6V126.462H1386.6ZM1386.6 198.923V271.385H1387.6V198.923H1386.6ZM1386.6 271.385V343.846H1387.6V271.385H1386.6ZM1386.6 343.846V416.308H1387.6V343.846H1386.6ZM1386.6 416.308V488.769H1387.6V416.308H1386.6ZM1386.6 488.769V561.231H1387.6V488.769H1386.6ZM1386.6 561.231V633.692H1387.6V561.231H1386.6ZM1386.6 633.692V706.154H1387.6V633.692H1386.6ZM1386.6 706.154V778.615H1387.6V706.154H1386.6ZM1386.6 778.615V851.077H1387.6V778.615H1386.6ZM1386.6 851.077V923.538H1387.6V851.077H1386.6ZM1386.6 923.538V996H1387.6V923.538H1386.6ZM1663.74 54V126.462H1664.74V54H1663.74ZM1663.74 126.462V198.923H1664.74V126.462H1663.74ZM1663.74 198.923V271.385H1664.74V198.923H1663.74ZM1663.74 271.385V343.846H1664.74V271.385H1663.74ZM1663.74 343.846V416.308H1664.74V343.846H1663.74ZM1663.74 416.308V488.769H1664.74V416.308H1663.74ZM1663.74 488.769V561.231H1664.74V488.769H1663.74ZM1663.74 561.231V633.692H1664.74V561.231H1663.74ZM1663.74 633.692V706.154H1664.74V633.692H1663.74ZM1663.74 706.154V778.615H1664.74V706.154H1663.74ZM1663.74 778.615V851.077H1664.74V778.615H1663.74ZM1663.74 851.077V923.538H1664.74V851.077H1663.74ZM1663.74 923.538V996H1664.74V923.538H1663.74ZM1201.84 54V126.462H1202.84V54H1201.84ZM1201.84 126.462V198.923H1202.84V126.462H1201.84ZM1201.84 198.923V271.385H1202.84V198.923H1201.84ZM1201.84 271.385V343.846H1202.84V271.385H1201.84ZM1201.84 343.846V416.308H1202.84V343.846H1201.84ZM1201.84 416.308V488.769H1202.84V416.308H1201.84ZM1201.84 488.769V561.231H1202.84V488.769H1201.84ZM1201.84 561.231V633.692H1202.84V561.231H1201.84ZM1201.84 633.692V706.154H1202.84V633.692H1201.84ZM1201.84 706.154L1201.84 778.615H1202.84L1202.84 706.154H1201.84ZM1201.84 778.615V851.077H1202.84V778.615H1201.84ZM1201.84 851.077V923.538H1202.84V851.077H1201.84ZM1201.84 923.538V996H1202.84V923.538H1201.84ZM1478.98 54V126.462H1479.98V54H1478.98ZM1478.98 126.462V198.923H1479.98V126.462H1478.98ZM1478.98 198.923V271.385H1479.98V198.923H1478.98ZM1478.98 271.385V343.846H1479.98V271.385H1478.98ZM1478.98 343.846V416.308H1479.98V343.846H1478.98ZM1478.98 416.308V488.769H1479.98V416.308H1478.98ZM1478.98 488.769V561.231H1479.98V488.769H1478.98ZM1478.98 561.231V633.692H1479.98V561.231H1478.98ZM1478.98 633.692V706.154H1479.98V633.692H1478.98ZM1478.98 706.154V778.615H1479.98V706.154H1478.98ZM1478.98 778.615V851.077H1479.98V778.615H1478.98ZM1478.98 851.077V923.538H1479.98V851.077H1478.98ZM1478.98 923.538V996H1479.98V923.538H1478.98ZM1756.12 54V126.462H1757.12V54H1756.12ZM1756.12 126.462V198.923H1757.12V126.462H1756.12ZM1756.12 198.923V271.385H1757.12V198.923H1756.12ZM1756.12 271.385V343.846H1757.12V271.385H1756.12ZM1756.12 343.846V416.308H1757.12V343.846H1756.12ZM1756.12 416.308V488.769H1757.12V416.308H1756.12ZM1756.12 488.769V561.231H1757.12V488.769H1756.12ZM1756.12 561.231V633.692H1757.12V561.231H1756.12ZM1756.12 633.692V706.154H1757.12V633.692H1756.12ZM1756.12 706.154V778.615H1757.12V706.154H1756.12ZM1756.12 778.615V851.077H1757.12V778.615H1756.12ZM1756.12 851.077V923.538H1757.12V851.077H1756.12ZM1756.12 923.538V996H1757.12V923.538H1756.12ZM1848.5 54V996H1849.5V54H1848.5ZM648.063 924.038H740.443V923.038H648.063V924.038ZM740.443 924.038H832.822V923.038H740.443V924.038ZM832.822 924.038H925.202V923.038H832.822V924.038ZM925.202 924.038H1017.58V923.038H925.202V924.038ZM1017.58 924.038H1109.96V923.038H1017.58V924.038ZM1109.96 924.038H1202.34V923.038H1109.96V924.038ZM1202.34 924.038L1294.72 924.038V923.038L1202.34 923.038V924.038ZM1294.72 924.038H1387.1V923.038H1294.72V924.038ZM1387.1 924.038H1479.48V923.038H1387.1V924.038ZM1479.48 924.038H1571.86V923.038H1479.48V924.038ZM1571.86 924.038H1664.24V923.038H1571.86V924.038ZM1664.24 924.038H1756.62V923.038H1664.24V924.038ZM1756.62 924.038H1849V923.038H1756.62V924.038ZM648.063 996.5L740.443 996.5V995.5L648.063 995.5V996.5ZM740.443 996.5H832.822V995.5H740.443V996.5ZM832.822 996.5H925.202V995.5H832.822V996.5ZM925.202 996.5H1017.58V995.5H925.202V996.5ZM1017.58 996.5H1109.96V995.5H1017.58V996.5ZM1109.96 996.5H1202.34V995.5H1109.96V996.5ZM1202.34 996.5H1294.72V995.5H1202.34V996.5ZM1294.72 996.5H1387.1V995.5H1294.72V996.5ZM1387.1 996.5H1479.48V995.5H1387.1V996.5ZM1479.48 996.5H1571.86V995.5H1479.48V996.5ZM1571.86 996.5H1664.24V995.5H1571.86V996.5ZM1664.24 996.5H1756.62V995.5H1664.24V996.5ZM1756.62 996.5H1849V995.5H1756.62V996.5ZM648.063 851.577H740.443V850.577H648.063V851.577ZM740.443 851.577H832.822V850.577H740.443V851.577ZM832.822 851.577H925.202V850.577H832.822V851.577ZM925.202 851.577H1017.58V850.577H925.202V851.577ZM1017.58 851.577H1109.96V850.577H1017.58V851.577ZM1109.96 851.577H1202.34V850.577H1109.96V851.577ZM1202.34 851.577L1294.72 851.577V850.577L1202.34 850.577V851.577ZM1294.72 851.577H1387.1V850.577H1294.72V851.577ZM1387.1 851.577H1479.48V850.577H1387.1V851.577ZM1479.48 851.577H1571.86V850.577H1479.48V851.577ZM1571.86 851.577H1664.24V850.577H1571.86V851.577ZM1664.24 851.577H1756.62V850.577H1664.24V851.577ZM1756.62 851.577H1849V850.577H1756.62V851.577ZM648.063 779.115H740.443V778.115H648.063V779.115ZM740.443 779.115H832.822V778.115H740.443V779.115ZM832.822 779.115H925.202V778.115H832.822V779.115ZM925.202 779.115H1017.58V778.115H925.202V779.115ZM1017.58 779.115H1109.96V778.115H1017.58V779.115ZM1109.96 779.115H1202.34V778.115H1109.96V779.115ZM1202.34 779.115L1294.72 779.115V778.115L1202.34 778.115V779.115ZM1294.72 779.115H1387.1V778.115H1294.72V779.115ZM1387.1 779.115H1479.48V778.115H1387.1V779.115ZM1479.48 779.115H1571.86V778.115H1479.48V779.115ZM1571.86 779.115H1664.24V778.115H1571.86V779.115ZM1664.24 779.115H1756.62V778.115H1664.24V779.115ZM1756.62 779.115H1849V778.115H1756.62V779.115ZM648.063 706.654H740.443V705.654H648.063V706.654ZM740.443 706.654H832.822V705.654H740.443V706.654ZM832.822 706.654H925.202V705.654H832.822V706.654ZM925.202 706.654H1017.58V705.654H925.202V706.654ZM1017.58 706.654H1109.96V705.654H1017.58V706.654ZM1109.96 706.654H1202.34V705.654H1109.96V706.654ZM1202.34 706.654H1294.72V705.654H1202.34V706.654ZM1294.72 706.654H1387.1V705.654H1294.72V706.654ZM1387.1 706.654H1479.48V705.654H1387.1V706.654ZM1479.48 706.654H1571.86V705.654H1479.48V706.654ZM1571.86 706.654H1664.24V705.654H1571.86V706.654ZM1664.24 706.654H1756.62V705.654H1664.24V706.654ZM1756.62 706.654H1849V705.654H1756.62V706.654ZM648.063 489.269H740.443V488.269H648.063V489.269ZM740.443 489.269H832.822V488.269H740.443V489.269ZM832.822 489.269H925.202V488.269H832.822V489.269ZM925.202 489.269H1017.58V488.269H925.202V489.269ZM1017.58 489.269H1109.96V488.269H1017.58V489.269ZM1109.96 489.269H1202.34V488.269H1109.96V489.269ZM1202.34 489.269L1294.72 489.269V488.269L1202.34 488.269V489.269ZM1294.72 489.269H1387.1V488.269H1294.72V489.269ZM1387.1 489.269H1479.48V488.269H1387.1V489.269ZM1479.48 489.269H1571.86V488.269H1479.48V489.269ZM1571.86 489.269H1664.24V488.269H1571.86V489.269ZM1664.24 489.269H1756.62V488.269H1664.24V489.269ZM1756.62 489.269H1849V488.269H1756.62V489.269ZM648.063 271.885H740.443V270.885H648.063V271.885ZM740.443 271.885H832.822V270.885H740.443V271.885ZM832.822 271.885L925.202 271.885V270.885L832.822 270.885V271.885ZM925.202 271.885H1017.58V270.885H925.202V271.885ZM1017.58 271.885H1109.96V270.885H1017.58V271.885ZM1109.96 271.885H1202.34V270.885H1109.96V271.885ZM1202.34 271.885L1294.72 271.885V270.885L1202.34 270.885V271.885ZM1294.72 271.885H1387.1V270.885H1294.72V271.885ZM1387.1 271.885H1479.48V270.885H1387.1V271.885ZM1479.48 271.885H1571.86V270.885H1479.48V271.885ZM1571.86 271.885L1664.24 271.885V270.885L1571.86 270.885V271.885ZM1664.24 271.885H1756.62V270.885H1664.24V271.885ZM1756.62 271.885H1849V270.885H1756.62V271.885ZM648.063 634.192H740.443V633.192H648.063V634.192ZM740.443 634.192H832.822V633.192H740.443V634.192ZM832.822 634.192H925.202V633.192H832.822V634.192ZM925.202 634.192H1017.58V633.192H925.202V634.192ZM1017.58 634.192H1109.96V633.192H1017.58V634.192ZM1109.96 634.192H1202.34V633.192H1109.96V634.192ZM1202.34 634.192L1294.72 634.192V633.192L1202.34 633.192V634.192ZM1294.72 634.192H1387.1V633.192H1294.72V634.192ZM1387.1 634.192H1479.48V633.192H1387.1V634.192ZM1479.48 634.192H1571.86V633.192H1479.48V634.192ZM1571.86 634.192H1664.24V633.192H1571.86V634.192ZM1664.24 634.192H1756.62V633.192H1664.24V634.192ZM1756.62 634.192H1849V633.192H1756.62V634.192ZM648.063 416.808H740.443V415.808H648.063V416.808ZM740.443 416.808H832.822V415.808H740.443V416.808ZM832.822 416.808H925.202V415.808H832.822V416.808ZM925.202 416.808L1017.58 416.808V415.808L925.202 415.808V416.808ZM1017.58 416.808H1109.96V415.808H1017.58V416.808ZM1109.96 416.808H1202.34V415.808H1109.96V416.808ZM1202.34 416.808H1294.72V415.808H1202.34V416.808ZM1294.72 416.808H1387.1V415.808H1294.72V416.808ZM1387.1 416.808H1479.48V415.808H1387.1V416.808ZM1479.48 416.808L1571.86 416.808V415.808L1479.48 415.808V416.808ZM1571.86 416.808H1664.24V415.808H1571.86V416.808ZM1664.24 416.808H1756.62V415.808H1664.24V416.808ZM1756.62 416.808H1849V415.808H1756.62V416.808ZM648.063 199.423H740.443V198.423H648.063V199.423ZM740.443 199.423L832.822 199.423V198.423L740.443 198.423V199.423ZM832.822 199.423H925.202V198.423H832.822V199.423ZM925.202 199.423H1017.58V198.423H925.202V199.423ZM1017.58 199.423L1109.96 199.423V198.423L1017.58 198.423V199.423ZM1109.96 199.423H1202.34V198.423H1109.96V199.423ZM1202.34 199.423H1294.72V198.423H1202.34V199.423ZM1294.72 199.423H1387.1V198.423H1294.72V199.423ZM1387.1 199.423L1479.48 199.423V198.423L1387.1 198.423V199.423ZM1479.48 199.423H1571.86V198.423H1479.48V199.423ZM1571.86 199.423H1664.24V198.423H1571.86V199.423ZM1664.24 199.423L1756.62 199.423V198.423L1664.24 198.423V199.423ZM1756.62 199.423H1849V198.423H1756.62V199.423ZM648.063 561.731H740.443V560.731H648.063V561.731ZM740.443 561.731H832.822V560.731H740.443V561.731ZM832.822 561.731H925.202V560.731H832.822V561.731ZM925.202 561.731H1017.58V560.731H925.202V561.731ZM1017.58 561.731H1109.96V560.731H1017.58V561.731ZM1109.96 561.731H1202.34V560.731H1109.96V561.731ZM1202.34 561.731L1294.72 561.731V560.731L1202.34 560.731V561.731ZM1294.72 561.731H1387.1V560.731H1294.72V561.731ZM1387.1 561.731H1479.48V560.731H1387.1V561.731ZM1479.48 561.731H1571.86V560.731H1479.48V561.731ZM1571.86 561.731H1664.24V560.731H1571.86V561.731ZM1664.24 561.731H1756.62V560.731H1664.24V561.731ZM1756.62 561.731H1849V560.731H1756.62V561.731ZM648.063 344.346H740.443V343.346H648.063V344.346ZM740.443 344.346H832.822V343.346H740.443V344.346ZM832.822 344.346H925.202V343.346H832.822V344.346ZM925.202 344.346L1017.58 344.346V343.346L925.202 343.346V344.346ZM1017.58 344.346H1109.96V343.346H1017.58V344.346ZM1109.96 344.346H1202.34V343.346H1109.96V344.346ZM1202.34 344.346H1294.72V343.346H1202.34V344.346ZM1294.72 344.346H1387.1V343.346H1294.72V344.346ZM1387.1 344.346H1479.48V343.346H1387.1V344.346ZM1479.48 344.346L1571.86 344.346V343.346L1479.48 343.346V344.346ZM1571.86 344.346H1664.24V343.346H1571.86V344.346ZM1664.24 344.346H1756.62V343.346H1664.24V344.346ZM1756.62 344.346H1849V343.346H1756.62V344.346ZM648.063 126.962H740.443V125.962H648.063V126.962ZM740.443 126.962L832.822 126.962V125.962L740.443 125.962V126.962ZM832.822 126.962H925.202V125.962H832.822V126.962ZM925.202 126.962L1017.58 126.962V125.962L925.202 125.962V126.962ZM1017.58 126.962H1109.96V125.962H1017.58V126.962ZM1109.96 126.962L1202.34 126.962V125.962L1109.96 125.962V126.962ZM1202.34 126.962H1294.72V125.962H1202.34V126.962ZM1294.72 126.962L1387.1 126.962V125.962L1294.72 125.962V126.962ZM1387.1 126.962H1479.48V125.962H1387.1V126.962ZM1479.48 126.962L1571.86 126.962V125.962L1479.48 125.962V126.962ZM1571.86 126.962H1664.24V125.962H1571.86V126.962ZM1664.24 126.962L1756.62 126.962V125.962L1664.24 125.962V126.962ZM1756.62 126.962H1849V125.962H1756.62V126.962ZM648.063 54.5H740.443V53.5H648.063V54.5ZM740.443 54.5H832.822V53.5H740.443V54.5ZM832.822 54.5H925.202V53.5H832.822V54.5ZM925.202 54.5H1017.58V53.5H925.202V54.5ZM1017.58 54.5H1109.96V53.5H1017.58V54.5ZM1109.96 54.5H1202.34V53.5H1109.96V54.5ZM1202.34 54.5H1294.72V53.5H1202.34V54.5ZM1294.72 54.5H1387.1V53.5H1294.72V54.5ZM1387.1 54.5H1479.48V53.5H1387.1V54.5ZM1479.48 54.5H1571.86V53.5H1479.48V54.5ZM1571.86 54.5H1664.24V53.5H1571.86V54.5ZM1664.24 54.5H1756.62V53.5H1664.24V54.5ZM1756.62 54.5H1849V53.5H1756.62V54.5Z" fill="url(#paint0_linear_1_17583)" fill-opacity="0.6"/>
<g filter="url(#filter0_f_1_17583)">
<path d="M2011.33 99.6682C2011.33 286.05 1811.61 709.913 1814.04 399.082C1816.46 88.2499 1785.74 433.336 1612.7 289.973C1439.66 146.61 1619.98 -234 1771.99 -234C1924.01 -234 2011.33 -86.7137 2011.33 99.6682Z" fill="#2A2600"/>
</g>
<defs>
<filter id="filter0_f_1_17583" x="1392" y="-384" width="769.333" height="1043.67" filterUnits="userSpaceOnUse" color-interpolation-filters="sRGB">
<feFlood flood-opacity="0" result="BackgroundImageFix"/>
<feBlend mode="normal" in="SourceGraphic" in2="BackgroundImageFix" result="shape"/>
<feGaussianBlur stdDeviation="75" result="effect1_foregroundBlur_1_17583"/>
</filter>
<linearGradient id="paint0_linear_1_17583" x1="1" y1="54" x2="1557.56" y2="1308.02" gradientUnits="userSpaceOnUse">
<stop stop-color="white" stop-opacity="0.1"/>
<stop offset="1" stop-color="white" stop-opacity="0"/>
</linearGradient>
</defs>
</svg>
