<svg xmlns="http://www.w3.org/2000/svg" width="81" height="80" viewBox="0 0 81 80" fill="none">
  <path fill-rule="evenodd" clip-rule="evenodd" d="M30.9382 41.2449C30.9382 39.3779 31.7303 37.8503 33.6539 37.8503C39.8208 37.8503 62.5083 44.2435 62.5083 48.0908V49.2223C62.5083 56.747 30.9382 45.9408 30.9382 41.2449ZM63.9227 76.4924C58.1518 76.4924 8.98633 60.8772 8.98633 56.0115V52.6169C8.98633 45.8277 14.7006 46.5066 14.4743 34.3991C14.3046 24.3849 16.3979 23.4797 24.545 19.9719C29.1278 17.9917 59.2834 3.67773 59.7926 3.67773C60.9807 3.67773 62.5083 4.92243 62.5083 5.94082C62.5083 17.2562 47.289 13.9182 46.0443 26.4217H39.1985C36.1433 26.4217 36.1999 27.327 33.7105 28.6848V35.5306C31.7303 36.3793 28.2225 37.4543 28.2225 40.0568C28.2225 43.112 28.9015 43.1685 29.5804 45.7711C27.7133 48.0908 25.4503 48.7131 25.4503 51.4854V52.6169C25.4503 58.7272 59.9057 68.119 67.9962 69.7032C72.9184 71.8531 70.9382 76.2096 63.9227 76.4924ZM55.6624 62.8574C50.4008 62.8574 28.2225 55.8418 28.2225 52.6169C28.2225 49.5618 30.2027 49.2223 32.3527 48.0908C37.7841 49.1091 58.4347 54.0313 58.4347 58.3312V59.4627C58.4347 61.2732 57.586 62.8574 55.6624 62.8574ZM61.1504 41.2449C55.4361 41.2449 37.8406 36.3227 37.8406 32.136V28.7414H43.3286C48.0811 28.7414 58.6044 33.3807 63.9227 34.4557V37.8503C63.9227 39.6608 63.074 41.2449 61.1504 41.2449Z" fill="url(#paint0_linear_1_11102)"/>
  <defs>
    <linearGradient id="paint0_linear_1_11102" x1="82.1109" y1="21.1988" x2="-7.04199" y2="27.881" gradientUnits="userSpaceOnUse">
      <stop stop-color="#A49C4C"/>
      <stop offset="0.38056" stop-color="#CAA962"/>
      <stop offset="0.803179" stop-color="#BF953F"/>
      <stop offset="1" stop-color="#988001"/>
    </linearGradient>
  </defs>
</svg>