<svg width="35" height="34" viewBox="0 0 35 34" fill="none" xmlns="http://www.w3.org/2000/svg">
<g id="Group 13">
<path id="Layer 5" fill-rule="evenodd" clip-rule="evenodd" d="M16.0368 0.102354C13.9572 0.27293 11.7015 0.913091 9.76974 1.88117C6.71532 3.41169 3.85725 6.26833 2.32598 9.32125C-0.10866 14.1749 -0.10866 19.8246 2.32598 24.6782C3.85725 27.7311 6.71532 30.5878 9.76974 32.1183C14.6258 34.5517 20.2783 34.5517 25.1343 32.1183C28.1766 30.5939 31.0529 27.719 32.5781 24.6782C35.0127 19.8246 35.0127 14.1749 32.5781 9.32125C31.0529 6.28045 28.1766 3.40557 25.1343 1.88117C23.9159 1.27059 22.3389 0.70871 21.09 0.44017C20.1438 0.23668 17.719 -0.0370869 17.2295 0.00416711C17.1377 0.0119509 16.6011 0.056096 16.0368 0.102354ZM20.3241 1.93032C23.4256 2.5349 25.9512 3.89395 28.2578 6.19928C31.3244 9.26431 32.7405 12.6762 32.7405 16.9997C32.7405 21.3233 31.3244 24.7351 28.2578 27.8002C25.1913 30.8652 21.7777 32.2806 17.452 32.2806C13.1263 32.2806 9.71278 30.8652 6.64623 27.8002C3.57968 24.7351 2.16355 21.3233 2.16355 16.9997C2.16355 13.7326 2.9046 11.2269 4.66138 8.55276C5.41778 7.40132 7.12739 5.57591 8.20554 4.76851C10.3271 3.17973 12.9013 2.12302 15.5051 1.77231C16.5826 1.62709 19.2106 1.71326 20.3241 1.93032ZM15.0765 5.21352C14.5349 5.32761 14.0761 5.43669 14.0569 5.45593C14.0093 5.50397 17.3827 12.9917 17.452 12.992C17.5194 12.9922 20.8924 5.50508 20.8467 5.45693C20.8289 5.43825 20.3457 5.32627 19.7728 5.20818C18.4077 4.92663 16.4281 4.92886 15.0765 5.21352ZM10.2202 7.39031C9.45823 7.95097 8.11464 9.28633 7.88958 9.70654C7.75786 9.95251 7.96812 10.4656 10.5088 16.0988C12.0282 19.4675 13.3025 22.1867 13.3407 22.1415C13.379 22.0962 13.8764 21.0208 14.4461 19.7518L15.482 17.4445H17.452H19.4221L20.4579 19.7518C21.0277 21.0208 21.5255 22.0967 21.5642 22.1424C21.6029 22.1881 22.8787 19.4715 24.3993 16.1056C27.5803 9.06393 27.3907 9.94984 26.0131 8.56366C25.2146 7.76026 23.9607 6.78773 23.8569 6.89148C23.8308 6.91761 22.8308 9.11508 21.635 11.7748L19.4607 16.6105L17.4724 16.6408L15.484 16.671L13.2774 11.7759C12.0638 9.08362 11.0352 6.88081 10.9917 6.88081C10.9482 6.88081 10.601 7.11009 10.2202 7.39031ZM5.61503 14.8592C4.72646 19.6978 6.93126 24.6203 11.1587 27.2362C11.6441 27.5365 12.0636 27.7599 12.091 27.7327C12.1553 27.6683 5.96036 13.8921 5.86557 13.8888C5.82608 13.8873 5.71327 14.3241 5.61503 14.8592Z" fill="#B3B3B3"/>
<path id="Vector" fill-rule="evenodd" clip-rule="evenodd" d="M17.0001 19.6714L17.0641 25.6183C17.0001 30.4585 17.0641 27.6252 17.0641 34C23.2362 33.9845 28.9581 30.8001 32.0923 25.6183L17.0001 19.6714ZM19.5234 15.6097L32.3171 25.2243C35.2907 19.9956 35.2263 13.6429 32.1245 8.47663C30.6081 5.93645 28.4402 3.82079 25.832 2.33556C23.2238 0.850329 20.2641 0.0461283 17.2408 0.00122725L19.5234 15.6097Z" fill="#EEEEEE"/>
</g>
</svg>
