<svg width="28" height="28" viewBox="0 0 28 28" fill="none" xmlns="http://www.w3.org/2000/svg">
<g id="car_rental">
<mask id="mask0_1_16839" style="mask-type:alpha" maskUnits="userSpaceOnUse" x="0" y="0" width="28" height="28">
<rect id="Bounding box" width="28" height="28" fill="#D9D9D9"/>
</mask>
<g mask="url(#mask0_1_16839)">
<path id="car_rental_2" d="M9.33325 8.16666C8.36103 8.16666 7.53464 7.82638 6.85409 7.14582C6.17353 6.46527 5.83325 5.63888 5.83325 4.66666C5.83325 3.69443 6.17353 2.86805 6.85409 2.18749C7.53464 1.50693 8.36103 1.16666 9.33325 1.16666C10.0721 1.16666 10.743 1.38541 11.3458 1.82291C11.9485 2.26041 12.386 2.81943 12.6583 3.49999H22.1666V5.83332H20.9999V8.16666H18.6666V5.83332H12.6583C12.386 6.51388 11.9485 7.07291 11.3458 7.51041C10.743 7.94791 10.0721 8.16666 9.33325 8.16666ZM9.33325 5.83332C9.66381 5.83332 9.94089 5.72152 10.1645 5.49791C10.3881 5.2743 10.4999 4.99721 10.4999 4.66666C10.4999 4.3361 10.3881 4.05902 10.1645 3.83541C9.94089 3.6118 9.66381 3.49999 9.33325 3.49999C9.0027 3.49999 8.72561 3.6118 8.502 3.83541C8.27839 4.05902 8.16659 4.3361 8.16659 4.66666C8.16659 4.99721 8.27839 5.2743 8.502 5.49791C8.72561 5.72152 9.0027 5.83332 9.33325 5.83332ZM10.4999 20.4167C10.8305 20.4167 11.1076 20.3048 11.3312 20.0812C11.5548 19.8576 11.6666 19.5805 11.6666 19.25C11.6666 18.9194 11.5548 18.6424 11.3312 18.4187C11.1076 18.1951 10.8305 18.0833 10.4999 18.0833C10.1694 18.0833 9.89228 18.1951 9.66867 18.4187C9.44506 18.6424 9.33325 18.9194 9.33325 19.25C9.33325 19.5805 9.44506 19.8576 9.66867 20.0812C9.89228 20.3048 10.1694 20.4167 10.4999 20.4167ZM17.4999 20.4167C17.8305 20.4167 18.1076 20.3048 18.3312 20.0812C18.5548 19.8576 18.6666 19.5805 18.6666 19.25C18.6666 18.9194 18.5548 18.6424 18.3312 18.4187C18.1076 18.1951 17.8305 18.0833 17.4999 18.0833C17.1694 18.0833 16.8923 18.1951 16.6687 18.4187C16.4451 18.6424 16.3333 18.9194 16.3333 19.25C16.3333 19.5805 16.4451 19.8576 16.6687 20.0812C16.8923 20.3048 17.1694 20.4167 17.4999 20.4167ZM5.83325 17.0333L7.75825 11.4333C7.85547 11.1611 8.01589 10.9375 8.2395 10.7625C8.46311 10.5875 8.71103 10.5 8.98325 10.5H19.0166C19.2888 10.5 19.5367 10.5875 19.7603 10.7625C19.9839 10.9375 20.1444 11.1611 20.2416 11.4333L22.1666 17.0333V24.7333C22.1666 25.0055 22.0791 25.2292 21.9041 25.4042C21.7291 25.5792 21.5055 25.6667 21.2333 25.6667H20.7666C20.4944 25.6667 20.2708 25.5792 20.0958 25.4042C19.9208 25.2292 19.8333 25.0055 19.8333 24.7333V23.3333H8.16659V24.7333C8.16659 25.0055 8.07909 25.2292 7.90409 25.4042C7.72909 25.5792 7.50547 25.6667 7.23325 25.6667H6.76659C6.49436 25.6667 6.27075 25.5792 6.09575 25.4042C5.92075 25.2292 5.83325 25.0055 5.83325 24.7333V17.0333ZM8.92492 15.1667H19.0749L18.2583 12.8333H9.74159L8.92492 15.1667ZM8.16659 21H19.8333V17.5H8.16659V21Z" fill="#EDEDED"/>
</g>
</g>
</svg>
