<svg width="25" height="24" viewBox="0 0 25 24" fill="none" xmlns="http://www.w3.org/2000/svg">
<path d="M20.8779 6.29L19.3379 4.75L17.9279 3.34C17.8347 3.24676 17.724 3.1728 17.6021 3.12234C17.4803 3.07188 17.3498 3.04591 17.2179 3.04591C17.086 3.04591 16.9555 3.07188 16.8336 3.12234C16.7118 3.1728 16.6011 3.24676 16.5079 3.34C16.4147 3.43324 16.3407 3.54393 16.2902 3.66575C16.2398 3.78757 16.2138 3.91814 16.2138 4.05C16.2138 4.18186 16.2398 4.31243 16.2902 4.43425C16.3407 4.55607 16.4147 4.66676 16.5079 4.76L17.5079 5.76L16.6779 8.25C16.5024 8.77902 16.4777 9.34648 16.6066 9.88874C16.7356 10.431 17.013 10.9266 17.4079 11.32L20.3579 14.32V19C20.3579 19.2652 20.2525 19.5196 20.065 19.7071C19.8775 19.8946 19.6231 20 19.3579 20C19.0927 20 18.8383 19.8946 18.6508 19.7071C18.4633 19.5196 18.3579 19.2652 18.3579 19V17C18.3579 16.2044 18.0418 15.4413 17.4792 14.8787C16.9166 14.3161 16.1535 14 15.3579 14H14.3379V5C14.3379 4.20435 14.0218 3.44129 13.4592 2.87868C12.8966 2.31607 12.1335 2 11.3379 2H5.33789C4.54224 2 3.77918 2.31607 3.21657 2.87868C2.65396 3.44129 2.33789 4.20435 2.33789 5V19C2.33789 19.7956 2.65396 20.5587 3.21657 21.1213C3.77918 21.6839 4.54224 22 5.33789 22H11.3379C12.1335 22 12.8966 21.6839 13.4592 21.1213C14.0218 20.5587 14.3379 19.7956 14.3379 19V16H15.3379C15.6031 16 15.8575 16.1054 16.045 16.2929C16.2325 16.4804 16.3379 16.7348 16.3379 17V19C16.3379 19.7956 16.654 20.5587 17.2166 21.1213C17.7792 21.6839 18.5422 22 19.3379 22C20.1335 22 20.8966 21.6839 21.4592 21.1213C22.0218 20.5587 22.3379 19.7956 22.3379 19V9.83C22.3391 9.17295 22.2107 8.52211 21.9602 7.91469C21.7097 7.30728 21.3419 6.75519 20.8779 6.29ZM12.3379 19C12.3379 19.2652 12.2325 19.5196 12.045 19.7071C11.8575 19.8946 11.6031 20 11.3379 20H5.33789C5.07267 20 4.81832 19.8946 4.63078 19.7071C4.44325 19.5196 4.33789 19.2652 4.33789 19V12H12.3379V19ZM12.3379 10H4.33789V5C4.33789 4.73478 4.44325 4.48043 4.63078 4.29289C4.81832 4.10536 5.07267 4 5.33789 4H11.3379C11.6031 4 11.8575 4.10536 12.045 4.29289C12.2325 4.48043 12.3379 4.73478 12.3379 5V10ZM20.3379 11.42L18.7979 9.88C18.6711 9.75068 18.5818 9.58934 18.5395 9.41322C18.4972 9.23709 18.5036 9.05279 18.5579 8.88L19.0679 7.34L19.4579 7.74C20.0134 8.2947 20.3293 9.04503 20.3379 9.83V11.42Z" fill="#494949"/>
</svg>
