<svg width="25" height="24" viewBox="0 0 25 24" fill="none" xmlns="http://www.w3.org/2000/svg">
<g id="edit_road">
<mask id="mask0_1_16833" style="mask-type:alpha" maskUnits="userSpaceOnUse" x="0" y="0" width="25" height="24">
<rect id="Bounding box" x="0.5" width="24" height="24" fill="#D9D9D9"/>
</mask>
<g mask="url(#mask0_1_16833)">
<path id="edit_road_2" d="M16.5 12.125V4H18.5V10.125L16.5 12.125ZM4.5 20V4H6.5V20H4.5ZM10.5 8V4H12.5V8H10.5ZM10.5 14V10H12.5V14H10.5ZM10.5 20V16H12.5V20H10.5ZM14.5 20V16.925L20.025 11.425C20.175 11.275 20.3417 11.1667 20.525 11.1C20.7083 11.0333 20.8917 11 21.075 11C21.275 11 21.4667 11.0375 21.65 11.1125C21.8333 11.1875 22 11.3 22.15 11.45L23.075 12.375C23.2083 12.525 23.3125 12.6917 23.3875 12.875C23.4625 13.0583 23.5 13.2417 23.5 13.425C23.5 13.6083 23.4667 13.7958 23.4 13.9875C23.3333 14.1792 23.225 14.35 23.075 14.5L17.575 20H14.5ZM21.075 14.4L22 13.425L21.075 12.5L20.125 13.45L21.075 14.4Z" fill="#EDEDED"/>
</g>
</g>
</svg>
