<svg width="26" height="26" viewBox="0 0 26 26" fill="none" xmlns="http://www.w3.org/2000/svg">
<path d="M9.00635 15.7957C9.00635 17.3437 10.1943 18.5917 11.6704 18.5917H14.6824C15.9664 18.5917 17.0104 17.4997 17.0104 16.1557C17.0104 14.6917 16.3744 14.1757 15.4264 13.8397L10.5903 12.1597C9.64234 11.8237 9.00635 11.3077 9.00635 9.84378C9.00635 8.49978 10.0503 7.40778 11.3344 7.40778H14.3464C15.8224 7.40778 17.0104 8.65578 17.0104 10.2038" stroke="#494949" stroke-width="2" stroke-linecap="round" stroke-linejoin="round"/>
<path d="M13 5.80002V20.2" stroke="#494949" stroke-width="2" stroke-linecap="round" stroke-linejoin="round"/>
<path d="M13 25C19.6274 25 25 19.6274 25 13C25 6.37258 19.6274 1 13 1C6.37258 1 1 6.37258 1 13C1 19.6274 6.37258 25 13 25Z" stroke="#494949" stroke-width="2" stroke-linecap="round" stroke-linejoin="round"/>
</svg>
