<svg width="30" height="30" viewBox="0 0 30 30" fill="none" xmlns="http://www.w3.org/2000/svg">
<g id="shoppingmode">
<mask id="mask0_1_16821" style="mask-type:alpha" maskUnits="userSpaceOnUse" x="0" y="0" width="30" height="30">
<rect id="Bounding box" width="30" height="30" fill="#D9D9D9"/>
</mask>
<g mask="url(#mask0_1_16821)">
<path id="shoppingmode_2" d="M13.9688 27.5C13.6563 27.5 13.3438 27.4375 13.0313 27.3125C12.7188 27.1875 12.4375 27 12.1875 26.75L3.25 17.8125C3 17.5625 2.81771 17.2865 2.70312 16.9844C2.58854 16.6823 2.53125 16.375 2.53125 16.0625C2.53125 15.75 2.58854 15.4375 2.70312 15.125C2.81771 14.8125 3 14.5312 3.25 14.2812L14.25 3.25C14.4792 3.02083 14.75 2.83854 15.0625 2.70313C15.375 2.56771 15.6979 2.5 16.0312 2.5H25C25.6875 2.5 26.276 2.74479 26.7656 3.23438C27.2552 3.72396 27.5 4.3125 27.5 5V13.9688C27.5 14.3021 27.4375 14.6198 27.3125 14.9219C27.1875 15.224 27.0104 15.4896 26.7812 15.7188L15.75 26.75C15.5 27 15.2188 27.1875 14.9063 27.3125C14.5938 27.4375 14.2813 27.5 13.9688 27.5ZM21.875 10C22.3958 10 22.8385 9.81771 23.2031 9.45312C23.5677 9.08854 23.75 8.64583 23.75 8.125C23.75 7.60417 23.5677 7.16146 23.2031 6.79688C22.8385 6.43229 22.3958 6.25 21.875 6.25C21.3542 6.25 20.9115 6.43229 20.5469 6.79688C20.1823 7.16146 20 7.60417 20 8.125C20 8.64583 20.1823 9.08854 20.5469 9.45312C20.9115 9.81771 21.3542 10 21.875 10Z" fill="#EDEDED"/>
</g>
</g>
</svg>
