<svg width="24" height="24" viewBox="0 0 24 24" fill="none" xmlns="http://www.w3.org/2000/svg">
<g id="Group 1000002967">
<g id="search">
<mask id="mask0_1_16687" style="mask-type:alpha" maskUnits="userSpaceOnUse" x="0" y="0" width="24" height="24">
<rect id="Bounding box" x="0.522461" width="22.7104" height="24" fill="#D9D9D9"/>
</mask>
<g mask="url(#mask0_1_16687)">
<path id="search_2" d="M19.0694 21L13.1079 14.7C12.6348 15.1 12.0907 15.4167 11.4756 15.65C10.8605 15.8833 10.206 16 9.51207 16C7.79302 16 6.33813 15.3708 5.14741 14.1125C3.95669 12.8542 3.36133 11.3167 3.36133 9.5C3.36133 7.68333 3.95669 6.14583 5.14741 4.8875C6.33813 3.62917 7.79302 3 9.51207 3C11.2311 3 12.686 3.62917 13.8767 4.8875C15.0675 6.14583 15.6628 7.68333 15.6628 9.5C15.6628 10.2333 15.5524 10.925 15.3316 11.575C15.1108 12.225 14.8112 12.8 14.4327 13.3L20.3942 19.6L19.0694 21ZM9.51207 14C10.6949 14 11.7003 13.5625 12.5283 12.6875C13.3563 11.8125 13.7703 10.75 13.7703 9.5C13.7703 8.25 13.3563 7.1875 12.5283 6.3125C11.7003 5.4375 10.6949 5 9.51207 5C8.32924 5 7.32383 5.4375 6.49584 6.3125C5.66786 7.1875 5.25387 8.25 5.25387 9.5C5.25387 10.75 5.66786 11.8125 6.49584 12.6875C7.32383 13.5625 8.32924 14 9.51207 14Z" fill="#A2A2A2"/>
</g>
</g>
</g>
</svg>
