<svg width="77" height="26" viewBox="0 0 77 26" fill="none" xmlns="http://www.w3.org/2000/svg">
<path fill-rule="evenodd" clip-rule="evenodd" d="M22.0838 20.5323C20.0258 18.5495 18.8558 16.0119 18.8558 13.0052C18.8558 10.1405 19.9693 7.59158 21.8518 5.63141C23.7009 7.57547 24.8429 10.168 24.8429 13.0052C24.8429 14.9767 24.4474 16.6381 23.4857 18.2334C24.9166 13.8549 24.5034 10.772 22.7511 8.3267C23.0675 8.75697 23.927 11.1696 23.7687 13.0048C23.7687 15.0364 23.1241 16.9264 22.0268 18.4947L22.0838 20.5323ZM77 13.0057C77 20.1678 70.9333 26 63.5039 26C60.3943 26 57.5221 24.9814 55.1757 23.2503C52.8244 24.9605 49.9345 26 46.797 26C43.6983 26 40.8374 24.9814 38.4801 23.2991C36.1224 24.9984 33.2791 26 30.203 26C27.0935 26 24.2218 24.9814 21.8749 23.2503C19.5285 24.9605 16.6337 26 13.5015 26C6.06629 26 0 20.1674 0 13.0057C0 5.84393 6.06629 1.03994e-05 13.5015 1.03994e-05C16.6337 1.03994e-05 19.5285 1.04085 21.846 2.78327C24.1702 1.04085 27.0704 1.03994e-05 30.203 1.03994e-05C33.3352 1.03994e-05 36.1907 1.03475 38.514 2.73406C40.8813 0.958672 43.7968 -0.00364923 46.797 1.03994e-05C49.9345 1.03994e-05 52.8244 1.04085 55.1423 2.78327C57.4711 1.04085 60.3717 1.03994e-05 63.5039 1.03994e-05C71.2158 1.03994e-05 77 5.82782 77 13.0057ZM63.5039 1.36181C61.2194 1.36181 59.1167 1.98805 57.3015 3.08289C60.2696 0.800452 65.0356 0.305294 70.5092 2.14614C68.5362 0.991636 65.9918 0.24563 63.5039 0.24563C60.3432 0.24563 57.4145 1.35092 55.1305 3.14821L55.1644 4.61322C52.9876 2.60384 50.0363 1.36224 46.7965 1.36224C44.6051 1.35863 42.4579 1.95555 40.6054 3.08332C43.5631 0.800888 48.335 0.305729 53.8018 2.14657C51.8284 0.992071 49.2898 0.246065 46.7965 0.246065C43.6467 0.246065 40.798 1.26992 38.5136 3.07244V4.61366C36.343 2.60428 33.4423 1.36268 30.2026 1.36268C28.0095 1.35894 25.8605 1.95583 24.0061 3.08376C26.9683 0.801324 31.7348 0.306164 37.2074 2.14701C35.234 0.992506 32.6959 0.246502 30.2026 0.246502C27.0474 0.246502 24.1191 1.35179 21.8292 3.14908L21.8636 4.61409C19.6926 2.60471 16.7408 1.36311 13.5015 1.36311C11.3068 1.36006 9.15626 1.95686 7.29962 3.08419C10.2677 0.801759 15.0337 0.306599 20.5064 2.14744C18.5334 0.992941 15.989 0.246937 13.5015 0.246937C6.2078 0.246937 0.254533 5.98721 0.254533 13.007C0.254533 15.4471 1.13613 18.1153 2.63439 20.2667C-0.390164 14.5212 1.13613 10.1532 3.06479 7.43567C2.3238 9.03133 1.35721 11.1661 1.40829 13.007C1.59501 19.3413 6.84707 24.6513 13.502 24.6513C16.8769 24.6513 19.7265 23.4968 21.9658 21.318C24.182 23.5455 26.7775 24.6513 30.2035 24.6513C31.7588 24.6516 33.2986 24.3537 34.7332 23.7749C36.1678 23.1961 37.4684 22.348 38.5592 21.2801C40.7144 23.3605 43.5237 24.6513 46.7974 24.6513C50.1787 24.6513 53.0228 23.4968 55.2612 21.318C57.4833 23.5455 60.0729 24.6513 63.5043 24.6513C70.1593 24.6513 75.5867 19.4175 75.5867 13.007C75.5863 6.63915 70.1136 1.36181 63.5039 1.36181ZM36.9195 20.4836C35.0566 22.0435 32.6713 22.9023 30.203 22.9019C27.7775 22.8631 26.6916 22.4551 25.6572 21.9651C28.6198 24.187 35.201 23.3265 36.8797 21.932C35.0482 23.2011 32.7466 23.9314 30.2026 23.9314C27.0813 23.9314 24.4523 22.8313 22.3835 20.8651C24.5093 18.779 25.5835 16.1595 25.5835 13.0061C25.5835 9.93978 24.3343 7.13561 22.3044 5.04959C23.8592 3.54626 26.9348 2.07602 30.203 2.07602C33.177 2.07602 35.9755 3.37772 38.0113 5.19635H36.5126C34.5961 7.40736 33.5608 9.91844 33.5608 13.0061C33.5608 15.4462 34.4428 18.1145 35.9357 20.2658C32.9111 14.5203 34.4428 10.1523 36.3656 7.4348C35.6246 9.03046 34.6693 11.1709 34.7146 13.0061C34.7828 15.8547 36.1224 18.496 37.9371 20.5437L36.9195 20.4836ZM38.5081 20.2985C36.5971 18.3379 35.461 15.8704 35.461 13.0057C35.461 10.141 36.6197 7.52146 38.5136 5.56609C40.4418 7.5158 41.5444 10.1027 41.5444 13.0057C41.5444 14.9772 41.1484 16.6386 40.1872 18.2338C41.6177 13.8553 41.2045 10.7724 39.4521 8.32713C39.769 8.7574 40.6285 11.1701 40.4757 13.0052C40.4757 15.0969 39.7917 17.0519 38.6325 18.6532L38.5081 20.2985ZM39.0963 20.8751C41.0982 18.8165 42.2904 16.0663 42.2904 13.0052C42.2904 9.9389 41.1263 7.29239 39.0963 5.19548C41.1317 3.26797 43.7326 2.07515 46.797 2.07515C49.7541 2.07515 52.5242 3.14778 54.5428 4.95073L53.2426 4.95639C51.3098 7.22552 50.2545 10.0705 50.2569 13.0057C50.2569 15.4458 51.1389 18.114 52.6372 20.2654C49.6126 14.5199 51.1394 10.1519 53.0671 7.43436C52.3261 9.03002 51.3645 11.1596 51.4102 13.0057C51.478 16.0554 52.5413 18.5665 54.5876 20.6739L53.4175 20.5546C51.6308 22.0091 49.3129 22.9023 46.7965 22.9023C44.371 22.8636 43.3813 22.4011 42.2565 21.9656C45.2132 24.1875 51.7945 23.3269 53.4736 21.9325C51.6417 23.2015 49.3405 23.9318 46.7965 23.9318C43.5346 23.931 41.1941 22.6837 39.0963 20.8751ZM41.0413 20.7775C42.658 21.8994 44.6707 22.553 46.7965 22.553C48.9282 22.553 51.0141 21.861 52.648 20.7558C51.0368 18.6044 50.0019 15.8542 50.0019 13.0057C50.0019 10.1466 50.9689 7.49446 52.6137 5.31568C50.9361 4.10251 48.8938 3.4488 46.796 3.45349C44.6703 3.45349 42.7023 4.07974 41.0856 5.19591C42.6399 7.30938 43.6919 10.1902 43.6919 13.0057C43.6928 15.8542 42.6525 18.6262 41.0413 20.7775ZM38.5484 18.1471C39.5739 16.6145 40.1178 14.8291 40.1145 13.0057C40.1145 11.0777 39.5597 9.27521 38.514 7.82109C37.5076 9.35142 36.886 11.116 36.886 13.0057C36.886 14.8574 37.5868 16.6708 38.5484 18.1471ZM35.947 20.7392C34.2964 18.5282 33.3008 15.8704 33.3008 13.0057C33.3001 10.207 34.2425 7.48365 35.9863 5.24513C34.3692 4.16118 32.3058 3.45349 30.2085 3.45349C27.6921 3.31718 24.9447 4.70598 24.5432 5.35923C26.036 7.43436 26.9967 10.2551 26.9967 13.0057C26.9967 15.8486 26.036 18.4851 24.3845 20.6682C25.9963 21.8667 28.0203 22.553 30.2026 22.553C32.3343 22.553 34.3248 21.8994 35.947 20.7392ZM21.2867 20.6739L20.1162 20.5546C18.3295 22.0091 16.0175 22.9023 13.5015 22.9023C11.076 22.8636 10.3572 22.3083 8.94979 21.9656C11.9133 24.1875 18.4936 23.3269 20.1786 21.9325C18.3413 23.2015 16.0401 23.9318 13.5015 23.9318C7.25984 23.9318 2.15426 19.0247 2.15426 13.0065C2.15426 6.98842 7.25396 2.07646 13.5015 2.07646C16.4583 2.07646 19.2288 3.14908 21.2474 4.95204L19.9413 4.9577C18.0813 7.15216 16.956 9.96242 16.956 13.007C16.956 15.4471 17.8435 18.1153 19.3364 20.2667C16.3118 14.5212 17.844 10.1532 19.7663 7.43567C19.0258 9.03133 18.07 11.1609 18.1157 13.007C18.1826 16.0554 19.2401 18.5661 21.2867 20.6739ZM21.8916 18.0653C22.8862 16.5515 23.4135 14.7966 23.412 13.0052C23.412 11.1431 22.8528 9.39497 21.8744 7.90209C20.9079 9.36187 20.2862 11.1431 20.2862 13.0052C20.2862 14.83 20.9585 16.6273 21.8916 18.0653ZM19.3531 20.7558C17.7418 18.6044 16.7011 15.8542 16.7011 13.0057C16.7011 10.1466 17.6686 7.49446 19.3133 5.31568C17.6379 4.10251 15.5975 3.44873 13.5015 3.45349C8.03971 3.45349 3.58471 7.74487 3.58471 13.0057C3.58471 18.2673 8.03971 22.553 13.5015 22.553C15.6278 22.553 17.7196 21.861 19.3531 20.7558ZM55.3851 20.5323C53.3271 18.5495 52.1566 16.0119 52.1566 13.0052C52.1566 10.1405 53.2706 7.59158 55.1473 5.63141C57.0018 7.57547 58.1379 10.168 58.1379 13.0052C58.1379 14.9767 57.7428 16.6381 56.7811 18.2334C58.2175 13.8549 57.7988 10.772 56.0519 8.3267C56.363 8.75697 57.2283 11.1696 57.0696 13.0048C57.0696 15.0364 56.4253 16.9264 55.3281 18.4947L55.3851 20.5323ZM55.6844 20.8646C57.8047 18.7786 58.8848 16.1591 58.8848 13.0057C58.8848 9.93934 57.6347 7.13518 55.5994 5.04915C57.16 3.54582 60.2302 2.07558 63.5034 2.07558C69.7456 2.07558 74.839 6.98755 74.839 13.0057C74.839 14.9772 74.4492 16.6386 73.4881 18.2338C74.9185 13.8553 74.4999 10.7724 72.7534 8.32713C73.0645 8.7574 73.9293 11.1701 73.7706 13.0052C73.7706 18.4568 69.1574 22.9014 63.5034 22.9014C61.0779 22.8627 59.9924 22.4546 58.9521 21.9647C61.9152 24.1866 68.4955 23.3261 70.1751 21.9316C68.3432 23.2006 66.042 23.931 63.5034 23.931C60.383 23.931 57.7536 22.8309 55.6844 20.8646ZM57.6804 20.6682C59.2971 21.8667 61.3211 22.553 63.5039 22.553C68.9594 22.553 73.4153 18.2669 73.4153 13.0057C73.4153 7.74487 68.9598 3.45349 63.5039 3.45349C60.9879 3.31718 58.2401 4.70598 57.8391 5.35923C59.3314 7.43436 60.2931 10.2551 60.2931 13.0057C60.2926 15.8482 59.3314 18.4846 57.6804 20.6682ZM55.1929 18.0653C56.1536 16.5894 56.7133 14.8574 56.7133 13.0052C56.7133 11.1431 56.1482 9.39497 55.1757 7.90209C54.2033 9.36187 53.5866 11.1431 53.5866 13.0052C53.5866 14.83 54.2544 16.6273 55.1929 18.0653Z" fill="#D0D1D3"/>
</svg>
