<svg width="57" height="58" viewBox="0 0 57 58" fill="none" xmlns="http://www.w3.org/2000/svg">
<g clip-path="url(#clip0_1_12050)">
<path fill-rule="evenodd" clip-rule="evenodd" d="M29.2488 17.4851C29.5052 16.6133 31.4107 15.3571 31.6943 15.6247C31.6955 15.3024 33.0806 14.0341 33.5818 14.2603C33.4674 13.8709 35.3676 12.6824 35.8245 13.0186C35.9221 12.5346 38.6737 12.1702 39.219 12.6342C39.533 12.2776 41.9744 12.869 42.0235 13.4918C42.4827 13.0887 44.9726 15.7205 44.9747 17.0492C44.9759 17.5613 42.6344 15.473 41.1588 15.9261C38.7174 16.6754 35.6095 19.2747 32.9112 23.1781C32.1689 24.2524 30.2439 24.6401 29.834 22.8963C29.834 22.8966 28.9924 18.3571 29.2488 17.4851Z" fill="white"/>
<path fill-rule="evenodd" clip-rule="evenodd" d="M29.0385 41.7457C28.6565 41.0999 28.7774 40.321 29.1015 40.0126C29.5536 39.5823 30.8562 39.9345 30.9618 39.54C31.2146 38.6003 30.5528 38.2711 30.6667 36.9762C30.7066 36.5235 31.5642 33.2399 31.7824 32.9495C31.966 32.7053 33.0617 32.3223 33.3517 32.2103C33.5395 31.9926 33.6664 31.7442 33.6803 31.308C32.244 30.8719 31.8593 32.2055 31.6541 32.1541C31.4488 32.1026 31.7596 30.6944 31.9394 30.541C32.1183 30.3869 33.7992 30.0137 33.9881 29.718C34.1868 29.406 34.9625 26.4096 33.9881 26.3584C34.0662 26.3759 33.9378 26.1597 34.0135 26.1775C36.0276 26.6491 37.3888 17.0101 42.3484 17.0489C47.2732 17.0873 47.0162 24.2199 46.7188 24.486C46.1667 24.9801 45.3505 24.7974 45.3233 25.2554C45.0669 29.6151 41.1689 34.2829 39.989 33.8722C39.2837 33.6267 39.8867 31.4107 40.2199 31.3592C39.9121 31.2309 40.2199 28.9486 40.5792 28.8971C40.2968 28.6919 40.5532 26.5891 40.9125 26.5634C40.7386 26.404 40.7572 24.9639 40.3888 24.248C40.1052 23.6968 38.8836 23.4007 38.8097 24.7427C39.5531 24.3837 39.6045 26.7943 39.2964 27.2048C38.9886 27.6152 37.0138 28.5384 36.3987 29.0509C36.4502 30.0773 35.4752 34.0265 34.7573 35.1552C34.0393 36.2831 33.321 36.9502 32.9108 37.976C32.5001 39.0018 32.7636 40.7507 31.8336 41.5408C31.4222 41.8904 29.2159 42.0462 29.0385 41.7457Z" fill="white"/>
<path fill-rule="evenodd" clip-rule="evenodd" d="M45.9649 25.5893C46.1953 25.196 47.1418 25.0405 47.4834 25.2303C47.8847 25.4536 48.181 28.5899 47.7705 28.6925C48.1298 28.8752 47.6753 31.2542 47.222 31.2572C47.5813 31.4112 46.8373 33.7447 46.4014 33.6678C46.6578 34.0271 45.4524 35.925 45.1192 35.8221C45.0163 37.7714 39.139 38.7017 39.2721 37.0528C39.3363 36.2591 40.2151 37.426 44.1702 31.2569C45.9146 28.5363 45.6198 26.1775 45.9649 25.5893ZM27.7873 17.5004C27.3768 16.6026 25.6925 15.3979 25.4089 15.6655C25.4074 15.3432 24.0226 14.0749 23.5211 14.3008C23.6352 13.9114 21.7356 12.7229 21.2787 13.0594C21.1808 12.5751 18.4292 12.211 17.8839 12.6747C17.5699 12.3181 15.1288 12.9095 15.0797 13.5323C14.6202 13.1292 12.1306 15.7611 12.1279 17.0897C12.127 17.6019 14.4688 15.5135 15.9438 15.9666C18.3852 16.7159 21.4934 19.3152 24.1917 23.2189C24.934 24.2929 26.8177 24.6806 27.2284 22.9368C27.2284 22.9374 28.1977 18.3979 27.7873 17.5004Z" fill="white"/>
<path fill-rule="evenodd" clip-rule="evenodd" d="M27.9875 41.7868C28.3696 41.0904 28.3004 40.3367 27.976 40.0282C27.5235 39.598 26.2469 39.9756 26.1411 39.5811C25.8882 38.6414 26.5498 38.3128 26.4365 37.0173C26.3969 36.5646 25.5387 33.281 25.3205 32.9906C25.1368 32.7458 24.0412 32.3634 23.7511 32.2513C23.5637 32.0343 23.4368 31.7859 23.4226 31.3491C24.8589 30.913 25.2436 32.2466 25.4488 32.1952C25.654 32.1437 25.3433 30.7355 25.1638 30.5821C24.9843 30.428 23.3295 30.0294 23.1151 29.7591C22.885 29.4693 22.1404 26.4507 23.1151 26.3995C23.0367 26.417 23.165 26.2008 23.0896 26.2185C21.0756 26.6902 19.7141 17.0512 14.7544 17.09C9.82939 17.1284 10.087 24.2609 10.3844 24.5271C10.9365 25.0212 11.7527 24.8385 11.7796 25.2965C12.036 29.6562 15.934 34.324 17.1139 33.9132C17.8192 33.6678 17.2165 31.4511 16.8833 31.4003C17.1911 31.2719 16.8833 28.9897 16.5243 28.9382C16.8064 28.733 16.55 26.6302 16.191 26.6045C16.3649 26.4451 16.3463 25.005 16.7147 24.2887C16.9983 23.7378 18.2202 23.4418 18.2941 24.7835C17.5501 24.4242 17.4992 26.8351 17.8071 27.2456C18.1146 27.656 20.0894 28.5792 20.705 29.0917C20.6536 30.1181 21.6282 34.0673 22.3462 35.1954C23.0642 36.3239 23.7822 36.991 24.1926 38.0168C24.6066 39.0518 24.7983 41.0987 25.2953 41.5562C25.7596 41.9832 27.8198 42.0929 27.9875 41.7868ZM28.5514 43.7666C27.0128 43.7926 25.6626 42.6953 25.9359 42.4025C26.4637 41.8359 27.3848 42.6642 28.4872 42.1766C29.5648 42.6382 30.4617 41.838 31.167 42.3614C31.5674 42.6583 30.0906 43.7415 28.5514 43.7666Z" fill="white"/>
<path fill-rule="evenodd" clip-rule="evenodd" d="M11.1383 25.6301C10.9076 25.2371 9.96135 25.1839 9.6201 25.3737C9.21912 25.597 8.92252 28.6307 9.33267 28.7333C8.97368 28.9158 9.42848 31.295 9.88151 31.2977C9.52252 31.4515 10.2662 33.7852 10.7021 33.7083C10.4457 34.0676 11.651 35.9655 11.9843 35.8626C12.0869 37.8119 17.9645 38.7422 17.8314 37.0933C17.7675 36.2996 16.8887 37.4665 12.9329 31.2974C11.1888 28.5775 11.4837 26.2189 11.1383 25.6301Z" fill="white"/>
</g>
<defs>
<clipPath id="clip0_1_12050">
<rect width="57" height="57" fill="white" transform="translate(0 0.5)"/>
</clipPath>
</defs>
</svg>
