<svg width="51" height="26" viewBox="0 0 51 26" fill="none" xmlns="http://www.w3.org/2000/svg">
<path d="M25.5 2.12622C12.478 2.12622 1.92312 7.02 1.92312 13.0058C1.92312 18.9916 12.478 23.8824 25.5 23.8824C38.5199 23.8824 49.0747 18.9916 49.0747 13.0058C49.0747 7.01711 38.5199 2.12622 25.5 2.12622ZM13.3918 20.1529C11.9978 20.1673 10.7716 18.9973 10.6292 16.9722C10.5483 15.917 10.7724 14.8603 11.254 14.0256C11.6684 13.2918 12.3696 12.6822 12.9625 12.532C13.1537 12.4829 13.4151 12.5147 13.5235 12.688C13.6914 12.9567 13.6425 13.2484 13.4746 13.364C13.022 13.6789 12.4759 14.2162 12.206 14.9529C12.0824 15.2653 12.0238 15.6176 12.0365 15.9719C12.0492 16.3262 12.1328 16.669 12.2782 16.9636C12.8371 18.1104 14.3969 18.1422 15.8461 16.3136C16.2052 15.8629 16.5261 15.4353 16.8512 14.9269C17.4888 13.9331 17.7012 13.5691 18.5512 11.9687C18.5619 11.9513 18.564 11.9282 18.5597 11.9167C18.5534 11.8964 18.5406 11.8878 18.5173 11.8878C17.9499 11.908 17.4548 12.1391 16.9766 12.6244C16.8385 12.7631 16.6388 12.7429 16.5516 12.5638C16.4539 12.3616 16.524 12.0929 16.6834 11.9427C17.4548 11.2118 18.2984 11.0818 19.1611 10.8824C19.1611 10.8824 19.2206 10.8882 19.2695 10.7958C19.6244 10.1804 19.89 9.62578 20.2682 9.00178C20.6465 8.36622 21.1395 7.78844 21.5135 7.34933C22.0362 6.73689 22.372 6.53178 22.712 6.28044C22.8034 6.21689 22.7014 6.13889 22.6737 6.13889C20.7698 5.65356 18.7914 5.02378 16.9001 5.97711C15.5911 6.64156 15.0153 8.05133 15.2915 8.996C15.4891 9.66333 16.1351 9.776 16.7429 9.37156C17.2714 9.01523 17.7198 8.47247 18.0413 7.8C18.2261 7.41289 18.615 7.69022 18.4046 8.36333C17.8521 10.1284 16.796 11.5324 15.5082 11.5931C14.4117 11.6393 13.7041 10.5444 13.7062 9.19244C13.7105 6.52311 15.895 4.76667 18.19 4.50667C20.9546 4.19467 23.5726 5.19711 26.3181 5.64778C28.4198 5.99444 30.4364 6.00311 32.5486 5.34156C32.7994 5.26933 32.9736 5.486 32.9588 5.82689C32.9375 6.32378 32.6549 6.80044 31.96 7.31756C31.1674 7.90689 30.3386 8.086 29.4737 8.09756C27.3827 8.12067 25.4341 7.01133 23.4175 6.41622C23.4218 6.53467 23.443 6.67911 23.3686 6.75422C22.253 7.87511 21.2436 9.01333 20.5679 10.608C20.5445 10.6456 20.5573 10.6802 20.5955 10.6773C21.1841 10.634 21.7111 10.6138 22.2594 10.556C22.355 10.5444 22.3592 10.5127 22.3507 10.4173C22.3207 10.122 22.3437 9.8211 22.4177 9.54041C22.4917 9.25972 22.6145 9.00752 22.7758 8.80533C23.1413 8.36333 23.5981 8.31422 23.902 8.632C24.242 8.996 24.2144 9.65178 24.0252 10.1429C23.941 10.3586 23.8258 10.549 23.6863 10.7028C23.5469 10.8567 23.3861 10.9708 23.2135 11.0384C23.2135 11.0384 23.1497 11.0558 23.1582 11.1367C23.171 11.2609 23.5833 11.5729 23.6194 11.6567C23.6555 11.7347 23.6364 11.8589 23.5747 11.9513C23.5503 11.9919 23.5194 12.0246 23.4845 12.0471C23.4496 12.0696 23.4115 12.0813 23.3729 12.0813C23.3027 12.0813 23.2603 12.0467 23.1689 11.9802C22.9502 11.8225 22.7555 11.6098 22.5951 11.3533C22.5441 11.2638 22.5165 11.2609 22.3848 11.2696C21.7919 11.3187 20.8675 11.44 20.2406 11.5469C20.0897 11.57 20.0664 11.6104 20.0366 11.6827C19.0379 13.9216 17.9711 16.3338 16.8003 17.9516C15.5423 19.6849 14.4989 20.1413 13.3918 20.1529ZM40.4812 9.27333C40.2879 9.72978 36.5521 17.4604 36.3162 18.2578C36.2419 18.512 36.2313 18.7056 36.3078 18.8471C36.5033 19.2053 36.9389 18.9944 37.2109 18.7373C38.0205 17.9804 38.5815 17.0618 39.202 16.2587C39.2381 16.2211 39.2998 16.2067 39.3401 16.2587C39.4315 16.3742 39.5654 16.5216 39.6589 16.6544C39.6672 16.6648 39.6739 16.6773 39.6786 16.6912C39.6833 16.7052 39.686 16.7202 39.6864 16.7356C39.6868 16.7509 39.6849 16.7662 39.6809 16.7805C39.6769 16.7949 39.6709 16.808 39.6631 16.8191C39.0954 17.7891 38.4513 18.6717 37.7421 19.4509C36.7434 20.5024 35.7467 20.7711 35.2516 20.098C35.077 19.8503 34.9718 19.5273 34.9541 19.1851C34.9499 19.0204 34.8883 19.0118 34.8309 19.0869C34.2401 19.8813 33.2159 20.7596 32.2851 20.1327C31.5074 19.6127 31.3268 18.3473 31.4713 17.2842C31.4734 17.2611 31.4585 17.1109 31.3629 17.1976C31.1667 17.3915 30.9523 17.5489 30.7254 17.6656C30.4814 17.817 30.2158 17.893 29.9476 17.888C29.7548 17.891 29.5647 17.825 29.3966 17.6968C29.2284 17.5685 29.0879 17.3824 28.9893 17.1571C28.8638 16.8498 28.7946 16.506 28.7874 16.1547C28.7852 16.1229 28.7512 16.0622 28.7173 16.1402C28.0798 17.4604 27.4869 18.7373 26.8579 20.0778C26.8239 20.1413 26.7941 20.1818 26.7304 20.1847L25.483 20.1876C25.4065 20.1876 25.3704 20.1067 25.4108 20.0056C25.6318 19.4278 26.843 17.03 27.6632 14.9904C27.8906 14.43 27.8439 14.1411 27.7036 14.0169C27.5273 13.8609 27.1766 14.0949 26.8812 14.4011C26.0759 15.2302 25.4001 16.5244 25.0559 17.1022C24.854 17.4402 24.6628 17.9429 24.1357 18.72C23.3049 19.9478 22.202 20.6527 21.1437 20.1644C20.8642 20.0357 20.6122 19.8156 20.4099 19.5234C20.2076 19.2312 20.0612 18.876 19.9835 18.4889C19.9516 18.3387 19.89 18.2982 19.8284 18.3964C19.6584 18.6853 19.3078 19.1158 19.0145 19.3844C18.9826 19.4162 18.904 19.4798 18.836 19.4336C18.7081 19.2646 18.5992 19.0709 18.513 18.8587C18.5002 18.8201 18.4966 18.7771 18.5027 18.7357C18.5088 18.6942 18.5243 18.6564 18.547 18.6276C18.9656 18.1278 19.1951 17.8447 19.3779 17.5298C19.5139 17.2987 19.618 17.0387 19.7391 16.6198C19.9941 15.7473 20.5743 14.118 21.7324 13.2744C22.1602 12.9451 22.6305 12.7303 23.1179 12.6418C23.3304 12.6129 23.5068 12.6476 23.5705 12.8729C23.5939 12.9682 23.6534 13.1762 23.6895 13.3293C23.7129 13.4218 23.6959 13.494 23.6151 13.5344C22.9351 13.8869 22.2488 14.4329 21.777 15.2967C21.2394 16.2731 21.0949 17.4518 21.454 18.1278C21.7154 18.6189 22.1382 18.7056 22.5462 18.5293C23.1625 18.2636 23.6895 17.4807 23.9615 16.614C24.2547 15.6636 24.3015 14.5427 24.0847 13.5547C24.0507 13.3842 24.0826 13.2542 24.1634 13.1618C24.327 12.9798 24.5544 12.8382 24.6203 12.792C24.6851 12.7448 24.7606 12.732 24.832 12.756C24.9034 12.78 24.9658 12.8391 25.007 12.922C25.2322 13.3756 25.3534 14.014 25.3682 14.6756C25.381 14.8171 25.4235 14.82 25.4745 14.7478C25.8783 14.1642 26.2522 13.5402 26.6815 13.0722C27.0746 12.6476 27.5783 12.3009 28.0479 12.3153C28.6556 12.3327 28.9574 12.8931 28.9382 13.8927C28.9361 14.0198 29.002 14.0082 29.0466 13.9244C29.1875 13.6368 29.3594 13.3797 29.5566 13.1618C29.9774 12.6909 30.4066 12.48 30.855 12.5204C31.4075 12.5782 31.8495 13.2629 31.7581 14.0429C31.7361 14.2896 31.6702 14.5253 31.5662 14.7296C31.4621 14.934 31.3231 15.1008 31.161 15.2158C31.0247 15.3145 30.8698 15.3551 30.7163 15.3324C30.5628 15.3098 30.4179 15.2248 30.3004 15.0887C30.2093 14.9716 30.1425 14.824 30.1067 14.6607C30.0709 14.4974 30.0673 14.3242 30.0964 14.1584C30.107 14.0862 30.039 14.0198 29.9816 14.1007C29.4419 14.8633 29.4015 15.8513 29.7542 16.2962C30.1431 16.7873 30.7275 16.458 31.1525 16.0796C31.9303 15.3891 32.5337 14.4531 33.2329 13.7309C33.6961 13.2513 34.2253 12.8238 34.8181 12.7169C35.1438 12.6492 35.4769 12.7011 35.7829 12.8671C36.2079 13.1011 36.4756 13.5893 36.5096 14.0111C36.5181 14.1353 36.5861 14.1498 36.6435 14.04C36.9792 13.3293 38.7791 9.65756 38.9279 9.27333C38.9704 9.15489 39.0214 9.13756 39.117 9.13756H40.4048C40.4791 9.13756 40.5131 9.19533 40.4812 9.27333ZM35.5513 15.6404C35.5381 15.6763 35.5358 15.7178 35.5449 15.756C35.5512 15.8138 35.6086 15.8716 35.6639 15.9004C35.6851 15.9091 35.6958 15.9293 35.6724 15.9929C35.513 16.4551 35.3685 16.7209 35.1687 17.1224C34.9922 17.4773 34.7773 17.7938 34.5312 18.0613C34.153 18.486 33.6302 18.9482 33.1968 18.6391C33.0055 18.5033 32.9205 18.1364 32.9269 17.8418C32.9354 17.0098 33.2074 16.1547 33.711 15.314C34.323 14.2884 35.0009 13.7569 35.445 14.0487C35.904 14.3462 35.7595 15.0742 35.5513 15.6404ZM22.9096 10.2064C22.8936 10.0219 22.9108 9.83477 22.9597 9.66119C23.0085 9.48761 23.0876 9.33272 23.1901 9.20978C23.3113 9.06533 23.4728 9.03067 23.5726 9.14622C23.6831 9.27622 23.63 9.59978 23.5174 9.82222C23.3951 10.0727 23.2101 10.2544 22.9967 10.3336C22.9585 10.3451 22.9245 10.322 22.9096 10.2064ZM25.5 0C11.3475 0 0 5.76911 0 13C0 20.1876 11.4389 26 25.5 26C39.5611 26 51 20.1644 51 13C51 5.83556 39.5611 0 25.5 0ZM25.5 24.8676C12.0041 24.8676 1.0625 19.5578 1.0625 13.0058C1.0625 6.45089 12.0063 1.14111 25.5 1.14111C38.9938 1.14111 49.9332 6.45089 49.9332 13.0058C49.9332 19.5578 38.9938 24.8676 25.5 24.8676Z" fill="white"/>
</svg>
