<svg width="49" height="48" viewBox="0 0 49 48" fill="none" xmlns="http://www.w3.org/2000/svg">
<g clip-path="url(#clip0_1_12375)">
<path d="M24.498 36.29C37.752 36.29 48.5 30.788 48.5 24.002C48.5 17.212 37.752 11.71 24.498 11.71C11.248 11.71 0.5 17.212 0.5 24.002C0.5 30.788 11.248 36.29 24.498 36.29ZM29.018 30.26C28.618 31.188 27.928 33.168 26.346 33.96C25.866 34.198 25.272 34.308 24.746 34.33H24.5C20.072 34.33 15.948 33.71 12.496 32.662L12.364 32.612C12.044 32.506 11.884 32.358 11.884 32.176C11.884 32.018 11.97 31.896 12.082 31.786L12.3 31.592C13.1 30.928 15.496 29.192 20.016 27.458C21.602 26.856 23.588 26.1 25.666 25.658C26.882 25.406 31.404 24.712 29.018 30.26ZM41.14 17.872C41.226 17.724 41.34 17.598 41.546 17.588C41.658 17.576 41.81 17.602 42.042 17.748C44.86 19.482 46.532 21.652 46.532 23.998C46.532 28.234 41.084 31.878 33.292 33.468C32.796 33.568 32.46 33.564 32.35 33.438C32.27 33.362 32.25 33.226 32.35 33.058C32.4085 32.954 32.4783 32.8568 32.558 32.768C36.798 27.768 40.03 20.39 40.948 18.262C41.018 18.114 41.084 17.968 41.14 17.872ZM20.054 17.714C20.454 16.788 21.144 14.806 22.724 14.022C23.204 13.782 23.798 13.666 24.324 13.652C24.446 13.648 24.532 13.652 24.564 13.652C28.998 13.652 33.116 14.264 36.572 15.318C36.598 15.33 36.678 15.358 36.704 15.368C37.024 15.476 37.184 15.622 37.184 15.804C37.184 15.962 37.1 16.078 36.988 16.19C36.9172 16.2568 36.8438 16.3209 36.768 16.382C35.974 17.052 33.572 18.784 29.052 20.518C27.462 21.126 25.48 21.876 23.408 22.316C22.188 22.576 17.668 23.262 20.054 17.714ZM15.7 14.528C16.2 14.432 16.53 14.432 16.652 14.558C16.722 14.638 16.742 14.77 16.648 14.938C16.5882 15.0393 16.5185 15.1345 16.44 15.222C12.2 20.228 8.966 27.6 8.044 29.734C7.98615 29.867 7.92208 29.9971 7.852 30.124C7.772 30.27 7.654 30.396 7.452 30.408C7.34 30.418 7.182 30.386 6.95 30.246C4.134 28.512 2.46 26.344 2.46 23.998C2.46 19.762 7.908 16.118 15.7 14.528Z" fill="white"/>
</g>
<defs>
<clipPath id="clip0_1_12375">
<rect width="48" height="48" fill="white" transform="translate(0.5)"/>
</clipPath>
</defs>
</svg>
