<svg width="49" height="48" viewBox="0 0 49 48" fill="none" xmlns="http://www.w3.org/2000/svg">
<g clip-path="url(#clip0_1_12063)">
<path fill-rule="evenodd" clip-rule="evenodd" d="M0.5 0H48.5V48H0.5V0Z" fill="white"/>
<path fill-rule="evenodd" clip-rule="evenodd" d="M44.4179 47.2943C46.0958 47.2943 47.4562 45.9339 47.4562 44.256V3.74428C47.4562 2.06639 46.0958 0.705994 44.4179 0.705994H4.58126C2.90336 0.705745 1.54297 2.06614 1.54297 3.74428V44.256C1.54297 45.9339 2.90336 47.2943 4.58126 47.2943H44.4179Z" fill="black"/>
<path fill-rule="evenodd" clip-rule="evenodd" d="M23.9347 6.55843L23.2985 15.101C23.2811 15.2539 23.1829 15.3192 23.0091 15.2734L14.662 13.2162C14.5527 13.1746 14.5126 13.0683 14.6184 12.9764L23.6952 6.38387C23.8404 6.29099 23.9457 6.37341 23.9347 6.55843ZM14.5472 13.7636L22.4747 17.0085C22.6147 17.0723 22.6466 17.1858 22.5494 17.337L18.0138 24.6402C17.9403 24.7311 17.827 24.7361 17.7722 24.6071L14.3074 13.9376C14.2636 13.7705 14.3744 13.6961 14.5472 13.7636ZM18.4757 24.9194L24.0114 18.3826C24.1155 18.2691 24.2331 18.2738 24.3469 18.4133L29.8908 24.9839C29.955 25.0817 29.9244 25.1911 29.7847 25.2033L18.5671 25.2013C18.3948 25.1918 18.3579 25.0628 18.4757 24.9194ZM30.3403 24.6325L25.834 17.3475C25.7581 17.2135 25.7989 17.1029 25.9662 17.0379L33.9286 13.7959C34.0419 13.7651 34.1368 13.8278 34.1052 13.9643L30.6363 24.6323C30.5738 24.7934 30.4399 24.7887 30.3403 24.6325ZM33.698 13.2503L25.3768 15.2846C25.2261 15.3152 25.1335 15.2422 25.1238 15.0627L24.5008 6.48846C24.5065 6.37142 24.5954 6.3007 24.7154 6.37291L33.7899 12.9684C33.9234 13.0778 33.8776 13.2035 33.698 13.2503ZM35.6262 39.3496C36.0625 39.7405 37.0805 40.0996 37.8295 40.0996C39.6825 40.0772 41.1372 38.6224 41.1372 36.2067C41.1265 33.4528 40.1559 31.8703 37.7366 31.88C36.9764 31.883 36.2313 32.1868 35.6205 32.7107V32.1646H33.1236V42.5647H35.6264L35.6262 39.3496ZM9.34294 35.4566H6.7606C6.48021 38.6428 8.23903 40.579 11.3067 40.579C14.1239 40.579 15.5146 39.296 15.5146 36.4941V29.3098H12.954V36.4744C12.9395 37.5823 12.235 38.3376 11.0856 38.2741C10.2531 38.2277 9.37481 37.8261 9.34294 36.3529V35.4566ZM27.1274 36.9234H32.3324C32.6865 33.706 30.9255 31.9181 28.4231 31.9181C26.2563 31.9181 24.5924 33.6174 24.5924 36.2744C24.5924 38.9927 26.2688 40.4756 28.4363 40.4756C30.0091 40.4756 31.7119 39.8117 32.1765 37.8037H29.6099C29.4164 38.2828 29.0292 38.5144 28.6036 38.5144C27.8939 38.5144 27.1795 37.905 27.1274 36.9234Z" fill="white"/>
<path fill-rule="evenodd" clip-rule="evenodd" d="M35.6155 35.6574C35.6155 34.4071 36.3075 33.7305 37.1577 33.7305C38.0073 33.7305 38.6037 34.4143 38.6037 35.6644V36.1487C38.6037 37.1662 38.0073 38.2806 37.1577 38.2806C36.3075 38.2806 35.6178 37.7723 35.6178 36.5222L35.6155 35.6574ZM27.1279 35.2858C27.2009 34.3597 27.7271 33.8801 28.5267 33.8801C29.1584 33.8801 29.7135 34.544 29.7135 35.2858H27.1279Z" fill="black"/>
<path fill-rule="evenodd" clip-rule="evenodd" d="M18.8561 36.9234H24.0611C24.4149 33.706 22.6539 31.9181 20.1517 31.9181C17.9852 31.9181 16.3213 33.6174 16.3213 36.2744C16.3213 38.9927 17.9979 40.4756 20.1652 40.4756C21.738 40.4756 23.4408 39.8118 23.9052 37.8037H21.3383C21.1448 38.2828 20.7578 38.5144 20.3322 38.5144C19.6228 38.5144 18.9081 37.905 18.8561 36.9234Z" fill="white"/>
<path fill-rule="evenodd" clip-rule="evenodd" d="M18.8564 35.2858C18.9297 34.3597 19.4553 33.8801 20.2554 33.8801C20.8872 33.8801 21.442 34.544 21.442 35.2858H18.8564Z" fill="black"/>
<path fill-rule="evenodd" clip-rule="evenodd" d="M41.9494 40.6076C42.0605 40.6076 42.1706 40.6295 42.2732 40.672C42.3759 40.7145 42.4692 40.7768 42.5478 40.8554C42.6264 40.934 42.6887 41.0273 42.7312 41.1299C42.7737 41.2326 42.7956 41.3427 42.7956 41.4538C42.7956 41.6786 42.7063 41.8941 42.5474 42.053C42.3884 42.2119 42.1729 42.3012 41.9481 42.3012C41.7234 42.3012 41.5079 42.2119 41.3489 42.053C41.19 41.8941 41.1007 41.6786 41.1007 41.4538C41.1008 41.3425 41.1228 41.2323 41.1655 41.1295C41.2082 41.0267 41.2708 40.9333 41.3496 40.8547C41.4284 40.7761 41.522 40.7139 41.6249 40.6715C41.7278 40.6291 41.8381 40.6074 41.9494 40.6076V40.4908C41.414 40.4908 40.9814 40.9231 40.9814 41.4538C40.9813 41.5809 41.0062 41.7069 41.0548 41.8243C41.1034 41.9418 41.1747 42.0486 41.2646 42.1384C41.3545 42.2283 41.4613 42.2995 41.5788 42.3481C41.6963 42.3966 41.8223 42.4215 41.9494 42.4212C42.0762 42.4211 42.2017 42.396 42.3187 42.3473C42.4358 42.2986 42.5421 42.2273 42.6315 42.1374C42.7209 42.0475 42.7917 41.9408 42.8398 41.8235C42.8879 41.7062 42.9124 41.5806 42.9118 41.4538C42.9119 41.3274 42.887 41.2022 42.8387 41.0854C42.7903 40.9686 42.7194 40.8624 42.6301 40.773C42.5407 40.6836 42.4346 40.6126 42.3178 40.5642C42.201 40.5158 42.0758 40.4909 41.9494 40.4908V40.6076Z" fill="white"/>
<path fill-rule="evenodd" clip-rule="evenodd" d="M41.7221 41.0113H42.0299C42.1641 41.0113 42.3105 41.0317 42.3105 41.1985C42.3105 41.4184 42.0757 41.393 41.9238 41.393H41.7218V41.4966H41.9641L42.2724 41.9942H42.429L42.1031 41.4966C42.2951 41.4914 42.444 41.4134 42.444 41.2008C42.444 41.1099 42.4036 41.014 42.323 40.9682C42.2423 40.9206 42.1509 40.9152 42.0602 40.9152H41.5898V41.9939H41.7216V41.0113H41.7221Z" fill="white"/>
</g>
<defs>
<clipPath id="clip0_1_12063">
<rect width="48" height="48" fill="white" transform="translate(0.5)"/>
</clipPath>
</defs>
</svg>
