<svg width="48" height="48" viewBox="0 0 48 48" fill="none" xmlns="http://www.w3.org/2000/svg">
<path fill-rule="evenodd" clip-rule="evenodd" d="M24.0047 27.7712L3.39868 36.2987C7.74032 43.5928 15.6079 48.0436 24.0925 47.9997C32.5554 47.9777 40.4011 43.4822 44.6985 36.1667L24.0047 27.7712ZM20.4354 21.7486L23.7191 0C15.2562 0.110027 7.45467 4.67137 3.22336 12.0091C-1.0299 19.3468 -1.07409 28.3811 3.09137 35.763L20.4354 21.7486ZM27.4646 22.0371L45.0067 35.6105C49.0841 28.2289 48.9957 19.2605 44.7427 11.9669C42.6634 8.38081 39.691 5.39401 36.1147 3.29724C32.5384 1.20046 28.4801 0.0651218 24.3348 0.00173258L27.4646 22.0371Z" fill="white"/>
</svg>
