<svg width="48" height="36" viewBox="0 0 48 36" fill="none" xmlns="http://www.w3.org/2000/svg">
<g clip-path="url(#clip0_1_12380)">
<path d="M27.9713 19.4384C27.9332 19.447 27.7808 19.447 27.7141 19.447H22.7998V20.4714H27.7999C27.838 20.4714 28.1332 20.4714 28.1903 20.4629C29.2094 20.3775 29.6761 19.6177 29.6761 18.9518C29.6761 18.2689 29.1903 17.5347 28.2665 17.4579C28.0856 17.4408 27.9332 17.4408 27.8665 17.4408H24.5998C24.457 17.4408 24.2951 17.4323 24.2379 17.4152C23.9808 17.3554 23.8856 17.1506 23.8856 16.9798C23.8856 16.8262 23.9808 16.6213 24.2475 16.553C24.3237 16.5359 24.4094 16.5274 24.5903 16.5274H29.3046V15.52H24.5141C24.3141 15.52 24.1618 15.5286 24.0379 15.5456C23.2189 15.6481 22.6475 16.2371 22.6475 16.9884C22.6475 17.603 23.076 18.3201 24.0189 18.4396C24.1903 18.4567 24.4284 18.4567 24.5332 18.4567H27.7141C27.7713 18.4567 27.9141 18.4567 27.9427 18.4652C28.3046 18.5079 28.4284 18.747 28.4284 18.9604C28.4284 19.1653 28.2856 19.3872 27.9713 19.4384Z" fill="white"/>
<path d="M18.6568 19.4384C18.6187 19.447 18.4664 19.447 18.4092 19.447H13.4854V20.4714H18.4854C18.5235 20.4714 18.8187 20.4714 18.8759 20.4629C19.8949 20.3775 20.3616 19.6177 20.3616 18.9518C20.3616 18.2689 19.8759 17.5347 18.9521 17.4579C18.7711 17.4408 18.6187 17.4408 18.5521 17.4408H15.2854C15.1425 17.4408 14.9806 17.4323 14.9235 17.4152C14.6663 17.3554 14.5711 17.1506 14.5711 16.9798C14.5711 16.8262 14.6663 16.6213 14.933 16.553C15.0092 16.5359 15.0949 16.5274 15.2759 16.5274H19.9902V15.52H15.1997C14.9997 15.52 14.8473 15.5286 14.7235 15.5456C13.9044 15.6481 13.333 16.2371 13.333 16.9884C13.333 17.603 13.7616 18.3201 14.7044 18.4396C14.8759 18.4567 15.114 18.4567 15.2187 18.4567H18.3997C18.4568 18.4567 18.5997 18.4567 18.6283 18.4652C18.9902 18.5079 19.114 18.747 19.114 18.9604C19.114 19.1653 18.9806 19.3872 18.6568 19.4384Z" fill="white"/>
<path d="M10.9236 15.4859H9.68555V20.497H10.9236V15.4859Z" fill="white"/>
<path d="M6.95241 20.497V15.4859H5.71431V19.225L1.59048 15.4859H0V20.497H1.2381V16.7408L5.3905 20.497H6.95241Z" fill="white"/>
<path d="M46.7719 15.4859V19.225L42.6481 15.4859H41.0576V20.497H42.2957V16.7408L46.4386 20.497H48.0005V15.4859H46.7719Z" fill="white"/>
<path d="M34.6098 15.4859L31.124 20.497H32.6288L33.2478 19.6007H37.3145L37.9336 20.497H39.4288L35.9431 15.4859H34.6098ZM36.6764 18.6531H33.8859L35.2859 16.6384L36.6764 18.6531Z" fill="white"/>
<path d="M6.88539 12.6431C9.38064 6.1124 16.2569 1.72445 24.0093 1.72445C31.7617 1.72445 38.6474 6.1124 41.1331 12.6431L41.1522 12.6943H46.6093V12.1053L44.3427 11.8662C42.9427 11.7211 42.6474 11.1662 42.2665 10.4662L42.1712 10.2955C38.895 4.04648 31.7617 0 24.0093 0C16.2473 0 9.12349 4.04648 5.84729 10.3125L5.75205 10.4833C5.3711 11.1833 5.07586 11.7382 3.67585 11.8833L1.40918 12.1224V12.7114H6.85682L6.88539 12.6431Z" fill="white"/>
<path d="M41.1524 23.2971L41.1334 23.3483C38.6381 29.879 31.7619 34.2584 24.0095 34.2584C16.2571 34.2584 9.37136 29.8705 6.88563 23.3398L6.86658 23.2886H1.41895V23.8776L3.68562 24.1167C5.08563 24.2618 5.38086 24.8167 5.76182 25.5167L5.85706 25.6874C9.13326 31.9535 16.2666 36 24.019 36C31.7714 36 38.9048 31.9535 42.181 25.696L42.2762 25.5252C42.6572 24.8252 42.9524 24.2703 44.3524 24.1252L46.6191 23.8862V23.2971H41.1524Z" fill="white"/>
</g>
<defs>
<clipPath id="clip0_1_12380">
<rect width="48" height="36" fill="white"/>
</clipPath>
</defs>
</svg>
