<svg width="48" height="48" viewBox="0 0 48 48" fill="none" xmlns="http://www.w3.org/2000/svg">
<g clip-path="url(#clip0_1_12395)">
<path d="M24 8.47198C10.746 8.47198 0 15.424 0 23.996C0 32.574 10.746 39.528 24 39.528C37.254 39.528 48 32.576 48 23.996C48 15.416 37.254 8.47198 24 8.47198ZM24 32.864C22.028 32.864 20.42 28.98 20.32 24.094C22.7686 24.3084 25.2314 24.3084 27.68 24.094C27.58 28.978 25.972 32.864 24 32.864ZM20.562 20.216C21.098 16.762 22.436 14.31 24 14.31C25.564 14.31 26.9 16.762 27.438 20.216C25.1505 20.4191 22.8495 20.4191 20.562 20.216ZM24 10.716C21.426 10.716 19.23 14.572 18.42 19.954C13.54 19.194 10.134 17.458 10.134 15.442C10.134 12.722 16.342 10.52 24 10.52C31.66 10.52 37.866 12.724 37.866 15.442C37.866 17.458 34.46 19.194 29.58 19.954C28.77 14.574 26.574 10.718 24 10.718V10.716ZM3.44 23.416C3.44 20.786 4.454 18.316 6.216 16.196C6.198 16.344 6.186 16.496 6.186 16.648C6.186 19.962 11.156 22.788 18.092 23.828C18.086 24.068 18.086 24.312 18.086 24.556C18.086 30.736 19.818 35.966 22.212 37.742C11.692 37.108 3.44 30.936 3.44 23.416ZM25.788 37.742C28.182 35.966 29.914 30.734 29.914 24.556C29.914 24.31 29.91 24.07 29.908 23.83C36.84 22.79 41.814 19.966 41.814 16.648C41.814 16.496 41.802 16.344 41.784 16.196C43.546 18.322 44.558 20.786 44.558 23.416C44.558 30.936 36.308 37.108 25.788 37.742Z" fill="white"/>
</g>
<defs>
<clipPath id="clip0_1_12395">
<rect width="48" height="48" fill="white"/>
</clipPath>
</defs>
</svg>
