<svg width="49" height="48" viewBox="0 0 49 48" fill="none" xmlns="http://www.w3.org/2000/svg">
<path fill-rule="evenodd" clip-rule="evenodd" d="M22.4954 0.14103C6.95467 1.4509 -3.12303 16.8232 1.81137 31.6918C5.95497 44.1775 19.5185 50.8643 32.1841 46.6651C39.225 44.3307 44.8293 38.7292 47.1648 31.6918C50.435 21.8378 47.2129 11.2489 39.0163 4.91397C34.5587 1.4688 28.2761 -0.346248 22.4954 0.14103ZM28.6798 2.79484C33.0838 3.69719 36.506 5.54724 39.7278 8.76745C42.9384 11.9767 44.7567 15.3281 45.7186 19.81C46.2066 22.0839 46.2066 25.9153 45.7186 28.1892C44.7567 32.6711 42.9384 36.0225 39.7278 39.2317C36.517 42.4408 33.1639 44.2582 28.6798 45.2196C26.4047 45.7073 22.5715 45.7073 20.2964 45.2196C15.8123 44.2582 12.4592 42.4408 9.2484 39.2317C6.03774 36.0225 4.21944 32.6711 3.2576 28.1892C2.76961 25.9153 2.76961 22.0839 3.2576 19.81C4.21944 15.3281 6.03774 11.9767 9.2484 8.76745C12.8391 5.17864 16.8324 3.21069 21.9751 2.49563C23.5583 2.27554 26.8655 2.4231 28.6798 2.79484ZM21.4156 7.26512C20.0136 7.53215 19.5895 7.66699 19.6498 7.82665C19.9768 8.69131 24.4155 18.3482 24.486 18.3482C24.6144 18.3482 29.3721 7.79289 29.2835 7.70451C28.7785 7.19981 23.35 6.89667 21.4156 7.26512ZM13.8864 10.7004C12.5269 11.7756 11.0284 13.3666 10.8917 13.8798C10.8357 14.09 12.0714 17.0058 14.5007 22.3955C16.5324 26.9033 18.2977 30.7862 18.4233 31.024L18.6517 31.4563L19.2608 30.122C19.5956 29.3881 20.2875 27.8515 20.7981 26.7076L21.7263 24.6275H24.4911H27.2558L28.7292 27.9336C29.5397 29.752 30.2516 31.2698 30.3116 31.3069C30.3715 31.3439 31.2758 29.4852 32.3212 27.1766C33.3668 24.868 35.1326 20.9659 36.2456 18.5052L38.269 14.0311L37.9676 13.6038C36.9578 12.1724 33.9881 9.5822 33.5628 9.76194C33.4524 9.80857 31.9887 12.9252 30.31 16.6876L27.258 23.5286H24.4978H21.7376L18.6451 16.6606C16.9443 12.8833 15.4603 9.77325 15.3477 9.74954C15.2351 9.72599 14.5775 10.1538 13.8864 10.7004ZM7.83547 20.4282C7.54585 21.7029 7.45852 25.0454 7.67605 26.5316C8.07169 29.2367 9.26081 32.0538 10.9558 34.3021C12.3716 36.18 14.4083 37.9438 16.2251 38.865C16.9169 39.216 16.9854 39.2259 16.9172 38.9661C16.7669 38.3927 8.24493 19.604 8.13515 19.604C8.07326 19.604 7.93835 19.975 7.83547 20.4282ZM36.4395 29.1427C34.0721 34.3869 32.101 38.8074 32.0592 38.9661C31.9908 39.2259 32.0592 39.2159 32.7511 38.865C34.5678 37.9438 36.6046 36.18 38.0204 34.3021C39.7154 32.0538 40.9045 29.2367 41.3001 26.5316C41.6028 24.4632 41.2857 19.5981 40.8487 19.6059C40.7911 19.6069 38.8069 23.8985 36.4395 29.1427ZM22.0643 34.9962C20.6764 38.0798 19.7864 40.2419 19.8706 40.3261C20.1367 40.592 22.7984 40.9539 24.4881 40.9539C26.179 40.9539 28.8396 40.5919 29.106 40.3256C29.2401 40.1915 24.678 29.808 24.4849 29.808C24.4381 29.808 23.3489 32.1427 22.0643 34.9962Z" fill="white"/>
<path fill-rule="evenodd" clip-rule="evenodd" d="M22.4949 0.139922C16.76 0.627514 11.7255 2.98353 7.59338 7.11377C5.55787 9.14813 4.24028 10.9531 3.0243 13.3732C-0.26331 19.9161 -0.26331 28.0831 3.0243 34.626C5.34945 39.2532 9.22636 43.1282 13.8559 45.4522C20.4021 48.7382 28.5731 48.7382 35.1192 45.4522C39.7488 43.1282 43.6257 39.2532 45.9508 34.626C49.2384 28.0831 49.2384 19.9161 45.9508 13.3732C43.6368 8.76791 39.7373 4.8609 35.1751 2.57678C31.3174 0.645253 26.7884 -0.225065 22.4949 0.139922ZM28.8421 2.80017C32.962 3.67865 36.4696 5.55116 39.5005 8.49021C42.7399 11.6318 44.727 15.2273 45.7292 19.761C46.2031 21.9048 46.2006 26.1008 45.7242 28.2718C44.7912 32.5233 42.9593 35.961 40.0046 39.0051C36.8708 42.2334 33.235 44.2452 28.7618 45.2257C26.5787 45.7043 22.3964 45.7043 20.2133 45.2257C15.9596 44.2932 12.5203 42.4622 9.47467 39.509C6.2447 36.3767 4.23195 32.7427 3.25094 28.2718C2.77206 26.0897 2.77206 21.9095 3.25094 19.7274C4.18389 15.4758 6.01586 12.0382 8.9705 8.99413C12.5009 5.35728 16.9583 3.11555 21.8979 2.49264C23.5576 2.28338 27.1681 2.44335 28.8421 2.80017ZM22.1316 7.14988C21.1327 7.30687 19.6095 7.72193 19.651 7.82585C20.0311 8.77608 24.4309 18.3466 24.4876 18.3464C24.5308 18.3464 25.6423 15.9626 26.9577 13.049L29.3491 7.75176L28.6854 7.55333C27.4852 7.19478 26.1636 7.04737 24.3305 7.06794C23.3371 7.07892 22.3476 7.11582 22.1316 7.14988ZM14.2779 10.4334C13.195 11.23 11.3046 13.1113 10.9828 13.7124C10.7904 14.0718 11.0513 14.7099 14.6739 22.7434C16.8179 27.4978 18.6224 31.3326 18.684 31.2651C18.7454 31.1976 19.4523 29.6764 20.2548 27.8849L21.7139 24.6275H24.4876H27.2613L28.7204 27.8849C29.5228 29.6764 30.2296 31.1975 30.291 31.2648C30.3522 31.3322 32.1704 27.4821 34.3309 22.7092L38.2594 14.0311L37.7737 13.4079C36.7627 12.1104 34.0551 9.71406 33.6001 9.71406C33.5343 9.71406 32.0834 12.8223 30.3756 16.6213L27.2705 23.5286H24.4968H21.7231L18.6084 16.6213C16.8954 12.8223 15.4402 9.71406 15.3747 9.71406C15.309 9.71406 14.8156 10.0378 14.2779 10.4334ZM7.82128 20.5852C7.68244 21.2103 7.60532 22.5065 7.60846 24.1566C7.61302 26.4842 7.65684 26.9039 8.04164 28.2962C9.11735 32.189 11.4775 35.5999 14.6362 37.8269C15.8928 38.7129 16.9472 39.2985 16.9513 39.1124C16.9558 38.9005 8.23577 19.6045 8.1354 19.6042C8.08232 19.6042 7.94096 20.0456 7.82128 20.5852ZM36.4243 29.1929C34.0487 34.4616 32.0813 38.8792 32.0523 39.0098C31.9171 39.6192 34.9681 37.5371 36.5496 35.9407C38.6225 33.8481 40.1216 31.234 40.9335 28.2962C41.3183 26.9039 41.3621 26.4842 41.3667 24.1566C41.3712 21.7696 41.1193 19.5951 40.8397 19.6088C40.7868 19.6114 38.7998 23.9242 36.4243 29.1929ZM22.0729 35.0081C20.3484 38.8443 19.7884 40.2367 19.9343 40.3269C21.1211 41.06 27.8514 41.0617 29.0372 40.3291C29.1782 40.2419 28.5949 38.7909 26.8986 35.0104C25.6157 32.151 24.5308 29.8114 24.4876 29.8114C24.4444 29.8114 23.3578 32.1499 22.0729 35.0081Z" fill="white"/>
<path fill-rule="evenodd" clip-rule="evenodd" d="M22.49 0.1445C19.554 0.385313 16.3696 1.28907 13.6424 2.65577C9.33023 4.8165 5.29531 8.84941 3.13352 13.1594C-0.30362 20.0116 -0.30362 27.9876 3.13352 34.8398C5.29531 39.1498 9.33023 43.1827 13.6424 45.3435C20.4979 48.7789 28.4779 48.7789 35.3335 45.3435C39.6285 43.1914 43.6892 39.1327 45.8424 34.8398C49.2795 27.9876 49.2795 20.0116 45.8424 13.1594C43.6892 8.86652 39.6285 4.80786 35.3335 2.65577C33.6134 1.79377 31.387 1.00053 29.6238 0.621416C28.288 0.334136 24.8649 -0.052358 24.1738 0.00588298C24.0442 0.0168718 23.2866 0.0791944 22.49 0.1445ZM28.5426 2.72516C32.9212 3.57868 36.4868 5.49734 39.7432 8.75193C44.0724 13.079 46.0717 17.8958 46.0717 23.9996C46.0717 30.1035 44.0724 34.9202 39.7432 39.2473C35.4139 43.5744 30.5948 45.5727 24.4879 45.5727C18.3811 45.5727 13.5619 43.5744 9.23269 39.2473C4.90345 34.9202 2.90421 30.1035 2.90421 23.9996C2.90421 19.3873 3.95039 15.8498 6.43055 12.0745C7.49842 10.4489 9.91198 7.87187 11.4341 6.73201C14.4292 4.48903 18.0633 2.99721 21.7394 2.50208C23.2605 2.29706 26.9706 2.41873 28.5426 2.72516ZM21.1342 7.36026C20.3696 7.52133 19.7219 7.67533 19.6949 7.70249C19.6277 7.77031 24.3901 18.3413 24.4879 18.3416C24.5831 18.3419 29.3449 7.77188 29.2804 7.7039C29.2552 7.67753 28.5731 7.51945 27.7644 7.35273C25.8371 6.95525 23.0423 6.95838 21.1342 7.36026ZM14.2783 10.4334C13.2026 11.2249 11.3057 13.1101 10.988 13.7034C10.8021 14.0506 11.0989 14.7749 14.6857 22.7277C16.8307 27.4836 18.6298 31.3224 18.6837 31.2585C18.7377 31.1947 19.44 29.6765 20.2443 27.885L21.7067 24.6275H24.4879H27.2692L28.7316 27.885C29.5359 29.6765 30.2387 31.1953 30.2934 31.2598C30.3481 31.3243 32.1491 27.4892 34.2958 22.7373C38.7867 12.7961 38.519 14.0468 36.5741 12.0899C35.4469 10.9557 33.6767 9.58268 33.5301 9.72915C33.4932 9.76604 32.0816 12.8684 30.3933 16.6233L27.3237 23.4502L24.5167 23.4929L21.7095 23.5356L18.5944 16.6248C16.881 12.8239 15.4289 9.71408 15.3675 9.71408C15.3061 9.71408 14.8159 10.0378 14.2783 10.4334ZM7.77689 20.9777C6.52244 27.8087 9.63509 34.758 15.6033 38.4511C16.2885 38.8751 16.8808 39.1905 16.9194 39.152C17.0102 39.0611 8.26441 19.6124 8.13059 19.6077C8.07483 19.6056 7.91557 20.2223 7.77689 20.9777ZM40.2451 20.8599C38.3142 24.9798 31.9963 39.0919 32.0561 39.1515C32.1767 39.2723 34.5704 37.7209 35.5608 36.8803C37.5242 35.2136 39.4006 32.561 40.3417 30.122C41.1756 27.9608 41.4921 25.9635 41.3988 23.4502C41.354 22.2414 41.2167 20.8639 41.0939 20.389L40.8706 19.5256L40.2451 20.8599ZM22.0802 35.0156C20.336 38.9081 19.8015 40.2446 19.9522 40.3377C20.3919 40.6093 22.9299 40.9545 24.4879 40.9545C26.0421 40.9545 28.5836 40.6096 29.0212 40.3391C29.1685 40.2482 28.6187 38.8731 26.8932 35.0169C25.6134 32.1571 24.5311 29.8174 24.4879 29.8176C24.4447 29.8178 23.3613 32.157 22.0802 35.0156Z" fill="white"/>
<path fill-rule="evenodd" clip-rule="evenodd" d="M22.49 0.1445C19.554 0.385313 16.3696 1.28907 13.6424 2.65577C9.33023 4.8165 5.29531 8.84941 3.13352 13.1594C-0.30362 20.0116 -0.30362 27.9876 3.13352 34.8398C5.29531 39.1498 9.33023 43.1827 13.6424 45.3435C20.4979 48.7789 28.4779 48.7789 35.3335 45.3435C39.6285 43.1914 43.6892 39.1327 45.8424 34.8398C49.2795 27.9876 49.2795 20.0116 45.8424 13.1594C43.6892 8.86652 39.6285 4.80786 35.3335 2.65577C33.6134 1.79377 31.387 1.00053 29.6238 0.621416C28.288 0.334136 24.8649 -0.052358 24.1738 0.00588298C24.0442 0.0168718 23.2866 0.0791944 22.49 0.1445ZM28.5426 2.72516C32.9212 3.57868 36.4868 5.49734 39.7432 8.75193C44.0724 13.079 46.0717 17.8958 46.0717 23.9996C46.0717 30.1035 44.0724 34.9202 39.7432 39.2473C35.4139 43.5744 30.5948 45.5727 24.4879 45.5727C18.3811 45.5727 13.5619 43.5744 9.23269 39.2473C4.90345 34.9202 2.90421 30.1035 2.90421 23.9996C2.90421 19.3873 3.95039 15.8498 6.43055 12.0745C7.49842 10.4489 9.91198 7.87187 11.4341 6.73201C14.4292 4.48903 18.0633 2.99721 21.7394 2.50208C23.2605 2.29706 26.9706 2.41873 28.5426 2.72516ZM21.1342 7.36026C20.3696 7.52133 19.7219 7.67533 19.6949 7.70249C19.6277 7.77031 24.3901 18.3413 24.4879 18.3416C24.5831 18.3419 29.3449 7.77188 29.2804 7.7039C29.2552 7.67753 28.5731 7.51945 27.7644 7.35273C25.8371 6.95525 23.0423 6.95838 21.1342 7.36026ZM14.2783 10.4334C13.2026 11.2249 11.3057 13.1101 10.988 13.7034C10.8021 14.0506 11.0989 14.7749 14.6857 22.7277C16.8307 27.4836 18.6298 31.3224 18.6837 31.2585C18.7377 31.1947 19.44 29.6765 20.2443 27.885L21.7067 24.6275H24.4879H27.2692L28.7316 27.885C29.5359 29.6765 30.2387 31.1953 30.2934 31.2598C30.3481 31.3243 32.1491 27.4892 34.2958 22.7373C38.7867 12.7961 38.519 14.0468 36.5741 12.0899C35.4469 10.9557 33.6767 9.58268 33.5301 9.72915C33.4932 9.76604 32.0816 12.8684 30.3933 16.6233L27.3237 23.4502L24.5167 23.4929L21.7095 23.5356L18.5944 16.6248C16.881 12.8239 15.4289 9.71408 15.3675 9.71408C15.3061 9.71408 14.8159 10.0378 14.2783 10.4334ZM7.77689 20.9777C6.52244 27.8087 9.63509 34.758 15.6033 38.4511C16.2885 38.8751 16.8808 39.1905 16.9194 39.152C17.0102 39.0611 8.26441 19.6124 8.13059 19.6077C8.07483 19.6056 7.91557 20.2223 7.77689 20.9777ZM40.2451 20.8599C38.3142 24.9798 31.9963 39.0919 32.0561 39.1515C32.1767 39.2723 34.5704 37.7209 35.5608 36.8803C37.5242 35.2136 39.4006 32.561 40.3417 30.122C41.1756 27.9608 41.4921 25.9635 41.3988 23.4502C41.354 22.2414 41.2167 20.8639 41.0939 20.389L40.8706 19.5256L40.2451 20.8599ZM22.0802 35.0156C20.336 38.9081 19.8015 40.2446 19.9522 40.3377C20.3919 40.6093 22.9299 40.9545 24.4879 40.9545C26.0421 40.9545 28.5836 40.6096 29.0212 40.3391C29.1685 40.2482 28.6187 38.8731 26.8932 35.0169C25.6134 32.1571 24.5311 29.8174 24.4879 29.8176C24.4447 29.8178 23.3613 32.157 22.0802 35.0156Z" fill="white"/>
<path fill-rule="evenodd" clip-rule="evenodd" d="M22.49 0.1445C19.554 0.385313 16.3696 1.28907 13.6424 2.65577C9.33023 4.8165 5.29531 8.84941 3.13352 13.1594C-0.30362 20.0116 -0.30362 27.9876 3.13352 34.8398C5.29531 39.1498 9.33023 43.1827 13.6424 45.3435C20.4979 48.7789 28.4779 48.7789 35.3335 45.3435C39.6285 43.1914 43.6892 39.1327 45.8424 34.8398C49.2795 27.9876 49.2795 20.0116 45.8424 13.1594C43.6892 8.86652 39.6285 4.80786 35.3335 2.65577C33.6134 1.79377 31.387 1.00053 29.6238 0.621416C28.288 0.334136 24.8649 -0.052358 24.1738 0.00588298C24.0442 0.0168718 23.2866 0.0791944 22.49 0.1445ZM28.5426 2.72516C32.9212 3.57868 36.4868 5.49734 39.7432 8.75193C44.0724 13.079 46.0717 17.8958 46.0717 23.9996C46.0717 30.1035 44.0724 34.9202 39.7432 39.2473C35.4139 43.5744 30.5948 45.5727 24.4879 45.5727C18.3811 45.5727 13.5619 43.5744 9.23269 39.2473C4.90345 34.9202 2.90421 30.1035 2.90421 23.9996C2.90421 19.3873 3.95039 15.8498 6.43055 12.0745C7.49842 10.4489 9.91198 7.87187 11.4341 6.73201C14.4292 4.48903 18.0633 2.99721 21.7394 2.50208C23.2605 2.29706 26.9706 2.41873 28.5426 2.72516ZM21.1342 7.36026C20.3696 7.52133 19.7219 7.67533 19.6949 7.70249C19.6277 7.77031 24.3901 18.3413 24.4879 18.3416C24.5831 18.3419 29.3449 7.77188 29.2804 7.7039C29.2552 7.67753 28.5731 7.51945 27.7644 7.35273C25.8371 6.95525 23.0423 6.95838 21.1342 7.36026ZM14.2783 10.4334C13.2026 11.2249 11.3057 13.1101 10.988 13.7034C10.8021 14.0506 11.0989 14.7749 14.6857 22.7277C16.8307 27.4836 18.6298 31.3224 18.6837 31.2585C18.7377 31.1947 19.44 29.6765 20.2443 27.885L21.7067 24.6275H24.4879H27.2692L28.7316 27.885C29.5359 29.6765 30.2387 31.1953 30.2934 31.2598C30.3481 31.3243 32.1491 27.4892 34.2958 22.7373C38.7867 12.7961 38.519 14.0468 36.5741 12.0899C35.4469 10.9557 33.6767 9.58268 33.5301 9.72915C33.4932 9.76604 32.0816 12.8684 30.3933 16.6233L27.3237 23.4502L24.5167 23.4929L21.7095 23.5356L18.5944 16.6248C16.881 12.8239 15.4289 9.71408 15.3675 9.71408C15.3061 9.71408 14.8159 10.0378 14.2783 10.4334ZM7.77689 20.9777C6.52244 27.8087 9.63509 34.758 15.6033 38.4511C16.2885 38.8751 16.8808 39.1905 16.9194 39.152C17.0102 39.0611 8.26441 19.6124 8.13059 19.6077C8.07483 19.6056 7.91557 20.2223 7.77689 20.9777ZM40.2451 20.8599C38.3142 24.9798 31.9963 39.0919 32.0561 39.1515C32.1767 39.2723 34.5704 37.7209 35.5608 36.8803C37.5242 35.2136 39.4006 32.561 40.3417 30.122C41.1756 27.9608 41.4921 25.9635 41.3988 23.4502C41.354 22.2414 41.2167 20.8639 41.0939 20.389L40.8706 19.5256L40.2451 20.8599ZM22.0802 35.0156C20.336 38.9081 19.8015 40.2446 19.9522 40.3377C20.3919 40.6093 22.9299 40.9545 24.4879 40.9545C26.0421 40.9545 28.5836 40.6096 29.0212 40.3391C29.1685 40.2482 28.6187 38.8731 26.8932 35.0169C25.6134 32.1571 24.5311 29.8174 24.4879 29.8176C24.4447 29.8178 23.3613 32.157 22.0802 35.0156Z" fill="white"/>
<path fill-rule="evenodd" clip-rule="evenodd" d="M23.8598 0.0300015C23.8166 0.0738 23.2158 0.151193 22.5247 0.201899C21.2106 0.298444 20.8409 0.344754 19.9332 0.527326C19.1129 0.692159 18.9123 0.739255 18.9123 0.767041C18.9123 0.780855 18.771 0.815549 18.5982 0.844434C17.8416 0.970335 17.3372 1.11382 16.3594 1.48163C14.8611 2.04536 12.6889 3.1105 12.2765 3.48365C12.082 3.65947 11.9231 3.75476 11.9231 3.69526C11.9231 3.63577 11.6404 3.77422 11.2948 4.00279C10.9493 4.23136 10.6666 4.48379 10.6666 4.5637C10.6666 4.6436 10.6088 4.67343 10.5381 4.62979C10.4674 4.58614 10.3132 4.6841 10.1954 4.84752C10.0776 5.01094 9.92902 5.11251 9.86526 5.07311C9.80149 5.03371 9.60234 5.18834 9.42266 5.41659C9.24298 5.645 9.09597 5.77451 9.09597 5.70466C9.09597 5.63464 8.44212 6.23275 7.64315 7.03368C6.84402 7.83461 6.19504 8.5357 6.20085 8.59175C6.20666 8.64779 6.04693 8.82298 5.84605 8.98091C5.64501 9.13899 5.51276 9.32031 5.55219 9.38404C5.59161 9.44778 5.48999 9.59629 5.32649 9.71402C5.16299 9.83176 5.06498 9.98592 5.10864 10.0566C5.15231 10.1272 5.12247 10.185 5.04252 10.185C4.96258 10.185 4.71002 10.4675 4.48134 10.8129C4.25266 11.1583 4.11413 11.4408 4.17366 11.4408C4.23318 11.4408 4.13643 11.5999 3.95864 11.7941C3.59771 12.1884 2.39807 14.6477 1.89328 16.0281C1.58261 16.8777 1.44125 17.3927 1.32142 18.1127C1.29252 18.2853 1.25781 18.4266 1.24399 18.4266C1.23016 18.4266 1.19545 18.5326 1.16671 18.6621C0.362398 22.2988 0.362398 25.7003 1.16671 29.337C1.19545 29.4665 1.23016 29.5725 1.24399 29.5725C1.25781 29.5725 1.29252 29.7138 1.32142 29.8865C1.44738 30.6426 1.59093 31.1469 1.95893 32.1241C2.52294 33.6217 3.5886 35.7928 3.96194 36.2051C4.13785 36.3994 4.23318 36.5583 4.17366 36.5583C4.11413 36.5583 4.25266 36.8408 4.48134 37.1862C4.71002 37.5316 4.96258 37.8141 5.04252 37.8141C5.12247 37.8141 5.15231 37.8719 5.10864 37.9426C5.06498 38.0132 5.16299 38.1674 5.32649 38.2851C5.48999 38.4028 5.59161 38.5513 5.55219 38.6151C5.51276 38.6788 5.67564 38.8843 5.9139 39.0716C6.15232 39.259 6.33687 39.459 6.32383 39.516C6.31095 39.5728 6.9293 40.2499 7.69812 41.0205C8.46694 41.7912 9.09597 42.3645 9.09597 42.2945C9.09597 42.2246 9.24298 42.3541 9.42266 42.5825C9.60234 42.8108 9.80149 42.9654 9.86526 42.926C9.92902 42.8866 10.0776 42.9882 10.1954 43.1516C10.3132 43.315 10.4674 43.413 10.5381 43.3693C10.6088 43.3257 10.6666 43.3555 10.6666 43.4354C10.6666 43.5153 10.9493 43.7678 11.2948 43.9963C11.6404 44.2249 11.9231 44.3634 11.9231 44.3039C11.9231 44.2444 12.082 44.3411 12.2765 44.5188C12.671 44.8795 15.1315 46.0786 16.5126 46.5831C17.3626 46.8936 17.8779 47.0349 18.5982 47.1547C18.771 47.1836 18.9123 47.2183 18.9123 47.2321C18.9123 47.2599 19.1129 47.307 19.9332 47.4718C23.0902 48.1065 26.4711 48.0511 29.8281 47.3093C29.9577 47.2806 30.0637 47.2459 30.0637 47.2321C30.0637 47.2183 30.2051 47.1836 30.3778 47.1547C31.0981 47.0349 31.6134 46.8936 32.4634 46.5831C33.8445 46.0786 36.305 44.8795 36.6996 44.5188C36.894 44.3411 37.0529 44.2444 37.0529 44.3039C37.0529 44.3634 37.3357 44.2249 37.6812 43.9963C38.0267 43.7678 38.3094 43.5153 38.3094 43.4354C38.3094 43.3555 38.3752 43.3307 38.4558 43.3805C38.5362 43.4301 38.7016 43.3288 38.8232 43.1552C38.9449 42.9816 39.083 42.8783 39.1302 42.9254C39.1774 42.9725 39.358 42.8309 39.5314 42.6105C39.7048 42.3901 39.9 42.2097 39.9652 42.2097C40.1282 42.2097 42.6985 39.652 42.7032 39.4851C42.7054 39.4111 42.8845 39.2113 43.1014 39.0408C43.3181 38.8703 43.4633 38.6788 43.4238 38.6151C43.3844 38.5513 43.486 38.4028 43.6495 38.2851C43.813 38.1674 43.911 38.0132 43.8674 37.9426C43.8237 37.8719 43.8536 37.8141 43.9335 37.8141C44.0134 37.8141 44.266 37.5316 44.4947 37.1862C44.7234 36.8408 44.8619 36.5583 44.8024 36.5583C44.7428 36.5583 44.8396 36.3994 45.0174 36.2051C45.3783 35.8107 46.5779 33.3514 47.0827 31.971C47.3934 31.1214 47.5348 30.6064 47.6546 29.8865C47.6835 29.7138 47.7182 29.5725 47.732 29.5725C47.7459 29.5725 47.7806 29.4665 47.8093 29.337C48.6136 25.7003 48.6136 22.2988 47.8093 18.6621C47.7806 18.5326 47.7459 18.4266 47.732 18.4266C47.7182 18.4266 47.6835 18.2853 47.6546 18.1127C47.5348 17.3927 47.3934 16.8777 47.0827 16.0281C46.5779 14.6477 45.3783 12.1884 45.0174 11.7941C44.8396 11.5999 44.7428 11.4408 44.8024 11.4408C44.8619 11.4408 44.7234 11.1583 44.4947 10.8129C44.266 10.4675 44.0134 10.185 43.9335 10.185C43.8536 10.185 43.8287 10.1192 43.8785 10.0387C43.9282 9.95829 43.8269 9.79299 43.6531 9.67148C43.4794 9.54982 43.3761 9.41183 43.4232 9.36458C43.4703 9.31748 43.3287 9.13695 43.1081 8.96364C42.8876 8.79033 42.7072 8.5952 42.7072 8.53005C42.7072 8.3671 40.1482 5.79806 39.9812 5.79335C39.9072 5.79115 39.7048 5.60905 39.5314 5.38865C39.358 5.16824 39.1774 5.02664 39.1302 5.07374C39.083 5.12083 38.9449 5.01754 38.8232 4.84391C38.7016 4.67029 38.5362 4.56903 38.4558 4.61864C38.3752 4.6684 38.3094 4.6436 38.3094 4.5637C38.3094 4.48379 38.0267 4.23136 37.6812 4.00279C37.3357 3.77422 37.0529 3.63577 37.0529 3.69526C37.0529 3.75476 36.894 3.65806 36.6996 3.48035C36.305 3.1196 33.8445 1.92056 32.4634 1.41601C31.6134 1.1055 31.0981 0.964213 30.3778 0.844434C30.2051 0.815549 30.0637 0.780855 30.0637 0.767041C30.0637 0.666885 28.0521 0.327329 26.8439 0.223405C26.3688 0.18259 25.5207 0.104412 24.9592 0.0497814C24.3977 -0.00484901 23.903 -0.013797 23.8598 0.0300015ZM27.7863 2.54802C28.0023 2.58884 28.4263 2.67251 28.7287 2.73389C29.031 2.79512 29.3844 2.8623 29.514 2.88303C29.6436 2.90391 29.9263 2.99292 30.1422 3.08083C30.3582 3.16889 30.591 3.20767 30.6596 3.16717C30.7281 3.12682 30.8716 3.16623 30.9786 3.25492C31.0854 3.34346 31.3558 3.44927 31.5795 3.48977C31.8032 3.53027 32.119 3.63419 32.2814 3.72054C32.4438 3.80703 33.2481 4.20546 34.0688 4.60608C35.7679 5.43543 36.1417 5.64657 36.3045 5.86792C36.368 5.95426 36.4209 5.96227 36.4223 5.88581C36.4236 5.80921 36.611 5.93291 36.8387 6.16054C37.0664 6.38816 37.3322 6.57435 37.4293 6.57435C37.5263 6.57435 37.6939 6.71563 37.8018 6.88831C37.9097 7.061 38.0581 7.20228 38.1315 7.20228C38.306 7.20228 41.2936 10.1884 41.2936 10.3628C41.2936 10.4362 41.435 10.5845 41.6077 10.6923C41.7805 10.8002 41.9219 10.9677 41.9219 11.0647C41.9219 11.1617 42.1081 11.4273 42.3359 11.655C42.5636 11.8826 42.6874 12.0699 42.6107 12.0711C42.5342 12.0725 42.5422 12.1255 42.6286 12.1889C42.8501 12.3517 43.0613 12.7253 43.8911 14.4235C44.2919 15.2438 44.6905 16.0477 44.7771 16.21C44.8635 16.3723 44.9674 16.688 45.008 16.9116C45.0485 17.1351 45.1543 17.4055 45.2429 17.5122C45.3317 17.6191 45.3711 17.7626 45.3307 17.831C45.2902 17.8996 45.329 18.1323 45.4171 18.3481C45.5051 18.564 45.5941 18.8466 45.615 18.9761C45.6357 19.1056 45.7047 19.4588 45.7681 19.761C45.8317 20.0632 45.9202 20.487 45.9648 20.7029C46.0094 20.9187 46.046 22.4022 46.046 23.9996C46.046 25.5969 46.0094 27.0804 45.9648 27.2962C45.9202 27.5121 45.8317 27.9359 45.7681 28.2381C45.7047 28.5403 45.6357 28.8935 45.615 29.023C45.5941 29.1526 45.5051 29.4351 45.4171 29.651C45.329 29.8668 45.2902 30.0995 45.3307 30.1681C45.3711 30.2365 45.3317 30.38 45.2429 30.4869C45.1543 30.5937 45.0485 30.864 45.008 31.0875C44.9674 31.3111 44.8635 31.6268 44.7771 31.7891C44.6905 31.9514 44.2919 32.7553 43.8911 33.5756C43.0613 35.2738 42.8501 35.6474 42.6286 35.8102C42.5422 35.8737 42.5342 35.9266 42.6107 35.928C42.6874 35.9292 42.5636 36.1165 42.3359 36.3441C42.1081 36.5718 41.9219 36.8374 41.9219 36.9344C41.9219 37.0314 41.7805 37.1989 41.6077 37.3068C41.435 37.4146 41.2936 37.563 41.2936 37.6363C41.2936 37.8107 38.306 40.7968 38.1315 40.7968C38.0581 40.7968 37.9097 40.9381 37.8018 41.1108C37.6939 41.2835 37.5263 41.4248 37.4293 41.4248C37.3322 41.4248 37.0664 41.611 36.8387 41.8386C36.611 42.0662 36.4236 42.1899 36.4223 42.1133C36.4209 42.0368 36.368 42.0449 36.3045 42.1312C36.1417 42.3525 35.7679 42.5637 34.0688 43.393C33.2481 43.7937 32.4438 44.1921 32.2814 44.2786C32.119 44.3649 31.8032 44.4688 31.5795 44.5093C31.3558 44.5498 31.0854 44.6557 30.9786 44.7442C30.8716 44.8329 30.7281 44.8723 30.6596 44.832C30.591 44.7915 30.3582 44.8302 30.1422 44.9183C29.9263 45.0062 29.6436 45.0952 29.514 45.1161C29.3844 45.1368 29.031 45.2057 28.7287 45.2692C28.4263 45.3327 28.0023 45.4203 27.7863 45.464C27.1714 45.5883 22.1337 45.5894 21.3468 45.4654C20.958 45.4042 20.428 45.3087 20.1688 45.2535C19.9097 45.198 19.5916 45.136 19.462 45.1155C19.3325 45.0951 19.0498 45.0062 18.8338 44.9183C18.6178 44.8302 18.3851 44.7915 18.3164 44.832C18.2479 44.8723 18.1044 44.8329 17.9974 44.7442C17.8906 44.6557 17.6202 44.5498 17.3965 44.5093C17.1729 44.4688 16.857 44.3649 16.6946 44.2786C16.5322 44.1921 15.7279 43.7937 14.9073 43.393C13.2082 42.5637 12.8344 42.3525 12.6715 42.1312C12.608 42.0449 12.5551 42.0368 12.5537 42.1133C12.5524 42.1899 12.3651 42.0662 12.1373 41.8386C11.9096 41.611 11.6438 41.4248 11.5468 41.4248C11.4497 41.4248 11.2821 41.2835 11.1742 41.1108C11.0663 40.9381 10.9179 40.7968 10.8445 40.7968C10.67 40.7968 7.68241 37.8107 7.68241 37.6363C7.68241 37.563 7.54106 37.4146 7.36829 37.3068C7.19552 37.1989 7.05417 37.0314 7.05417 36.9344C7.05417 36.8374 6.86789 36.5718 6.64015 36.3441C6.41241 36.1165 6.28865 35.9292 6.36529 35.928C6.44178 35.9266 6.43377 35.8737 6.34739 35.8102C6.12593 35.6474 5.91468 35.2738 5.08493 33.5756C4.68411 32.7553 4.28548 31.9514 4.19894 31.7891C4.11256 31.6268 4.00858 31.3111 3.96806 31.0875C3.92754 30.864 3.82168 30.5937 3.7331 30.4869C3.64436 30.38 3.60494 30.2365 3.6453 30.1681C3.68582 30.0995 3.64703 29.8668 3.55892 29.651C3.47096 29.4351 3.38207 29.1526 3.36165 29.023C3.34107 28.8935 3.27903 28.5756 3.22359 28.3166C2.96711 27.1162 2.90334 26.2608 2.9024 23.9996C2.90146 21.7173 2.96742 20.82 3.21982 19.6825C3.27731 19.4235 3.34107 19.1056 3.36165 18.9761C3.38207 18.8466 3.47096 18.564 3.55892 18.3481C3.64703 18.1323 3.68582 17.8996 3.6453 17.831C3.60494 17.7626 3.64436 17.6191 3.7331 17.5122C3.82168 17.4055 3.92754 17.1351 3.96806 16.9116C4.00858 16.688 4.11256 16.3723 4.19894 16.21C4.28548 16.0477 4.68411 15.2438 5.08493 14.4235C5.91468 12.7253 6.12593 12.3517 6.34739 12.1889C6.43377 12.1255 6.44178 12.0725 6.36529 12.0711C6.28865 12.0699 6.41241 11.8826 6.64015 11.655C6.86789 11.4273 7.05417 11.1617 7.05417 11.0647C7.05417 10.9677 7.19552 10.8002 7.36829 10.6923C7.54106 10.5845 7.68241 10.4362 7.68241 10.3628C7.68241 10.1884 10.67 7.20228 10.8445 7.20228C10.9179 7.20228 11.0663 7.061 11.1742 6.88831C11.2821 6.71563 11.4497 6.57435 11.5468 6.57435C11.6438 6.57435 11.9096 6.38816 12.1373 6.16054C12.3651 5.93291 12.5524 5.80921 12.5537 5.88581C12.5551 5.96227 12.608 5.95426 12.6715 5.86792C12.8344 5.64657 13.2082 5.43543 14.9073 4.60608C15.7279 4.20546 16.5322 3.80703 16.6946 3.72054C16.857 3.63419 17.1729 3.53027 17.3965 3.48977C17.6202 3.44927 17.8906 3.34346 17.9974 3.25492C18.1044 3.16623 18.2479 3.12682 18.3164 3.16717C18.3851 3.20767 18.6178 3.16889 18.8338 3.08083C19.0498 2.99292 19.3325 2.90406 19.462 2.88365C19.5916 2.86309 19.9097 2.80108 20.1688 2.74567C20.428 2.69041 20.9577 2.60532 21.346 2.55666C21.7344 2.50799 22.0782 2.44206 22.1101 2.41003C22.1893 2.33091 27.2956 2.45509 27.7863 2.54802ZM22.428 7.11421C22.3948 7.1464 22.1556 7.20903 21.8965 7.25346C21.6373 7.29773 21.1426 7.38171 20.7971 7.44011C20.4515 7.49835 20.0917 7.6095 19.9973 7.68689C19.9029 7.76413 19.773 7.77512 19.7085 7.71107C19.6439 7.64717 19.6843 7.80667 19.7983 8.06569C19.9122 8.32472 20.0658 8.57982 20.1398 8.63272C20.2137 8.68547 20.2772 8.79143 20.2808 8.86819C20.2949 9.16898 20.5577 9.79361 21.6394 12.0981C21.9103 12.6755 22.1321 13.2229 22.1321 13.3148C22.1321 13.4066 22.2028 13.4816 22.2891 13.4816C22.3755 13.4816 22.4351 13.5347 22.4212 13.5994C22.3821 13.7843 22.7019 14.5438 23.8382 16.9646C24.1092 17.542 24.3309 18.0894 24.3309 18.1813C24.3309 18.2731 24.4016 18.3481 24.488 18.3481C24.5744 18.3481 24.6451 18.2731 24.6451 18.1813C24.6451 18.0894 24.865 17.542 25.1338 16.9646C26.2623 14.5407 26.5939 13.7568 26.5573 13.5994C26.5422 13.5347 26.6005 13.4816 26.6869 13.4816C26.7733 13.4816 26.8439 13.4066 26.8439 13.3148C26.8439 13.2229 27.048 12.7108 27.2974 12.1766C27.8568 10.9784 28.0004 10.611 27.9683 10.4597C27.9545 10.395 28.014 10.342 28.1004 10.342C28.1868 10.342 28.258 10.2537 28.2584 10.1457C28.2591 10.0379 28.3726 9.73757 28.511 9.47855C28.8829 8.78232 29.394 7.58375 29.2635 7.71436C29.2011 7.77653 29.0731 7.76413 28.9787 7.68689C28.8843 7.6095 28.5598 7.50542 28.2575 7.4555C27.9551 7.40573 27.5311 7.31971 27.3151 7.26429C26.8841 7.15377 22.5251 7.01987 22.428 7.11421ZM14.9073 9.98027C14.2324 10.4482 14.0924 10.5633 13.5609 11.0876C13.2763 11.3682 12.9806 11.5978 12.9033 11.5978C12.712 11.5978 12.0801 12.2845 12.0801 12.4925C12.0801 12.5849 11.9049 12.7754 11.6908 12.9156C11.4766 13.0559 11.1976 13.3711 11.0709 13.616C10.8412 14.0601 10.8926 14.7375 11.1561 14.7375C11.2323 14.7375 11.2837 14.7906 11.2699 14.8552C11.2394 14.9997 11.3704 15.3466 11.8775 16.4643C12.4142 17.6472 12.995 18.931 13.3332 19.6825C13.4885 20.0279 13.8356 20.7828 14.1044 21.3602C14.3732 21.9376 14.5931 22.485 14.5931 22.5768C14.5931 22.6686 14.6638 22.7437 14.7502 22.7437C14.8366 22.7437 14.8961 22.7967 14.8823 22.8614C14.8502 23.0128 14.9938 23.3801 15.5532 24.5784C15.8027 25.1126 16.0067 25.6247 16.0067 25.7165C16.0067 25.8083 16.0774 25.8834 16.1637 25.8834C16.2501 25.8834 16.3097 25.9364 16.2958 26.0011C16.2575 26.1823 16.32 26.332 17.6877 29.337C17.9433 29.8982 18.2627 30.6047 18.3979 30.9068L18.6437 31.4563L18.8267 30.9853C18.9274 30.7263 19.1745 30.1612 19.376 29.7295C19.8451 28.7243 19.9891 28.3455 19.9582 28.1989C19.9444 28.1342 20.0039 28.0811 20.0903 28.0811C20.1767 28.0811 20.2473 28.0061 20.2473 27.9143C20.2473 27.8224 20.4514 27.3103 20.7008 26.7761C21.1038 25.9129 21.262 25.5256 21.3705 25.1361C21.4946 24.6908 21.8827 24.6275 24.488 24.6275C26.6427 24.6275 27.2264 24.6733 27.4105 24.8573C27.5369 24.9838 27.647 25.1427 27.6548 25.2105C27.6831 25.4524 27.8279 25.8182 28.2752 26.7761C28.5247 27.3103 28.7287 27.8224 28.7287 27.9143C28.7287 28.0061 28.7994 28.0811 28.8857 28.0811C28.9721 28.0811 29.0316 28.134 29.0178 28.1989C28.9869 28.3455 29.1309 28.7243 29.6001 29.7295C29.8016 30.1612 30.0485 30.7263 30.149 30.9853L30.3316 31.4563L30.6137 30.8284C31.1514 29.6314 31.2963 29.2579 31.2691 29.1408C31.2541 29.0761 31.3123 29.023 31.3987 29.023C31.4851 29.023 31.5558 28.948 31.5558 28.8562C31.5558 28.7643 31.7776 28.2169 32.0485 27.6395C33.1848 25.2187 33.5046 24.4592 33.4655 24.2743C33.4517 24.2096 33.5112 24.1565 33.5976 24.1565C33.684 24.1565 33.7546 24.0815 33.7546 23.9897C33.7546 23.8978 33.9764 23.3504 34.2473 22.773C34.7898 21.6172 35.2672 20.5662 35.7933 19.3685C35.9829 18.9368 36.3014 18.2304 36.5009 17.7987C36.7005 17.367 37.0556 16.5899 37.2899 16.0719C37.5243 15.5538 37.823 14.9138 37.9538 14.6498C38.1682 14.2166 38.1662 14.1206 37.9331 13.6702C37.791 13.3955 37.4995 13.0559 37.2852 12.9156C37.0712 12.7754 36.8959 12.5751 36.8959 12.4705C36.8959 12.2672 36.2475 11.5978 36.0506 11.5978C35.9856 11.5978 35.6997 11.3682 35.4151 11.0876C34.8465 10.5267 34.6532 10.3691 34.0425 9.96928C33.6351 9.70241 33.629 9.7046 33.3006 10.2358C33.1184 10.5305 32.9693 10.8204 32.9693 10.8804C32.9693 10.9404 32.7842 11.3911 32.5578 11.8823C31.3359 14.5333 31.1785 14.91 31.2167 15.0907C31.2305 15.1554 31.171 15.2085 31.0846 15.2085C30.9982 15.2085 30.9275 15.2835 30.9275 15.3753C30.9275 15.4672 30.7235 15.9793 30.4741 16.5135C29.9146 17.7117 29.7711 18.0791 29.8031 18.2304C29.817 18.2951 29.7574 18.3481 29.671 18.3481C29.5847 18.3481 29.514 18.4295 29.514 18.5287C29.514 18.628 29.3447 19.0695 29.1377 19.5098C28.9307 19.9502 28.585 20.699 28.3695 21.1738C28.1541 21.6487 27.8224 22.3727 27.6324 22.7829L27.2872 23.5286H24.5097H21.7324L21.4789 23.0184C21.2505 22.5589 21.0553 22.133 20.0937 19.9965C19.9384 19.6511 19.5913 18.8962 19.3226 18.3188C19.0537 17.7414 18.8338 17.194 18.8338 17.1022C18.8338 17.0103 18.7631 16.9353 18.6767 16.9353C18.5903 16.9353 18.5308 16.8822 18.5446 16.8175C18.5767 16.6662 18.4331 16.2989 17.8737 15.1006C17.6243 14.5664 17.4202 14.0543 17.4202 13.9625C17.4202 13.8706 17.3496 13.7956 17.2632 13.7956C17.1768 13.7956 17.1173 13.7425 17.1311 13.6779C17.1617 13.533 17.0224 13.1644 16.5526 12.1473C16.3533 11.7156 16.0858 11.1151 15.9581 10.8129C15.8305 10.5107 15.6302 10.1385 15.5129 9.98576C15.3103 9.72187 15.2803 9.72156 14.9073 9.98027ZM7.98444 19.8787C7.97785 20.0299 7.94816 20.2594 7.91848 20.3889C7.66718 21.4856 7.60985 22.1552 7.60985 23.9996C7.60985 25.1652 7.66074 26.3661 7.72278 26.6683C7.78482 26.9705 7.87387 27.4297 7.92068 27.6887C7.96732 27.9477 8.04978 28.2656 8.10365 28.3951C8.15768 28.5246 8.21061 28.7012 8.22145 28.7876C8.28883 29.3263 8.51437 29.9649 8.63719 29.9649C8.71682 29.9649 8.78185 30.1086 8.78185 30.2841C8.78185 30.6549 9.37947 31.8802 10.1456 33.0798C10.8045 34.1114 10.9286 34.2718 11.5697 34.9212C11.8504 35.2057 12.0801 35.5013 12.0801 35.5785C12.0801 35.7445 12.7549 36.4013 12.9254 36.4013C12.9905 36.4013 13.2763 36.6308 13.5609 36.9115C14.2679 37.6088 14.4455 37.7415 15.74 38.5392C16.3604 38.9215 16.8906 39.1669 16.9181 39.0845C16.9456 39.0019 16.7871 38.5947 16.566 38.1793C16.3447 37.7639 16.1637 37.3353 16.1637 37.2267C16.1637 37.1181 16.0931 37.0292 16.0067 37.0292C15.9203 37.0292 15.8608 36.9763 15.8746 36.9115C15.9066 36.7602 15.7631 36.3928 15.2036 35.1945C14.9542 34.6603 14.7502 34.1483 14.7502 34.0564C14.7502 33.9646 14.6795 33.8895 14.5931 33.8895C14.5067 33.8895 14.4472 33.8366 14.461 33.7718C14.4931 33.6205 14.3495 33.2531 13.7901 32.0549C13.5407 31.5207 13.3366 31.0086 13.3366 30.9167C13.3366 30.8249 13.266 30.7499 13.1796 30.7499C13.0932 30.7499 13.0337 30.6968 13.0475 30.6321C13.078 30.4877 12.947 30.1408 12.4398 29.023C11.8089 27.6326 11.2871 26.4782 10.9854 25.8049C10.8306 25.4595 10.5279 24.7884 10.3129 24.3135C10.0979 23.8386 9.7806 23.1322 9.60768 22.7437C9.43491 22.3552 9.07225 21.5649 8.80211 20.9875C8.5318 20.4101 8.31066 19.8627 8.31066 19.7709C8.31066 19.4849 7.99717 19.5885 7.98444 19.8787ZM40.6443 20.0139C40.5416 20.2633 40.469 20.5205 40.483 20.5852C40.4968 20.6498 40.4376 20.7029 40.3512 20.7029C40.2649 20.7029 40.1942 20.7779 40.1942 20.8698C40.1942 20.9616 39.9724 21.509 39.7015 22.0864C38.5651 24.5072 38.2454 25.2667 38.2845 25.4517C38.2983 25.5163 38.2388 25.5694 38.1524 25.5694C38.066 25.5694 37.9953 25.6444 37.9953 25.7363C37.9953 25.8281 37.7735 26.3755 37.5026 26.9529C36.9601 28.1088 36.4828 29.1598 35.9566 30.3574C35.7671 30.7891 35.4486 31.4955 35.2491 31.9272C33.6312 35.4272 33.0611 36.7487 33.0989 36.9115C33.114 36.9763 33.0557 37.0292 32.9693 37.0292C32.883 37.0292 32.8123 37.1181 32.8123 37.2267C32.8123 37.3353 32.6313 37.7639 32.41 38.1793C32.1889 38.5947 32.0304 39.0019 32.0579 39.0845C32.0854 39.1669 32.6156 38.9215 33.236 38.5392C34.5305 37.7415 34.7082 37.6088 35.4151 36.9115C35.6997 36.6308 35.9954 36.4013 36.0727 36.4013C36.2387 36.4013 36.8959 35.7269 36.8959 35.5564C36.8959 35.4914 37.1255 35.2057 37.4063 34.9212C38.0475 34.2718 38.1715 34.1114 38.8304 33.0798C39.5966 31.8802 40.1942 30.6549 40.1942 30.2841C40.1942 30.1086 40.2592 29.9649 40.3388 29.9649C40.4832 29.9649 40.7569 29.0645 40.6897 28.8103C40.6702 28.7364 40.7208 28.5951 40.802 28.4964C40.8832 28.3975 40.9974 28.034 41.0557 27.6887C41.1141 27.3433 41.2077 26.8488 41.2638 26.5898C41.409 25.9193 41.3905 22.0008 41.2386 21.2523C41.1686 20.907 41.075 20.4125 41.0307 20.1535C40.9203 19.509 40.8612 19.4877 40.6443 20.0139ZM24.3309 29.9547C24.3309 30.0354 24.2488 30.3004 24.1486 30.5434C24.0482 30.7864 23.9776 31.0384 23.9915 31.1031C24.0054 31.1678 23.9461 31.2208 23.8598 31.2208C23.7734 31.2208 23.7027 31.2959 23.7027 31.3877C23.7027 31.4795 23.4816 32.0269 23.2113 32.6043C22.9411 33.1817 22.5814 33.972 22.4123 34.3605C22.243 34.749 21.9413 35.4201 21.7418 35.8518C20.6314 38.2537 20.4025 38.8025 20.4222 39.0149C20.4272 39.0691 20.3661 39.1567 20.2865 39.2094C20.2068 39.2623 20.0642 39.5319 19.9697 39.8085C19.7818 40.3574 19.8 40.3739 20.7971 40.5571C21.0562 40.6047 21.5156 40.6945 21.818 40.7565C22.1203 40.8185 23.3218 40.8694 24.488 40.8694C25.6542 40.8694 26.8557 40.8185 27.1581 40.7565C27.4604 40.6945 27.9198 40.6047 28.179 40.5571C29.2024 40.3691 29.2014 40.37 28.9745 39.7268C28.8611 39.4055 28.6179 38.8625 28.4343 38.5199C28.2507 38.1776 28.1004 37.8079 28.1004 37.6988C28.1004 37.5895 28.0297 37.5002 27.9434 37.5002C27.857 37.5002 27.7975 37.4473 27.8113 37.3824C27.8433 37.2311 27.6998 36.8638 27.1403 35.6655C26.8909 35.1313 26.6869 34.6192 26.6869 34.5274C26.6869 34.4355 26.6162 34.3605 26.5298 34.3605C26.4434 34.3605 26.3839 34.3076 26.3977 34.2428C26.4298 34.0914 26.2862 33.7241 25.7268 32.5258C25.4773 31.9916 25.2733 31.4795 25.2733 31.3877C25.2733 31.2959 25.2026 31.2208 25.1163 31.2208C25.0299 31.2208 24.9707 31.1678 24.9845 31.1031C24.9985 31.0384 24.9278 30.7864 24.8274 30.5434C24.7272 30.3004 24.6451 30.0354 24.6451 29.9547C24.6451 29.8741 24.5744 29.808 24.488 29.808C24.4016 29.808 24.3309 29.8741 24.3309 29.9547Z" fill="white"/>
<path fill-rule="evenodd" clip-rule="evenodd" d="M23.846 0.0438925C23.7953 0.096639 23.1592 0.17827 22.4325 0.225209C21.1045 0.311236 20.5166 0.378111 20.4439 0.45158C20.4224 0.4734 20.2633 0.508878 20.0905 0.530542C19.9178 0.552206 19.7411 0.58737 19.6979 0.609034C19.6547 0.630698 19.478 0.665862 19.3052 0.687526C19.1325 0.70919 18.9734 0.741529 18.9518 0.759425C18.9138 0.791136 18.3305 0.900396 17.9309 0.950631C17.823 0.964289 17.7346 1.03195 17.7346 1.10118C17.7346 1.17041 17.6286 1.18642 17.499 1.13681C17.3694 1.08705 17.2634 1.12237 17.2634 1.21531C17.2634 1.30808 17.1574 1.3434 17.0278 1.2938C16.8983 1.24403 16.7922 1.27936 16.7922 1.37229C16.7922 1.46507 16.6862 1.50039 16.5566 1.45078C16.4271 1.40102 16.3211 1.42347 16.3211 1.5007C16.3211 1.57794 16.1684 1.65266 15.9818 1.66663C15.7952 1.68076 15.6008 1.74874 15.5499 1.81781C15.4988 1.88688 15.3159 1.96757 15.1431 1.99709C14.9703 2.02644 14.8053 2.11529 14.7764 2.19426C14.7473 2.27322 14.659 2.29787 14.58 2.24904C14.501 2.20022 14.4363 2.2266 14.4363 2.3076C14.4363 2.46411 13.4963 2.90712 13.2976 2.84417C13.2329 2.82361 13.1798 2.88169 13.1798 2.97305C13.1798 3.06442 13.114 3.09864 13.0336 3.04903C12.9532 2.99927 12.697 3.13506 12.4641 3.35076C12.2313 3.56645 11.9786 3.70429 11.9024 3.65735C11.8263 3.61025 11.7218 3.68184 11.6701 3.81637C11.6185 3.95091 11.5125 4.02155 11.4346 3.97336C11.3567 3.92516 11.2506 3.9958 11.199 4.13034C11.1473 4.26487 11.0454 4.33787 10.9723 4.29282C10.8994 4.24776 10.763 4.3542 10.6692 4.52924C10.5754 4.70427 10.4207 4.8476 10.3252 4.8476C10.2299 4.8476 10.0504 4.97115 9.92645 5.12232C9.7785 5.30285 9.73577 5.31635 9.80206 5.16157C9.85765 5.03205 9.67688 5.17334 9.40045 5.47553C9.12386 5.77773 8.95408 5.91901 9.02271 5.7895C9.09151 5.65999 8.46624 6.22513 7.63335 7.04537C6.80045 7.86561 6.11739 8.55854 6.1155 8.58523C6.11362 8.61191 6.20032 8.58491 6.30838 8.52526C6.41643 8.46561 6.25733 8.64284 5.95499 8.91929C5.65264 9.19558 5.51129 9.37627 5.64086 9.3207C5.79573 9.25445 5.78222 9.29715 5.6016 9.44503C5.45035 9.56889 5.32674 9.74832 5.32674 9.84361C5.32674 9.93906 5.18334 10.0937 5.00822 10.1874C4.8331 10.2811 4.72661 10.4175 4.77168 10.4904C4.81676 10.5634 4.74373 10.6653 4.60913 10.7169C4.47452 10.7686 4.40385 10.8745 4.45206 10.9524C4.50028 11.0303 4.4296 11.1362 4.295 11.1879C4.1604 11.2395 4.08878 11.3439 4.1359 11.42C4.18286 11.4962 4.04496 11.7488 3.82916 11.9814C3.61335 12.2142 3.4775 12.4703 3.52728 12.5506C3.57692 12.631 3.54268 12.6968 3.45127 12.6968C3.35986 12.6968 3.29892 12.7497 3.31604 12.8145C3.37446 13.0354 3.10714 13.6387 2.95103 13.6387C2.86527 13.6387 2.83888 13.7093 2.89228 13.7957C2.94569 13.882 2.91035 13.9527 2.81375 13.9527C2.71716 13.9527 2.67805 14.0173 2.7269 14.0963C2.77574 14.1753 2.75109 14.2635 2.67208 14.2925C2.59308 14.3214 2.50418 14.4864 2.47481 14.6591C2.44529 14.8318 2.36456 15.0147 2.29545 15.0657C2.22634 15.1165 2.15834 15.3109 2.1442 15.4974C2.13022 15.6839 2.05546 15.8365 1.97819 15.8365C1.90091 15.8365 1.87845 15.9424 1.92824 16.0719C1.97787 16.2015 1.94253 16.3074 1.84971 16.3074C1.75673 16.3074 1.72139 16.4134 1.77118 16.5429C1.82081 16.6724 1.78547 16.7784 1.69265 16.7784C1.59967 16.7784 1.56433 16.8843 1.61412 17.0138C1.66375 17.1434 1.64773 17.2493 1.57846 17.2493C1.5092 17.2493 1.44151 17.3377 1.42784 17.4456C1.37758 17.8449 1.26827 18.428 1.23654 18.466C1.21864 18.4875 1.18628 18.6465 1.16461 18.8192C1.14293 18.9918 1.10775 19.1685 1.08608 19.2116C1.0644 19.2548 1.02922 19.4314 1.00754 19.6041C0.98587 19.7768 0.950374 19.9358 0.928543 19.9573C0.817657 20.067 0.560547 22.891 0.560547 23.9996C0.560547 25.1083 0.817657 27.9322 0.928543 28.042C0.950374 28.0635 0.98587 28.2225 1.00754 28.3952C1.02922 28.5679 1.0644 28.7445 1.08608 28.7876C1.10775 28.8308 1.14293 29.0074 1.16461 29.1801C1.18628 29.3528 1.21864 29.5118 1.23654 29.5333C1.26827 29.5713 1.37758 30.1543 1.42784 30.5537C1.44151 30.6617 1.5092 30.7499 1.57846 30.7499C1.64773 30.7499 1.66375 30.8559 1.61412 30.9854C1.56433 31.1149 1.59967 31.2209 1.69265 31.2209C1.78547 31.2209 1.82081 31.3269 1.77118 31.4564C1.72139 31.5859 1.75673 31.6918 1.84971 31.6918C1.94253 31.6918 1.97787 31.7978 1.92824 31.9273C1.87845 32.0568 1.90091 32.1628 1.97819 32.1628C2.05546 32.1628 2.13022 32.3154 2.1442 32.5019C2.15834 32.6884 2.22634 32.8827 2.29545 32.9336C2.36456 32.9846 2.44529 33.1675 2.47481 33.3402C2.50418 33.5129 2.59308 33.6778 2.67208 33.7067C2.75109 33.7358 2.77574 33.824 2.7269 33.903C2.67805 33.9819 2.70444 34.0466 2.78548 34.0466C2.94207 34.0466 3.3853 34.9861 3.32232 35.1847C3.30174 35.2496 3.35986 35.3025 3.45127 35.3025C3.54268 35.3025 3.57692 35.3682 3.52728 35.4486C3.4775 35.529 3.61335 35.785 3.82916 36.0178C4.04496 36.2505 4.18286 36.5031 4.1359 36.5792C4.08878 36.6554 4.1604 36.7598 4.295 36.8114C4.4296 36.863 4.50028 36.969 4.45206 37.0469C4.40385 37.1247 4.47452 37.2307 4.60913 37.2824C4.74373 37.334 4.81676 37.4359 4.77168 37.5089C4.72661 37.5817 4.8331 37.7181 5.00822 37.8119C5.18334 37.9056 5.32674 38.0602 5.32674 38.1557C5.32674 38.2509 5.45035 38.4304 5.6016 38.5542C5.78222 38.7021 5.79573 38.7448 5.64086 38.6786C5.51129 38.623 5.65264 38.8037 5.95499 39.08C6.25733 39.3564 6.39869 39.5261 6.26911 39.4575C6.13953 39.3888 6.70496 40.0137 7.5256 40.8462C8.34625 41.6787 9.03952 42.3614 9.06622 42.3633C9.09292 42.3652 9.06591 42.2785 9.00622 42.1705C8.94654 42.0627 9.12386 42.2215 9.40045 42.5237C9.67688 42.8259 9.85765 42.9672 9.80206 42.8377C9.73577 42.6829 9.7785 42.6964 9.92645 42.8769C10.0504 43.028 10.2299 43.1517 10.3252 43.1517C10.4207 43.1517 10.5754 43.295 10.6692 43.47C10.763 43.6451 10.8994 43.7515 10.9723 43.7064C11.0454 43.6614 11.1473 43.7344 11.199 43.8689C11.2506 44.0035 11.3567 44.0741 11.4346 44.0259C11.5125 43.9777 11.6185 44.0484 11.6701 44.1829C11.7218 44.3174 11.8263 44.389 11.9024 44.3419C11.9786 44.295 12.2313 44.4328 12.4641 44.6485C12.697 44.8642 12.9532 45 13.0336 44.9502C13.114 44.9006 13.1798 44.9348 13.1798 45.0262C13.1798 45.1176 13.2329 45.1785 13.2976 45.1614C13.5186 45.103 14.1222 45.3702 14.1222 45.5262C14.1222 45.6119 14.1929 45.6383 14.2793 45.5849C14.3656 45.5315 14.4363 45.5669 14.4363 45.6634C14.4363 45.76 14.501 45.799 14.58 45.7502C14.659 45.7014 14.7473 45.726 14.7764 45.805C14.8053 45.884 14.9703 45.9728 15.1431 46.0022C15.3159 46.0317 15.4988 46.1124 15.5499 46.1815C15.6008 46.2505 15.7952 46.3185 15.9818 46.3326C16.1684 46.3466 16.3211 46.4213 16.3211 46.4986C16.3211 46.5758 16.4271 46.5982 16.5566 46.5485C16.6862 46.4989 16.7922 46.5342 16.7922 46.627C16.7922 46.7199 16.8983 46.7552 17.0278 46.7055C17.1574 46.6559 17.2634 46.6912 17.2634 46.784C17.2634 46.8769 17.3694 46.9122 17.499 46.8624C17.6286 46.8128 17.7346 46.8289 17.7346 46.8981C17.7346 46.9673 17.823 47.035 17.9309 47.0486C18.3305 47.0989 18.9138 47.2081 18.9518 47.2398C18.9734 47.2577 19.1325 47.2902 19.3052 47.3117C19.478 47.3332 19.6547 47.3687 19.6979 47.3902C19.7411 47.4117 19.9178 47.4472 20.0905 47.4687C20.2633 47.4902 20.4224 47.5259 20.4439 47.5477C20.5537 47.6585 23.3791 47.9155 24.4883 47.9155C25.5974 47.9155 28.4228 47.6585 28.5326 47.5477C28.5541 47.5259 28.7132 47.4902 28.886 47.4687C29.0588 47.4472 29.2355 47.4117 29.2786 47.3902C29.3218 47.3687 29.4985 47.3332 29.6713 47.3117C29.8441 47.2902 30.0032 47.2577 30.0247 47.2398C30.0627 47.2081 30.646 47.0989 31.0456 47.0486C31.1536 47.035 31.2419 46.9673 31.2419 46.8981C31.2419 46.8289 31.3479 46.8128 31.4775 46.8624C31.6071 46.9122 31.7131 46.8769 31.7131 46.784C31.7131 46.6912 31.8191 46.6559 31.9487 46.7055C32.0783 46.7552 32.1843 46.7199 32.1843 46.627C32.1843 46.5342 32.2903 46.4989 32.4199 46.5485C32.5495 46.5982 32.6555 46.5758 32.6555 46.4986C32.6555 46.4213 32.8081 46.3466 32.9947 46.3326C33.1813 46.3185 33.3758 46.2505 33.4266 46.1815C33.4777 46.1124 33.6607 46.0317 33.8334 46.0022C34.0062 45.9728 34.1713 45.884 34.2002 45.805C34.2292 45.726 34.3175 45.7014 34.3965 45.7502C34.4755 45.799 34.5402 45.76 34.5402 45.6634C34.5402 45.5669 34.6109 45.5315 34.6973 45.5849C34.7837 45.6383 34.8543 45.6119 34.8543 45.5262C34.8543 45.3702 35.4579 45.103 35.6789 45.1614C35.7438 45.1785 35.7967 45.1176 35.7967 45.0262C35.7967 44.9348 35.8625 44.9006 35.9429 44.9502C36.0233 45 36.2795 44.8642 36.5124 44.6485C36.7452 44.4328 36.9979 44.295 37.0741 44.3419C37.1503 44.389 37.2547 44.3174 37.3064 44.1829C37.3581 44.0484 37.4592 43.9747 37.5311 44.0193C37.6032 44.0637 37.735 43.975 37.8241 43.8221C37.9131 43.6692 37.9898 43.6148 37.9943 43.7011C37.9989 43.7874 38.1485 43.6815 38.3268 43.4656C38.5052 43.2498 38.6045 43.1791 38.5475 43.3086C38.4906 43.4382 38.6335 43.3322 38.8652 43.0732C39.097 42.8141 39.2384 42.7082 39.1793 42.8377C39.1204 42.9672 39.3318 42.7906 39.649 42.4452C39.9662 42.0999 40.1768 41.9233 40.1172 42.0528C40.0573 42.1823 40.3138 41.9704 40.687 41.5818C41.0602 41.1933 41.6851 40.5701 42.0757 40.1968C42.4663 39.8234 42.6799 39.5657 42.5504 39.6238C42.4208 39.6819 42.5975 39.4699 42.943 39.1528C43.2885 38.8359 43.4652 38.6221 43.3357 38.6779C43.1813 38.7443 43.1949 38.7018 43.3749 38.5542C43.526 38.4304 43.6498 38.2509 43.6498 38.1557C43.6498 38.0602 43.7932 37.9056 43.9683 37.8119C44.1434 37.7181 44.2499 37.5817 44.2048 37.5089C44.1598 37.4359 44.2328 37.334 44.3674 37.2824C44.502 37.2307 44.5727 37.1247 44.5245 37.0469C44.4762 36.969 44.5469 36.863 44.6815 36.8114C44.8161 36.7598 44.8877 36.6554 44.8406 36.5792C44.7937 36.5031 44.9316 36.2505 45.1474 36.0178C45.3632 35.785 45.499 35.529 45.4492 35.4486C45.3996 35.3682 45.4338 35.3025 45.5253 35.3025C45.6167 35.3025 45.6776 35.2496 45.6605 35.1847C45.6021 34.9639 45.8694 34.3606 46.0255 34.3606C46.1113 34.3606 46.1376 34.2899 46.0842 34.2036C46.0308 34.1172 46.0662 34.0466 46.1628 34.0466C46.2594 34.0466 46.2985 33.9819 46.2496 33.903C46.2008 33.824 46.2254 33.7358 46.3044 33.7067C46.3834 33.6778 46.4723 33.5129 46.5017 33.3402C46.5312 33.1675 46.612 32.9846 46.6811 32.9336C46.7502 32.8827 46.8182 32.6884 46.8323 32.5019C46.8463 32.3154 46.9211 32.1628 46.9983 32.1628C47.0756 32.1628 47.0981 32.0568 47.0483 31.9273C46.9987 31.7978 47.034 31.6918 47.1268 31.6918C47.2198 31.6918 47.2551 31.5859 47.2053 31.4564C47.1557 31.3269 47.1911 31.2209 47.2839 31.2209C47.3769 31.2209 47.4122 31.1149 47.3624 30.9854C47.3128 30.8559 47.3288 30.7499 47.3981 30.7499C47.4673 30.7499 47.535 30.6617 47.5487 30.5537C47.5989 30.1543 47.7083 29.5713 47.74 29.5333C47.7579 29.5118 47.7904 29.3528 47.8119 29.1801C47.8334 29.0074 47.8689 28.8308 47.8904 28.7876C47.912 28.7445 47.9475 28.5679 47.969 28.3952C47.9905 28.2225 48.0261 28.0635 48.048 28.042C48.1589 27.9322 48.416 25.1083 48.416 23.9996C48.416 22.891 48.1589 20.067 48.048 19.9573C48.0261 19.9358 47.9905 19.7768 47.969 19.6041C47.9475 19.4314 47.912 19.2548 47.8904 19.2116C47.8689 19.1685 47.8334 18.9918 47.8119 18.8192C47.7904 18.6465 47.7579 18.4875 47.74 18.466C47.7083 18.428 47.5989 17.8449 47.5487 17.4456C47.535 17.3377 47.4673 17.2493 47.3981 17.2493C47.3288 17.2493 47.3128 17.1434 47.3624 17.0138C47.4122 16.8843 47.3769 16.7784 47.2839 16.7784C47.1911 16.7784 47.1557 16.6724 47.2053 16.5429C47.2551 16.4134 47.2198 16.3074 47.1268 16.3074C47.034 16.3074 46.9987 16.2015 47.0483 16.0719C47.0981 15.9424 47.0756 15.8365 46.9983 15.8365C46.9211 15.8365 46.8463 15.6839 46.8323 15.4974C46.8182 15.3109 46.7502 15.1165 46.6811 15.0657C46.612 15.0147 46.5312 14.8318 46.5017 14.6591C46.4723 14.4864 46.3834 14.3214 46.3044 14.2925C46.2254 14.2635 46.2008 14.1753 46.2496 14.0963C46.2985 14.0173 46.2594 13.9527 46.1628 13.9527C46.0662 13.9527 46.0308 13.882 46.0842 13.7957C46.1376 13.7093 46.1113 13.6387 46.0255 13.6387C45.8694 13.6387 45.6021 13.0354 45.6605 12.8145C45.6776 12.7497 45.6167 12.6968 45.5253 12.6968C45.4338 12.6968 45.3996 12.631 45.4492 12.5506C45.499 12.4703 45.3632 12.2142 45.1474 11.9814C44.9316 11.7488 44.7937 11.4962 44.8406 11.42C44.8877 11.3439 44.8161 11.2395 44.6815 11.1879C44.5469 11.1362 44.4733 11.0351 44.5179 10.9632C44.5623 10.8912 44.4736 10.7595 44.3206 10.6704C44.1676 10.5814 44.1131 10.5048 44.1995 10.5003C44.2859 10.4957 44.1799 10.3461 43.9639 10.1679C43.7479 9.98961 43.6773 9.89039 43.8068 9.94738C43.9364 10.0042 43.8304 9.86135 43.5713 9.6298C43.3121 9.39809 43.2061 9.2568 43.3357 9.31583C43.4652 9.3747 43.2885 9.1634 42.943 8.84645C42.5975 8.52934 42.4208 8.31741 42.5504 8.3755C42.6799 8.43358 42.4663 8.17581 42.0757 7.80251C41.6851 7.4292 41.0602 6.80597 40.687 6.41744C40.3138 6.0289 40.0573 5.81697 40.1172 5.94649C40.1768 6.076 39.9662 5.89939 39.649 5.55403C39.3318 5.20866 39.1204 5.03205 39.1793 5.16157C39.2384 5.29108 39.097 5.18511 38.8652 4.92609C38.6335 4.66707 38.4906 4.5611 38.5475 4.69062C38.6045 4.82013 38.5052 4.74948 38.3268 4.53363C38.1485 4.31778 37.9989 4.21181 37.9943 4.29816C37.9898 4.3845 37.9131 4.33002 37.8241 4.17712C37.735 4.02422 37.6032 3.93552 37.5311 3.97995C37.4592 4.02453 37.3581 3.95091 37.3064 3.81637C37.2547 3.68184 37.1503 3.61025 37.0741 3.65735C36.9979 3.70429 36.7452 3.56645 36.5124 3.35076C36.2795 3.13506 36.0233 2.99927 35.9429 3.04903C35.8625 3.09864 35.7967 3.06442 35.7967 2.97305C35.7967 2.88169 35.7438 2.82078 35.6789 2.83789C35.4579 2.89629 34.8543 2.6291 34.8543 2.47306C34.8543 2.38735 34.7837 2.36097 34.6973 2.41435C34.6109 2.46772 34.5402 2.4324 34.5402 2.33586C34.5402 2.23931 34.4755 2.20022 34.3965 2.24904C34.3175 2.29787 34.2292 2.27322 34.2002 2.19426C34.1713 2.11529 34.0062 2.02644 33.8334 1.99709C33.6607 1.96757 33.4777 1.88688 33.4266 1.81781C33.3758 1.74874 33.1813 1.68076 32.9947 1.66663C32.8081 1.65266 32.6555 1.57794 32.6555 1.5007C32.6555 1.42347 32.5495 1.40102 32.4199 1.45078C32.2903 1.50039 32.1843 1.46507 32.1843 1.37229C32.1843 1.27936 32.0783 1.24403 31.9487 1.2938C31.8191 1.3434 31.7131 1.30808 31.7131 1.21531C31.7131 1.12237 31.6071 1.08705 31.4775 1.13681C31.3479 1.18642 31.2419 1.17041 31.2419 1.10118C31.2419 1.03195 31.1536 0.964289 31.0456 0.950631C30.646 0.900396 30.0627 0.791136 30.0247 0.759425C30.0032 0.741529 29.8441 0.70919 29.6713 0.687526C29.4985 0.665862 29.3218 0.630698 29.2786 0.609034C29.2355 0.58737 29.0588 0.552206 28.886 0.530542C28.7132 0.508878 28.5541 0.4734 28.5326 0.45158C28.4728 0.391141 27.809 0.308096 26.7657 0.230546C26.2474 0.192085 25.3992 0.112651 24.8809 0.0542531C24.3626 -0.00414491 23.8969 -0.00885412 23.846 0.0438925ZM26.5301 2.42408C27.0052 2.47856 27.6413 2.54543 27.9436 2.57243C28.246 2.59943 28.5111 2.6368 28.5326 2.65532C28.5541 2.67384 28.6955 2.69896 28.8467 2.71105C28.998 2.72314 29.21 2.78923 29.3179 2.85767C29.426 2.92627 29.58 2.94166 29.6605 2.89205C29.7409 2.84229 29.854 2.87824 29.9119 2.97196C29.9699 3.06552 30.1161 3.10429 30.2369 3.05798C30.3578 3.01152 30.4566 3.04621 30.4566 3.1349C30.4566 3.22376 30.5304 3.25076 30.6206 3.19503C30.7107 3.1393 30.8727 3.16693 30.9804 3.25625C31.0881 3.34558 31.4206 3.46143 31.7195 3.51355C32.0183 3.56567 32.2864 3.67524 32.3151 3.75703C32.344 3.83882 32.5325 3.9057 32.734 3.9057C32.9355 3.9057 33.124 3.96127 33.1529 4.02924C33.2137 4.17273 34.9827 5.05482 35.3137 5.10678C35.4369 5.12609 35.6002 5.25372 35.6769 5.39045C35.7534 5.52718 35.8828 5.59782 35.9646 5.54743C36.0463 5.49688 36.1553 5.56564 36.2069 5.70018C36.2586 5.83471 36.3598 5.90834 36.4317 5.86376C36.5038 5.81933 36.6356 5.90802 36.7246 6.06093C36.8137 6.21383 36.8898 6.2683 36.8938 6.18196C36.8977 6.09562 36.9679 6.13094 37.0499 6.26045C37.1317 6.38997 37.2641 6.49593 37.3439 6.49593C37.4237 6.49593 37.6437 6.67254 37.8327 6.88839C38.0218 7.10424 38.127 7.17488 38.0666 7.04537C38.0061 6.91586 38.3577 7.24773 38.8481 7.78288C39.3384 8.31804 40.1776 9.15681 40.713 9.64691C41.2485 10.137 41.5805 10.4885 41.4509 10.4281C41.3213 10.3676 41.392 10.4728 41.608 10.6618C41.8239 10.8507 42.0006 11.0706 42.0006 11.1503C42.0006 11.2301 42.1067 11.3624 42.2362 11.4442C42.3658 11.5262 42.4011 11.5963 42.3148 11.6003C42.2284 11.6042 42.2829 11.6803 42.4359 11.7693C42.5888 11.8583 42.6776 11.9901 42.6331 12.0621C42.5885 12.134 42.6622 12.2351 42.7968 12.2868C42.9314 12.3384 43.0002 12.4473 42.9496 12.529C42.8992 12.6108 42.9699 12.7401 43.1067 12.8166C43.2435 12.8932 43.3712 13.0564 43.3905 13.1795C43.4425 13.5104 44.325 15.2785 44.4685 15.3393C44.5366 15.3682 44.5922 15.5566 44.5922 15.758C44.5922 15.9594 44.6591 16.1478 44.7409 16.1767C44.8227 16.2054 44.9323 16.4734 44.9845 16.7719C45.0366 17.0707 45.1525 17.403 45.2419 17.5107C45.3313 17.6184 45.3589 17.7802 45.3032 17.8704C45.2474 17.9605 45.2744 18.0342 45.3633 18.0342C45.4521 18.0342 45.4868 18.133 45.4403 18.2539C45.394 18.3746 45.4327 18.5207 45.5264 18.5787C45.6201 18.6366 45.6561 18.7496 45.6063 18.83C45.5567 18.9104 45.5721 19.0645 45.6407 19.1724C45.7092 19.2804 45.7753 19.4922 45.7874 19.6433C45.7995 19.7945 45.8262 19.9358 45.8468 19.9573C45.9611 20.0774 46.1634 22.659 46.1634 23.9996C46.1634 25.3403 45.9611 27.9219 45.8468 28.042C45.8262 28.0635 45.7995 28.2048 45.7874 28.3559C45.7753 28.5071 45.7092 28.719 45.6407 28.8269C45.5721 28.9349 45.5567 29.0889 45.6063 29.1693C45.6561 29.2496 45.6201 29.3627 45.5264 29.4206C45.4327 29.4785 45.394 29.6247 45.4403 29.7454C45.4868 29.8663 45.4521 29.965 45.3633 29.965C45.2744 29.965 45.2474 30.0388 45.3032 30.1289C45.3589 30.219 45.3313 30.3809 45.2419 30.4886C45.1525 30.5963 45.0366 30.9286 44.9845 31.2273C44.9323 31.5259 44.8227 31.7939 44.7409 31.8226C44.6591 31.8515 44.5922 32.0399 44.5922 32.2413C44.5922 32.4427 44.5366 32.6311 44.4685 32.66C44.325 32.7207 43.4425 34.4888 43.3905 34.8197C43.3712 34.9428 43.2435 35.1061 43.1067 35.1827C42.9699 35.2591 42.8992 35.3885 42.9496 35.4703C43.0002 35.5519 42.9314 35.6609 42.7968 35.7125C42.6622 35.7642 42.5885 35.8653 42.6331 35.9372C42.6776 36.0092 42.5888 36.1409 42.4359 36.2299C42.2829 36.3189 42.2284 36.3951 42.3148 36.399C42.4011 36.4029 42.3658 36.4731 42.2362 36.555C42.1067 36.6368 42.0006 36.7692 42.0006 36.8489C42.0006 36.9287 41.8239 37.1486 41.608 37.3375C41.392 37.5265 41.3213 37.6316 41.4509 37.5712C41.5805 37.5108 41.2485 37.8623 40.713 38.3524C40.1776 38.8425 39.3384 39.6812 38.8481 40.2164C38.3577 40.7515 38.0061 41.0834 38.0666 40.9539C38.127 40.8244 38.0218 40.895 37.8327 41.1109C37.6437 41.3267 37.4237 41.5033 37.3439 41.5033C37.2641 41.5033 37.1317 41.6093 37.0499 41.7388C36.9679 41.8683 36.8977 41.9036 36.8938 41.8173C36.8898 41.731 36.8137 41.7854 36.7246 41.9383C36.6356 42.0912 36.5038 42.1799 36.4317 42.1355C36.3598 42.0909 36.2586 42.1646 36.2069 42.2991C36.1553 42.4336 36.0463 42.5024 35.9646 42.4518C35.8828 42.4014 35.7534 42.4721 35.6769 42.6088C35.6002 42.7455 35.4369 42.8732 35.3137 42.8925C34.9827 42.9444 33.2137 43.8265 33.1529 43.97C33.124 44.038 32.9355 44.0936 32.734 44.0936C32.5325 44.0936 32.344 44.1604 32.3151 44.2422C32.2864 44.324 32.0183 44.4336 31.7195 44.4857C31.4206 44.5378 31.0881 44.6537 30.9804 44.743C30.8727 44.8323 30.7107 44.86 30.6206 44.8042C30.5304 44.7485 30.4566 44.7755 30.4566 44.8644C30.4566 44.9531 30.3578 44.9877 30.2369 44.9413C30.1161 44.895 29.9699 44.9337 29.9119 45.0273C29.854 45.121 29.7409 45.157 29.6605 45.1072C29.58 45.0576 29.4258 45.073 29.3179 45.1416C29.21 45.21 28.998 45.2761 28.8467 45.2882C28.6955 45.3003 28.5541 45.327 28.5326 45.3476C28.2811 45.5868 23.9423 45.7497 22.4465 45.5763C21.9713 45.5212 21.3352 45.4538 21.0329 45.4268C20.7306 45.3998 20.4654 45.3625 20.4439 45.3439C20.4224 45.3254 20.2811 45.3003 20.1298 45.2882C19.9785 45.2761 19.7667 45.21 19.6586 45.1416C19.5507 45.073 19.3965 45.0576 19.3161 45.1072C19.2356 45.157 19.1226 45.121 19.0646 45.0273C19.0067 44.9337 18.8604 44.895 18.7396 44.9413C18.6187 44.9877 18.5199 44.9531 18.5199 44.8644C18.5199 44.7755 18.4461 44.7485 18.3559 44.8042C18.2658 44.86 18.1039 44.8323 17.9961 44.743C17.8884 44.6537 17.5559 44.5378 17.257 44.4857C16.9583 44.4336 16.6902 44.324 16.6614 44.2422C16.6325 44.1604 16.444 44.0936 16.2425 44.0936C16.041 44.0936 15.8525 44.038 15.8236 43.97C15.7629 43.8265 13.9939 42.9444 13.6628 42.8925C13.5396 42.8732 13.3763 42.7455 13.2997 42.6088C13.2232 42.4721 13.0938 42.4014 13.0119 42.4518C12.9303 42.5024 12.8213 42.4336 12.7696 42.2991C12.7179 42.1646 12.6168 42.0909 12.5448 42.1355C12.4727 42.1799 12.341 42.0912 12.2519 41.9383C12.1628 41.7854 12.0867 41.731 12.0827 41.8173C12.0788 41.9036 12.0086 41.8683 11.9266 41.7388C11.8448 41.6093 11.7124 41.5033 11.6326 41.5033C11.5528 41.5033 11.3328 41.3267 11.1438 41.1109C10.9547 40.895 10.8495 40.8244 10.91 40.9539C10.9704 41.0834 10.6188 40.7515 10.1284 40.2164C9.63808 39.6812 8.7989 38.8425 8.26348 38.3524C7.72806 37.8623 7.39603 37.5108 7.5256 37.5712C7.65518 37.6316 7.5845 37.5265 7.36854 37.3375C7.15258 37.1486 6.97589 36.9287 6.97589 36.8489C6.97589 36.7692 6.86987 36.6368 6.74029 36.555C6.61072 36.4731 6.57538 36.4029 6.66176 36.399C6.74815 36.3951 6.69365 36.3189 6.54067 36.2299C6.38769 36.1409 6.29895 36.0092 6.3434 35.9372C6.38801 35.8653 6.31434 35.7642 6.17974 35.7125C6.04514 35.6609 5.97635 35.5519 6.02692 35.4703C6.07734 35.3885 6.00666 35.2591 5.86986 35.1827C5.73306 35.1061 5.60537 34.9428 5.58605 34.8197C5.53406 34.4888 4.65153 32.7207 4.50798 32.66C4.43997 32.6311 4.38437 32.4427 4.38437 32.2413C4.38437 32.0399 4.31746 31.8515 4.23563 31.8226C4.1538 31.7939 4.04417 31.5259 3.99203 31.2273C3.93989 30.9286 3.82397 30.5963 3.73461 30.4886C3.64524 30.3809 3.61759 30.219 3.67335 30.1289C3.72911 30.0388 3.70209 29.965 3.6132 29.965C3.52446 29.965 3.48975 29.8663 3.53624 29.7454C3.58257 29.6247 3.54378 29.4785 3.45017 29.4206C3.3564 29.3627 3.32043 29.2496 3.37022 29.1693C3.41985 29.0889 3.40446 28.9347 3.33583 28.8269C3.26735 28.719 3.20122 28.5071 3.18913 28.3559C3.17704 28.2048 3.15191 28.0635 3.13337 28.042C3.11484 28.0205 3.07746 27.7555 3.05045 27.4533C3.02343 27.1511 2.95605 26.5153 2.90092 26.0404C2.77245 24.9337 2.77417 23.0833 2.90485 21.8804C2.96123 21.3623 3.02641 20.7265 3.04982 20.4675C3.07322 20.2085 3.10919 19.9788 3.12976 19.9573C3.15034 19.9358 3.17704 19.7945 3.18913 19.6433C3.20122 19.4922 3.26735 19.2804 3.33583 19.1724C3.40446 19.0645 3.41985 18.9104 3.37022 18.83C3.32043 18.7496 3.3564 18.6366 3.45017 18.5787C3.54378 18.5207 3.58257 18.3746 3.53624 18.2539C3.48975 18.133 3.52446 18.0342 3.6132 18.0342C3.70209 18.0342 3.72911 17.9605 3.67335 17.8704C3.61759 17.7802 3.64524 17.6184 3.73461 17.5107C3.82397 17.403 3.93989 17.0707 3.99203 16.7719C4.04417 16.4734 4.1538 16.2054 4.23563 16.1767C4.31746 16.1478 4.38437 15.9594 4.38437 15.758C4.38437 15.5566 4.43997 15.3682 4.50798 15.3393C4.65153 15.2785 5.53406 13.5104 5.58605 13.1795C5.60537 13.0564 5.73306 12.8932 5.86986 12.8166C6.00666 12.7401 6.07734 12.6108 6.02692 12.529C5.97635 12.4473 6.04514 12.3384 6.17974 12.2868C6.31434 12.2351 6.38801 12.134 6.3434 12.0621C6.29895 11.9901 6.38769 11.8583 6.54067 11.7693C6.69365 11.6803 6.74815 11.6042 6.66176 11.6003C6.57538 11.5963 6.61072 11.5262 6.74029 11.4442C6.86987 11.3624 6.97589 11.2301 6.97589 11.1503C6.97589 11.0706 7.15258 10.8507 7.36854 10.6618C7.5845 10.4728 7.65518 10.3676 7.5256 10.4281C7.39603 10.4885 7.72806 10.137 8.26348 9.64691C8.7989 9.15681 9.63808 8.31804 10.1284 7.78288C10.6188 7.24773 10.9704 6.91586 10.91 7.04537C10.8495 7.17488 10.9547 7.10424 11.1438 6.88839C11.3328 6.67254 11.5528 6.49593 11.6326 6.49593C11.7124 6.49593 11.8448 6.38997 11.9266 6.26045C12.0086 6.13094 12.0788 6.09562 12.0827 6.18196C12.0867 6.2683 12.1628 6.21383 12.2519 6.06093C12.341 5.90802 12.4727 5.81933 12.5448 5.86376C12.6168 5.90834 12.7179 5.83471 12.7696 5.70018C12.8213 5.56564 12.9303 5.49688 13.0119 5.54743C13.0938 5.59782 13.2232 5.52718 13.2997 5.39045C13.3763 5.25372 13.5396 5.12609 13.6628 5.10678C13.9939 5.05482 15.7629 4.17273 15.8236 4.02924C15.8525 3.96127 16.041 3.9057 16.2425 3.9057C16.444 3.9057 16.6325 3.83882 16.6614 3.75703C16.6902 3.67524 16.9583 3.56567 17.257 3.51355C17.5559 3.46143 17.8884 3.34558 17.9961 3.25625C18.1039 3.16693 18.2658 3.1393 18.3559 3.19503C18.4461 3.25076 18.5199 3.22376 18.5199 3.1349C18.5199 3.04621 18.6187 3.01152 18.7396 3.05798C18.8604 3.10429 19.0067 3.06552 19.0646 2.97196C19.1226 2.87824 19.2356 2.84229 19.3161 2.89205C19.3965 2.94166 19.5507 2.92627 19.6586 2.85767C19.7667 2.78923 19.9785 2.72314 20.1298 2.71105C20.2811 2.69896 20.4224 2.67384 20.4439 2.65532C20.4654 2.6368 20.7306 2.59943 21.0329 2.57243C22.2426 2.46427 23.2792 2.34088 23.3196 2.30022C23.3882 2.23115 25.5893 2.31608 26.5301 2.42408ZM22.3722 7.19545C22.3309 7.26233 22.119 7.29749 21.9013 7.27363C21.6836 7.24977 21.4683 7.29027 21.4229 7.36358C21.3775 7.43705 21.2021 7.47033 21.0329 7.43783C20.8638 7.40534 20.6863 7.44191 20.6385 7.51915C20.5908 7.59639 20.4551 7.6226 20.337 7.57723C20.2189 7.53202 20.075 7.57158 20.017 7.66515C19.9591 7.75886 19.8454 7.7945 19.7643 7.74442C19.5699 7.62417 19.9584 8.50281 20.1659 8.6521C20.2699 8.72698 20.271 8.76906 20.1691 8.7722C20.0827 8.77486 20.105 8.83593 20.2187 8.90799C20.4073 9.02761 20.5181 9.33279 20.5496 9.82069C20.5564 9.92242 20.6728 10.1166 20.8085 10.2524C20.9443 10.388 20.9973 10.5001 20.9263 10.5014C20.8554 10.5028 20.8873 10.5609 20.9972 10.6307C21.1073 10.7004 21.228 10.9169 21.2655 11.1117C21.391 11.7626 21.5239 12.0689 21.6809 12.0689C21.7667 12.0689 21.7931 12.1395 21.7397 12.2258C21.6863 12.3122 21.7095 12.3828 21.7915 12.3828C21.8733 12.3828 21.9867 12.6301 22.0434 12.9323C22.1001 13.2345 22.2183 13.4817 22.3057 13.4817C22.3934 13.4817 22.4251 13.5464 22.3763 13.6254C22.3274 13.7043 22.3624 13.7938 22.454 13.8244C22.6056 13.8748 22.7171 14.2015 22.7485 14.6872C22.7552 14.7889 22.8716 14.9831 23.0073 15.1189C23.1432 15.2545 23.1961 15.3666 23.1251 15.3679C23.0543 15.3693 23.0862 15.4274 23.1961 15.4972C23.3062 15.5669 23.4268 15.7834 23.4644 15.9782C23.5899 16.6291 23.7227 16.9354 23.8798 16.9354C23.9656 16.9354 23.9919 17.006 23.9385 17.0923C23.8851 17.1787 23.9084 17.2493 23.9904 17.2493C24.0722 17.2493 24.1856 17.4966 24.2423 17.7988C24.299 18.101 24.4097 18.3482 24.4883 18.3482C24.5668 18.3482 24.6775 18.101 24.7342 17.7988C24.7909 17.4966 24.9043 17.2493 24.9861 17.2493C25.0681 17.2493 25.0914 17.1787 25.038 17.0923C24.9846 17.006 25.011 16.9354 25.0967 16.9354C25.2538 16.9354 25.3867 16.6291 25.5121 15.9782C25.5497 15.7834 25.6703 15.5669 25.7804 15.4972C25.8904 15.4274 25.9222 15.3693 25.8514 15.3679C25.7804 15.3666 25.8333 15.2545 25.9692 15.1189C26.1049 14.9831 26.2159 14.7056 26.2159 14.5021C26.2159 14.2987 26.3187 14.0294 26.444 13.904C26.5695 13.7787 26.6284 13.6324 26.575 13.5789C26.5214 13.5255 26.5569 13.4817 26.6538 13.4817C26.7507 13.4817 26.8764 13.2345 26.9331 12.9323C26.9898 12.6301 27.1032 12.3828 27.185 12.3828C27.267 12.3828 27.2902 12.3122 27.2368 12.2258C27.1834 12.1395 27.2098 12.0689 27.2956 12.0689C27.4534 12.0689 27.5855 11.7626 27.713 11.1007C27.7518 10.9 27.8552 10.7116 27.943 10.6824C28.0308 10.6532 28.0627 10.5646 28.0138 10.4857C27.965 10.4067 27.9967 10.342 28.0843 10.342C28.1718 10.342 28.2899 10.0948 28.3466 9.79259C28.4033 9.4904 28.5167 9.24315 28.5986 9.24315C28.6805 9.24315 28.7038 9.1725 28.6504 9.08616C28.597 8.99982 28.6213 8.92918 28.7043 8.92918C28.7874 8.92918 28.9256 8.72746 29.0116 8.48083C29.1772 8.00627 29.0387 7.60973 28.6948 7.57362C28.584 7.56201 28.4402 7.53563 28.3755 7.51475C28.3108 7.49403 28.1164 7.4595 27.9436 7.43783C27.7709 7.41617 27.6117 7.38053 27.5902 7.35856C27.5687 7.33658 27.3743 7.30769 27.1583 7.29435C26.9424 7.28116 26.695 7.227 26.6086 7.1741C26.378 7.03281 22.4606 7.05259 22.3722 7.19545ZM9.88153 7.8755C9.88153 7.90031 9.51055 8.2711 9.05695 8.69967L8.23238 9.47862L9.01172 8.65446C9.73609 7.88869 9.88153 7.75824 9.88153 7.8755ZM39.9588 8.61521C40.3843 9.04692 40.697 9.40013 40.6538 9.40013C40.6106 9.40013 40.2273 9.04692 39.8018 8.61521C39.3763 8.18351 39.0636 7.83029 39.1068 7.83029C39.15 7.83029 39.5334 8.18351 39.9588 8.61521ZM15.2263 9.8411C15.2238 9.95413 15.1553 10.0056 15.0741 9.95554C14.9931 9.90546 14.8539 9.9896 14.7649 10.1425C14.6758 10.2954 14.6008 10.3568 14.5981 10.2788C14.5956 10.2007 14.452 10.3 14.2793 10.499C14.1065 10.6981 13.9651 10.8146 13.9651 10.7577C13.9651 10.6408 11.3103 13.2966 11.3078 13.4159C11.307 13.4583 11.1953 13.6038 11.0598 13.7393C10.8002 13.9988 10.8756 14.5619 11.1985 14.7745C11.2982 14.8401 11.3061 14.8919 11.2166 14.8946C11.1302 14.8972 11.1495 14.9564 11.2594 15.0263C11.3695 15.096 11.4902 15.3125 11.5277 15.5073C11.6532 16.1581 11.7861 16.4644 11.9431 16.4644C12.0289 16.4644 12.0553 16.535 12.0019 16.6214C11.9485 16.7077 11.9717 16.7784 12.0537 16.7784C12.1355 16.7784 12.2472 17.0165 12.3018 17.3076C12.3565 17.5988 12.5411 17.9981 12.7119 18.195C12.883 18.392 13.0228 18.714 13.0228 18.9105C13.0228 19.1069 13.1338 19.3787 13.2695 19.5144C13.4054 19.6501 13.4583 19.7622 13.3873 19.7634C13.3165 19.7648 13.3483 19.8229 13.4583 19.8928C13.5684 19.9625 13.689 20.179 13.7266 20.3738C13.852 21.0246 13.9849 21.3309 14.142 21.3309C14.2277 21.3309 14.2541 21.4016 14.2007 21.4879C14.1473 21.5742 14.1706 21.6449 14.2526 21.6449C14.3344 21.6449 14.4478 21.8921 14.5045 22.1943C14.5612 22.4965 14.6793 22.7438 14.7668 22.7438C14.8544 22.7438 14.8861 22.8084 14.8373 22.8874C14.7884 22.9664 14.8203 23.0549 14.9081 23.0841C14.9959 23.1133 15.0993 23.3017 15.1381 23.5025C15.2656 24.1643 15.3977 24.4706 15.5555 24.4706C15.6413 24.4706 15.6677 24.5412 15.6143 24.6276C15.5609 24.7139 15.5841 24.7846 15.6661 24.7846C15.7479 24.7846 15.8613 25.0318 15.918 25.334C15.9747 25.6362 16.0928 25.8834 16.1803 25.8834C16.268 25.8834 16.2997 25.9481 16.2508 26.0271C16.202 26.106 16.237 26.1955 16.3286 26.2261C16.4802 26.2765 16.5917 26.6032 16.6231 27.0889C16.6298 27.1906 16.7462 27.3848 16.8819 27.5206C17.0178 27.6563 17.0707 27.7683 16.9997 27.7696C16.9289 27.771 16.9608 27.8291 17.0707 27.899C17.1808 27.9687 17.3014 28.1851 17.339 28.38C17.4621 29.019 17.5964 29.3371 17.7429 29.3371C17.8223 29.3371 17.9672 29.655 18.0651 30.0435C18.1631 30.432 18.3096 30.7499 18.3908 30.7499C18.472 30.7499 18.4948 30.8206 18.4414 30.9069C18.388 30.9933 18.4233 31.0639 18.5199 31.0639C18.6165 31.0639 18.6451 31.1455 18.5835 31.2452C18.5154 31.3553 18.5402 31.3838 18.6467 31.3181C18.7429 31.2586 18.8678 30.9652 18.924 30.666C18.9801 30.3667 19.093 30.122 19.1749 30.122C19.2569 30.122 19.2801 30.0514 19.2267 29.965C19.1733 29.8787 19.1997 29.808 19.2854 29.808C19.4433 29.808 19.5754 29.5018 19.7029 28.8399C19.7417 28.6391 19.845 28.4508 19.9328 28.4216C20.0206 28.3924 20.0525 28.3038 20.0037 28.2249C19.9548 28.1459 19.9866 28.0812 20.0742 28.0812C20.1617 28.0812 20.2798 27.834 20.3365 27.5318C20.3932 27.2296 20.5066 26.9823 20.5884 26.9823C20.6704 26.9823 20.6937 26.9117 20.6403 26.8253C20.5868 26.739 20.6132 26.6684 20.699 26.6684C20.8561 26.6684 20.9889 26.3621 21.1144 25.7112C21.152 25.5164 21.2726 25.2999 21.3827 25.2302C21.4926 25.1604 21.5245 25.1023 21.4537 25.1009C21.3827 25.0996 21.4306 24.9926 21.5602 24.863C21.7513 24.672 22.3043 24.6276 24.4883 24.6276C26.6722 24.6276 27.2252 24.672 27.4164 24.863C27.5459 24.9926 27.5938 25.0996 27.5228 25.1009C27.452 25.1023 27.4839 25.1604 27.5938 25.2302C27.7039 25.2999 27.8246 25.5164 27.8621 25.7112C27.9876 26.3621 28.1205 26.6684 28.2775 26.6684C28.3633 26.6684 28.3897 26.739 28.3363 26.8253C28.2829 26.9117 28.3061 26.9823 28.3881 26.9823C28.4699 26.9823 28.5833 27.2296 28.64 27.5318C28.6967 27.834 28.8148 28.0812 28.9023 28.0812C28.99 28.0812 29.0217 28.1459 28.9728 28.2249C28.924 28.3038 28.9559 28.3924 29.0437 28.4216C29.1315 28.4508 29.2348 28.6391 29.2736 28.8399C29.4011 29.5018 29.5332 29.808 29.6911 29.808C29.7768 29.808 29.8032 29.8787 29.7498 29.965C29.6964 30.0514 29.7197 30.122 29.8017 30.122C29.8835 30.122 29.9964 30.3667 30.0525 30.666C30.1087 30.9652 30.2336 31.2586 30.3299 31.3181C30.4363 31.3838 30.4612 31.3553 30.393 31.2452C30.3314 31.1455 30.3677 31.0639 30.4736 31.0639C30.5794 31.0639 30.6223 31.0201 30.5687 30.9667C30.5153 30.9132 30.5742 30.7669 30.6997 30.6416C30.8251 30.5162 30.9278 30.247 30.9278 30.0435C30.9278 29.8401 31.0305 29.5708 31.1558 29.4454C31.2813 29.3201 31.3402 29.1738 31.2868 29.1203C31.2333 29.0669 31.2688 29.0231 31.3657 29.0231C31.4626 29.0231 31.5882 28.7759 31.6449 28.4737C31.7016 28.1715 31.815 27.9242 31.8969 27.9242C31.9788 27.9242 32.0021 27.8536 31.9487 27.7672C31.8953 27.6809 31.9217 27.6103 32.0074 27.6103C32.1645 27.6103 32.2974 27.304 32.4229 26.6531C32.4604 26.4583 32.581 26.2418 32.6911 26.1721C32.8011 26.1023 32.8329 26.0442 32.7621 26.0428C32.6911 26.0415 32.744 25.9294 32.8799 25.7938C33.0156 25.658 33.132 25.4638 33.1387 25.3621C33.1702 24.8764 33.2817 24.5497 33.4332 24.4993C33.5248 24.4687 33.5598 24.3792 33.511 24.3003C33.4621 24.2213 33.4939 24.1566 33.5815 24.1566C33.669 24.1566 33.7871 23.9094 33.8438 23.6072C33.9005 23.305 34.0139 23.0577 34.0957 23.0577C34.1777 23.0577 34.201 22.9871 34.1476 22.9007C34.0942 22.8144 34.1205 22.7438 34.2063 22.7438C34.3634 22.7438 34.4962 22.4375 34.6217 21.7866C34.6593 21.5918 34.7799 21.3753 34.89 21.3056C34.9999 21.2358 35.0318 21.1777 34.961 21.1763C34.89 21.175 34.9429 21.0629 35.0788 20.9273C35.2145 20.7915 35.3309 20.5973 35.3376 20.4956C35.369 20.0099 35.4805 19.6832 35.6321 19.6328C35.7237 19.6022 35.7587 19.5127 35.7098 19.4338C35.661 19.3548 35.6875 19.2901 35.7687 19.2901C35.8499 19.2901 35.9965 18.9722 36.0945 18.5837C36.1923 18.1952 36.3423 17.8773 36.4278 17.8773C36.5132 17.8773 36.6682 17.5594 36.7722 17.1708C36.8762 16.7823 37.0215 16.4644 37.095 16.4644C37.1686 16.4644 37.1851 16.3938 37.1317 16.3074C37.0783 16.2211 37.1047 16.1504 37.1905 16.1504C37.3483 16.1504 37.4804 15.8442 37.6079 15.1823C37.6467 14.9815 37.7501 14.7932 37.8379 14.764C37.9257 14.7348 37.9576 14.6462 37.9087 14.5673C37.8599 14.4883 37.8949 14.4236 37.9863 14.4236C38.2327 14.4236 38.1878 14.0103 37.9114 13.734C37.7788 13.6015 37.6838 13.4728 37.7004 13.4481C37.7171 13.4235 37.1188 12.7847 36.3711 12.0288C35.6233 11.2729 35.0114 10.7009 35.0114 10.7577C35.0114 10.8146 34.87 10.6981 34.6973 10.499C34.5245 10.3 34.3809 10.2007 34.3784 10.2788C34.3758 10.3568 34.3007 10.2954 34.2116 10.1425C34.1226 9.9896 33.9834 9.90546 33.9024 9.95554C33.8212 10.0056 33.7527 9.95413 33.7502 9.8411C33.7475 9.72807 33.6638 9.77689 33.5639 9.94958C33.4642 10.1223 33.2897 10.3569 33.1761 10.4709C33.0626 10.585 32.9643 10.7617 32.9575 10.8634C32.9261 11.3491 32.8146 11.6758 32.663 11.7262C32.5714 11.7568 32.5364 11.8463 32.5853 11.9252C32.6341 12.0042 32.6024 12.0689 32.5147 12.0689C32.4273 12.0689 32.3091 12.3161 32.2524 12.6183C32.1957 12.9205 32.0823 13.1677 32.0005 13.1677C31.9185 13.1677 31.8953 13.2384 31.9487 13.3247C32.0021 13.4111 31.9757 13.4817 31.89 13.4817C31.7321 13.4817 31.6 13.788 31.4725 14.4498C31.4337 14.6506 31.3303 14.839 31.2425 14.8682C31.1547 14.8974 31.1229 14.9859 31.1717 15.0649C31.2206 15.1439 31.1888 15.2085 31.1012 15.2085C31.0137 15.2085 30.8956 15.4558 30.8389 15.758C30.7822 16.0602 30.6688 16.3074 30.587 16.3074C30.505 16.3074 30.4817 16.3781 30.5351 16.4644C30.5885 16.5507 30.5622 16.6214 30.4764 16.6214C30.3186 16.6214 30.1865 16.9277 30.0589 17.5895C30.0201 17.7903 29.9168 17.9787 29.829 18.0079C29.7412 18.0371 29.7093 18.1256 29.7581 18.2046C29.807 18.2835 29.7753 18.3482 29.6876 18.3482C29.6001 18.3482 29.482 18.5955 29.4253 18.8977C29.3686 19.1999 29.2475 19.4471 29.1564 19.4471C29.0654 19.4471 29.0344 19.4909 29.088 19.5443C29.1414 19.5978 29.0825 19.7441 28.957 19.8694C28.8316 19.9948 28.7289 20.2582 28.7289 20.4546C28.7289 20.6512 28.5876 20.9749 28.4148 21.1739C28.242 21.373 28.0953 21.6135 28.0886 21.7081C28.0553 22.1868 27.9439 22.5081 27.7941 22.5581C27.7025 22.5887 27.6675 22.6781 27.7163 22.7571C27.7652 22.8361 27.7385 22.9007 27.6571 22.9007C27.5756 22.9007 27.4721 23.042 27.4269 23.2147C27.3487 23.5138 27.2127 23.5287 24.5702 23.5287C22.4198 23.5287 21.7471 23.4799 21.5788 23.3119C21.4596 23.1927 21.4058 23.0515 21.4592 22.9979C21.5127 22.9445 21.4818 22.9007 21.3907 22.9007C21.2996 22.9007 21.1802 22.6626 21.1256 22.3716C21.0709 22.0803 20.8864 21.681 20.7155 21.4841C20.5444 21.2871 20.4047 20.9651 20.4047 20.7686C20.4047 20.5722 20.2936 20.3005 20.1579 20.1647C20.0221 20.029 19.9691 19.917 20.0401 19.9157C20.111 19.9143 20.0791 19.8562 19.9691 19.7863C19.859 19.7166 19.7384 19.5002 19.7009 19.3053C19.5754 18.6545 19.4425 18.3482 19.2854 18.3482C19.1997 18.3482 19.1733 18.2776 19.2267 18.1912C19.2801 18.1049 19.2569 18.0342 19.1749 18.0342C19.093 18.0342 18.9796 17.787 18.9229 17.4848C18.8662 17.1826 18.7481 16.9354 18.6606 16.9354C18.573 16.9354 18.5413 16.8707 18.5901 16.7917C18.639 16.7128 18.6071 16.6242 18.5193 16.595C18.4315 16.5658 18.3281 16.3774 18.2894 16.1767C18.1618 15.5148 18.0297 15.2085 17.8719 15.2085C17.7861 15.2085 17.7597 15.1379 17.8131 15.0516C17.8665 14.9652 17.8433 14.8946 17.7613 14.8946C17.6795 14.8946 17.5661 14.6473 17.5094 14.3451C17.4527 14.0429 17.3346 13.7957 17.2471 13.7957C17.1595 13.7957 17.1277 13.731 17.1766 13.652C17.2254 13.5731 17.1904 13.4836 17.0988 13.453C16.9473 13.4026 16.8357 13.0759 16.8043 12.5902C16.7976 12.4885 16.6812 12.2943 16.5455 12.1585C16.4096 12.0229 16.3567 11.9108 16.4277 11.9095C16.4985 11.9081 16.4637 11.8481 16.35 11.7761C16.1613 11.6565 16.0506 11.3513 16.019 10.8634C16.0123 10.7617 15.914 10.585 15.8004 10.4709C15.6868 10.3569 15.5123 10.1223 15.4126 9.94958C15.3127 9.77689 15.229 9.72807 15.2263 9.8411ZM12.3826 12.0296L12.0019 12.4613L12.4338 12.0808C12.8374 11.7251 12.9378 11.5979 12.8145 11.5979C12.7864 11.5979 12.5921 11.7921 12.3826 12.0296ZM36.4249 11.9904C36.6279 12.2062 36.8292 12.3828 36.8724 12.3828C36.9156 12.3828 36.7849 12.2062 36.582 11.9904C36.3791 11.7745 36.1777 11.5979 36.1345 11.5979C36.0914 11.5979 36.222 11.7745 36.4249 11.9904ZM8.0516 19.8345C8.10029 19.9612 8.07689 20.1041 7.99961 20.1518C7.92234 20.1995 7.88575 20.3769 7.91826 20.546C7.95077 20.7151 7.91747 20.8904 7.84397 20.9358C7.77062 20.9811 7.7301 21.1964 7.75397 21.414C7.77784 21.6315 7.74313 21.843 7.6767 21.8841C7.61026 21.9251 7.55607 22.877 7.55607 23.9996C7.55607 25.1222 7.61026 26.0742 7.6767 26.1151C7.74313 26.1563 7.77784 26.3677 7.75397 26.5853C7.7301 26.8029 7.77062 27.0181 7.84397 27.0635C7.91747 27.1089 7.95077 27.2842 7.91826 27.4533C7.88575 27.6224 7.92234 27.7997 7.99961 27.8475C8.07689 27.8952 8.10312 28.0308 8.05773 28.1489C8.01249 28.2669 8.04783 28.4082 8.13626 28.4628C8.22484 28.5175 8.25735 28.666 8.20866 28.7927C8.16013 28.9194 8.19626 29.0231 8.28924 29.0231C8.38206 29.0231 8.4174 29.1291 8.36777 29.2586C8.31798 29.3881 8.35332 29.4941 8.4463 29.4941C8.53912 29.4941 8.57446 29.6 8.52483 29.7295C8.47504 29.8591 8.51258 29.965 8.60823 29.965C8.70388 29.965 8.7821 30.1366 8.7821 30.3463C8.7821 30.5559 8.88482 30.8302 9.01015 30.9556C9.13564 31.0809 9.19454 31.2272 9.14114 31.2807C9.08758 31.3341 9.13046 31.3779 9.23632 31.3779C9.34218 31.3779 9.38521 31.4485 9.33181 31.5349C9.27841 31.6212 9.31375 31.6918 9.41034 31.6918C9.50694 31.6918 9.54227 31.7625 9.48887 31.8488C9.43547 31.9352 9.47081 32.0058 9.5674 32.0058C9.664 32.0058 9.70593 32.0658 9.6607 32.1391C9.61531 32.2122 9.71991 32.4242 9.89315 32.61C10.0662 32.7958 10.1521 32.9499 10.084 32.9527C10.0158 32.9554 10.0973 33.0614 10.2649 33.1882C10.4327 33.3149 10.5033 33.4209 10.422 33.4237C10.3408 33.4264 10.4115 33.5323 10.579 33.6592C10.7468 33.7859 10.8242 33.8896 10.7513 33.8896C10.6785 33.8896 10.7755 34.0256 10.9673 34.1917C11.1589 34.3579 11.3287 34.5458 11.3447 34.6095C11.3862 34.7753 13.9651 37.3657 13.9651 37.2415C13.9651 37.1847 14.1065 37.3012 14.2793 37.5002C14.452 37.6993 14.5934 37.8026 14.5934 37.7298C14.5934 37.6569 14.6972 37.7343 14.8239 37.902C14.9508 38.0695 15.0569 38.1401 15.0595 38.059C15.0624 37.9776 15.1684 38.0483 15.2951 38.2159C15.422 38.3834 15.5281 38.4649 15.5307 38.3968C15.5335 38.3287 15.6878 38.4145 15.8736 38.5875C16.0595 38.7607 16.2716 38.8652 16.3448 38.8199C16.4181 38.7746 16.4781 38.8166 16.4781 38.9131C16.4781 39.0096 16.5428 39.0487 16.6218 38.9999C16.7008 38.9511 16.8012 38.9999 16.845 39.1084C16.8946 39.2318 16.9292 39.207 16.9369 39.042C16.9436 38.8971 16.8466 38.6759 16.7212 38.5505C16.5958 38.4252 16.5369 38.2789 16.5903 38.2254C16.6438 38.172 16.6129 38.1282 16.5218 38.1282C16.4307 38.1282 16.3096 37.8809 16.2529 37.5787C16.1962 37.2765 16.0781 37.0293 15.9906 37.0293C15.903 37.0293 15.8712 36.9646 15.9201 36.8857C15.9689 36.8067 15.937 36.7182 15.8492 36.689C15.7614 36.6598 15.6581 36.4714 15.6193 36.2706C15.4918 35.6087 15.3597 35.3025 15.2018 35.3025C15.1161 35.3025 15.0897 35.2318 15.1431 35.1455C15.1965 35.0591 15.1732 34.9885 15.0913 34.9885C15.0094 34.9885 14.896 34.7413 14.8393 34.4391C14.7826 34.1369 14.6645 33.8896 14.577 33.8896C14.4894 33.8896 14.4577 33.8249 14.5065 33.746C14.5554 33.667 14.5235 33.5785 14.4357 33.5493C14.3479 33.5201 14.2445 33.3317 14.2057 33.1309C14.0782 32.4691 13.9461 32.1628 13.7883 32.1628C13.7025 32.1628 13.6761 32.0922 13.7295 32.0058C13.7829 31.9195 13.7597 31.8488 13.6777 31.8488C13.5959 31.8488 13.4825 31.6016 13.4258 31.2994C13.3691 30.9972 13.251 30.7499 13.1635 30.7499C13.0758 30.7499 13.0441 30.6853 13.093 30.6063C13.1418 30.5273 13.1068 30.4379 13.0152 30.4072C12.8637 30.3569 12.7521 30.0302 12.7207 29.5445C12.714 29.4427 12.5976 29.2485 12.4619 29.1128C12.326 28.9771 12.2731 28.865 12.3441 28.8638C12.4149 28.8624 12.3801 28.8024 12.2664 28.7303C12.0798 28.612 11.9689 28.3106 11.9354 27.8305C11.9287 27.7358 11.782 27.4953 11.6092 27.2963C11.4364 27.0972 11.2951 26.7735 11.2951 26.577C11.2951 26.3806 11.184 26.1089 11.0483 25.9731C10.9125 25.8374 10.8596 25.7254 10.9305 25.7241C11.0014 25.7227 10.9695 25.6646 10.8596 25.5947C10.7494 25.525 10.6288 25.3086 10.5913 25.1137C10.4658 24.4629 10.3329 24.1566 10.1759 24.1566C10.0901 24.1566 10.0637 24.086 10.1171 23.9996C10.1705 23.9133 10.1473 23.8426 10.0653 23.8426C9.98346 23.8426 9.87006 23.5954 9.81336 23.2932C9.75666 22.991 9.63855 22.7438 9.55107 22.7438C9.46343 22.7438 9.4317 22.6791 9.48055 22.6001C9.5294 22.5212 9.49751 22.4326 9.40971 22.4034C9.32192 22.3742 9.21857 22.1858 9.17978 21.9851C9.05224 21.3232 8.92015 21.0169 8.76231 21.0169C8.67655 21.0169 8.65016 20.9463 8.70357 20.86C8.75697 20.7736 8.73372 20.703 8.65173 20.703C8.56991 20.703 8.45651 20.4557 8.39981 20.1535C8.34311 19.8513 8.2217 19.6041 8.12998 19.6041C8.03825 19.6041 8.00307 19.7078 8.0516 19.8345ZM40.7441 19.7611C40.6907 19.8474 40.722 19.9181 40.8134 19.9181C40.9048 19.9181 40.9797 19.8474 40.9797 19.7611C40.9797 19.6747 40.9486 19.6041 40.9105 19.6041C40.8723 19.6041 40.7975 19.6747 40.7441 19.7611ZM40.5572 20.3002C40.4545 20.4169 40.4132 20.5554 40.4657 20.6077C40.518 20.6601 40.4817 20.703 40.3848 20.703C40.2879 20.703 40.1622 20.9502 40.1055 21.2524C40.0488 21.5546 39.9354 21.8019 39.8536 21.8019C39.7716 21.8019 39.7484 21.8725 39.8018 21.9588C39.8552 22.0452 39.8288 22.1158 39.743 22.1158C39.586 22.1158 39.4531 22.4221 39.3276 23.073C39.2901 23.2678 39.1694 23.4843 39.0593 23.554C38.9494 23.6238 38.9175 23.6819 38.9884 23.6833C39.0593 23.6846 39.0064 23.7967 38.8706 23.9323C38.7349 24.0681 38.6185 24.2623 38.6117 24.364C38.5803 24.8497 38.4688 25.1764 38.3172 25.2268C38.2257 25.2574 38.1906 25.3469 38.2395 25.4258C38.2883 25.5048 38.2566 25.5695 38.169 25.5695C38.0815 25.5695 37.9634 25.8167 37.9067 26.1189C37.85 26.4211 37.7366 26.6684 37.6547 26.6684C37.5728 26.6684 37.5495 26.739 37.6029 26.8253C37.6563 26.9117 37.6299 26.9823 37.5442 26.9823C37.3871 26.9823 37.2542 27.2886 37.1287 27.9395C37.0912 28.1343 36.9706 28.3508 36.8605 28.4205C36.7505 28.4903 36.7187 28.5484 36.7895 28.5498C36.8605 28.5511 36.8076 28.6632 36.6717 28.7988C36.536 28.9346 36.4196 29.1288 36.4129 29.2305C36.3814 29.7162 36.2699 30.0429 36.1184 30.0933C36.0268 30.1239 35.9918 30.2134 36.0406 30.2923C36.0895 30.3713 36.0629 30.436 35.9817 30.436C35.9005 30.436 35.754 30.7539 35.656 31.1424C35.5581 31.5309 35.4081 31.8488 35.3227 31.8488C35.2372 31.8488 35.0822 32.1667 34.9783 32.5553C34.8743 32.9438 34.729 33.2617 34.6555 33.2617C34.5818 33.2617 34.5653 33.3323 34.6187 33.4187C34.6721 33.505 34.6458 33.5756 34.56 33.5756C34.4029 33.5756 34.2701 33.8819 34.1446 34.5328C34.107 34.7276 33.9864 34.9441 33.8763 35.0138C33.7664 35.0836 33.7345 35.1417 33.8053 35.1431C33.8763 35.1444 33.8234 35.2565 33.6875 35.3921C33.5518 35.5279 33.4408 35.8055 33.4408 36.0089C33.4408 36.2124 33.3381 36.4816 33.2127 36.607C33.0872 36.7323 33.0283 36.8786 33.0817 36.9321C33.1353 36.9855 33.0998 37.0293 33.0029 37.0293C32.906 37.0293 32.7803 37.2765 32.7236 37.5787C32.6669 37.8809 32.5458 38.1282 32.4547 38.1282C32.3636 38.1282 32.3327 38.172 32.3863 38.2254C32.4397 38.2789 32.3808 38.4252 32.2553 38.5505C32.1299 38.6759 32.0329 38.8971 32.0396 39.042C32.0473 39.207 32.0819 39.2318 32.1315 39.1084C32.1753 38.9999 32.2757 38.9511 32.3547 38.9999C32.4337 39.0487 32.4984 39.0096 32.4984 38.9131C32.4984 38.8166 32.5584 38.7746 32.6318 38.8199C32.7049 38.8652 32.917 38.7607 33.1029 38.5875C33.2887 38.4145 33.443 38.3287 33.4458 38.3968C33.4485 38.4649 33.5545 38.3834 33.6814 38.2159C33.8081 38.0483 33.9142 37.9776 33.917 38.059C33.9197 38.1401 34.0257 38.0695 34.1526 37.902C34.2793 37.7343 34.3831 37.6569 34.3831 37.7298C34.3831 37.8026 34.5245 37.6993 34.6973 37.5002C34.87 37.3012 35.0114 37.1847 35.0114 37.2415C35.0114 37.2984 35.6233 36.7263 36.3711 35.9704C37.1188 35.2146 37.7151 34.573 37.6957 34.5449C37.6766 34.5168 37.8176 34.3579 38.0092 34.1917C38.201 34.0256 38.2981 33.8896 38.2252 33.8896C38.1523 33.8896 38.2297 33.7859 38.3975 33.6592C38.5651 33.5323 38.6357 33.4264 38.5545 33.4237C38.4732 33.4209 38.5439 33.3149 38.7116 33.1882C38.8792 33.0614 38.9607 32.9554 38.8925 32.9527C38.8244 32.9499 38.9103 32.7958 39.0834 32.61C39.2566 32.4242 39.3612 32.2122 39.3158 32.1391C39.2706 32.0658 39.3125 32.0058 39.4091 32.0058C39.5057 32.0058 39.541 31.9352 39.4877 31.8488C39.4342 31.7625 39.4696 31.6918 39.5662 31.6918C39.6628 31.6918 39.6981 31.6212 39.6447 31.5349C39.5913 31.4485 39.6343 31.3779 39.7402 31.3779C39.8461 31.3779 39.8889 31.3341 39.8354 31.2807C39.782 31.2272 39.8409 31.0809 39.9664 30.9556C40.0917 30.8302 40.1944 30.5559 40.1944 30.3463C40.1944 30.1366 40.2726 29.965 40.3683 29.965C40.4639 29.965 40.5015 29.8591 40.4517 29.7295C40.4021 29.6 40.4374 29.4941 40.5302 29.4941C40.6232 29.4941 40.6585 29.3881 40.6088 29.2586C40.5591 29.1291 40.591 29.0231 40.6797 29.0231C40.7686 29.0231 40.7957 28.9493 40.7399 28.8592C40.6841 28.7691 40.7178 28.5999 40.8147 28.4833C40.9116 28.3666 40.9799 28.2109 40.9667 28.1369C40.9534 28.0632 40.9598 27.9497 40.9808 27.885C41.0017 27.8203 41.0368 27.626 41.0583 27.4533C41.0798 27.2806 41.1156 27.1216 41.1376 27.1001C41.1596 27.0786 41.1885 26.8842 41.2018 26.6684C41.215 26.4525 41.2694 26.2053 41.3226 26.1189C41.3758 26.0326 41.4195 25.0789 41.4195 23.9996C41.4195 22.9204 41.3758 21.9667 41.3226 21.8804C41.2694 21.794 41.215 21.5468 41.2018 21.3309C41.1885 21.1151 41.1596 20.9207 41.1376 20.8992C41.1156 20.8777 41.0887 20.7069 41.0779 20.5198C41.0543 20.1105 40.8136 20.0089 40.5572 20.3002ZM24.3191 30.0043C24.289 30.4967 24.1776 30.8273 24.0246 30.8782C23.9331 30.9088 23.898 30.9983 23.9469 31.0773C23.9957 31.1562 23.964 31.2209 23.8764 31.2209C23.7889 31.2209 23.6708 31.4681 23.6141 31.7703C23.5574 32.0725 23.444 32.3198 23.3621 32.3198C23.2801 32.3198 23.2569 32.3904 23.3103 32.4768C23.3637 32.5631 23.3373 32.6337 23.2516 32.6337C23.0937 32.6337 22.9616 32.94 22.8341 33.6019C22.7953 33.8026 22.6919 33.991 22.6042 34.0202C22.5164 34.0494 22.4845 34.138 22.5333 34.2169C22.5822 34.2959 22.5556 34.3606 22.4744 34.3606C22.3932 34.3606 22.2467 34.6785 22.1487 35.067C22.0508 35.4555 21.9059 35.7734 21.8265 35.7734C21.68 35.7734 21.5457 36.0915 21.4226 36.7306C21.385 36.9254 21.2644 37.1419 21.1543 37.2116C21.0444 37.2814 21.0125 37.3395 21.0833 37.3409C21.1543 37.3422 21.1014 37.4543 20.9655 37.5899C20.8298 37.7257 20.7134 37.9199 20.7067 38.0216C20.6751 38.5095 20.5644 38.8147 20.3758 38.9343C20.262 39.0064 20.2397 39.0674 20.3261 39.0701C20.4194 39.0729 20.4139 39.1217 20.3126 39.1902C20.0272 39.3831 19.7588 40.3217 19.9809 40.3498C20.1884 40.3762 20.4202 40.4266 20.601 40.4845C20.6657 40.5052 20.8601 40.5399 21.0329 40.5614C21.2057 40.5829 21.3648 40.6187 21.3863 40.6407C21.4078 40.6627 21.6023 40.6916 21.8182 40.7049C22.0342 40.7181 22.2815 40.7724 22.3679 40.8256C22.5727 40.9519 26.4038 40.9519 26.6086 40.8256C26.695 40.7724 26.9424 40.7181 27.1583 40.7049C27.3743 40.6916 27.5687 40.6627 27.5902 40.6407C27.6117 40.6187 27.7709 40.5829 27.9436 40.5614C28.1164 40.5399 28.3108 40.5052 28.3755 40.4845C28.5714 40.4217 28.7958 40.3751 29.0229 40.3498C29.1967 40.3307 29.2006 40.2801 29.0431 40.0905C28.9355 39.961 28.8879 39.855 28.9372 39.855C28.9863 39.855 28.9527 39.6431 28.8624 39.3841C28.7721 39.125 28.6303 38.9131 28.5472 38.9131C28.4643 38.9131 28.4399 38.8425 28.4933 38.7561C28.5467 38.6698 28.5235 38.5991 28.4415 38.5991C28.3597 38.5991 28.2463 38.3519 28.1896 38.0497C28.1329 37.7475 28.0148 37.5002 27.9273 37.5002C27.8396 37.5002 27.8079 37.4356 27.8568 37.3566C27.9056 37.2776 27.8737 37.1891 27.7859 37.1599C27.6981 37.1307 27.5948 36.9423 27.556 36.7415C27.4285 36.0797 27.2964 35.7734 27.1385 35.7734C27.0528 35.7734 27.0264 35.7028 27.0798 35.6164C27.1332 35.5301 27.1099 35.4595 27.0279 35.4595C26.9461 35.4595 26.8327 35.2122 26.776 34.91C26.7193 34.6078 26.6012 34.3606 26.5137 34.3606C26.4261 34.3606 26.3944 34.2959 26.4432 34.2169C26.4921 34.138 26.4602 34.0494 26.3724 34.0202C26.2846 33.991 26.1812 33.8026 26.1424 33.6019C26.0149 32.94 25.8828 32.6337 25.725 32.6337C25.6392 32.6337 25.6128 32.5631 25.6662 32.4768C25.7196 32.3904 25.6964 32.3198 25.6144 32.3198C25.5326 32.3198 25.4192 32.0725 25.3625 31.7703C25.3058 31.4681 25.1877 31.2209 25.1002 31.2209C25.0125 31.2209 24.9808 31.1562 25.0297 31.0773C25.0785 30.9983 25.0435 30.9088 24.9519 30.8782C24.7989 30.8273 24.6876 30.4967 24.6574 30.0043C24.6507 29.8964 24.5746 29.808 24.4883 29.808C24.4019 29.808 24.3259 29.8964 24.3191 30.0043ZM12.3945 36.0089C12.5974 36.2248 12.7988 36.4014 12.842 36.4014C12.8852 36.4014 12.7545 36.2248 12.5516 36.0089C12.3487 35.793 12.1473 35.6164 12.1041 35.6164C12.0609 35.6164 12.1916 35.793 12.3945 36.0089ZM36.413 36.0481L36.0323 36.4799L36.4642 36.0993C36.7017 35.8899 36.8961 35.6957 36.8961 35.6676C36.8961 35.5444 36.7689 35.6447 36.413 36.0481ZM9.17475 39.3841C9.60023 39.8158 9.91294 40.169 9.86975 40.169C9.82656 40.169 9.44317 39.8158 9.01769 39.3841C8.59221 38.9523 8.2795 38.5991 8.32269 38.5991C8.36588 38.5991 8.74927 38.9523 9.17475 39.3841ZM40.6656 38.6443C40.6656 38.6691 40.2945 39.0399 39.841 39.4685L39.0165 40.2475L39.7958 39.4233C40.5202 38.6575 40.6656 38.5271 40.6656 38.6443Z" fill="white"/>
<path fill-rule="evenodd" clip-rule="evenodd" d="M24.1343 0.091935C24.3288 0.129297 24.6467 0.129297 24.8411 0.091935C25.0355 0.0544159 24.8764 0.0238037 24.4877 0.0238037C24.099 0.0238037 23.9399 0.0544159 24.1343 0.091935ZM9.09567 8.69371C8.71417 9.08225 8.43742 9.40014 8.48062 9.40014C8.52381 9.40014 8.87123 9.08225 9.25273 8.69371C9.63423 8.30518 9.91098 7.98728 9.86779 7.98728C9.82459 7.98728 9.47717 8.30518 9.09567 8.69371ZM39.7161 8.65446C40.367 9.34755 40.508 9.47219 40.508 9.3543C40.508 9.32918 40.1724 8.99355 39.762 8.60863L39.0159 7.90879L39.7161 8.65446ZM12.382 12.0296L12.0013 12.4613L12.4332 12.0808C12.8369 11.7251 12.9372 11.5979 12.8139 11.5979C12.7858 11.5979 12.5915 11.7921 12.382 12.0296ZM36.4244 11.9904C36.6273 12.2062 36.8287 12.3828 36.8719 12.3828C36.9151 12.3828 36.7844 12.2062 36.5815 11.9904C36.3785 11.7745 36.1772 11.5979 36.134 11.5979C36.0908 11.5979 36.2215 11.7745 36.4244 11.9904ZM0.5 23.9996C0.5 24.3882 0.530627 24.5472 0.568165 24.3529C0.605546 24.1585 0.605546 23.8408 0.568165 23.6464C0.530627 23.4521 0.5 23.6111 0.5 23.9996ZM48.4038 23.9996C48.4038 24.3882 48.4344 24.5472 48.472 24.3529C48.5093 24.1585 48.5093 23.8408 48.472 23.6464C48.4344 23.4521 48.4038 23.6111 48.4038 23.9996ZM12.394 36.0089C12.5969 36.2248 12.7982 36.4014 12.8414 36.4014C12.8846 36.4014 12.7539 36.2248 12.551 36.0089C12.3481 35.7931 12.1467 35.6164 12.1036 35.6164C12.0604 35.6164 12.191 35.7931 12.394 36.0089ZM36.4125 36.0482L36.0317 36.4799L36.4637 36.0993C36.7011 35.8899 36.8956 35.6957 36.8956 35.6676C36.8956 35.5444 36.7684 35.6447 36.4125 36.0482ZM9.08907 39.2663C9.47419 39.6765 9.80999 40.012 9.83512 40.012C9.95307 40.012 9.82836 39.871 9.13494 39.2205L8.38889 38.5206L9.08907 39.2663ZM39.7227 39.3056C39.3412 39.6941 39.0644 40.012 39.1076 40.012C39.1508 40.012 39.4982 39.6941 39.8798 39.3056C40.2613 38.917 40.538 38.5991 40.4948 38.5991C40.4516 38.5991 40.1042 38.917 39.7227 39.3056ZM24.1343 47.972C24.3288 48.0094 24.6467 48.0094 24.8411 47.972C25.0355 47.9345 24.8764 47.9039 24.4877 47.9039C24.099 47.9039 23.9399 47.9345 24.1343 47.972Z" fill="white"/>
</svg>
