<svg width="48" height="48" viewBox="0 0 48 48" fill="none" xmlns="http://www.w3.org/2000/svg">
<g clip-path="url(#clip0_1_11128)">
<path d="M0.717895 32.0556H4.57459C5.8852 34.3429 8.80694 35.1359 11.0942 33.8253C11.8289 33.3996 12.4382 32.7902 12.864 32.0556H34.9774C36.288 34.3429 39.2097 35.1359 41.497 33.8253C42.24 33.3996 42.8577 32.7818 43.2751 32.0389C43.3669 32.0222 43.4504 31.9888 43.5339 31.947L47.5325 29.5429C47.7746 29.401 47.9165 29.1422 47.9165 28.8583V21.6542C47.9165 21.5623 47.8915 21.4705 47.8581 21.3787C47.8497 21.3537 47.8414 21.3286 47.8247 21.3119C47.808 21.2952 47.808 21.2702 47.7996 21.2451L45.6292 17.6222L46.2302 16.4117C46.4306 16.0194 46.2636 15.5352 45.8713 15.3349C45.7962 15.3015 45.721 15.2764 45.6459 15.2597L41.5304 14.5752L39.577 14.2497C30.0021 12.6803 20.1683 14.2914 11.5868 18.8326L9.22433 20.0931L5.62642 20.8945C3.18885 21.4371 1.11859 23.0483 -1.78367e-05 25.2938C-0.0584526 25.4023 -0.0834961 25.5276 -0.0834961 25.6528V31.2542C-0.0834961 31.6966 0.27546 32.0556 0.717895 32.0556ZM11.6452 30.9286C10.9356 32.5397 9.04903 33.2743 7.43789 32.5648C5.82676 31.8552 10.3847 34.1759 11.0942 32.5648C11.8038 30.9537 6.88885 32.2903 8.49998 32.9999C9.66033 33.5091 12.0083 31.2959 12 32.5648C12 33.0072 11.8205 30.5279 11.6452 30.9286ZM42.048 30.9286C41.3384 32.5397 45.6459 31.1623 44.0348 30.4528C42.4236 29.7432 41.7904 32.611 42.5 30.9999C43.2096 29.3887 38.8007 26.0117 40.4118 26.7213C42.3235 27.2472 39.5 24.3839 39.5 25.6528C39.4916 26.0952 42.2233 30.5279 42.048 30.9286ZM46.3221 24.05H44.3186L43.1165 22.4472H46.3137V24.05H46.3221ZM30.2024 15.3265C33.2494 15.1596 36.313 15.3349 39.3266 15.8274L39.744 15.8942L35.5868 20.043H29.5262L30.2024 15.3265ZM35.9207 21.6542C36.1294 21.6542 36.3381 21.5707 36.4883 21.4204L41.6807 16.2281L44.3186 16.6705L44.0014 17.305C43.8762 17.547 43.8929 17.8392 44.0348 18.073L45.7127 20.8611H41.5221C41.0796 20.8611 40.7207 21.2201 40.7207 21.6625C40.7207 21.8378 40.7791 22.0048 40.8793 22.1384L43.2835 25.3356C43.4337 25.5359 43.6675 25.6528 43.9262 25.6528H46.3304V28.3992L43.9262 29.8434C43.9262 29.7766 43.9262 29.7182 43.9262 29.6514C43.9262 26.9968 41.7809 24.8514 39.1262 24.8514C36.4716 24.8514 34.3262 26.9968 34.3262 29.6514C34.3262 29.8935 34.3513 30.1272 34.3847 30.3693C34.3847 30.3943 34.3847 30.4277 34.393 30.4528H28.0403L29.3009 21.6542H35.9207ZM28.5662 15.4434L27.9068 20.0514H12.7137C17.6556 17.497 23.04 15.9359 28.5662 15.4434ZM1.51929 27.2472H3.12207V25.6444H1.63616C2.57111 24.0166 4.14885 22.8563 5.98537 22.4472L9.60833 21.6458H27.6814L26.4292 30.4444H13.4483C13.4483 30.4194 13.4483 30.386 13.4567 30.361C13.4984 30.1272 13.5151 29.8851 13.5151 29.643C13.5151 26.9884 11.3697 24.843 8.71511 24.843C6.0605 24.843 3.91511 26.9884 3.91511 29.643C3.91511 29.8851 3.94016 30.1189 3.97355 30.361C3.97355 30.386 3.97355 30.4194 3.98189 30.4444H1.51929V27.2472Z" fill="url(#paint0_linear_1_11128)"/>
<path d="M20.7192 23.2485H23.9165V24.8513H20.7192V23.2485Z" fill="url(#paint1_linear_1_11128)"/>
</g>
<defs>
<linearGradient id="paint0_linear_1_11128" x1="56.7731" y1="18.6682" x2="-10.148" y2="32.3261" gradientUnits="userSpaceOnUse">
<stop stop-color="#A49C4C"/>
<stop offset="0.38056" stop-color="#CAA962"/>
<stop offset="0.803179" stop-color="#BF953F"/>
<stop offset="1" stop-color="#988001"/>
</linearGradient>
<linearGradient id="paint1_linear_1_11128" x1="24.5064" y1="23.6342" x2="20.0032" y2="24.4283" gradientUnits="userSpaceOnUse">
<stop stop-color="#A49C4C"/>
<stop offset="0.38056" stop-color="#CAA962"/>
<stop offset="0.803179" stop-color="#BF953F"/>
<stop offset="1" stop-color="#988001"/>
</linearGradient>
<clipPath id="clip0_1_11128">
<rect width="48" height="48" fill="white"/>
</clipPath>
</defs>
</svg>
