<svg width="48" height="48" viewBox="0 0 48 48" fill="none" xmlns="http://www.w3.org/2000/svg">
<path d="M36.75 6.75H34.7719C33.6187 5.8125 27.9656 1.5 21 1.5C14.0344 1.5 8.38125 5.8125 7.22812 6.75H3.75C2.5125 6.75 1.5 7.7625 1.5 9V13.5C1.5 13.65 1.54687 13.7906 1.63125 13.9125L4.63125 18.4125C4.77188 18.6187 5.00625 18.75 5.25 18.75H8.31562C8.72812 21.1969 11.0437 22.8469 13.4906 22.4344C15.3844 22.1156 16.8562 20.6344 17.175 18.75H31.5563C31.9688 21.1969 34.2844 22.8469 36.7312 22.4344C38.625 22.1156 40.0969 20.6344 40.4156 18.75H45.75C46.1625 18.75 46.5 18.4125 46.5 18V16.5C46.4906 11.1187 42.1312 6.75938 36.75 6.75ZM36.75 8.25C38.85 8.25 40.875 9.05625 42.3938 10.5H38.55L36.3 8.25H36.75ZM3 9C3 8.5875 3.3375 8.25 3.75 8.25H5.64375L4.74375 10.5H3V9ZM12.75 21C11.0906 21 9.75 19.6594 9.75 18C9.75 16.3406 11.0906 15 12.75 15C14.4094 15 15.75 16.3406 15.75 18C15.75 19.6594 14.4094 21 12.75 21ZM20.25 17.25H17.1844C16.7719 14.8031 14.4563 13.1531 12.0094 13.5656C10.1156 13.8844 8.64375 15.3656 8.325 17.25H5.65312L3 13.275V12H5.25C5.55937 12 5.83125 11.8125 5.94375 11.5312L7.25625 8.25H20.25V17.25ZM9.79688 6.75C12.0656 5.25 16.2656 3 21 3C25.7344 3 29.9344 5.25 32.2031 6.75H9.79688ZM24.75 8.25V9C24.75 9.4125 24.4125 9.75 24 9.75H21.75V8.25H24.75ZM36 21C34.3406 21 33 19.6594 33 18C33 16.3406 34.3406 15 36 15C37.6594 15 39 16.3406 39 18C39 19.6594 37.6594 21 36 21ZM45 17.25H40.4344C40.0219 14.8031 37.7062 13.1531 35.2594 13.5656C33.3656 13.8844 31.8937 15.3656 31.575 17.25H21.75V11.25H24C25.2375 11.25 26.25 10.2375 26.25 9V8.25H34.1906L37.7156 11.7844C37.8562 11.925 38.0531 12 38.25 12H43.6594C44.5312 13.3406 45 14.8969 45 16.5V17.25Z" fill="#BBA44F"/>
<path d="M43.5 36.2062C43.5 34.7812 42.3469 33.6187 40.9125 33.6187C40.6688 33.6187 40.4156 33.6562 40.1813 33.7219L38.9812 34.0781C38.9906 34.0406 38.9906 34.0031 39 33.9562C39 32.5312 37.8469 31.3687 36.4125 31.3687C36.1688 31.3687 35.9156 31.4062 35.6813 31.4719L32.25 32.4844V32.4562C32.25 31.0312 31.0969 29.8687 29.6625 29.8687C29.4187 29.8687 29.1656 29.9062 28.9313 29.9719L21.75 32.0812L15.15 30.7594C15.1031 30.75 15.0469 30.75 15 30.7406H10.5C10.4062 30.7406 10.3125 30.7594 10.2188 30.7969L7.5 31.8844V30.75C7.5 30.4312 7.29375 30.1406 6.99375 30.0375L2.49375 28.5375C2.26875 28.4625 2.01562 28.5 1.81875 28.6406C1.62187 28.7812 1.5 29.0062 1.5 29.25V45.75C1.5 45.9937 1.6125 46.2187 1.81875 46.3594C1.94062 46.4531 2.1 46.5 2.25 46.5C2.33438 46.5 2.40938 46.4812 2.49375 46.4625L6.99375 44.9625C7.29375 44.8594 7.5 44.5687 7.5 44.25V43.5H9.62812L18.5062 46.4625C18.5812 46.4812 18.6656 46.5 18.75 46.5H30C30.0844 46.5 30.1688 46.4812 30.2438 46.4531L41.775 42.3844C42.8063 42.0187 43.5 41.0437 43.5 39.9469C43.5 39.2344 43.2 38.5594 42.675 38.0812C43.2 37.5937 43.5 36.9187 43.5 36.2062ZM6 43.7062L3 44.7V30.2906L6 31.2844V43.7062ZM36.1125 32.9062C36.2063 32.8781 36.3094 32.8594 36.4125 32.8594C37.0031 32.85 37.4906 33.3094 37.5 33.9C37.5094 34.1344 37.4344 34.3594 37.2937 34.5469L28.5 36.5625V35.25C28.5 35.2219 28.4812 35.1937 28.4812 35.1562L36.1125 32.9062ZM29.3625 31.4062C29.4563 31.3781 29.5594 31.3594 29.6625 31.3594C30.2625 31.3594 30.75 31.8469 30.75 32.4469C30.75 32.625 30.6937 32.8031 30.6 32.9625L27.4594 33.8812L26.7844 33.2062C26.6813 33.1031 26.55 33.0281 26.4 33L24.9187 32.7L29.3625 31.4062ZM41.2781 40.9687L29.8688 45H18.8719L9.99375 42.0375C9.91875 42.0187 9.83438 42 9.75 42H7.5V33.5062L10.6406 32.25H14.925L25.8844 34.4437L27 35.5594V36.75H17.25C16.8375 36.75 16.5 37.0875 16.5 37.5C16.5 37.7719 16.65 38.0156 16.8844 38.1469L23.6344 41.8969C23.7469 41.9625 23.8687 42 24 41.9906H30C30.075 41.9906 30.1406 41.9812 30.2063 41.9625L40.6125 38.9062C41.1844 38.7375 41.7844 39.075 41.9531 39.6469C42.1125 40.2 41.8219 40.7812 41.2781 40.9687ZM41.3063 37.2187L40.8 37.3781C40.5938 37.3875 40.3781 37.4156 40.1813 37.4719L29.8969 40.5H24.1969L20.4844 38.4375L21.0094 38.25H27.75C27.8062 38.2406 27.8625 38.2312 27.9187 38.2219V38.2406L37.9594 35.9437L40.6125 35.1656C40.7063 35.1375 40.8094 35.1187 40.9125 35.1187C41.5125 35.1187 42 35.6062 42 36.2062C42.0094 36.6562 41.7281 37.0594 41.3063 37.2187Z" fill="#BBA44F"/>
<path d="M45.75 22.5H2.25C1.8375 22.5 1.5 22.8375 1.5 23.25C1.5 25.3219 3.17812 27 5.25 27H42.75C44.8219 27 46.5 25.3219 46.5 23.25C46.5 22.8375 46.1625 22.5 45.75 22.5ZM42.75 25.5H5.25C4.29375 25.5 3.45 24.9 3.13125 24H44.8781C44.55 24.9 43.7062 25.5 42.75 25.5Z" fill="#BBA44F"/>
</svg>
