<svg width="48" height="48" viewBox="0 0 48 48" fill="none" xmlns="http://www.w3.org/2000/svg">
<path d="M7.9874 17.0719C6.7874 17.0719 5.82178 18.0469 5.82178 19.2375C5.82178 20.4375 6.79678 21.4031 7.9874 21.4031C9.17803 21.4031 10.153 20.4281 10.153 19.2375C10.153 18.0469 9.1874 17.0813 7.9874 17.0719ZM7.9874 20.1C7.51865 20.1 7.13428 19.7156 7.13428 19.2469C7.13428 18.7781 7.51865 18.3938 7.9874 18.3938C8.45615 18.3938 8.84053 18.7781 8.84053 19.2469C8.84053 19.7156 8.45615 20.1 7.9874 20.1Z" fill="#BBA44F"/>
<path d="M2.43731 13.9688L3.92793 13.9594C3.25293 14.6063 2.83106 15.5531 2.83106 16.6313C2.83106 16.6594 2.83106 16.6875 2.84043 16.7156L3.69356 23.4469C3.71231 24.4219 4.39668 25.2563 5.34356 25.4625V27.5156C5.34356 28.275 5.96231 28.8844 6.71231 28.8844H6.72168H8.93418C9.68418 28.8938 10.3029 28.2844 10.3029 27.5344C10.3029 27.525 10.3029 27.525 10.3029 27.5156V25.5H27.5529V40.2094C27.5342 41.7469 28.7717 43.0125 30.3092 43.0313C30.3279 43.0313 30.3373 43.0313 30.3561 43.0313H43.3592C44.9154 43.0406 46.1904 41.7844 46.2092 40.2281C46.2092 40.2188 46.2092 40.2188 46.2092 40.2094V21.0282C46.2092 19.4532 44.9342 18.1875 43.3592 18.1875H40.9967C40.7529 17.1563 39.8623 16.5 38.7936 16.5H36.8061C36.7779 15.5438 36.3654 14.6344 35.6717 13.9782L37.2186 13.9688C37.5842 13.9594 37.8842 13.6594 37.8748 13.2938C37.8748 13.2844 37.8748 13.275 37.8748 13.275C37.8373 12.8156 37.7529 12.3656 37.6123 11.9344C37.2842 10.95 36.2623 10.3219 35.0061 10.3219C34.3123 10.3219 33.0748 10.3125 32.4561 10.3125L31.3123 8.21252C30.4686 6.70315 29.2311 4.97815 27.1592 4.97815H12.6279C10.9404 4.97815 9.44981 6.1219 8.42793 8.2219L7.23731 10.3313C6.60918 10.3313 5.36231 10.3219 4.65918 10.3219C3.40293 10.3219 2.38106 10.95 2.05293 11.9344C1.91231 12.3656 1.81856 12.8156 1.79043 13.275C1.78106 13.4531 1.84668 13.6313 1.96856 13.7625C2.09043 13.8938 2.25918 13.9688 2.43731 13.9688ZM8.99981 27.5063C8.99981 27.5438 8.98106 27.5625 8.94356 27.5625H6.72168C6.68418 27.5625 6.65606 27.5438 6.65606 27.5063V25.5H8.99981V27.5063ZM27.5623 21.0282V24.1875H5.80293C5.36231 24.1875 4.99668 23.8313 4.99668 23.3906C4.99668 23.3625 4.99668 23.3344 4.98731 23.3063L4.13418 16.5844C4.15293 15.2719 5.03418 14.4844 5.92481 14.4188C5.95293 14.4282 5.99043 14.4281 6.01856 14.4375H33.5623C33.5717 14.4375 33.5717 14.4563 33.5811 14.4563C34.7154 14.4563 35.4373 15.4688 35.5123 16.5H34.9404C33.8717 16.5 32.9811 17.1563 32.7373 18.1875H30.3748C28.8279 18.1875 27.5717 19.4531 27.5717 21C27.5623 21.0094 27.5623 21.0188 27.5623 21.0282ZM24.2529 13.125C24.5623 11.85 25.8373 11.0719 27.1123 11.3813C27.9748 11.5875 28.6498 12.2625 28.8561 13.125H24.2529ZM40.9779 19.5H43.3686C44.2123 19.5 44.9061 20.1844 44.9061 21.0282V40.2094C44.9061 41.0438 44.2217 41.7188 43.3873 41.7188C43.3779 41.7188 43.3779 41.7188 43.3686 41.7188H30.3654C29.5498 41.7281 28.8842 41.0719 28.8748 40.2656C28.8748 40.2469 28.8748 40.2375 28.8748 40.2188V21.0282C28.8748 20.1844 29.5217 19.5 30.3654 19.5H32.7561C33.0467 20.4563 33.9279 21.1031 34.9311 21.0938H38.8029C39.8061 21.1031 40.6873 20.4563 40.9779 19.5ZM38.7936 17.8125C39.3186 17.8125 39.7498 18.2344 39.7498 18.7688V18.9281C39.7498 19.4531 39.3279 19.8844 38.7936 19.8844H34.8842C34.3592 19.8844 33.9279 19.4625 33.9279 18.9281V18.7688C33.9279 18.2438 34.3498 17.8125 34.8842 17.8125H38.7936ZM34.9967 11.6156C35.6717 11.6156 36.2154 11.9063 36.3561 12.3375C36.3936 12.4406 36.4217 12.5438 36.4404 12.6375H33.7123L33.1592 11.6063C33.7779 11.6156 34.5186 11.6156 34.9967 11.6156ZM9.58106 8.83127C9.59043 8.8219 9.59043 8.8219 9.59981 8.80315C10.0592 7.85627 11.0623 6.28127 12.6279 6.28127H27.1498C28.2467 6.28127 29.1467 7.05002 30.1498 8.85002L32.4748 13.125H30.1967C29.8873 11.1188 28.0123 9.73127 26.0061 10.0406C24.4123 10.2844 23.1654 11.5313 22.9217 13.125H7.16231L9.58106 8.83127ZM3.29043 12.3375C3.43106 11.9063 3.98418 11.6156 4.64981 11.6156C5.12793 11.6156 5.86856 11.6156 6.48731 11.6156L5.91543 12.6281H3.20606C3.23418 12.5438 3.26231 12.4406 3.29043 12.3375Z" fill="#BBA44F"/>
<path d="M26.9718 18.2156C26.6249 17.1938 25.4999 16.4062 24.4218 16.4062H15.2062C14.1187 16.4062 13.003 17.2031 12.6749 18.2344L12.2155 19.6406C12.1499 19.8469 12.1874 20.0719 12.3093 20.25C12.4312 20.4281 12.628 20.5313 12.8437 20.5406H26.8499C27.0655 20.5313 27.2624 20.4187 27.3843 20.25C27.5062 20.0812 27.5437 19.8563 27.4687 19.65L26.9718 18.2156ZM13.7249 19.2188L13.903 18.6562C14.0624 18.1688 14.6812 17.7188 15.1874 17.7188H24.403C24.9187 17.7188 25.5468 18.1688 25.7062 18.6562L25.8937 19.2188H13.7249Z" fill="#BBA44F"/>
<path d="M25.2375 21.6562H14.3438C13.9781 21.6562 13.6875 21.9469 13.6875 22.3125C13.6875 22.6781 13.9781 22.9688 14.3438 22.9688H25.2281C25.5938 22.9688 25.8844 22.6781 25.8844 22.3125C25.8844 21.9469 25.5938 21.6562 25.2375 21.6562Z" fill="#BBA44F"/>
<path d="M31.125 27.75H31.8187C32.1844 27.75 32.475 27.4594 32.475 27.0937C32.475 26.7281 32.1844 26.4375 31.8187 26.4375H31.7812V24.6562H33.6375C33.7219 24.8437 33.9469 25.0781 34.2375 25.0781C34.6031 25.0687 34.8844 24.7594 34.875 24.4031V23.9531C34.8938 23.625 34.6406 23.3531 34.3125 23.3344C34.2938 23.3344 34.275 23.3344 34.2562 23.3344H31.125C30.7594 23.3344 30.4688 23.5875 30.4688 23.9531V27.0844C30.4688 27.45 30.7688 27.75 31.125 27.75Z" fill="#BBA44F"/>
<path d="M31.125 33.75H34.2188C34.5844 33.75 34.875 33.4594 34.875 33.0938V30C34.875 29.6344 34.5844 29.3438 34.2188 29.3438H31.125C30.7594 29.3438 30.4688 29.6344 30.4688 30V33.0938C30.4688 33.4594 30.7594 33.75 31.125 33.75ZM31.7812 30.6562H33.5625V32.5312H31.7812V30.6562Z" fill="#BBA44F"/>
<path d="M31.8283 38.625H31.7815V36.75H33.6002C33.5908 37.1063 33.8721 37.3969 34.2283 37.4062H34.2377C34.5846 37.4156 34.8658 37.1437 34.8752 36.7969C34.8752 36.7875 34.8752 36.7781 34.8752 36.7688V36.1312C34.8752 35.7656 34.6221 35.4375 34.2565 35.4375H31.1252C30.7596 35.4563 30.4596 35.7562 30.469 36.1312V39.2625C30.469 39.6281 30.7596 39.9281 31.1252 39.9375H31.819C32.1846 39.9375 32.4752 39.6469 32.4752 39.2812C32.4752 38.9156 32.1846 38.625 31.8283 38.625Z" fill="#BBA44F"/>
<path d="M35.7939 24.1125L33.8439 26.0625L33.2439 25.4625C32.9908 25.2094 32.5689 25.2094 32.3158 25.4625C32.0627 25.7157 32.0627 26.1375 32.3158 26.3907L33.3752 27.45C33.6283 27.7032 34.0502 27.7032 34.3033 27.45L36.7221 25.0313C36.9752 24.7782 36.9752 24.3563 36.7221 24.1032C36.4689 23.8594 36.0564 23.8594 35.7939 24.1125Z" fill="#BBA44F"/>
<path d="M35.7939 36.3843L33.8439 38.3343L33.2439 37.7343C32.9908 37.4812 32.5689 37.4812 32.3158 37.7343C32.0627 37.9875 32.0627 38.4093 32.3158 38.6625L33.3752 39.7218C33.6283 39.975 34.0502 39.975 34.3033 39.7218L36.7221 37.3031C36.9752 37.05 36.9752 36.6281 36.7221 36.375C36.4689 36.1218 36.0564 36.1218 35.7939 36.3843Z" fill="#BBA44F"/>
<path d="M37.7812 25.5C37.7812 25.8656 38.0719 26.1562 38.4375 26.1562H42.6094C42.975 26.1562 43.2656 25.8656 43.2656 25.5C43.2656 25.1344 42.975 24.8438 42.6094 24.8438H38.4375C38.0719 24.8438 37.7812 25.1344 37.7812 25.5Z" fill="#BBA44F"/>
<path d="M42.6094 30.9375H38.4375C38.0719 30.9375 37.7812 31.2281 37.7812 31.5938C37.7812 31.9594 38.0719 32.25 38.4375 32.25H42.6094C42.975 32.25 43.2656 31.9594 43.2656 31.5938C43.2656 31.2281 42.9656 30.9375 42.6094 30.9375Z" fill="#BBA44F"/>
<path d="M42.6094 37.0312H38.4375C38.0719 37.0312 37.7812 37.3219 37.7812 37.6875C37.7812 38.0531 38.0719 38.3438 38.4375 38.3438H42.6094C42.975 38.3438 43.2656 38.0531 43.2656 37.6875C43.2656 37.3219 42.9656 37.0312 42.6094 37.0312Z" fill="#BBA44F"/>
</svg>
