<svg width="48" height="48" viewBox="0 0 48 48" fill="none" xmlns="http://www.w3.org/2000/svg">
<g clip-path="url(#clip0_1_11258)">
<path d="M5.25 38.25H6.75V39.75H5.25V38.25Z" fill="#BBA44F"/>
<path d="M41.25 38.25H42.75V39.75H41.25V38.25Z" fill="#BBA44F"/>
<path d="M31.5 32.25H16.5C16.0875 32.25 15.75 32.5875 15.75 33V36C15.75 36.4125 16.0875 36.75 16.5 36.75H31.5C31.9125 36.75 32.25 36.4125 32.25 36V33C32.25 32.5875 31.9125 32.25 31.5 32.25ZM30.75 35.25H17.25V33.75H30.75V35.25Z" fill="#BBA44F"/>
<path d="M47.25 27V24C47.25 23.5875 46.9125 23.25 46.5 23.25H42C41.7188 23.25 41.4562 23.4094 41.325 23.6625L40.8 24.7125L37.1906 18.3937C36.2625 16.7625 34.5094 15.75 32.6344 15.75H15.3656C13.4906 15.75 11.7375 16.7625 10.8094 18.3937L7.2 24.7125L6.675 23.6625C6.54375 23.4094 6.29063 23.25 6 23.25H1.5C1.0875 23.25 0.75 23.5875 0.75 24V27C0.75 27.4125 1.0875 27.75 1.5 27.75H4.725L1.0125 30.9281C0.84375 31.0687 0.75 31.2844 0.75 31.5V37.5C0.75 38.925 1.32188 40.2188 2.25 41.1656V45C2.25 46.2375 3.2625 47.25 4.5 47.25H10.5C11.7375 47.25 12.75 46.2375 12.75 45V42.75H35.25V45C35.25 46.2375 36.2625 47.25 37.5 47.25H43.5C44.7375 47.25 45.75 46.2375 45.75 45V41.1656C46.6781 40.2188 47.25 38.925 47.25 37.5V31.5C47.25 31.2844 47.1562 31.0687 46.9875 30.9281L43.275 27.75H46.5C46.9125 27.75 47.25 27.4125 47.25 27ZM12.1031 19.1437C12.7688 17.9812 14.0156 17.25 15.3563 17.25H32.6344C33.975 17.25 35.2219 17.9719 35.8875 19.1437L39.9469 26.25H38.6625L35.25 20.5687C34.575 19.4437 33.3469 18.75 32.0344 18.75H15.9469C14.6344 18.75 13.4062 19.4437 12.7313 20.5687L9.32812 26.25H8.04375L12.1031 19.1437ZM36.9281 26.25H11.0719L14.0156 21.3469C14.4187 20.6719 15.1594 20.25 15.9469 20.25H32.0531C32.8406 20.25 33.5812 20.6719 33.9844 21.3469L36.9281 26.25ZM2.25 24.75H5.54062L6.29062 26.25H2.25V24.75ZM8.05313 32.25L12.075 34.5469L11.025 35.25H2.25V32.25H8.05313ZM11.25 45C11.25 45.4125 10.9125 45.75 10.5 45.75H4.5C4.0875 45.75 3.75 45.4125 3.75 45V42.2344C4.43438 42.5625 5.19375 42.75 6 42.75H11.25V45ZM15.3094 41.25L16.8094 39.75H31.1906L32.6906 41.25H15.3094ZM43.5 45.75H37.5C37.0875 45.75 36.75 45.4125 36.75 45V42.75H42C42.8063 42.75 43.5656 42.5625 44.25 42.2344V45C44.25 45.4125 43.9125 45.75 43.5 45.75ZM45.75 35.25H36.975L35.925 34.5469L39.9469 32.25H45.75V35.25ZM44.475 30.75H39.75C39.6188 30.75 39.4875 30.7875 39.375 30.8531L34.125 33.8531C33.9 33.9844 33.7594 34.2187 33.75 34.4812C33.7406 34.7437 33.8625 34.9875 34.0875 35.1281L36.3375 36.6281C36.4594 36.7125 36.6094 36.75 36.75 36.75H45.75V37.5C45.75 39.5719 44.0719 41.25 42 41.25H34.8094L32.025 38.4656C31.8844 38.325 31.6969 38.25 31.4906 38.25H16.5C16.3031 38.25 16.1063 38.325 15.9656 38.4656L13.1906 41.25H6C3.92812 41.25 2.25 39.5719 2.25 37.5V36.75H11.25C11.4 36.75 11.5406 36.7031 11.6625 36.6281L13.9125 35.1281C14.1281 34.9875 14.2594 34.7344 14.25 34.4812C14.2406 34.2187 14.1 33.9844 13.875 33.8531L8.625 30.8531C8.5125 30.7875 8.38125 30.75 8.25 30.75H3.525L7.03125 27.75H7.5H40.5H40.9688L44.475 30.75ZM45.75 26.25H41.7094L42.4594 24.75H45.75V26.25Z" fill="#BBA44F"/>
<path d="M17.25 14.25H30.75C31.9875 14.25 33 13.2375 33 12C33 10.7625 31.9875 9.75 30.75 9.75H26.25V6.75H27.75V7.5C27.75 7.9125 28.0875 8.25 28.5 8.25H31.5C31.9125 8.25 32.25 7.9125 32.25 7.5V6.75H39V9C39 9.4125 39.3375 9.75 39.75 9.75H42.75C43.1625 9.75 43.5 9.4125 43.5 9V3C43.5 2.5875 43.1625 2.25 42.75 2.25H39.75H32.25V1.5C32.25 1.0875 31.9125 0.75 31.5 0.75H28.5C28.0875 0.75 27.75 1.0875 27.75 1.5V2.25H24C21.9281 2.25 20.25 3.92812 20.25 6C20.25 6.4125 20.5875 6.75 21 6.75H21.75V9.75H17.25C16.0125 9.75 15 10.7625 15 12C15 13.2375 16.0125 14.25 17.25 14.25ZM42 8.25H40.5V6V3.75H42V8.25ZM39 3.75V5.25H32.25V3.75H39ZM29.25 2.25H30.75V6.75H29.25V6V3V2.25ZM24 3.75H27.75V5.25H21.8812C22.1906 4.37812 23.025 3.75 24 3.75ZM23.25 6.75H24.75V9.75H23.25V6.75ZM17.25 11.25H30.75C31.1625 11.25 31.5 11.5875 31.5 12C31.5 12.4125 31.1625 12.75 30.75 12.75H17.25C16.8375 12.75 16.5 12.4125 16.5 12C16.5 11.5875 16.8375 11.25 17.25 11.25Z" fill="#BBA44F"/>
<path d="M34.5 11.25H39V12.75H34.5V11.25Z" fill="#BBA44F"/>
<path d="M34.2563 14.9438L34.7345 13.5188L39.2345 15.0188L38.7563 16.4438L34.2563 14.9438Z" fill="#BBA44F"/>
<path d="M9 11.25H13.5V12.75H9V11.25Z" fill="#BBA44F"/>
<path d="M8.76562 15.0469L13.2656 13.5469L13.7438 14.9719L9.24375 16.4719L8.76562 15.0469Z" fill="#BBA44F"/>
</g>
<defs>
<clipPath id="clip0_1_11258">
<rect width="48" height="48" fill="white"/>
</clipPath>
</defs>
</svg>
