<svg width="48" height="48" viewBox="0 0 48 48" fill="none" xmlns="http://www.w3.org/2000/svg">
<g clip-path="url(#clip0_1_11155)">
<path d="M12 27.75H19.5C19.9125 27.75 20.25 27.4125 20.25 27V26.25H22.3219L25.1625 27.675C25.2656 27.7313 25.3781 27.75 25.5 27.75H34.5C35.7375 27.75 36.75 26.7375 36.75 25.5C36.75 24.9188 36.525 24.4031 36.1687 24C36.525 23.5969 36.75 23.0812 36.75 22.5C36.75 21.9187 36.525 21.4031 36.1687 21C36.525 20.5969 36.75 20.0813 36.75 19.5C36.75 18.9187 36.525 18.4031 36.1687 18C36.525 17.5969 36.75 17.0813 36.75 16.5C36.75 15.2625 35.7375 14.25 34.5 14.25H29.25V9.75C29.25 8.1 27.9 6.75 26.25 6.75H25.5C25.0875 6.75 24.75 7.0875 24.75 7.5V11.6906L22.1906 14.25H20.25V13.5C20.25 13.0875 19.9125 12.75 19.5 12.75H12C11.5875 12.75 11.25 13.0875 11.25 13.5V27C11.25 27.4125 11.5875 27.75 12 27.75ZM22.5 15.75C22.6969 15.75 22.8937 15.675 23.0344 15.5344L26.0344 12.5344C26.175 12.3937 26.25 12.2063 26.25 12V8.25C27.075 8.25 27.75 8.925 27.75 9.75V15C27.75 15.4125 28.0875 15.75 28.5 15.75H34.5C34.9125 15.75 35.25 16.0875 35.25 16.5C35.25 16.9125 34.9125 17.25 34.5 17.25H29.25V18.75H34.5C34.9125 18.75 35.25 19.0875 35.25 19.5C35.25 19.9125 34.9125 20.25 34.5 20.25H29.25V21.75H34.5C34.9125 21.75 35.25 22.0875 35.25 22.5C35.25 22.9125 34.9125 23.25 34.5 23.25H29.25V24.75H34.5C34.9125 24.75 35.25 25.0875 35.25 25.5C35.25 25.9125 34.9125 26.25 34.5 26.25H25.6781L22.8375 24.825C22.7344 24.7687 22.6219 24.75 22.5 24.75H20.25V15.75H22.5ZM12.75 14.25H18.75V26.25H12.75V14.25Z" fill="url(#paint0_linear_1_11155)"/>
<path d="M38.25 34.5C39.075 34.5 39.75 35.175 39.75 36H41.25C41.25 34.6031 40.2937 33.4406 39 33.1031V31.5H37.5V33.1031C36.2062 33.4406 35.25 34.6031 35.25 36C35.25 37.65 36.6 39 38.25 39C39.075 39 39.75 39.675 39.75 40.5C39.75 41.325 39.075 42 38.25 42C37.425 42 36.75 41.325 36.75 40.5H35.25C35.25 41.8969 36.2062 43.0594 37.5 43.3969V45H39V43.3969C40.2937 43.0594 41.25 41.8969 41.25 40.5C41.25 38.85 39.9 37.5 38.25 37.5C37.425 37.5 36.75 36.825 36.75 36C36.75 35.175 37.425 34.5 38.25 34.5Z" fill="url(#paint1_linear_1_11155)"/>
<path d="M38.25 29.25C35.4469 29.25 32.8125 30.5719 31.1156 32.7656C29.4656 30.6375 26.8969 29.25 24 29.25C21.1031 29.25 18.525 30.6281 16.8844 32.7656C15.1875 30.5719 12.5531 29.25 9.75 29.25C4.79062 29.25 0.75 33.2906 0.75 38.25C0.75 43.2094 4.79062 47.25 9.75 47.25C12.5531 47.25 15.1875 45.9281 16.8844 43.7344C18.5344 45.8719 21.1031 47.25 24 47.25C26.8969 47.25 29.475 45.8625 31.125 43.7344C32.8125 45.9281 35.4375 47.25 38.25 47.25C43.2094 47.25 47.25 43.2094 47.25 38.25C47.25 33.2906 43.2094 29.25 38.25 29.25ZM9.75 45.75C5.61563 45.75 2.25 42.3844 2.25 38.25C2.25 34.1156 5.61563 30.75 9.75 30.75C12.2719 30.75 14.625 32.0438 16.0031 34.1344C15.3656 35.3719 15 36.7688 15 38.25C15 39.7312 15.3656 41.1281 16.0031 42.3656C14.625 44.4562 12.2719 45.75 9.75 45.75ZM24 45.75C19.8656 45.75 26.5981 49.1344 26.5981 45C26.5981 40.8656 19.8656 46.5 24 46.5C28.1344 46.5 20 39.6 20 43.7344C20 47.8687 28.1344 45.75 24 45.75ZM38.25 45.75C35.7188 45.75 33.375 44.4562 31.9969 42.3656C32.6344 41.1281 33 39.7312 33 38.25C33 36.7688 32.6344 35.3719 31.9969 34.1344C33.375 32.0438 35.7281 30.75 38.25 30.75C42.3844 30.75 45.75 34.1156 45.75 38.25C45.75 42.3844 42.3844 45.75 38.25 45.75Z" fill="url(#paint2_linear_1_11155)"/>
<path d="M9.75 34.5C10.575 34.5 11.25 35.175 11.25 36H12.75C12.75 34.6031 11.7937 33.4406 10.5 33.1031V31.5H9V33.1031C7.70625 33.4406 6.75 34.6031 6.75 36C6.75 37.65 8.1 39 9.75 39C10.575 39 11.25 39.675 11.25 40.5C11.25 41.325 10.575 42 9.75 42C8.925 42 8.25 41.325 8.25 40.5H6.75C6.75 41.8969 7.70625 43.0594 9 43.3969V45H10.5V43.3969C11.7937 43.0594 12.75 41.8969 12.75 40.5C12.75 38.85 11.4 37.5 9.75 37.5C8.925 37.5 8.25 36.825 8.25 36C8.25 35.175 8.925 34.5 9.75 34.5Z" fill="url(#paint3_linear_1_11155)"/>
<path d="M25.5 0.75H27V4.5H25.5V0.75Z" fill="url(#paint4_linear_1_11155)"/>
<path d="M28.7158 4.7251L31.7158 1.7251L32.7752 2.78447L29.7752 5.78447L28.7158 4.7251Z" fill="url(#paint5_linear_1_11155)"/>
<path d="M19.7158 2.78447L20.7752 1.7251L23.7752 4.7251L22.7158 5.78447L19.7158 2.78447Z" fill="url(#paint6_linear_1_11155)"/>
<path d="M24 34.5C24.825 34.5 25.5 35.175 25.5 36H27C27 34.6031 26.0437 33.4406 24.75 33.1031V31.5H23.25V33.1031C21.9562 33.4406 21 34.6031 21 36C21 37.65 22.35 39 24 39C24.825 39 25.5 39.675 25.5 40.5C25.5 41.325 24.825 42 24 42C23.175 42 22.5 41.325 22.5 40.5H21C21 41.8969 21.9562 43.0594 23.25 43.3969V45H24.75V43.3969C26.0437 43.0594 27 41.8969 27 40.5C27 38.85 25.65 37.5 24 37.5C23.175 37.5 22.5 36.825 22.5 36C22.5 35.175 23.175 34.5 24 34.5Z" fill="white"/>
</g>
<defs>
<linearGradient id="paint0_linear_1_11155" x1="41.4551" y1="11.8031" x2="4.84432" y2="15.7333" gradientUnits="userSpaceOnUse">
<stop stop-color="#A49C4C"/>
<stop offset="0.38056" stop-color="#CAA962"/>
<stop offset="0.803179" stop-color="#BF953F"/>
<stop offset="1" stop-color="#988001"/>
</linearGradient>
<linearGradient id="paint1_linear_1_11155" x1="42.3571" y1="34.7484" x2="33.6569" y2="35.0903" gradientUnits="userSpaceOnUse">
<stop stop-color="#A49C4C"/>
<stop offset="0.38056" stop-color="#CAA962"/>
<stop offset="0.803179" stop-color="#BF953F"/>
<stop offset="1" stop-color="#988001"/>
</linearGradient>
<linearGradient id="paint2_linear_1_11155" x1="55.8298" y1="33.5812" x2="-8.35263" y2="48.2394" gradientUnits="userSpaceOnUse">
<stop stop-color="#A49C4C"/>
<stop offset="0.38056" stop-color="#CAA962"/>
<stop offset="0.803179" stop-color="#BF953F"/>
<stop offset="1" stop-color="#988001"/>
</linearGradient>
<linearGradient id="paint3_linear_1_11155" x1="13.8571" y1="34.7484" x2="5.15694" y2="35.0903" gradientUnits="userSpaceOnUse">
<stop stop-color="#A49C4C"/>
<stop offset="0.38056" stop-color="#CAA962"/>
<stop offset="0.803179" stop-color="#BF953F"/>
<stop offset="1" stop-color="#988001"/>
</linearGradient>
<linearGradient id="paint4_linear_1_11155" x1="27.2768" y1="1.65234" x2="25.1011" y2="1.72928" gradientUnits="userSpaceOnUse">
<stop stop-color="#A49C4C"/>
<stop offset="0.38056" stop-color="#CAA962"/>
<stop offset="0.803179" stop-color="#BF953F"/>
<stop offset="1" stop-color="#988001"/>
</linearGradient>
<linearGradient id="paint5_linear_1_11155" x1="33.5242" y1="2.70188" x2="27.6746" y2="3.21902" gradientUnits="userSpaceOnUse">
<stop stop-color="#A49C4C"/>
<stop offset="0.38056" stop-color="#CAA962"/>
<stop offset="0.803179" stop-color="#BF953F"/>
<stop offset="1" stop-color="#988001"/>
</linearGradient>
<linearGradient id="paint6_linear_1_11155" x1="24.5242" y1="2.70188" x2="18.6746" y2="3.21902" gradientUnits="userSpaceOnUse">
<stop stop-color="#A49C4C"/>
<stop offset="0.38056" stop-color="#CAA962"/>
<stop offset="0.803179" stop-color="#BF953F"/>
<stop offset="1" stop-color="#988001"/>
</linearGradient>
<clipPath id="clip0_1_11155">
<rect width="48" height="48" fill="white"/>
</clipPath>
</defs>
</svg>
