<svg width="48" height="48" viewBox="0 0 48 48" fill="none" xmlns="http://www.w3.org/2000/svg">
<g clip-path="url(#clip0_1_11271)">
<path d="M44.1469 3.49683H38.0156C37.6313 3.49683 37.3125 3.81558 37.3125 4.19995C37.3125 4.58433 37.6313 4.90308 38.0156 4.90308H44.1469C44.5312 4.90308 44.85 4.58433 44.85 4.19995C44.85 3.81558 44.5406 3.49683 44.1469 3.49683Z" fill="#BBA44F"/>
<path d="M34.5283 4.90308H35.2783C35.6627 4.90308 35.9814 4.58433 35.9814 4.19995C35.9814 3.81558 35.6627 3.49683 35.2783 3.49683H34.5283C34.1439 3.49683 33.8252 3.81558 33.8252 4.19995C33.8252 4.58433 34.1439 4.90308 34.5283 4.90308Z" fill="#BBA44F"/>
<path d="M34.5283 8.20312H44.1471C44.5314 8.20312 44.8502 7.88437 44.8502 7.5C44.8502 7.11563 44.5314 6.79688 44.1471 6.79688H34.5283C34.1439 6.79688 33.8252 7.11563 33.8252 7.5C33.8252 7.88437 34.1439 8.20312 34.5283 8.20312Z" fill="#BBA44F"/>
<path d="M37.0687 41.6344C37.0687 38.8219 36.1313 36.0656 34.425 33.8437L34.5563 31.4437C34.6406 29.8125 33.3469 28.425 31.6969 28.425H24C23.6437 28.1719 23.4281 27.7687 23.4281 27.3281V25.3687C24.6187 24.6 25.4625 23.7187 26.0719 22.6687H27.4313C29.0063 22.6687 30.2906 21.3844 30.2906 19.8094V14.5594C30.2906 13.6781 29.775 12.8906 29.0156 12.525V8.8406C29.0156 7.16248 27.6469 5.79373 25.9688 5.79373H25.8938C25.8469 5.79373 25.8094 5.75623 25.8094 5.70935C25.8094 4.03123 24.4406 2.66248 22.7625 2.66248H15.3187C11.625 2.66248 8.61563 5.67185 8.61563 9.3656V12.5156C7.84688 12.8906 7.34063 13.6687 7.34063 14.55V17.2219C7.34063 18.4687 8.35312 19.4906 9.60938 19.4906H10.5187C10.7531 21.4781 11.6812 23.2969 13.1437 24.5531C13.4906 24.8531 13.8375 25.1156 14.2031 25.35V27.3187C14.2031 27.7594 13.9875 28.1625 13.6312 28.4156H5.93437C4.29375 28.4156 2.99062 29.7844 3.075 31.4344L3.20625 33.8344C1.5 36.0656 0.5625 38.8219 0.5625 41.6344V44.2781C0.215625 44.6719 0 45.1875 0 45.75C0 46.9687 0.99375 47.9625 2.2125 47.9625H35.4187C36.6375 47.9625 37.6312 46.9687 37.6312 45.75C37.6312 45.1875 37.4156 44.6719 37.0687 44.2781V41.6344ZM35.6625 41.6344V43.5562C35.5781 43.5469 35.5031 43.5469 35.4187 43.5469H33.9L34.2937 36.2344C35.1844 37.8844 35.6625 39.7406 35.6625 41.6344ZM28.8187 14.2219C28.8656 14.325 28.8938 14.4469 28.8938 14.5687V17.2406C28.8938 17.7187 28.5094 18.1031 28.0312 18.1031H27.1969V15.45L27.6281 15.3C28.1625 15.1031 28.5844 14.7094 28.8187 14.2219ZM24.1219 22.3687H22.3594C22.0781 22.3687 21.8438 22.1344 21.8438 21.8531C21.8438 21.5719 22.0781 21.3375 22.3594 21.3375H24.1219C24.4031 21.3375 24.6375 21.5719 24.6375 21.8531C24.6375 22.1344 24.4125 22.3687 24.1219 22.3687ZM27.4406 21.2625H26.7281C26.925 20.7 27.0656 20.1094 27.1312 19.5H28.0219C28.3219 19.5 28.6125 19.4437 28.8844 19.3312V19.8187C28.8938 20.6156 28.2375 21.2625 27.4406 21.2625ZM10.0219 9.3656C10.0219 6.4406 12.3937 4.06873 15.3187 4.06873H22.7625C23.6625 4.06873 24.4031 4.79998 24.4031 5.70935C24.4031 6.53435 25.0688 7.19998 25.8938 7.19998H25.9688C26.8687 7.19998 27.6094 7.93123 27.6094 8.8406V13.3406C27.6094 13.6219 27.4313 13.875 27.1594 13.9687L25.6781 14.4844C25.6219 14.5031 25.5563 14.4656 25.5563 14.4V11.6062C25.5656 9.56248 23.6531 7.7906 20.9813 8.64373C19.6313 9.07498 17.9719 9.07498 16.6312 8.64373C13.9875 7.7906 12.0469 9.54373 12.0563 11.5969V14.3906C12.0563 14.4562 11.9906 14.4937 11.9344 14.475L10.4531 13.9594C10.1906 13.8656 10.0031 13.6125 10.0031 13.3312L10.0219 9.3656ZM8.74688 17.2312V14.5594C8.74688 14.4375 8.775 14.325 8.82187 14.2125C9.05625 14.7 9.47813 15.0937 10.0125 15.2812L10.4438 15.4312V18.0937H9.60938C9.13125 18.0937 8.74688 17.7094 8.74688 17.2312ZM11.8594 18.6844C11.8406 17.7562 11.85 16.7812 11.85 15.8812C11.8969 15.8812 11.9344 15.8906 11.9813 15.8906C12.8156 15.8906 13.4813 15.2156 13.4813 14.3906V11.5969C13.4719 10.4531 14.5031 9.43123 16.2188 9.98435C17.85 10.5094 19.8094 10.5094 21.4313 9.98435C23.0719 9.45935 24.1781 10.3875 24.1687 11.5969V14.3906C24.1687 15.2625 24.9094 15.9562 25.8 15.8812V18.7406C25.7813 19.35 25.6781 19.9406 25.5094 20.5031C25.1625 20.1469 24.675 19.9219 24.1312 19.9219H22.3688C21.3094 19.9219 20.4469 20.7844 20.4469 21.8437C20.4469 22.9031 21.3094 23.7656 22.3688 23.7656H23.2594C21.9563 24.7781 20.4844 25.3125 18.8625 25.3312C15.3094 25.3125 11.9625 22.6875 11.8594 18.6844ZM15.6094 27.3281V26.1C16.6219 26.5219 17.7094 26.7375 18.8531 26.7469H18.8625H18.8719C19.9875 26.7281 21.0375 26.5125 22.0312 26.1094V27.3375C22.0312 27.7219 22.1156 28.0969 22.2562 28.4344H15.375C15.525 28.0875 15.6094 27.7125 15.6094 27.3281ZM3.3375 36.225L3.45 38.2687C3.46875 38.6531 3.80625 38.9531 4.19063 38.9344C4.575 38.9156 4.875 38.5781 4.85625 38.1937L4.48125 31.3594C4.43437 30.525 5.1 29.8219 5.93437 29.8219H31.6969C32.5312 29.8219 33.1969 30.5156 33.15 31.3594L32.4938 43.5281H21.4688C21.6 42.7219 21.9656 41.9719 22.5187 41.3531L22.5375 41.3344C24.6656 38.9531 24.0281 35.2312 21.2812 33.6656C20.5781 33.2625 19.6781 33.7687 19.6781 34.5937V37.7812C19.6781 37.9312 19.5563 38.0437 19.4156 38.0437H18.225C18.075 38.0437 17.9625 37.9219 17.9625 37.7812V34.5937C17.9625 33.7594 17.0719 33.2625 16.3594 33.6656C13.5938 35.2406 12.975 38.9625 15.0938 41.3437L15.1125 41.3625C15.6656 41.9812 16.0312 42.7406 16.1625 43.5375H5.14688L5.03438 41.4562C5.01562 41.0719 4.67812 40.7719 4.29375 40.7906C3.90937 40.8094 3.60938 41.1469 3.62813 41.5312L3.74063 43.5375H2.2125C2.12812 43.5375 2.04375 43.5469 1.96875 43.5469V41.625C1.96875 39.7406 2.44687 37.8844 3.3375 36.225ZM17.5875 43.5375C17.4469 42.3844 16.95 41.2969 16.1625 40.4156L16.1437 40.3969C14.7844 38.8781 14.9625 36.525 16.5469 35.2312V37.7906C16.5469 38.7094 17.2969 39.4594 18.2156 39.4594H19.4062C20.325 39.4594 21.075 38.7094 21.075 37.7906V35.2312C22.65 36.5156 22.8469 38.8687 21.4781 40.3969L21.4594 40.4156C20.6719 41.2969 20.175 42.3844 20.0344 43.5375H17.5875ZM35.4187 46.5656H2.2125C1.7625 46.5656 1.40625 46.2 1.40625 45.7594C1.40625 45.3187 1.77188 44.9531 2.2125 44.9531H35.4187C35.8687 44.9531 36.225 45.3187 36.225 45.7594C36.225 46.2 35.8687 46.5656 35.4187 46.5656Z" fill="#BBA44F"/>
<path d="M47.2967 4.83745C47.6811 4.83745 47.9998 4.5187 47.9998 4.13433V2.77495C47.9998 1.2562 46.7717 0.0280762 45.2529 0.0280762H33.4217C31.9029 0.0280762 30.6748 1.2562 30.6748 2.77495V8.69058C30.6748 10.2093 31.9029 11.4375 33.4217 11.4375C33.6936 11.4375 33.9092 11.6531 33.9092 11.925V15.5812C33.9092 16.1062 34.2467 16.5562 34.7623 16.6968C35.2779 16.8375 35.7936 16.6218 36.0654 16.1718L38.7654 11.6625C38.8498 11.5125 39.0186 11.4281 39.1873 11.4281H45.2436C46.7623 11.4281 47.9904 10.2 47.9904 8.6812V7.42495C47.9904 7.04058 47.6717 6.72183 47.2873 6.72183C46.9029 6.72183 46.5842 7.04058 46.5842 7.42495V8.69058C46.5842 9.4312 45.9842 10.0312 45.2436 10.0312H39.1873C38.5217 10.0312 37.9029 10.3875 37.5561 10.95L35.3061 14.7V11.925C35.3061 10.875 34.4529 10.0312 33.4123 10.0312C32.6717 10.0312 32.0717 9.4312 32.0717 8.69058V2.77495C32.0717 2.03433 32.6717 1.43433 33.4123 1.43433H45.2342C45.9748 1.43433 46.5748 2.03433 46.5748 2.77495V4.13433C46.5936 4.52808 46.9123 4.83745 47.2967 4.83745Z" fill="#BBA44F"/>
</g>
<defs>
<clipPath id="clip0_1_11271">
<rect width="48" height="48" fill="white"/>
</clipPath>
</defs>
</svg>
