<svg width="48" height="48" viewBox="0 0 48 48" fill="none" xmlns="http://www.w3.org/2000/svg">
<g clip-path="url(#clip0_1_11141)">
<path d="M34.9031 48.0001C34.5656 48.0001 34.2187 47.9626 33.8812 47.8688L2.9625 39.5907C0.843748 39.0001 -0.421877 36.8063 0.131248 34.6876L4.03125 20.1376C4.17187 19.6032 4.725 19.2938 5.25937 19.4251C5.79375 19.5657 6.1125 20.1188 5.97187 20.6532L2.0625 35.1938C1.78125 36.2532 2.41875 37.3595 3.47812 37.6501L34.3969 45.9376C35.4562 46.2188 36.5531 45.5813 36.8344 44.5313L38.4 38.747C38.5406 38.2126 39.0938 37.8938 39.6281 38.0438C40.1625 38.1845 40.4719 38.7376 40.3312 39.272L38.775 45.0563C38.2969 46.8188 36.675 48.0001 34.9031 48.0001Z" fill="url(#paint0_linear_1_11141)"/>
<path d="M43.9971 35.9999H12.0002C9.79707 35.9999 7.99707 34.2093 7.99707 31.9968V7.99678C7.99707 5.79365 9.7877 3.99365 12.0002 3.99365H43.9971C46.2002 3.99365 48.0002 5.78428 48.0002 7.99678V31.9968C48.0002 34.2093 46.2096 35.9999 43.9971 35.9999ZM12.0002 5.9999C10.8939 5.9999 10.0033 6.8999 10.0033 7.99678V31.9968C10.0033 33.103 10.9033 33.9937 12.0002 33.9937H43.9971C45.1033 33.9937 45.9939 33.0937 45.9939 31.9968V7.99678C45.9939 6.89053 45.0939 5.9999 43.9971 5.9999L28.0002 10.4999L12.0002 5.9999Z" fill="url(#paint1_linear_1_11141)"/>
<path d="M18.0002 17.9999C15.7971 17.9999 13.9971 16.2093 13.9971 13.9968C13.9971 11.7843 15.7877 9.99365 18.0002 9.99365C20.2127 9.99365 22.0033 11.7843 22.0033 13.9968C22.0033 16.2093 20.2033 17.9999 18.0002 17.9999ZM18.0002 11.9999C16.8939 11.9999 16.0033 12.8999 16.0033 13.9968C16.0033 15.0937 16.9033 15.9937 18.0002 15.9937C19.1064 15.9937 19.9971 15.0937 19.9971 13.9968C19.9971 12.8999 19.1064 11.9999 18.0002 11.9999Z" fill="white"/>
<path d="M10.9102 32C10.6816 32 10.4445 31.915 10.2667 31.7366C9.9111 31.3798 9.9111 30.8106 10.2667 30.4538L18.8011 21.8901C19.8256 20.8621 21.6121 20.8621 22.6281 21.8901L25.1681 24.4388L32.1955 15.977C32.7035 15.3653 33.457 15.0085 34.2613 15H34.2783C35.0657 15 35.8192 15.3483 36.3357 15.9515L45.7845 27.013C46.1062 27.3953 46.0639 27.9645 45.6829 28.2874C45.3019 28.6102 44.7346 28.5677 44.4129 28.1854L34.9725 17.1239C34.7947 16.92 34.5577 16.8096 34.2867 16.8096C34.1005 16.7926 33.7703 16.92 33.5925 17.1324L25.9301 26.3588C25.7692 26.5542 25.5322 26.6732 25.2782 26.6817C25.0242 26.6987 24.7786 26.5967 24.6008 26.4183L21.3581 23.1644C21.0194 22.8246 20.4183 22.8246 20.0796 23.1644L11.5452 31.7366C11.3758 31.9065 11.1388 32 10.9102 32Z" fill="white"/>
</g>
<defs>
<linearGradient id="paint0_linear_1_11141" x1="47.8127" y1="26.2781" x2="-9.90761" y2="33.4786" gradientUnits="userSpaceOnUse">
<stop stop-color="#A49C4C"/>
<stop offset="0.38056" stop-color="#CAA962"/>
<stop offset="0.803179" stop-color="#BF953F"/>
<stop offset="1" stop-color="#988001"/>
</linearGradient>
<linearGradient id="paint1_linear_1_11141" x1="55.3813" y1="11.6952" x2="-2.01298" y2="18.0369" gradientUnits="userSpaceOnUse">
<stop stop-color="#A49C4C"/>
<stop offset="0.38056" stop-color="#CAA962"/>
<stop offset="0.803179" stop-color="#BF953F"/>
<stop offset="1" stop-color="#988001"/>
</linearGradient>
<clipPath id="clip0_1_11141">
<rect width="48" height="48" fill="white"/>
</clipPath>
</defs>
</svg>
