<svg width="48" height="48" viewBox="0 0 48 48" fill="none" xmlns="http://www.w3.org/2000/svg">
<g clip-path="url(#clip0_1_11221)">
<path d="M43.0312 19.0781C43.0312 18.1687 42.7406 17.3062 42.1875 16.5844C41.7188 15.9562 41.5594 15.1687 41.7562 14.4094C41.9906 13.5281 41.925 12.6187 41.5781 11.7844C41.2313 10.9406 40.6312 10.2562 39.8438 9.79685C39.1688 9.4031 38.7188 8.7281 38.6156 7.94998C38.4937 7.04998 38.0906 6.23435 37.4437 5.58748C36.7969 4.9406 35.9813 4.53748 35.0813 4.4156C34.3031 4.31248 33.6281 3.86248 33.2344 3.18748C32.775 2.39998 32.0906 1.79998 31.2469 1.4531C30.7406 1.24685 30.2062 1.13435 29.6719 1.13435C29.3156 1.13435 28.9687 1.18123 28.6219 1.2656C28.4156 1.32185 28.2 1.34998 27.975 1.34998C27.4219 1.34998 26.8781 1.16248 26.4469 0.834351C25.725 0.281226 24.8625 -0.00939941 23.9531 -0.00939941C23.0438 -0.00939941 22.1812 0.281226 21.4594 0.834351C21.0187 1.16248 20.475 1.34998 19.9219 1.34998C19.7063 1.34998 19.4906 1.32185 19.2844 1.2656C18.9375 1.17185 18.5906 1.12498 18.2344 1.12498C17.6906 1.12498 17.1562 1.2281 16.6594 1.44373C15.8156 1.7906 15.1313 2.3906 14.6719 3.1781C14.2781 3.8531 13.6031 4.3031 12.825 4.40623C11.925 4.5281 11.1094 4.93123 10.4625 5.5781C9.81562 6.22498 9.4125 7.0406 9.29062 7.9406C9.1875 8.71873 8.7375 9.39373 8.0625 9.78748C7.275 10.2469 6.675 10.9312 6.32812 11.775C5.98125 12.6187 5.91562 13.5281 6.15 14.4C6.34687 15.1594 6.1875 15.9469 5.71875 16.575C5.16562 17.2969 4.875 18.1594 4.875 19.0687C4.875 19.9781 5.16562 20.8406 5.71875 21.5625C6.1875 22.1906 6.34687 22.9781 6.15 23.7375C5.91562 24.6187 5.98125 25.5281 6.32812 26.3625C6.675 27.2062 7.275 27.8906 8.0625 28.35C8.7375 28.7437 9.1875 29.4187 9.29062 30.1969C9.4125 31.0969 9.81562 31.9125 10.4625 32.5593C11.1094 33.2062 11.925 33.6093 12.825 33.7312C13.6031 33.8344 14.2781 34.2844 14.6719 34.9594C15.1313 35.7468 15.8156 36.3469 16.6594 36.6937C16.9781 36.825 17.2969 36.9187 17.6344 36.9656V47.2875C17.6344 47.55 17.7844 47.7937 18.0187 47.9156C18.2531 48.0375 18.5438 48.0093 18.7594 47.85L23.9625 43.95L29.1656 47.85C29.2875 47.9437 29.4375 47.9906 29.5875 47.9906C29.6906 47.9906 29.8031 47.9625 29.9062 47.9156C30.1406 47.7937 30.2906 47.55 30.2906 47.2875V36.975C30.6188 36.9281 30.9469 36.8344 31.2656 36.7031C32.1094 36.3562 32.7938 35.7562 33.2531 34.9687C33.6469 34.2937 34.3219 33.8437 35.1 33.7406C36 33.6187 36.8156 33.2156 37.4625 32.5687C38.1094 31.9219 38.5125 31.1062 38.6344 30.2062C38.7375 29.4281 39.1875 28.7531 39.8625 28.3594C40.65 27.9 41.25 27.2156 41.5969 26.3718C41.9438 25.5281 42.0094 24.6187 41.775 23.7469C41.5781 22.9875 41.7375 22.2 42.2063 21.5719C42.7406 20.85 43.0312 19.9875 43.0312 19.0781ZM24.375 42.5156C24.1219 42.3281 23.7844 42.3281 23.5312 42.5156L19.0312 45.8906V36.9375C19.1156 36.9187 19.2 36.9 19.2844 36.8812C19.4906 36.825 19.7063 36.7969 19.9313 36.7969C20.4844 36.7969 21.0281 36.9844 21.4594 37.3125C22.1812 37.8656 23.0438 38.1562 23.9531 38.1562C24.8625 38.1562 25.725 37.8656 26.4469 37.3125C26.8875 36.9844 27.4312 36.7969 27.9844 36.7969C28.2 36.7969 28.4156 36.825 28.6219 36.8812C28.7062 36.9 28.7906 36.9187 28.875 36.9375V45.8906L24.375 42.5156ZM41.0719 20.7281C40.3406 21.7031 40.0875 22.9312 40.3969 24.1125C40.5469 24.6937 40.5094 25.2937 40.275 25.8469C40.05 26.4 39.6469 26.85 39.1312 27.1594C38.0812 27.7781 37.3781 28.8187 37.2188 30.0281C37.1344 30.6187 36.8719 31.1625 36.45 31.5844C36.0281 32.0062 35.4844 32.2781 34.8938 32.3531C33.6844 32.5219 32.6438 33.2156 32.025 34.2656C31.725 34.7812 31.275 35.175 30.7125 35.4094C30.375 35.55 30.0281 35.6156 29.6719 35.6156C29.4375 35.6156 29.2031 35.5875 28.9781 35.5219C28.65 35.4375 28.3125 35.3906 27.9844 35.3906C27.1313 35.3906 26.2875 35.6719 25.6031 36.1969C25.125 36.5625 24.5531 36.75 23.9531 36.75C23.3531 36.75 22.7812 36.5625 22.3031 36.1969C21.6187 35.6812 20.775 35.4 19.9219 35.4C19.5844 35.4 19.2469 35.4468 18.9188 35.5312C18.3469 35.6812 17.7375 35.6437 17.1844 35.4094C16.6313 35.1844 16.1813 34.7812 15.8719 34.2656C15.2531 33.2156 14.2125 32.5125 13.0031 32.3531C12.4125 32.2687 11.8687 32.0062 11.4469 31.5844C11.025 31.1625 10.7531 30.6187 10.6781 30.0281C10.5094 28.8187 9.81563 27.7781 8.76562 27.1594C8.25 26.8594 7.85625 26.4 7.62188 25.8469C7.39688 25.2937 7.35 24.6937 7.5 24.1125C7.80938 22.9312 7.56563 21.7031 6.825 20.7281C6.46875 20.25 6.28125 19.6781 6.28125 19.0781C6.28125 18.4781 6.46875 17.9062 6.83438 17.4281C7.56563 16.4531 7.81875 15.225 7.50937 14.0437C7.35937 13.4625 7.39688 12.8625 7.63125 12.3094C7.86563 11.7562 8.25937 11.3062 8.775 10.9969C9.825 10.3781 10.5281 9.33747 10.6875 8.1281C10.7719 7.53748 11.0344 6.99373 11.4562 6.57185C11.8781 6.14998 12.4219 5.8781 13.0125 5.8031C14.2219 5.63435 15.2625 4.9406 15.8812 3.8906C16.1812 3.37498 16.6406 2.98123 17.1937 2.74685C17.7469 2.52185 18.3562 2.47498 18.9281 2.62498C19.2562 2.70935 19.5938 2.75623 19.9219 2.75623C20.775 2.75623 21.6187 2.47498 22.3031 1.94998C22.7812 1.59373 23.3531 1.40623 23.9531 1.40623C24.5531 1.40623 25.125 1.59373 25.6031 1.95935C26.2875 2.47498 27.1313 2.75623 27.9844 2.75623C28.3219 2.75623 28.6594 2.70935 28.9875 2.62498C29.5594 2.47498 30.1688 2.51248 30.7219 2.74685C31.275 2.97185 31.725 3.37498 32.0344 3.8906C32.6531 4.9406 33.6937 5.64373 34.9031 5.8031C35.4937 5.88748 36.0375 6.14998 36.4594 6.57185C36.8812 6.99373 37.1531 7.53748 37.2281 8.1281C37.3969 9.33747 38.0906 10.3781 39.1406 10.9969C39.6562 11.2969 40.05 11.7562 40.2844 12.3094C40.5094 12.8625 40.5563 13.4625 40.4062 14.0437C40.0969 15.225 40.3406 16.4531 41.0813 17.4281C41.4469 17.9062 41.6344 18.4781 41.6344 19.0781C41.6344 19.6781 41.4375 20.25 41.0719 20.7281Z" fill="#BBA44F"/>
<path d="M36.1124 16.0969C35.4562 13.425 33.8999 11.0062 31.7343 9.28125C29.5031 7.5 26.8124 6.5625 23.9531 6.5625C21.0937 6.5625 18.4124 7.5 16.1718 9.28125C14.0062 11.0062 12.4499 13.425 11.7937 16.0969C11.7374 16.3031 11.7937 16.5281 11.9249 16.6969C12.0562 16.8656 12.2624 16.9688 12.4781 16.9688H35.4281C35.6437 16.9688 35.8499 16.8656 35.9812 16.6969C36.1124 16.5281 36.1593 16.3031 36.1124 16.0969ZM13.4156 15.5625C14.9156 11.0531 19.1249 7.96875 23.9531 7.96875C28.7812 7.96875 32.9906 11.0531 34.4906 15.5625H13.4156Z" fill="#BBA44F"/>
<path d="M21.8438 19.0781C21.8438 19.4625 21.525 19.7812 21.1406 19.7812C20.7563 19.7812 20.4375 19.4625 20.4375 19.0781C20.4375 18.6938 20.7563 18.375 21.1406 18.375C21.525 18.375 21.8438 18.6938 21.8438 19.0781Z" fill="#BBA44F"/>
<path d="M24.6562 19.0781C24.6562 19.4625 24.3375 19.7812 23.9531 19.7812C23.5688 19.7812 23.25 19.4625 23.25 19.0781C23.25 18.6938 23.5688 18.375 23.9531 18.375C24.3375 18.375 24.6562 18.6938 24.6562 19.0781Z" fill="#BBA44F"/>
<path d="M27.4688 19.0781C27.4688 19.4625 27.15 19.7812 26.7656 19.7812C26.3813 19.7812 26.0625 19.4625 26.0625 19.0781C26.0625 18.6938 26.3813 18.375 26.7656 18.375C27.15 18.375 27.4688 18.6938 27.4688 19.0781Z" fill="#BBA44F"/>
<path d="M11.9249 21.4594C11.7936 21.6281 11.7467 21.8531 11.7936 22.0594C12.4499 24.7313 14.0061 27.15 16.1717 28.875C18.403 30.6562 21.0936 31.5938 23.953 31.5938C26.8124 31.5938 29.4936 30.6562 31.7342 28.875C33.8999 27.15 35.4561 24.7313 36.1124 22.0594C36.1686 21.8531 36.1124 21.6281 35.9811 21.4594C35.8499 21.2906 35.6436 21.1875 35.428 21.1875H12.478C12.2624 21.1875 12.0561 21.2906 11.9249 21.4594ZM34.4905 22.5938C32.9905 27.1031 28.7811 30.1875 23.953 30.1875C19.1249 30.1875 14.9155 27.1031 13.4155 22.5938H34.4905Z" fill="#BBA44F"/>
<path d="M23.9531 3.75C20.4094 3.75 16.9406 4.99688 14.2125 7.25625C13.9125 7.5 13.875 7.95 14.1188 8.25C14.3625 8.55 14.8125 8.5875 15.1125 8.34375C17.5969 6.29063 20.7375 5.15625 23.9625 5.15625C31.6313 5.15625 37.875 11.4 37.875 19.0781C37.875 26.7563 31.6313 33 23.9531 33C16.275 33 10.0312 26.7563 10.0312 19.0781C10.0312 15.8625 11.1562 12.7219 13.2094 10.2375C13.4531 9.9375 13.4156 9.49687 13.1156 9.24375C12.8156 9 12.375 9.0375 12.1219 9.3375C9.87188 12.075 8.625 15.5344 8.625 19.0781C8.625 27.5344 15.4969 34.4062 23.9531 34.4062C32.4094 34.4062 39.2812 27.5344 39.2812 19.0781C39.2812 10.6219 32.4094 3.75 23.9531 3.75Z" fill="#BBA44F"/>
</g>
<defs>
<clipPath id="clip0_1_11221">
<rect width="48" height="48" fill="white"/>
</clipPath>
</defs>
</svg>
