<svg width="48" height="48" viewBox="0 0 48 48" fill="none" xmlns="http://www.w3.org/2000/svg">
<g clip-path="url(#clip0_1_11168)">
<path d="M47.4741 34.5521L43.0113 32.9256C42.5948 32.7769 42.1485 32.9851 41.9998 33.4017L41.732 34.1455L36.5551 32.2612C36.4262 32.2116 36.2874 32.2017 36.1485 32.2215L25.3783 34.1256C24.4064 34.3041 23.5634 34.919 23.1072 35.8017L18.1684 33.9967C17.375 33.7091 16.5022 33.7488 15.7485 34.1058C14.7865 34.5521 14.1022 35.4645 13.9535 36.5157C13.7551 38.043 14.6576 39.5008 16.1155 39.9967L32.37 45.9174C32.4593 45.9471 32.5485 45.9669 32.6378 45.9669C32.727 45.9669 32.8064 45.957 32.8956 45.9273L37.4378 44.3901L37.9237 44.5686L37.656 45.3124C37.5072 45.7289 37.7155 46.1752 38.132 46.324L42.6047 47.9504C42.694 47.9802 42.7832 48 42.8725 48C43.2097 48 43.5072 47.7917 43.6163 47.4744L47.9502 35.5537C48.0989 35.157 47.8808 34.7008 47.4741 34.5521ZM37.1998 42.8033L32.6576 44.3306L16.6411 38.4992C15.8973 38.2512 15.4312 37.5273 15.5006 36.7537C15.57 36.2777 15.8477 35.8612 16.2543 35.6132C16.6609 35.3653 17.1667 35.3157 17.613 35.4843L22.7502 37.3587C22.7502 37.5074 22.7601 37.6463 22.7899 37.795C23.0973 39.5107 24.7337 40.6612 26.4593 40.3636L35.3849 38.7868L35.1072 37.2298L26.1915 38.8066C25.3287 38.9554 24.5155 38.3802 24.3568 37.5273C24.327 37.3488 24.327 37.1603 24.3568 36.9818C24.3667 36.9521 24.3667 36.9322 24.3667 36.9025C24.3766 36.8331 24.3965 36.7636 24.4262 36.7041C24.6246 36.1686 25.0808 35.7818 25.646 35.6826L36.1981 33.8182L41.1766 35.6331L38.4692 43.081L37.7254 42.8132C37.5568 42.7537 37.3684 42.7438 37.1998 42.8033ZM42.3965 46.195L39.4213 45.1141L42.8725 47.4744L46.1948 35.7719L42.3965 46.195Z" fill="url(#paint0_linear_1_11168)"/>
<path d="M18.615 12.7835C18.8729 13.7157 19.339 14.5884 19.9936 15.3025C19.9836 15.362 19.9737 15.4314 19.9737 15.4909V19.805C19.9737 21.1141 21.0349 22.1851 22.3539 22.1851V30.1091C22.3539 30.4066 22.5225 30.6843 22.7902 30.8231L24.377 31.6165C24.6051 31.7256 24.863 31.7256 25.0812 31.6165L26.6679 30.8231C26.9357 30.6843 27.1043 30.4165 27.1043 30.1091V22.1851C28.4134 22.1851 29.4845 21.124 29.4845 19.805V15.4909C29.4845 15.4215 29.4745 15.3521 29.4547 15.2826C29.9803 14.6975 30.3969 14.0231 30.6745 13.2793C31.8448 13.4777 33.015 12.9422 33.6299 11.9207C34.3836 10.6711 34.1754 9.07438 33.134 8.06281L26.6878 1.61653C25.6365 0.585124 24.2283 0 22.7506 0H14.42C14.3109 0 14.2018 0.0198347 14.1126 0.0595041L8.71752 2.38017H8.08281V0.793389C8.08281 0.357025 7.72579 0 7.28942 0H0.942314C0.505951 0 0.148926 0.357025 0.148926 0.793389V13.4777C0.148926 13.9141 0.505951 14.2711 0.942314 14.2711H7.2795C7.71587 14.2711 8.07289 13.9141 8.07289 13.4777V11.8909H8.1919C8.75719 13.795 11.306 15.0645 13.6266 15.0645C15.5506 15.0942 17.3853 14.2612 18.615 12.7835ZM6.49603 12.6843H1.7357L7.00018 13.5L6.48612 1.58678V12.6843H6.49603ZM24.7241 30.0198L24.7768 29.5L23.9307 22.1851H25.5175L24.7241 30.0198ZM27.8878 19.8149C27.8878 20.2512 27.5307 20.6083 27.0944 20.6083H22.344C21.9076 20.6083 21.5506 20.2512 21.5506 19.8149V16.5818C22.0861 16.8893 22.6613 17.1174 23.2564 17.2661C23.534 17.9306 24.02 30.2083 24.734 30.1091C25.4481 30.0198 26.2117 17.5934 26.3109 16.8793C26.4101 16.1653 26.0233 15.4711 25.3588 15.1934C24.6944 14.9157 23.9208 15.1041 23.4845 15.6793C23.0382 15.5603 22.6117 15.3818 22.215 15.1339C22.9787 14.6678 23.8316 14.3802 24.7241 14.2711C25.8646 14.4298 26.9456 14.8562 27.8977 15.5008V19.8149H27.8878ZM28.4828 14.0033C27.3522 13.2793 26.063 12.8231 24.7241 12.6744C23.3853 12.8132 22.1059 13.2694 20.9655 13.9934C20.4795 13.3785 20.1621 12.6545 20.0332 11.881H23.9208C25.0812 11.8909 26.1522 11.2562 26.6878 10.2248L28.9093 12.4463C28.9985 12.5256 29.0878 12.605 29.1869 12.6744C29.0382 13.1603 28.7902 13.6066 28.4828 14.0033ZM27.0646 8.35041C26.9952 7.70579 26.7175 7.09091 26.2812 6.60496C28.0762 7.22975 29.3258 8.8562 29.4646 10.7504L27.0646 8.35041ZM17.5936 11.0975C17.5936 12.2975 15.6299 13.4777 13.6266 13.4777C11.6233 13.4777 9.65967 12.2975 9.65967 11.0975C9.65967 10.6612 9.30264 10.3041 8.86628 10.3041H8.07289V3.96694H8.86628C8.97537 3.96694 9.08446 3.94711 9.17372 3.90744L14.5787 1.58678H22.7506C23.8018 1.58678 24.8134 2.00331 25.5572 2.74711L32.0035 9.19339C32.5291 9.67934 32.6382 10.4628 32.2911 11.0777C32.0233 11.4942 31.5671 11.7521 31.0712 11.7421C31.0613 11.7421 31.0514 11.7421 31.0316 11.7421C31.0514 11.524 31.0712 11.3058 31.0712 11.0876C31.0712 7.58678 28.2349 4.75041 24.734 4.75041C23.6729 4.75041 22.6217 5.0281 21.6894 5.5438H15.2233V7.13058H23.9407C24.8134 7.13058 25.5274 7.84463 25.5274 8.71736C25.5274 9.59008 24.8134 10.3041 23.9407 10.3041H18.3969C17.9407 10.3041 17.5936 10.6612 17.5936 11.0975Z" fill="url(#paint1_linear_1_11168)"/>
</g>
<defs>
<linearGradient id="paint0_linear_1_11168" x1="54.2835" y1="36.0109" x2="6.54156" y2="45.1192" gradientUnits="userSpaceOnUse">
<stop stop-color="#A49C4C"/>
<stop offset="0.38056" stop-color="#CAA962"/>
<stop offset="0.803179" stop-color="#BF953F"/>
<stop offset="1" stop-color="#988001"/>
</linearGradient>
<linearGradient id="paint1_linear_1_11168" x1="40.3418" y1="7.62741" x2="-8.4989" y2="12.2495" gradientUnits="userSpaceOnUse">
<stop stop-color="#A49C4C"/>
<stop offset="0.38056" stop-color="#CAA962"/>
<stop offset="0.803179" stop-color="#BF953F"/>
<stop offset="1" stop-color="#988001"/>
</linearGradient>
<clipPath id="clip0_1_11168">
<rect width="48" height="48" fill="white"/>
</clipPath>
</defs>
</svg>
