<svg width="48" height="48" viewBox="0 0 48 48" fill="none" xmlns="http://www.w3.org/2000/svg">
<path d="M35.5595 31.8281H32.5032C31.6876 31.8281 31.022 32.4937 31.022 33.3094V34.6125C31.022 35.4281 31.6876 36.0938 32.5032 36.0938H35.5595C36.3751 36.0938 37.0407 35.4281 37.0407 34.6125V33.3094C37.0407 32.4844 36.3751 31.8281 35.5595 31.8281ZM35.6345 34.6031C35.6345 34.6406 35.597 34.6781 35.5595 34.6781H32.5032C32.4657 34.6781 32.4282 34.6406 32.4282 34.6031V33.3C32.4282 33.2625 32.4657 33.225 32.5032 33.225H35.5595C35.597 33.225 35.6345 33.2625 35.6345 33.3V34.6031Z" fill="#BBA44F"/>
<path d="M46.1344 40.125H44.7937V18.0094C44.7937 16.5562 43.6125 15.3656 42.15 15.3656H35.3344V12.9C35.3344 12.2531 35.0344 11.6625 34.575 11.2781C34.35 5.64373 29.6812 1.1156 24 1.1156C18.3188 1.1156 13.65 5.64373 13.425 11.2875C12.9562 11.6719 12.6656 12.2625 12.6656 12.9094V15.375H5.85C4.39688 15.375 3.20625 16.5562 3.20625 18.0187V40.125H1.86562C0.834375 40.125 0 40.9687 0 42C0 44.6906 2.19375 46.8844 4.88437 46.8844H43.1156C45.8062 46.8844 48 44.6906 48 42C48 40.9687 47.1656 40.125 46.1344 40.125ZM43.3875 18.0094V40.125H41.0437V37.0969V21.1125C41.0437 20.0156 40.1531 19.125 39.0563 19.125H37.2C36.8156 19.125 36.4969 19.4437 36.4969 19.8281C36.4969 20.2125 36.8156 20.5312 37.2 20.5312H39.0563C39.375 20.5312 39.6375 20.7937 39.6375 21.1125V31.65C38.0531 28.7906 35.2687 26.6531 31.8844 25.9969C29.4094 25.3406 29.3906 25.4062 29.0813 25.2L31.0687 24.5344C33.1688 23.8312 34.5844 21.8625 34.5844 19.6406C34.5844 17.1844 34.5844 17.5875 34.5844 17.3062C34.7625 17.1562 34.9125 16.9781 35.0344 16.7812H42.1594C42.8344 16.7719 43.3875 17.3344 43.3875 18.0094ZM35.8594 40.125V38.1281C35.8594 37.7437 35.5406 37.425 35.1562 37.425C34.7719 37.425 34.4531 37.7437 34.4531 38.1281V40.125H29.1656C29.8125 35.6531 29.7469 31.1437 28.9875 26.6906C29.1188 26.7281 31.5844 27.3562 31.5938 27.3656C36.2531 28.2656 39.6375 32.3531 39.6375 37.0969V40.125H35.8594ZM12.8438 37.425C12.4594 37.425 12.1406 37.7437 12.1406 38.1281V40.125H8.3625V37.0969C8.3625 32.3531 11.7469 28.2562 16.4062 27.3656C16.425 27.3656 18.8906 26.7375 19.0125 26.6906C18.6562 28.7531 18.45 30.8625 18.4031 32.9531C18.3938 33.3375 18.7031 33.6656 19.0875 33.675C19.0969 33.675 19.0969 33.675 19.1063 33.675C19.4906 33.675 19.8 33.375 19.8094 32.9906C19.8281 32.2219 19.8656 31.4437 19.9313 30.675C22.5281 31.7062 25.4719 31.7156 28.0781 30.675C28.3312 33.825 28.2188 36.9937 27.75 40.1344H20.25C20.0625 38.8406 19.9219 37.5281 19.8563 36.2344C19.8375 35.85 19.5 35.55 19.1156 35.5687C18.7312 35.5875 18.4312 35.925 18.45 36.3094C18.5156 37.5844 18.6469 38.8687 18.825 40.1344H13.5375V38.1375C13.5469 37.7437 13.2281 37.425 12.8438 37.425ZM33.225 12.2062C33.6094 12.2062 33.9281 12.525 33.9281 12.9094V15.6937C33.9281 16.0781 33.6094 16.3969 33.225 16.3969H31.7344C31.7437 16.2562 31.7531 16.1156 31.7531 15.975V15.9656V12.2062H33.225ZM20.4469 26.625L20.6813 25.2844C20.8125 24.5156 20.8875 23.7375 20.8875 22.95C21.8531 23.3719 22.9125 23.6062 24 23.6062C25.0875 23.6062 26.1375 23.3812 27.1125 22.95C27.1125 23.7375 27.1781 24.5156 27.3187 25.2844L27.5531 26.625C27.7031 27.4875 27.8344 28.3406 27.9375 29.2031C25.4438 30.3187 22.5656 30.3187 20.0812 29.2031C20.175 28.3406 20.2969 27.4781 20.4469 26.625ZM31.5 17.7937H33.1781V18.2812C33.1781 19.1906 32.4375 19.9219 31.5281 19.9219H30.5906C31.0031 19.2656 31.3031 18.5531 31.5 17.7937ZM27.525 21.0562H25.725C25.425 21.0562 25.1906 20.8125 25.1906 20.5219C25.1906 20.2312 25.4344 19.9875 25.725 19.9875H27.525C27.825 19.9875 28.0594 20.2312 28.0594 20.5219C28.0594 20.8125 27.8156 21.0562 27.525 21.0562ZM28.5188 23.8969V22.1812C28.7531 22.0406 29.4469 21.3656 29.475 21.3281H31.5188C32.025 21.3281 32.4938 21.2062 32.9156 20.9906C32.5219 22.0031 31.6969 22.8281 30.6094 23.1844L28.5188 23.8969ZM30.3469 15.9562C30.3281 17.2406 29.9156 18.4781 29.1844 19.5094C28.8469 18.9469 28.2281 18.5719 27.525 18.5719H25.725C24.6562 18.5719 23.7844 19.4437 23.7844 20.5125C23.7844 21.2062 24.15 21.8156 24.6937 22.1531C24.4688 22.1812 24.2344 22.1906 24 22.1906C22.3125 22.1906 20.7281 21.5344 19.5469 20.3625C18.3281 19.1625 17.6812 17.5781 17.6625 15.9469V12.1969H18.9562C22.7156 12.1969 25.65 10.8656 27.3 8.4281C27.75 9.48748 28.6406 10.9219 30.3469 11.9156V15.9562ZM16.2469 15.975C16.2469 16.1156 16.2563 16.2562 16.2656 16.3969H14.775C14.3906 16.3969 14.0719 16.0781 14.0719 15.6937V12.9094C14.0719 12.525 14.3906 12.2062 14.775 12.2062H16.2469V15.9656C16.2469 15.9656 16.2469 15.9656 16.2469 15.975ZM14.8219 17.7937H16.5C16.8469 19.1344 17.55 20.3719 18.5625 21.3656C18.8531 21.6469 19.1625 21.9094 19.4813 22.1437V23.8875L17.3812 23.1844C15.8531 22.6687 14.8219 21.2437 14.8219 19.6219V17.7937ZM19.6406 41.5312H28.35H30.2625C29.9812 42.2719 29.2594 42.7969 28.425 42.7969H19.575C18.7406 42.7969 18.0187 42.2719 17.7375 41.5312H19.6406ZM24 2.52185C28.7437 2.52185 32.6719 6.15935 33.1312 10.7906H31.2188C29.5031 9.86248 28.7344 8.41873 28.3969 7.34998C28.2656 6.93748 27.9094 6.64685 27.4781 6.60935C27.0469 6.57185 26.6344 6.78748 26.4281 7.16248C25.125 9.50623 22.4719 10.8 18.9562 10.8C17.5406 10.8 16.3313 10.8 14.8688 10.8C15.3281 6.15935 19.2563 2.52185 24 2.52185ZM4.6125 18.0094C4.6125 17.325 5.16563 16.7719 5.85 16.7719H12.975C13.0969 16.9687 13.2469 17.1469 13.425 17.2969V19.6312C13.425 21.8531 14.8406 23.8125 16.9406 24.525L18.9281 25.1906C18.5719 25.4344 17.5125 25.6219 16.125 25.9875C12.7406 26.6437 9.94688 28.7812 8.37188 31.6406V21.1125C8.37188 20.7937 8.63437 20.5312 8.95312 20.5312H10.8375C11.2219 20.5312 11.5406 20.2125 11.5406 19.8281C11.5406 19.4437 11.2219 19.125 10.8375 19.125H8.94375C7.84688 19.125 6.95625 20.0156 6.95625 21.1125V37.1062V40.125H4.6125V18.0094ZM43.1156 45.4781H4.88437C2.9625 45.4781 1.40625 43.9125 1.40625 42C1.40625 41.7469 1.6125 41.5406 1.86562 41.5406H16.2656C16.5938 43.0687 17.9438 44.2125 19.5656 44.2125H28.4156C30.0375 44.2125 31.3969 43.0687 31.7156 41.5406H46.1156C46.3687 41.5406 46.575 41.7469 46.575 42C46.5938 43.9125 45.0375 45.4781 43.1156 45.4781Z" fill="#BBA44F"/>
</svg>
